/* XPM */
static char *_098a7dd02d64e44dc77159e76bd6f46Szl9SIBweBM1VMoi[] = {
/* columns rows colors chars-per-pixel */
"80 80 26 1 ",
"  c black",
". c #110D0D",
"X c #1F1212",
"o c #290E07",
"O c #0A0A24",
"+ c #091033",
"@ c #131333",
"# c #2E2121",
"$ c #451B11",
"% c #6B3B0C",
"& c #473130",
"* c #20204F",
"= c #370C6E",
"- c #44084D",
"; c #454F54",
": c #644E4D",
"> c #A3103A",
", c #995813",
"< c #D11E50",
"1 c #D64F75",
"2 c #929620",
"3 c #C2A204",
"4 c #E3E61C",
"5 c #B9BD40",
"6 c #531D99",
"7 c #E8EB84",
/* pixels */
"................................................................................",
".........XXX...........XXXXXXXX.##.XXXX.:::::::::::::::::::::::::::::::::::::::.",
"....XXXXXXXXX..XXXXXXXXXXXXXXXX.##.XXXX.:::::::::::::::::::::::&:::::::::::::::.",
"..XXXXXXXXXXXXXXXXXXXXXXXXXXXX#.#.#XXXX.:::::::::::::::::::::::::::::::::::::::.",
"..XXXXXXXXXXXXXXXXXXXXXXXXXXX##.XXXXXXX.:::::::: :::::::&:::::::::::::&:::::::&.",
".XXXXXXXXXXXXXXXXXXXXXXXXXXXX#..XXXXXXX.::::::::  :::::::::::::::::::::::::::::.",
".XXXXXXXXXXXXXXXXXXXXXXXXXXXX#.XXXXXXXX.:&::::::  ::::::::::::::&::::::::::::::.",
".XXXXXXXXXXXXXXXXXXXXXXXXXXXX#..XXXXXX&.:::::::::  ::::::::::::::::::::::::::::.",
".XXXXXXXXXXXXXXXXXXXXXXXXXXXXX#..XXXXXX.:::::::::  :::::::::::::::::::::::::::&.",
".XXXXXXXXXXXXXXXXXXXXXXXXXXXXXX#    XXX.:::::::::    ::::::::::::::::::::::::::.",
".XXXXXXXXXXXXXXXXXXXXXXXXXXX     @@    .:::::::&:: % ::::::::::::::::::::::::::.",
".XXXXXXXXXXXXXXXXXXXXXXXXX   @@@@@@@@@    :::::::: % ::::::::::::::::::::::::::.",
".XXXXXXXXXXXXXXXXXXXXXXX   @@@@@@@@@@@@@  :::::::: ,% :::::::::::::::::::::::::.",
".XXXXXXXXXXXXXXXXXXXXXX  @@@@@@@@O@@OO@@@    :::::  % ::::::::::::::::::::::&::.",
".XXXXXXXXXXXXXXXXXXXXXX @@@@@@@@OOOO@OO@@O@@   :::: ,  ::::::::::::::::::::::::.",
".XXXXXXXXXXXXXXXXXXXXX  @@@@@@@@OO@@OOOO@@O@@@  :::  % ::::::::::&:::::::::::::.",
".XX#XXXXXXXXXXXXXXXXX  @@@@@   @OOOOOOO@O@O@@@@ :::: % ::::::::::::::&:::::::::.",
".##XXXXXXXXXXXXXXXXXX @@@@@@ X @@O@@OOOO@OOO@@@ :::: % ::::::::::::::::::::::::.",
".XXXXXXXXXXXXXXXXXXXX @@@@@  X   @@@@@OOOOO@@@@   :: % :::::::::::&:::::::####:.",
".XXXXXXXXXXXXXXXXXXX  @@@   XXXX @@@@@OOO@OO@@@@@ :: ,  ::::&::::::::::::##::##.",
".XXXXXXXXXXXXXXXXXXX @@   XXXX  @@@@@@@@O@@@@@@@@ :: ,% :&::#::::::::::::#:::::.",
".XXXXXXXXXXXXXXXXXXX    XXXXX  @@@@@@@@@@@@@@@@@@   # % :::##:&:::::::::::&::::.",
".XXXXXXXXXXXXXXXXXXXXXXXXXX  =@@@*@@@*@*@@@@@ @@@@@   %  ::#::::::::&::::::::::.",
".XXXXXXXXXXXXXXXXXXXXXXXXXX ==@@@*@@@@*@@@@@@ @@@@@@  %% ::#::::::::::#::::::::.",
".XXXXXXXXXXXXXXXXXXXXXXXXXX =@***@@*@@@@@@@  @   @@@ : % ##::::::::####&:::::::.",
".XXXXXXXXXXXXXXXXXXXXXXXXXX =@*@@@@@@***@*@@@@@@@@@@ : % :::::::::::::&:::::::&.",
".XXXXXXXXXXXXXXXXXXXX      ==@@*@**@@@@@*@@@@@@@@@@@        :::::::::&:::::::::.",
".XXXXXXXX            @@@@  ==@@*@@@@******@@@@@@@@@@  @@@@@            ::::::::.",
".        @@@@@@@@@@@@@@@@  ==@@@@@@@@@@@*@@@@@@@@@@@  @@@@@OOOO@@@@@@@@        .",
". @@@@@*@@@@*@@@@@@O@@@@@ o =@@**@***@@@*@@@@@@@@@@ o @@@@@OOOOO@@@@@@@@@@@@@@ .",
". @@@@*@**@*@@@@OOOOO@@@@ o ==@@@@**@*@*@@@@@@@@@@@ o @@@@OOO@OOO@@OO@@@@O@@@@ .",
". @@@*@*@@@@@**@OOOOOO@@@ $o =@@**@*@*@*@@@@@@@@@@ oo @@@@OOOOOOOOO@O@@O@O@@@@ .",
". @@@@@@@*@**@@*@@OO@@@@@@ o ===@**@@@@@@@@@@@@@@@ o @@@O@@O@@O@@OOOOOOOO@O@@  .",
".X @@*@@*@@*@**@O@OOOO@@@@ o  ==@@@@@@@@@@@@@@@@@  o @@OOOO@@@@@OOOOOOOOOO@@@ #.",
".X =*@*@*@*@***@@OOOO@O@@@ $oo =@@@@@@@@@@@@@@@@ ooo @@OOOOO@@OO@OOOOOOOOOO@  :.",
".XX =***@*@@*@**@O@O@O@O@@ $oo ==@@@@@@@@@@@@@@@ ooo @@@OOOO@OOO@O@OO@O@OO@@ ::.",
".XX =@@@**@@@@*@@@OO@@@@O@ $oo  ======@@@@@@@@@  ooo @@@@OOOO@O@OOOOOO@OO@@  ::.",
".XXX ****@@*@@@@@@@OOOOO@@ $oooo               ooooo @@O@@OOO@O@O@OOOO@@@@@ :::.",
".XXX =@*@*@**@@@@@@@O@OO@@ $$ooooooo o oo  ooooooooo @@@@@@@OOO@OOO@OOOO@@  :::.",
"..... =*@@@@*@@@@@@@@O@@@@@ $$$ooooo2o2ooo2oooooooo @@@@@@@@O@O@OOO@OOOO@@ .....",
".:::: ==@@@@@@@@@@@@@@@@@@@@  $$$ooo5o55222oooooo  @@@@@@@@@OOOO@OOOOOO@@  XXXX.",
".::::: =@@@@@@@@@@@@@@@@@@@**@  $$$$5o5ooo2ooo   @@@@@@@@OOOOOOOOOOO@O@@@ XXXX&.",
".::::: ==@@@@@@@@@@@@@@@@*@@**@*     $ oo      @@@@@@@@@@@O@OO@O@OOOO@@@  XXXXX.",
".:::::: ==@@@@@@@@@@@@@@****@@@@@@@@@     @@@@@@@@@@@@@O@@O@OOOO@O@@@@@@ XXXXXX.",
".::::::  ===@@@@@@@@@@@@@@@@@**@@**@@@@@@@@@@@@@@@@@@O@OO@@O@OOOOOOO@@@  XXXXXX.",
".::::::::   =@@@@@@@@@@@@@@@@*@@@@**@@@@@@@@@@@@@@@@OO@@O@@O@O@OO@OO   XXXXXXXX.",
".::::::::::: ==@@@@@@@@@@@@*@*@@**@@@@@@@@@@@@@@@@@@@@OOOOOO@@@@@@@ XXXXXXXXXXX.",
".:::::::::::   ==@@@@@@@@@*@**@@@**@@@@@@@@@@@@@@@@@OO@OO@OO@@@@@   XXXXXXXXXXX.",
".:::::::::::::: ==@@@@@@**@@*@*@@@@@@@@@@@@@@@@@@@@@@OOOOO@@@@@@ XXXXXXXX&XXXXX.",
".:::&::::::::::  =@@@@@@@*@@@@@**@*@@@@@@@@@@@@@@@@@@@@OOOO@O@@  XXXXXXXXXXXXXX.",
".::::::::::::::: ==@@@@@@@**@@@*@@@@@@@@@@@@@@@@@@@@@@@OO@@@@@ % XX&XXXXXXXXXXX.",
".:::::::::::::::: ==@@@@@@*@*@@@*@@@@@@@@@@@@@@@@@@@@@@@@O@@@@ % XXXXXXXXXXXXXX.",
".::::::::::::::::  ======@@@@@@@@@@@@@@@@@@@@@@@@@@@@@@@@@@@@ ,% XXXXXXXXXXXXXX.",
".::::::::::::::::       ===@@@@@@@@@@@@@@@@@@@@@@@@@@@@@       ,% XXXXXXXXXXXXX.",
".:::::::::::::::: @@@@@@ ======@@@@@@@@@@@@@@@@@@@@@@@@ XXXXXX ,,% XXXXXXXXXXXX.",
".::::::::::::::><<<<@@@@       =@@@@@@@@@@@@@@@@@       XXXXXX ,,% XXXXXXXXXXXX.",
".:::::::&::::>>><<<<<<@@@@  ::# ================ XXXXXXXXXXX&X ,,%  XXXXXXXXXXX.",
".::::::::::&>><<<<<<<<<@@@ ::#:                  XXXXXXXXXXXXX  ,,% XXXXXXXXXXX.",
".:::::::::   <<<<<<<<<<<   ::#:::::::::.XXXXXXXXXXXXXXXXXXXX&XX ,,% XXXXXXXXXXX.",
".::::::::  @6 <<<<<<<<<<<::::#:::::::::.XXXXXXXXXXXXXXXXXXXXXXX ,,% XXXXXXXXXXX.",
".::::::::     <<<<<<<111<::::##::::::::.XXXXXXXXXXXXXXXXXXXXXXX ,,,% XXXXXXXXXX.",
".::::::::>>><<<<<<<<<<11<<::::#::::::::.XX&XXXXXXXXXXXXXXXXXXXX  ,,, XXXXXXXXXX.",
".::::::::>>>><<<<<<<<<<11<::::##:::::::.XXXXXXXXXXXXXXXXXXXXXXXX ,,, XXXXXXXXXX.",
".::::::::>>>><<<<<<<<<<11<:::::#:::::::.XXXXXXXXXXXXXXXXXXXXXXXX ,,, XXXXXXXXXX.",
".::::::::>>>><<<<<<<<<<11<:::::#:::::::.XXXXXXXXXXXXXXXXXXXXXXXX  ,,,  XXXXXXXX.",
".::::::::    <<<<<<<<<11<<::::##:::::::.XXXXXXXXXXXXXXXXXXXXXXXX  ,;,, XXXXXXXX.",
".:::::::: @6 ><<<<<<<<1<<::###:::::::::.XXXXXXXXXXXXXXXXXXXXXXXX +;-;;  XXXXXXX.",
".::::::::      <<<<<<<1<<###:::::::::::.XXXXXXXXXXXXXXXXXXXXXXX& +3333  XXXXXXX.",
".::::::::& @@6 <<<<<<<<<:##::::::::::::.XXXXXXXXXXXXXXXXXXXXXXXX  34444 XXXXX&X.",
".:::::::::        <<<<<:::##::::&::::::.XXXXXXXXXXXXXXXXXXXXXXXX  47774 XXXXXXX.",
".:::::::::::   @6   <<&::::#:::::::::::.XXXXXXXXXXXXXXXXXXXXXXXXX 4777  XXXXXXX.",
".::&::::::::::    6 :::::::#:::::::::::.XXXXXXXXXXXXXXXXXXXXXXXXX     XXXXXXXXX.",
".:::::::::::::      :::::::.##:::::::::.XXXXXXXXXXXXXXXXXXXXXXXXXXXXXXXXXXXXXX..",
".::::::::::::::::::::::::::.###::::::::.XXXXXXXXXXXXXXXXXXXXXXXXXXXXXXXXXXXXXX..",
".::::::::::::::::::::::::::#.##::::::::.XXXXXXXXXXXXXXXXXXXXXXXXXXXXXXXXXXXXX...",
".:::::::::::::::::::::::::::..##:::::::.XXXXXXXXXXXXXXXXXXXXXXXXXXXXXXXXXXXXX...",
".::::::::::::::::::::::::::::..###:::::.XXXXXXXXXXXXXXXXXXXXXXXXXXXXXXXXXXXX....",
".:::&:::&:::...:::::::::::::::.####::::.XXXXXXXXXXXXXXXXXXXXXXXXXXXXXXXXXXXX....",
".::::::::::........::::........####::::.XXXXXXXXXXXXXXXXXXXXXXXXXXXXXXXXXX......",
"................................................................................"
};
