/* XPM */
static char *e2e22f5617254be9dace1ff705f1f1c3C4zNyXh7PDSRpksA[] = {
/* columns rows colors chars-per-pixel */
"160 80 3 1 ",
"  c black",
". c #998200",
"X c #F0D239",
/* pixels */
"                                                                                                                                                                ",
"                                                                                                                                                                ",
"    ........................................................................................................................................................    ",
"    ........................................................................................................................................................    ",
"  ......................                                                                                                               .......................  ",
"  ............................................................................................................................................................  ",
"  ............................................................................................................................................................  ",
"  ............................................................................................................................................................  ",
"  ............................................................................................................................................................  ",
"  ........  .........................................................................................................................................  .......  ",
"  ........  .........................................................................................................................................  .......  ",
"  ............................................................................................................................................................  ",
"  ............................................................................................................................................................  ",
"  ............................................................................................................................................................  ",
"  ............................................................................................................................................................  ",
"  ............................................................................................................................................................  ",
"  ...............XXXXXXXXXXXXXXXXXXXXXXXXXXXXXXXXXXXXXXXXXXXXXXXXXXXXXXXXXXXXXXXXXXXXXXXXXXXXXXXXXXXXXXXXXXXXXXXXXXXXXXXXXXXXXXXXXXXXXXXXXXXX.................  ",
"  ...............XXXXXXXXXXXXXXXXXXXXXXXXXXXXXXXXXXXXXXXXXXXXXXXXXXXXXXXXXXXXXXXXXXXXXXXXXXXXXXXXXXXXXXXXXXXXXXXXXXXXXXXXXXXXXXXXXXXXXXXXXXXX.................  ",
"  ...............XX                                                                                                                        XX.................  ",
"  ...............XX                                                                                                                        XX.................  ",
"  ...............XX                                                                                                                        XX.................  ",
"  ...............XX                                                                                                                        XX.................  ",
"  ...............XX    ..                                                                                                           ..     XX.................  ",
"  ...............XX    ..                                                                                                           ..     XX.................  ",
"  ...............XX                                                                                                                        XX.................  ",
"  ...............XX                                                                                                                        XX.................  ",
"  ...............XX                                                                                                                        XX.................  ",
"  ...............XX                                                                                                                        XX.................  ",
"  ...............XX                                                                                                                        XX.................  ",
"  ...............XX                                                                                                                        XX.................  ",
"  ...............XX                                                                                                                        XX.................  ",
"  ...............XX                                                                                                                        XX.................  ",
"  ...............XX                                                                                                                        XX.................  ",
"  ...............XX                                                                                                                        XX.................  ",
"  ...............XX                                                                                                                        XX.................  ",
"  ...............XX                                                                                                                        XX.................  ",
"  ...............XX                                                                                                                        XX.................  ",
"  ...............XX                                                                                                                        XX.................  ",
"  ...............XX                                                                                                                        XX.................  ",
"  ...............XX                                                                                                                        XX.................  ",
"  ...............XX                                                                                                                        XX.................  ",
"  ...............XX                                                                                                                        XX.................  ",
"  ...............XX                                                                                                                        XX.................  ",
"  ...............XX                                                                                                                        XX.................  ",
"  ...............XX                                                                                                                        XX.................  ",
"  ...............XX                                                                                                                        XX.................  ",
"  ...............XX                                                                                                                        XX.................  ",
"  ...............XX                                                                                                                        XX.................  ",
"  ...............XX                                                                                                                        XX.................  ",
"  ...............XX                                                                                                                        XX.................  ",
"  ...............XX                                                                                                                        XX.................  ",
"  ...............XX                                                                                                                        XX.................  ",
"  ...............XX                                                                                                                        XX.................  ",
"  ...............XX                                                                                                                        XX.................  ",
"  ...............XX                                                                                                                        XX.................  ",
"  ...............XX                                                                                                                        XX.................  ",
"  ...............XX    ..                                                                                                                  XX.................  ",
"  ...............XX    ..                                                                                                            ..    XX.................  ",
"  ...............XX                                                                                                                  ..    XX.................  ",
"  ...............XX                                                                                                                        XX.................  ",
"  ...............XX                                                                                                                        XX.................  ",
"  ...............XX                                                                                                                        XX.................  ",
"  ...............XXXXXXXXXXXXXXXXXXXXXXXXXXXXXXXXXXXXXXXXXXXXXXXXXXXXXXXXXXXXXXXXXXXXXXXXXXXXXXXXXXXXXXXXXXXXXXXXXXXXXXXXXXXXXXXXXXXXXXXXXXXX.................  ",
"  ...............XXXXXXXXXXXXXXXXXXXXXXXXXXXXXXXXXXXXXXXXXXXXXXXXXXXXXXXXXXXXXXXXXXXXXXXXXXXXXXXXXXXXXXXXXXXXXXXXXXXXXXXXXXXXXXXXXXXXXXXXXXXX.................  ",
"  ............................................................................................................................................................  ",
"  ............................................................................................................................................................  ",
"  ............................................................................................................................................................  ",
"  ............................................................................................................................................................  ",
"  ............................................................................................................................................................  ",
"  .......  .........................................................................................................................................  ........  ",
"  .......  .........................................................................................................................................  ........  ",
"  ............................................................................................................................................................  ",
"  ............................................................................................................................................................  ",
"  ............................................................................................................................................................  ",
"  ............................................................................................................................................................  ",
"  .......................                                                                                                               ......................  ",
"    ........................................................................................................................................................    ",
"    ........................................................................................................................................................    ",
"                                                                                                                                                                ",
"                                                                                                                                                                "
};
