/* XPM */
static char *def05c2dc7454380a63170fa3b0b3f4cZqXyKny3H5sib858[] = {
/* columns rows colors chars-per-pixel */
"80 80 17 1 ",
"  c #110D0D",
". c #1F1212",
"X c #0D123F",
"o c #121332",
"O c #171838",
"+ c #2E2121",
"@ c #473130",
"# c #0B1243",
"$ c #0C1243",
"% c #0F1440",
"& c #0A1344",
"* c #0C1344",
"= c #0C1345",
"- c #151A46",
"; c #2A2847",
": c #644E4D",
"> c #3B49A8",
/* pixels */
"                                                                                ",
"         ...           ........ ++ .... ::::::::::::::::::::::::::::::::::::::: ",
"    .........  ................ ++ .... :::::::::::::::::::::::@::::::::::::::: ",
"  ............................+ + +.... ::::::::::::::::::::::::::::::::::::::: ",
"  ...........................++ ....... ::::::::::::::::@:::::::::::::@:::::::@ ",
" ............................+  ......#>>>>::::::---::::::::::::::::::::::::::: ",
" .......................XXXXXO ......** :@>>:::::-----::::::::::@:::::::::::::: ",
" ......................XXXX..+  .....*@ :::>::::::::-*--::::::::::::::::::::::: ",
" .....................%#......+  ....*= ::>>:::::::::--*;:::::::::::::::::::::@ ",
" .....................**.......+ .....=>>>>::::::::::::-;:::::::::::::::::::::: ",
" ..............................+ .....**>::::::@::::::::::::::::::::::::::::::: ",
" ..............................   .....*>:::::::::::::::::::::::::::::::::::::: ",
" ..............................   .....*>>:::::::::::::::::::==>::::::::::::::: ",
" ..............................+  .....*>>>:::::::@:::::::::=:::>:::::::::::@:: ",
" ..............>>..........+..++  .....*>:::::::::::::::::::=::::>::::::::::::: ",
" .............>.............++++  ...@.*>>>::::::::::::::::==>:::>::::::::::::: ",
" ..+.........>...>>..........+++  ..... :::::::::::::::::::=>>>>:::::@::::::::: ",
" ++..........*...>.............++ ..... ::::::::::::::::::=>>::>::::::::::::::: ",
" ............*..>>...............   ... :::::::@:::::::::=>>>:::::@:::::::++++: ",
" .............***>>>.>............+ ... :::::::@:::::::::>>>@:::::::-::::++::++ ",
" ...........o...**>>>..............++++    @  :::::::::::@::>:::::::--:::+::::: ",
" ..........X#.....*>>.................+++::::  :::::+++::::++:@::::::*-:::@:::: ",
" ..........#X......*>.................++:::::+ +++++::++:::+::::::::@-*:::::::: ",
" .........o#........................... ::::::@::::::::++::+::::::::::*-::::::: ",
" .........&............................ ::::::+:::::::::+++::::::::+++%*::::::: ",
" ........#&............................ ::::::++::::::::::::::::::::::@*-:::::@ ",
" ........#............................. :::::::+++:::::::::::::::::::@:-*:::::: ",
" ........X............................. :::::::::::@::::::::::::::::::::*-::::: ",
" +..@.................................. :::::@:::+:::@::::::::::::::::::-*::::: ",
" @+.....#.X............................ ::::::::@::::::::::::@:::::::::::*::::: ",
" .++....X.............................. :::::::@+::::::@:@::::::@::@:::::;::::: ",
" ...................................... :::::::+:::::::::::::::::@::::::::::::: ",
" ...................................... ::::::::@::::::::::::::::::::::::::::+: ",
" .........@.......@.................... :::::::::::::::::::::::::::::::::::::++ ",
" ......>..>............................ :::::::::::@::::::::::::::::::::::::::: ",
" ........>>............................  :::::@+::::::::::::::::::::::::::>:::: ",
" .....>...>...>........................   :::::+::::::::+++:::::::::::>:::::::: ",
" .....>..>>>>>>.............@.......@..  @ :::++::::::::::+::::::::>:>>::>>>>:: ",
" ........===>>>........................     :++:::::::::::++::@::::>:::>>>>>*:: ",
"      @===== ==                              +     @               >   >>**     ",
" :::::::::::::::::::::::::::::::::::    ......@............+..++.......*$...... ",
" ::::::-::@:::::::::::::::::::::::::::  ..................++....+...**.*......@ ",
" ::::::*:::::::::::::::@::::::::::::::  ..................+......+............. ",
" ::::::*::::::::::::::::::@:::::::::::: ...........@..@..........+............. ",
" ::::::-::::::::::::::::::::::::::::::: .........................+++........... ",
" :::::::::::::::::::::::::@:::::::::::: ........@..@.....................XX.... ",
" ::::::::-::::::::::::::::::::::::::::: .................................X#.... ",
" ::::::::*::::::::::::::::::::::::::::: ..................................#.... ",
" ::::::::*::::::::::::::::::::::::::::: .................................@*.... ",
" :::@::::*::::::::::::::::::::::::::::: ..................................*.... ",
" ::::::::*::::::::::::::::::::::::::::: ...+.......................@......&.... ",
" ::::::::*::::::::::::::::::::::::::::: .+++.............................$*.... ",
" ::::::::*-:::::::::::::::::::++++++++   +..............................X$X.... ",
" ::::::::-*-::::::::::::::::::+:::::::: ................................$X..... ",
" :::::::::-*::::::::::::::::::+:::@:::: ...............................oX...... ",
" :::::::::::;::::::::::::::::@+:::::::: ...............................o....... ",
" :::::::@::-;:@:::>:::::::::::+:::::::: ....................@..>>..@........... ",
" ::::::::::@:::::::>>>:::::::+::::::::: ......................>................ ",
" :::::::::::::::::>>>=:::::::+::::::::: ....................@>.@.>>............ ",
" ::::::::::::::>::>>=@:::::::+::::::::: .....................=..@>............. ",
" ::::::::::::::>>>>=:::::::::++:::::::: .....................=..>>............. ",
" ::::::::::::>:::>==::::::::::+:::::::: ..@...................==*>>>.>......... ",
" ::::::::::::>::::=:::::::::::++::::::: ........................**>>>.......... ",
" :::::::::::::>:::=::::::::::::+::::::: ..........................*>>.......... ",
" ::::::::::::::>==:::::::::::::+::::::: ...........................*>.......... ",
" :::::::::::::::::::::::::::::++::::::: ....................................... ",
" ::::::::::@:::::::::::::::+++::::::::: ...........................@........... ",
" ::::::::::::::::::--::+++++:::::::::::>.................Xo....@............... ",
" ::::::::@:::::::::+++++:++:::::::::::>>*...............X$o..................@. ",
" :::::::::::::::::++:*-:::++::::@:::::>>*............$XX$X..................... ",
" :::::::::::::::::::::*-:::+::::::::::>>*......$...XX$XXX...................... ",
" ::@::::::::::::::::::-----%:::::::::::>**......XXXXXX......................... ",
" :::::::::::::::::::::::---**%::::::::>>*......$XX............................  ",
" :::::::::::::::::::::::::: +++::::::>>>.*....................................  ",
" ::::::::::::::::::::::::::+ ++:::::::: .....................................   ",
" :::::::::::::::::::::::::::  ++::::::: .....................................   ",
" ::::::::::::::::::::::::::::  +++::::>>....................................    ",
" :::@:::@:::   ::::::::::::::: ++++:::: ....................................    ",
" ::::::::::        ::::        ++++:::: ..................................      ",
"                                                                                "
};
