/* XPM */
static char *result[] = {
/* columns rows colors chars-per-pixel */
"80 80 235 2 ",
"   c #0E0B0B",
".  c #140D0D",
"X  c #180F0E",
"o  c #1A100F",
"O  c #170C15",
"+  c #190E12",
"@  c #1C1110",
"#  c #1F1019",
"$  c #220F1F",
"%  c #201817",
"&  c #21111B",
"*  c #241B1A",
"=  c #291E1D",
"-  c #270E26",
";  c #2A1426",
":  c #2D152A",
">  c #34192D",
",  c #2F1135",
"<  c #381339",
"1  c #342423",
"2  c #392628",
"3  c #3D2B29",
"4  c #3E3637",
"5  c #450D1D",
"6  c #490E1F",
"7  c #450E24",
"8  c #4D0E21",
"9  c #520E23",
"0  c #541024",
"q  c #5B1428",
"w  c #43193E",
"e  c #701330",
"r  c #43232C",
"t  c #422F2D",
"y  c #44302E",
"u  c #492730",
"i  c #492733",
"p  c #502B35",
"a  c #443635",
"s  c #473837",
"d  c #483937",
"f  c #46343A",
"g  c #49343D",
"h  c #423B3C",
"j  c #4C3C3A",
"k  c #513038",
"l  c #503F3D",
"z  c #63293A",
"x  c #6D2D3E",
"c  c #51403F",
"v  c #3E1643",
"b  c #431B44",
"n  c #48194A",
"m  c #511D4C",
"M  c #57185A",
"N  c #651E56",
"B  c #4B2548",
"V  c #512F49",
"C  c #4D3244",
"Z  c #513446",
"A  c #5D3C46",
"S  c #54354A",
"D  c #582C56",
"F  c #5E305B",
"G  c #712F41",
"H  c #643447",
"J  c #7A3346",
"K  c #7B3346",
"L  c #67215C",
"P  c #63375B",
"I  c #64345B",
"U  c #5C1F63",
"Y  c #6B1C6B",
"T  c #761B75",
"R  c #5F2862",
"E  c #622365",
"W  c #622569",
"Q  c #6C296A",
"!  c #683663",
"~  c #7C356A",
"^  c #6F2872",
"/  c #782974",
"(  c #733175",
")  c #7C3977",
"_  c #4C4445",
"`  c #4E494A",
"'  c #554341",
"]  c #594645",
"[  c #5C4847",
"{  c #554B4C",
"}  c #5E4A48",
"|  c #5E5353",
" . c #65424A",
".. c #6A454D",
"X. c #604C4A",
"o. c #6E4750",
"O. c #734B54",
"+. c #794F58",
"@. c #72565B",
"#. c #7B486A",
"$. c #6F6161",
"%. c #766969",
"&. c #882F49",
"*. c #84374B",
"=. c #A91F76",
"-. c #842C6E",
";. c #882678",
":. c #972979",
">. c #823875",
",. c #99317D",
"<. c #AF227A",
"1. c #DF024C",
"2. c #DB0455",
"3. c #DD0957",
"4. c #DA0559",
"5. c #DE095A",
"6. c #E30044",
"7. c #E2034C",
"8. c #E10552",
"9. c #E10857",
"0. c #E10B5C",
"q. c #CF096E",
"w. c #D40765",
"e. c #D40A66",
"r. c #D90D67",
"t. c #D30969",
"y. c #D71166",
"u. c #D4156D",
"i. c #DA116B",
"p. c #CD0A73",
"a. c #C70D7E",
"s. c #CA0C7B",
"d. c #D20D73",
"f. c #C81A76",
"g. c #CB137C",
"h. c #D41274",
"j. c #DD1474",
"k. c #D4117A",
"l. c #DA167B",
"z. c #E00D61",
"x. c #FF1564",
"c. c #FC1669",
"v. c #FD186C",
"b. c #E11572",
"n. c #E9177D",
"m. c #E91B7B",
"M. c #EA1C7D",
"N. c #F31673",
"B. c #F51B74",
"V. c #F91B75",
"C. c #F81E7A",
"Z. c #ED227F",
"A. c #8B5B67",
"S. c #8A447B",
"D. c #7E2D84",
"F. c #861C87",
"G. c #9A1E85",
"H. c #A01E89",
"J. c #B61D87",
"K. c #BE1193",
"L. c #BC139B",
"P. c #BC1E99",
"I. c #872A87",
"U. c #972889",
"Y. c #88338C",
"T. c #993588",
"R. c #882D95",
"E. c #9A2A97",
"W. c #9C2B9B",
"Q. c #8B3391",
"!. c #9B3599",
"~. c #A82889",
"^. c #B82788",
"/. c #A43587",
"(. c #B3358E",
"). c #A82995",
"_. c #B52999",
"`. c #A3399A",
"'. c #B73597",
"]. c #B614A4",
"[. c #BA15A1",
"{. c #BF18A5",
"}. c #B416AA",
"|. c #BB1AAB",
" X c #AF18B2",
".X c #B41AB3",
"XX c #BC1CB1",
"oX c #9A39A2",
"OX c #B428A7",
"+X c #B02FAD",
"@X c #A935A9",
"#X c #B739A8",
"$X c #BA24B5",
"%X c #C50D83",
"&X c #CB0F80",
"*X c #C20F8B",
"=X c #CB1784",
"-X c #C2118E",
";X c #D61A86",
":X c #DC198B",
">X c #C11292",
",X c #C71A96",
"<X c #C1169A",
"1X c #CB1A9C",
"2X c #D51A93",
"3X c #DE1D91",
"4X c #D21C9B",
"5X c #E41985",
"6X c #E51C8B",
"7X c #D82788",
"8X c #DD218D",
"9X c #C2308C",
"0X c #C72C92",
"qX c #C72898",
"wX c #D72296",
"eX c #EA2484",
"rX c #E8228C",
"tX c #F12284",
"yX c #F52489",
"uX c #E82796",
"iX c #E62998",
"pX c #EA2A9A",
"aX c #C119A6",
"sX c #C51BA5",
"dX c #C91CA4",
"fX c #C828A9",
"gX c #D825A5",
"hX c #D32EA5",
"jX c #C735A3",
"kX c #D535A9",
"lX c #D22DB2",
"zX c #C537B4",
"xX c #E52CA4",
"cX c #EF2EA2",
"vX c #AA449C",
/* pixels */
".   .   .     .     . .   .       .   .                 . .                           .       u         .     .         0     .   k       .   .       . . .     ",
"  .     .   `   . @ q @     .   . .   8     8 @ ` + o X o X X   = q   o o o .   c c c c c c ' c ' +.' ' ' ' ' ' ] ] ] ] ] [ [ [ [ [ } [ } } } } X.X.X.| X.X.X.. ",
"  . .   @ % @ q @ @ @ @ @     @ @ o @ @ o o ' @ o o o o X X X   * =   @ X X @   c J c c c c c c c ' ' c ' ' ' ' ' ] ] ] ] ] ] 3 [ [ [ } } } } } X.X.*.X.X.X.} . ",
". . @ # % @ @ @ @ @ @ @ @ @ @ @ @ o @ @ X o @ @ o X _ o X X *   * h * . X X u   l l l c c c c c c c c K ' ' ' ' ' ' ] ' ] ] [ [ ] [ [ [ } } } [ X.X.X.X.X.X.X.  ",
"    | @ @ @ @ @ @ @ o @ @ @ q @ @ @ o o o o X X o o X X X * %   . o . . X X X   x c o.l j c c c c c c c c c ' c 3 ' ' ' ] ] ] ] [ ] [ [ X.%.3 } } X.} X.X.X.y . ",
". @ @ % @ @ @ @ @ @ @ @ @ @ @ @ @ @ X o o o X X X X X X X * 5   o o . c X X .   j j j j j j j j j j l c l c c c c c ' %.' K ' ] ] ] ] [ } } } } } } X.} X.X.X.  ",
"  @ @ @ @ | @ @ @ @ o @ @ @ @ o o o o o o X X X X X X X X *   . . . o . . . 5   j 1 j j j j j ..j j j j j c c c c K c ' ' ' ' ] 3 ] ] ] [ [ [ [ } X.} } } X.X.  ",
"  # @ @ @ @ @ @ @ @ @ @ @ @ o o o o o o X X X X X 6 X X X *     . o 6 . . . q   s s s s s s s s x j G j j j j c l c c c _ ' ' ' ] K ] ] ] [ [ [ } *.} } } } X.. ",
". @ % @ @ @ o o @ @ @ @ @ o o o @ X X X X X 9 X o . o o o . @     . . X . . .   i a s a a s s s s s a a j j j j l l l c c c ' ' ' ' ' ] ] ] [ [ [ } [ } } } y   ",
". @ o o @ @ o q @ @ o @ o o o o X . X X X X X . . o . . . . o # 2 . . . X O 9 O g f A a a a a s s s s &.s j j j j j j l c c c c ' ' ' ] ] ] ] ] [ ] } } } X.X.0 ",
". o @ % @ @ @ q @ @ o o o o o o X j X X X . X X X . . . . . . #   f X + $ < b b I D Z g a a A ; a s s s s d d j j j j l l c c c c ' ' ' ' ] ] [ ] [ [ } [ *.}   ",
". o @ @ @ @ @ o o @ o o o o o o X X X X X X X 5 X . . . . . O     O - < M T F.U.E.I.^ D C f A a a a a a a s s f s x j j $.j c c c c ' ' ' ] ] ' ] [ [ [ } X.X.. ",
"  @ @ @ o @ @ @ o o o o o o 8 o X X . X X X X . . . . . . O # $ , v M T H.J.qXfXqX,X~.I.Q L G f A a y a a a a a s d s j s j J j c c c c ' ' ' *.] [ [ [ [ [ X.  ",
"  o o @ @ @ o @ @ o o o . o 6 o X s X . . . . 5 4 . . X 7 : < E T F.G.J.s.d.:XwX;Xu.g.^.~.U.( P Z f > a y a a a s s s s j j j j c ..c c ' ' ' [ ' ] ] [ t [ [   ",
". o @ @ @ o @ o o o o o o o o o X . . X . . . . . X % > b N ;.~.]._.k.e.5.9.b.uXb.9.9.i.f.^._.,.-.! F Z A y a a z s s s s j j j c c c c ' ' ' ' ' [ ] ] [ [ [ . ",
". % o @ @ o @ o o o . o . . o . X . X . . X . & & ; w N ;.~.^.=Xl.i.5.7.7.7.b.rXb.7.7.7.4.i.u.f.<.,.,.~ I #.g s a a s s s s d j c 2 c c c c ' %.' ' ' [ ] [ [   ",
"  o @ = @ @ o o X X X 9 X X . X . a . . + & ; w m N ;.=.f.u.y.9.8.7.7.6.7.7.b.uXb.8.6.6.7.7.7.3.z.u.f.<.,.S.>. .S h z f a s d j j j c c c 2 c c ' ] ] ] ] } [   ",
". q = 0 @ o _ o c X X X X X X X . . . & : w N -.:.=.u.e.3.1.7.6.6.6.6.6.6.7.b.8Xb.7.6.6.6.6.6.6.8.8.0.b.f.<.<.,.~ P S G d f s  .d j j j c c c c ' ' ] ' ] ] ] . ",
". @ @ o @ o _ o X X X X X X . . . X & w N ;.=.p.u.y.3.7.1.6.6.6.6.6.6.6.6.7.b.rXb.7.6.6.6.6.6.6.6.6.6.7.3.y.u.f.^.:.~ P C d a s d j 1 c c c c c l l = = = = ]   ",
"  @ @ @ o o @ . X X X . . . . X X & b I.).<.y.3.7.7.7.6.6.6.6.6.6.6.6.6.6.7.j.8Xb.7.6.6.6.6.6.6.6.6.6.6.6.7.3.3.y.9X`.Q.D g a a s d d j d c c c c * * A.] = =   ",
"  o @ @ o o . @ X X X X . X . . + - U R.OX=X4.1.6.6.6.6.6.6.6.6.6.6.6.6.6.7.b.rXb.7.6.6.6.6.6.6.6.6.6.6.6.6.6.1.w.=XOXoXR Z s a s s s j j c c c c = c c X.c ] . ",
"  o + o o o X o X u . X X . . X $ n D.). XL.s.4.7.6.6.6.6.6.6.6.6.6.6.6.7.7.b.8Xb.7.6.6.6.6.6.6.6.6.6.6.6.6.1.2.p.L. XW.I.F k a a a d d j j j G l l t c c X.] . ",
"8 @ @ o @ . X X X . X . . . X O > U U._.fX$XL.p.2.7.6.6.6.6.6.6.6.6.6.6.6.7.b.8Xb.7.6.6.6.6.6.6.6.6.6.6.6.6.3.p.L.}.{.^.U.^ P f a a s d 1 j j c c c c X.c c X.  ",
"  @ o o o o X X X X . . . . . $ n I.).7X:XdX}.L.p.3.6.6.6.6.6.6.6.6.6.6.6.7.b.uXb.8.6.6.6.6.6.6.6.6.6.6.7.3.h.L.}.P.&Xf.~.Y.R g a a s s s j * j l A c c c X.&.  ",
"  @ X o o X X X X X . . . . O : U W.qX5Xm.:X1X|.<Xk.5.7.6.6.6.6.6.6.6.6.6.7.b.8Xj.7.6.6.6.6.6.6.6.6.6.7.5.k.<X].L.p.4.y.^.W.( V 4 a a u # * * 2 j c c ' ' ' *.  ",
". o o o X X 9 X X . . . . o r Q D._.7XN.c.N.:X1XdX4Xl.5.7.6.6.6.6.6.6.6.7.8.b.wXj.3.7.6.6.6.6.6.6.6.7.0.l.1X<X>Xp.2.1.3.f.).Y.R g a a a s s 1 j c c c c ' ' 3   ",
"  0 o o X X X 8 X . X . . O , W E.0Xm.c.x.c.N.M.3XgX4Xl.9.7.6.6.6.6.6.6.9.i.2X1X2Xr.3.7.6.6.6.6.6.7.9.l.4X,Xs.t.2.1.6.1.t.^.W.( Z a a a a 1 j j j c c c ' ' K . ",
"  o 0 X X . X X X X . . O $ n D._.7XB.c.x.x.x.c.N.6XwX4Xk.4.7.6.6.6.7.3.k.,XfXaXdX,Xh.4.7.6.6.6.7.3.h.,X2Xh.5.7.6.6.6.6.3.f.).Q.E f 4 a a d d j G j c c ' ' '   ",
"  q X + 3 X X . . . . . X > ^ @XjX5Xc.x.x.x.x.x.c.N.5X4X>Xd.4.7.1.2.w.s.L.|.<X>XL.].<Xs.w.2.1.1.2.p.*X-Xk.2.6.6.6.6.6.6.1.y.qX@XY.C f a a s d j j c c c ' +.'   ",
"  3 * X X X 6 X . X . . # n !.zXpXV.x.x.x.x.x.x.x.c.N.5X2X-Xp.w.t.p.K.K.L.>Xp.w.p.K.L.L.K.s.t.4.p.*X-Xd.3.7.6.6.6.6.6.6.7.5.7XzXoX( f 4 | s d j j j j c c ' '   ",
"  e = * e X . . . . . 5 : Q @XkXyXv.x.x.x.x.x.x.x.x.x.N.:X,X>X*XK.L.L.K.s.w.4.7.2.w.p.K.L.L.K.K.K.*Xt.4.6.6.6.6.6.6.6.6.6.7.j.hX#X#.S 1 a a d d j j l c c ' '   ",
"  @ + X X X . X X . . p b U.kXpXV.x.x.x.x.x.x.x.x.x.x.c.N.2XaX].L.K.s.w.2.1.7.6.1.1.2.w.p.K.L.].].%X2.7.6.6.6.6.6.6.6.6.6.6.9.;XjX!.! g a s d d j j j c c c '   ",
". X X X X X X . . . + : Q '.iXC.x.x.x.x.x.x.x.x.x.x.x.x.N.2XXX}.K.w.1.1.1.6.6.6.6.6.6.1.2.w.%X}.}.a.4.1.6.6.6.6.6.6.6.6.6.6.6.0.7X#XS.S s a s s | j o.c c * '   ",
"  X X X X . X X . X 2 b I.jXtXv.x.x.x.x.x.x.x.x.x.x.x.c.n.dX.XL.q.1.6.6.6.6.6.6.6.6.6.6.1.1.q.]. XK.w.1.6.6.6.6.6.6.6.6.6.6.6.8.i.jXT.P d a a  .j c j j c * =   ",
"  X X 8 X . . . . X & m /.uXB.v.x.x.x.x.x.x.x.x.x.x.x.c.5X{. X>Xw.1.6.6.6.6.6.6.6.6.6.6.6.1.4.K. XL.q.1.6.6.6.6.6.6.6.6.6.6.6.6.0.l.(.! g s s s d j c c c c '   ",
". X X 9 X X X . . X : L ^.Z.v.x.x.x.x.x.x.x.x.x.x.x.c.N.:X{.L.s.2.1.6.6.6.6.6.6.6.6.6.6.6.6.2.p.L.L.s.2.6.6.6.6.6.6.6.6.6.6.6.6.7.y.^.>.S f s s j j j j c c '   ",
"  X X X X X . . . & w :.7XB.x.x.x.x.x.x.c.x.c.c.x.x.c.5X1XL.s.2.6.6.6.6.6.6.6.6.6.6.6.6.6.6.1.4.s.L.K.w.1.6.7.6.6.6.7.6.6.6.6.6.7.9.f.,.P g a s s j j c c ' '   ",
"  X X X X . X . X : N ^.eXV.v.v.x.c.v.v.c.c.c.c.c.c.N.:XaX*Xw.7.6.6.6.6.6.6.6.6.6.6.6.6.6.6.6.1.w.K.L.a.4.1.7.7.8.7.7.7.7.8.8.7.8.0.h.^.>.S g s d j j j c c '   ",
"  X X X . . X 5 O w ;.qXpXyXyXyXyXyXyXyXyXyXyXyXyXyX2XaX[.s.2.6.6.6.6.6.6.6.6.6.6.6.6.6.6.6.6.6.2.a.L.L.=Xh.j.b.b.b.j.j.b.j.b.b.b.j.;X0XT.P g s d x j j c c c   ",
"            1   2 n Q.kXxXcXcXcXcXcXcXcXcXcXcXcXcXxXdXaX[.p.2.7.6.6.6.6.6.6.6.6.6.6.6.6.6.6.6.6.1.p.}..X{.wX:X8X3X8XrX8X8X8X8XrX8X8XwXOXE.b O   5               ",
"  l c j j j s s g -.T.kXuXyXyXyXyXyXyXyXyXyXyXyX6XyX:XdX[.&X2.7.6.6.6.6.6.6.6.6.6.6.6.6.6.6.6.6.8.;XfX$XL.;Xj.b.b.b.b.b.b.b.b.b.b.j.2XOXI.< + + . X X X X X X   ",
"  c c j j j s s d S ~ (.eXv.v.v.v.v.v.v.v.v.v.v.c.c.N.2XaX-Xw.7.6.6.6.6.6.6.6.6.6.6.6.6.6.6.6.6.0.2X$XaX&X4.8.7.7.7.7.8.7.8.7.7.8.r.=XE.W : X . X X X X X X 3   ",
"  c c l j j j s a d S./.7XC.v.x.x.x.x.x.x.x.x.x.x.x.x.5X1XL.&X4.6.6.6.6.6.6.6.6.6.6.6.6.6.6.6.1.r.dXXX<Xe.1.6.6.6.6.6.6.6.6.6.7.2.p.J.I.B # X . X . X X X X X . ",
"  c c j j j s s s s Z >.9XtXv.x.x.x.x.x.x.x.x.x.x.x.x.N.:XaXL.p.1.6.6.6.6.6.6.6.6.6.6.6.6.6.7.4.s.|.|.s.2.7.6.6.6.6.6.6.6.6.6.1.t.P.W.E : X . . X X X X X o X 6 ",
". c c j l j s s a a g S.(.uXC.c.x.x.x.x.x.x.x.x.x.x.x.c.5XaX X>Xw.1.6.6.6.6.6.6.6.6.6.6.6.6.1.t.>X}.<Xw.7.6.6.6.6.6.6.6.6.6.7.2.s.OXI.B & . . . . . X X X o o   ",
"  c c l j j j s s a d P `.kXyXv.x.x.x.x.x.x.x.x.x.x.x.c.n.dX.X[.q.1.7.6.6.6.6.6.6.6.6.6.1.1.4.g.].].s.2.6.6.6.6.6.6.6.6.6.6.7.e.L.W.E : X . r . X X X u X 0 o . ",
"  c c c c ..j s a A d S #.#XpXC.x.x.x.x.x.x.x.x.x.x.x.x.N.2XXX}.J.t.2.1.6.6.6.6.6.6.6.1.2.w.g.L..XL.t.1.6.6.6.6.6.6.6.6.6.6.2.g._.I.w & . . . X X X X X X o X   ",
"  c c l l j j s h a a f ! vXkXuXC.x.x.x.x.x.x.x.x.x.x.x.N.2XaX].L.*Xs.w.2.1.7.6.6.1.1.w.p.-X<XXXXX*Xw.1.6.6.6.6.6.6.6.6.6.7.e.P.E.E : a . . . X . X X X X X X   ",
"  ' c c c j d d s s a a S >.zXkXyXv.x.x.x.x.x.x.x.x.x.N.5X1XdX1X1XaXL.>Xs.t.2.7.2.w.p.K.K.K.=X<XL.K.p.2.6.6.6.6.6.6.6.6.6.2.g._.I.b O . . . X X . 2 X X o o o . ",
"  c c O.1 j c  .s s ] y f ! oXzXpXB.x.x.x.x.x.x.x.c.N.5X4X1X5Xn.n.:X1XaX[.>Xp.w.p.K.K.L.-Xp.w.e.s.*Xa.w.1.1.6.6.6.6.6.6.1.w.<X@X/ : + . . . . . X X X X X 0 o . ",
". ' c c j c j  . .s s 4 h S Y.@XhXeXc.x.x.x.x.c.c.B.6XwX4X5XN.c.c.N.5X:XdXaXaX>XK.K.K.s.w.2.6.7.2.q.s.p.w.2.1.1.6.6.6.6.2.=XOXoXm $ . 1 . X X X X X X X o 0 X   ",
"  ' ' c c c c x d s a a 4 h P oX_.7XN.c.x.x.x.c.N.6XgXgX6XN.c.x.x.x.v.N.6XgXdX|.K.s.w.2.1.6.6.6.1.2.t.a.a.q.1.1.6.6.6.1.e.1X+XR.w + 5 . . . . X X X X X o X X   ",
"  ' ' c c c j j x s s a 4 4 V ( !.qXM.c.x.x.N.n.3XgXxXuXN.c.x.x.x.x.x.c.V.5XiXgX;X4.1.6.6.6.6.6.6.6.2.q.%XK.t.2.7.6.6.1.k.fXoXW ; X . . . X X . 9 . u o o o X . ",
"  ' ' ' c c c j j s s s a f f R Y.OX7XB.c.N.5X1XdXgXrXC.x.c.x.x.x.x.x.x.c.V.yXiXj.1.6.6.6.6.6.6.6.6.7.2.q.%XK.t.2.7.7.5.;XOXR.n & . . . . 6 . X X X X o o @ X . ",
"  ' ' c c c c d j j d f a y f V ( !.qX5Xn.5XdXXXgX6XC.c.c.x.x.x.x.x.x.x.x.v.yXiXb.7.6.6.6.6.6.6.6.6.6.1.2.p.K.K.q.2.1.i.fXW.W : X X . X X X X X X X X o o o @   ",
". ' ' ' c c c c j j d a a 4 4 C F Y._.7X3XsXXXdX:XN.c.x.x.x.x.x.x.x.x.x.x.v.yXiXb.8.6.6.6.6.6.6.6.6.6.6.1.2.q.%Xa.w.3.l.qXY.B # t . . . X . X X X X o o o @ @ . ",
". ' ' ' c c c c 1 j d d s s 1 a V ( E.qXfXXXdX:XN.x.x.x.x.x.x.x.x.x.x.x.x.c.tXuXm.7.6.6.6.6.6.6.6.6.6.6.6.7.2.q.s.q.y.7XvX! : @ . X . 1 . X X X o o o p o o @   ",
"  ] ] ' %.c c c c j j 1 d s A a f I Y.@X$XsX:XN.c.x.x.x.x.x.x.x.x.x.x.x.x.x.yXiXb.7.6.6.6.6.6.6.6.6.6.6.6.6.7.5.d.k.wXjXT.C # . . . X . X 6 X X o o o 0 k @ @   ",
"  ' ] ] ' ' O.c c j x j s s a a h Z ) oX+XwXn.v.x.x.x.x.x.x.x.x.x.x.x.x.c.v.tXiXb.7.6.6.6.6.6.6.6.6.6.6.6.6.7.0.l.wXzXoXS.1 h 1 . . . X X X X X o o o o o @ @   ",
". ] %.' ' ' ' c c c j j ..s s s 4 C V Y.@X7XeXB.v.c.x.x.x.x.x.x.x.x.x.x.x.v.yXiXb.8.6.6.6.6.6.6.6.6.6.7.7.0.b.8XhX#XW.T v # X   1 X 6 . X X X X o o @ o @ @ o   ",
"  ] ] ' +.' +.' x c c d j d d d a d Z P >./.^.7XeXeXB.v.x.x.x.x.x.x.x.x.c.c.yXuXm.7.6.6.6.6.6.6.6.6.8.0.b.8XhXzX@XY.U < & @   . . X X X o o o o o o o o o @ @   ",
"  [ [ +.] ' c c J c c c j d j d d a h g A P >./.(.9X7XZ.B.v.v.x.x.x.x.x.x.c.yXpXb.8.6.6.6.6.6.6.7.0.j.rXlX#X@XQ.W N : # O   . X X . X X o o o o o o o @ @ o @ . ",
"  [ [ ] ] ' K ' c O.O.c Z j j d d d a a a g S P ~ >./.(.7XeXeXB.v.c.x.x.x.c.yXpXm.6.6.6.6.7.8.0.i.;XhXzX@XQ.W b : # o X . . X X X X u o X o o o %.@ @ @ @ q o   ",
"  [ [ ] ] ] ' ' ' c c c c j j j j d d a a a a a f S H >./.(.9X7XrXtXV.c.c.c.yXpXb.7.6.7.7.9.i.g.^.).!.Y.W B : # O . . 2 o . o . . X X o . o o o o o o @ @ @ @ 0 ",
"  } ] ] ] ] ' ' ' ' ' c c c j j j d d d a a a a 4 a f Z I ! >.:.'.qXrX5XV.V.yXpXm.7.7.0.r.g.J.G.T Y M w : + + X . . . . X . X X X X u X X o o @ @ @ o @ o @ @ . ",
"  } [ [ [ ] %.] ' ' ' c O.c c j j ..j d x s a a a l y a i f > B ~ I.).qX8XrXpXxXm.r.i.f.J.G.T M < - $ & X X X 4 . . 6 X . X X X X X X X X X X @ @ @ @ @ @ @ @   ",
"  } [ [ [ ] [ ] ' ' ' 3 c c c j j G j j s d s s a a a % % @ a g V D ^ I.).qXhXxXwX=XJ.~.T M v - 7 + . > . . . 5 . X . . X X X u X X X t o o @ @ @ o @ @ @ % @   ",
"  X.} [ [ [ ] ] ] ] ' ' c ' c c c c j j j j s % % % % % a 4 a a z a Z D ^ Y.@X+X_.:./ n < - O . + . . . . . . X . X X X X X X 2 X X X o @ o @ o @ @ o % @ @ @ . ",
"  } } [ [ [ [ ] ] 3 ] ' ' ' ' c c $.j * * * * % c @ @ d a a a X.a 4 a f C F ( ^ ^ n < $ + . . . . . a X . X . X X X X . X X + X o o o o X o @ @ @ @ @ @ @ 4 @   ",
"  } } } } [ [ ] ] ] ' ] ' ' K c c c * k j j j j h c * #  .a s a 1 a a a f g S , : - O . . . X . . . . . 5 . X . X X X X X X o o o o @ @ @ @ @ @ @ @ @ @ @ # @   ",
"  X.} } } [ [ [ ] ] ] ] ] +.' ' ' ' O.l O.c 2 j c d d * d  .d d d d s a a s s . 7 X . . . X . . X . X . . X . X X o X X X o X o o o @ o o @ ' o @ @ @ @ @ @ @ . ",
"  X.} y } } [ [ } ] ] ] ] ' ] K ' ' c c c j c j c d j * j j j d d d d d s s a   X X . X f X X . . X X . X X X X X X X o o o @ X @ o o @ @ o @ @ @ q % @ @ @ @ . ",
"  X.X.} } } [ } [ [ [ ] ] ] { ' ] ' ] c c c c c c c ..  * * c d d j j d d d d   o . o . o . . . X X X X X X X X X X @ X o o o X o o @ @ o @ @ @ @ @ @ @ @ @ .   ",
". X.X.} } } } [ } ] [ [ ] ] ' ] ' ] c c ' ] c c c c c   * _ # c j j j j j j d   . o . . o . o o X X . X X X X o @ X o o o o @ @ @ @ @ @ @ @ % @ @ @ @ @ q @ .   ",
"  X.X.X.} X.} } [ } [ [ ] ] *.] ] ] c ] ' K c c c c c *   * * c l j j l l j j   o o o o . o . o X o X X X X @ X 0 X o @ @ o @ o @ @ @ @ o o @ @ @ @ @ % @ . . . ",
"  X.X.X.X.} X.[ } [ } [ } ] } ] ] ] ] ] ] ] ' c c c c c     * % l l l l l l l   o . . o o o o o X X X X @ X X X X @ X @ @ o @ @ @ @ @ @ % o % @ @ @ @ @ #     . ",
"  | X.X.X.X.X.X.} } X.[ [ [ } ] ] ] ] ] @.] ] ] ] c c K c     = * = l c c c c   X o X X o o o o o o o o o o X @ % X @ o @ @ o @ @ @ @ @ @ % @ @ @ @ @ @ . . .   ",
". X.X.X.y X.X.X.y } [ }       } ] [ ] ] ] ] ] c ] ' ] ' c '   = * = * c c c c   o o o o o o o o o o X 0 X @ X X X @ o X o @ @ @ ] @ @ @ @ @ @ @ @ % @ @ . .     ",
". X.X.| X.X.X.X.} } } . .   . . .   _ [ [ [ ]                 * = = = c %.c c   o o o o o o o o o X o X @ X X X @ X X X @ o @ @ @ @ @ @ @ @ @ @ @ @ .   . .   . ",
"  .   . .         .                 .           .                       .                       .   .   .   . . . . . . . .   . . .     . . .   X X . .     .   "
};
