/* XPM */
static char *result[] = {
/* columns rows colors chars-per-pixel */
"80 80 3 1 ",
"  c #01010A",
". c #C9D63E",
"X c #E5EBA2",
/* pixels */
"                                              .                                 ",
"                                             ...                                ",
"                                           ...XXXX                              ",
"                                             .XX                                ",
"                                              X                                 ",
"                                              X                                 ",
"                                                                                ",
"                                                                                ",
"                                                                                ",
"                                                                                ",
"                                                                                ",
"           .                           .                            .           ",
"           .                           .                            .           ",
"          ...                         ...                          ...          ",
"        ...XXXX                     ...XXXX                      ...XXXX        ",
"          .XX                         .XX                   .      .XX          ",
"           X                           X                    .       X           ",
"           X                           X                   ...      X           ",
"                                                         ...XXXX                ",
"                                                           .XX                  ",
"                                                            X                   ",
"      .                                                     X                   ",
"      .                                                                         ",
"     ...                                                                        ",
"   ...XXXX                                                                      ",
"     .XX                                                                        ",
"      X                 .                                                       ",
"      X                 .                                                       ",
"                       ...                                                      ",
"                     ...XXXX                                                    ",
"                       .XX                                                      ",
"                        X                                                       ",
"                        X                                                       ",
"                                                                                ",
"                                                                                ",
"                                                                                ",
"                                                                                ",
"                                                                                ",
"          .                            .                           .            ",
"          .                            .                           .            ",
"         ...                          ...                         ...           ",
"       ...XXXX                      ...XXXX                     ...XXXX         ",
"         .XX                          .XX                         .XX           ",
"          X                            X  .                        X            ",
"          X                            X  .                        X            ",
"                                         ...                         .          ",
"                                       ...XXXX                       .          ",
"                                         .XX                        ...         ",
"                                          X                       ...XXXX       ",
"                                          X                         .XX         ",
"                                                                     X          ",
"                     .                                               X          ",
"                     .                                                          ",
"                    ...                                                         ",
"                  ...XXXX                                                       ",
"                    .XX                                                         ",
"                     X                                                          ",
"                     X                                                          ",
"                                                                                ",
"                                                                                ",
"                                                                                ",
"         .                                                                      ",
"         .                                                                      ",
"        ...                                                                     ",
"      ...XXXX                          X                           .            ",
"        .XX.                           .                           .            ",
"         X .                          ...                         ...           ",
"         X...                       ...XXXX   .                 ...XXXX         ",
"        ...XXXX                       .XX     .                   .XX           ",
"          .XX                          X     ...                   X            ",
"           X                           X   ...XXXX                 X            ",
"           X                                 .XX                                ",
"                                              X                                 ",
"                                              X                                 ",
"                                                                                ",
"                                                                                ",
"                                                                                ",
"                                                                                ",
"                                                                                ",
"                                                                                "
};
