/* XPM */
static char *_2c533368c744355aef10d29c4028fbd97tvNgZO69eJhhsg[] = {
/* columns rows colors chars-per-pixel */
"80 80 5 1 ",
"  c #110D0D",
". c #1F1212",
"X c #2E2121",
"o c #473130",
"O c #644E4D",
/* pixels */
"                                                                                ",
"         ...           ........ XX .... OOOOOOOOOOOOOOOOOOOOOOOOOOOOOOOOOOOOOOO ",
"    .........  ................ XX .... OOOOOOOOOOOOOOOOOOOOOOOoOOOOOOOOOOOOOOO ",
"  ............................X X X.... OOOOOOOOOOOOOOOOOOOOOOOOOOOOOOOOOOOOOOO ",
"  ...........................XX ....... OOOOOOOOOOOOOOOOoOOOOOOOOOOOOOoOOOOOOOo ",
" ............................X  ....... OOOOOOOOOOOOOOOOOOOOOOOOOOOOOOOOOOOOOOO ",
" ............................X ........ OoOOOOOOOOOOOOOOOOOOOOOOoOOOOOOOOOOOOOO ",
" ............................X  ......o OOOOOOOOOOOOOOOOOOOOOOOOOOOOOOOOOOOOOOO ",
" .............................X  ...... OOOOOOOOOOOOOOOOOOOOOOOOOOOOOOOOOOOOOOo ",
" ..............................X ...... OOOOOOOOOOOOOOOOOOOOOOOOOOOOOOOOOOOOOOO ",
" ..............................X ...... OOOOOOOoOOOOOOOOOOOOOOOOOOOOOOOOOOOOOOO ",
" ..............................   ..... OOOOOOOOOOOOOOOOOOOOOOOOOOOOOOOOOOOOOOO ",
" ..............................   ..... OOOOOOOOOOOOOOOOOOOOOOOOOOOOOOOOOOOOOOO ",
" ..............................X  ..... OOOOOOOOOOoOOOOOOOOOOOOOOOOOOOOOOOOOoOO ",
" ..........................X..XX  ..... OOOOOOOOOOOOOOOOOOOOOOOOOOOOOOOOOOOOOOO ",
" ...........................XXXX  ...o. OOOOOOOOOOOOOOOOOOOOOOOOOoOOOOOOOOOOOOO ",
" ..X.........................XXX  ..... OOOOOOOOOOOOOOOOOOOOOOOOOOOOOoOOOOOOOOO ",
" XX............................XX ..... OOOOOOOOOOOOOOOOOOOOOOOOOOOOOOOOOOOOOOO ",
" ................................   ... OOOOOOOoOOOOOOOOOOOOOOOOOOoOOOOOOOXXXXO ",
" .................................X ... OOOOOOOoOOOOOOOOOOOOoOOOOOOOOOOOOXXOOXX ",
" ..................................XXXX    o  OOOOOOOOOOOoOOXOOOOOOOOOOOOXOOOOO ",
" .....................................XXXOOOO  OOOOOXXXOOOOXXOoOOOOOOOOOOOoOOOO ",
" .....................................XXOOOOOX XXXXXOOXXOOOXOOOOOOOOoOOOOOOOOOO ",
" ...................................... OOOOOOoOOOOOOOOXXOOXOOOOOOOOOOXOOOOOOOO ",
" ...................................... OOOOOOXOOOOOOOOOXXXOOOOOOOOXXXXoOOOOOOO ",
" ...................................... OOOOOOXXOOOOOOOOOOOOOOOOOOOOOOoOOOOOOOo ",
" ...................................... OOOOOOOXXXOOOOOOOOOOOOOOOOOOOoOOOOOOOOO ",
" ...................................... OOOOOOOOOOOoOOOOOOOOOOOOOOOOOOOOOOOOOOO ",
" X..o.................................. OOOOOoOOOXOOOoOOOOOOOOOOOOOOOOOOOOOOOOO ",
" oX.................................... OOOOOOOOoOOOOOOOOOOOOoOOOOOOOOOOOOOOOOO ",
" .XX................................... OOOOOOOoXOOOOOOoOoOOOOOOoOOoOOOOOOOOOOO ",
" ...................................... OOOOOOOXOOOOOOOOOOOOOOOOOoOOOOOOOOOOOOO ",
" ...................................... OOOOOOOOoOOOOOOOOOOOOOOOOOOOOOOOOOOOOXO ",
" .........o.......o.................... OOOOOOOOOOOOOOOOOOOOOOOOOOOOOOOOOOOOOXX ",
" ...................................... OOOOOOOOOOOoOOOOOOOOOOOOOOOOOOOOOOOOOOO ",
" ......................................  OOOOOoXOOOOOOOOOOOOOOOOOOOOOOOOOOOOOOO ",
" ......................................   OOOOOXOOOOOOOOXXXOOOOOOOOOOOOOOOOOOOO ",
" .............o.............o.......o..  o OOOXXOOOOOOOOOOXOOOOOOOOOOOOOOOOOOOO ",
" ......................................     OXXOOOOOOOOOOOXXOOoOOOOOOOOOOOOOOOO ",
"      o o                                    X     o                            ",
" OOOOOOOOOOOOOOOOOOOOOOOOOOOOOOOOOOO    ......o............X..XX............... ",
" OOOOOOOOOoOOOOOOOOOOOOOOOOOOOOOOOOOOO  ..................XX....X.............o ",
" OOOOOOOOOOOOOOOOOOOOOOoOOOOOOOOOOOOOO  ..................X......X............. ",
" OOOOOOOOOOOOOOOOOOOOOOOOOoOOOOOOOOOOOO ...........o..o..........X............. ",
" OOOOOOOOOOOOOOOOOOOOOOOOOOOOOOOOOOOOOO .........................XXX........... ",
" OOOOOOOOOOOOOOOOOOOOOOOOOoOOOOOOOOOOOO ........o..o........................... ",
" OOOOOOOOOOOOOOOOOOOOOOOOOOOOOOOOOOOOOO ....................................... ",
" OOOOOOOOOOOOOOOOOOOOOOOOOOOOOOOOOOOOOO ....................................... ",
" OOOOOOOOOOOOOOOOOOOOOOOOOOOOOOOOOOOOOO .................................o..... ",
" OOOoOOOOOOOOOOOOOOOOOOOOOOOOOOOOOOOOOO ....................................... ",
" OOOOOOOOOOOOOOOOOOOOOOOOOOOOOOOOOOOOOO ...X.......................o........... ",
" OOOOOOOOOOOOOOOOOOOOOOOOOOOOOOOOOOOOOO .XXX................................... ",
" OOOOOOOOOOOOOOOOOOOOOOOOOOOOOXXXXXXXX   X..................................... ",
" OOOOOOOOOOOOOOOOOOOOOOOOOOOOOXOOOOOOOO ....................................... ",
" OOOOOOOOOOOOOOOOOOOOOOOOOOOOOXOOOoOOOO ....................................... ",
" OOOOOOOOOOOOOOOOOOOOOOOOOOOOoXOOOOOOOO ....................................... ",
" OOOOOOOoOOOOOoOOOOOOOOOOOOOOOXOOOOOOOO ....................o......o........... ",
" OOOOOOOOOOoOOOOOOOOOOOOOOOOOXOOOOOOOOO ....................................... ",
" OOOOOOOOOOOOOOOOOOOOOOOOOOOOXOOOOOOOOO ....................o..o............... ",
" OOOOOOOOOOOOOOOOOoOOoOOOOOOOXOOOOOOOOO ........................o.............. ",
" OOOOOOOOOOOOOOOOOOOOOOOOOOOOXXOOOOOOOO ....................................... ",
" OOOOOOOOOOOOOOOOOOOOOOOOOOOOOXOOOOOOOO ..o.................................... ",
" OOOOOOOOOOOOOOOOOOOOOOOOOOOOOXXOOOOOOO ....................................... ",
" OOOOOOOOOOOOOOOOOOOOOOOOOOOOOOXOOOOOOO ....................................... ",
" OOOOOOOOOOOOOOOOOOOOOOOOOOOOOOXOOOOOOO ....................................... ",
" OOOOOOOOOOOOOOOOOOOOOOOOOOOOOXXOOOOOOO ....................................... ",
" OOOOOOOOOOoOOOOOOOOOOOOOOOXXXOOOOOOOOO ...........................o........... ",
" OOOOOOOOOOOOOOOOOOOOOOXXXXXOOOOOOOOOOO .......................o............... ",
" OOOOOOOOoOOOOOOOOOXXXXXOXXOOOOOOOOOOOO .....................................o. ",
" OOOOOOOOOOOOOOOOOXXOOOOOOXXOOOOoOOOOOO ....................................... ",
" OOOOOOOOOOOOOOOOOOOOOoOOOOXOOOOOOOOOOO ....................................... ",
" OOoOOOOOOOOOOOOOOOOOOOOOOOXOOOOOOOOOOO ....................................... ",
" OOOOOOOOOOOOOOOOOOOOOOOOOO XXOOOOOOOOO ......................................  ",
" OOOOOOOOOOOOOOOOOOOOOOOOOO XXXOOOOOOOO ......................................  ",
" OOOOOOOOOOOOOOOOOOOOOOOOOOX XXOOOOOOOO .....................................   ",
" OOOOOOOOOOOOOOOOOOOOOOOOOOO  XXOOOOOOO .....................................   ",
" OOOOOOOOOOOOOOOOOOOOOOOOOOOO  XXXOOOOO ....................................    ",
" OOOoOOOoOOO   OOOOOOOOOOOOOOO XXXXOOOO ....................................    ",
" OOOOOOOOOO        OOOO        XXXXOOOO ..................................      ",
"                                                                                "
};
