/* XPM */
static char *_8cd89e68ec24812bcc390437114bac1O4L3OVYph6z21X5Q[] = {
/* columns rows colors chars-per-pixel */
"80 80 28 1 ",
"  c black",
". c #120A0A",
"X c #110D0D",
"o c #1F1212",
"O c #290E07",
"+ c #0A0A24",
"@ c #091033",
"# c #131333",
"$ c #2E2121",
"% c #3B2D2D",
"& c #451B11",
"* c #6B3B0C",
"= c #473130",
"- c #20204F",
"; c #370C6E",
": c #44084D",
"> c #454F54",
", c #644E4D",
"< c #A3103A",
"1 c #995813",
"2 c #D11E50",
"3 c #D64F75",
"4 c #929620",
"5 c #C2A204",
"6 c #E3E61C",
"7 c #B9BD40",
"8 c #531D99",
"9 c #E8EB84",
/* pixels */
"XXXXXXXXXXXXXXXXXXXXXXXXXXXXXXXXXXXXXXXXXXXXXXXXXXXXXXXXXXXXXXXXXXXXXXXXXXXXXXXX",
"XXXXXXXXXoooXXXXXXXXXXXooooooooX$$XooooX,,,,,,,,,,,,,,,,,,,,,,,,,,,,,,,,,,,,,,,X",
"XXXXoooooooooXXooooooooooooooooX$$XooooX,,,,,,,,,,,,,,,,,,,,,,,=,,,,,,,,,,,,,,,X",
"XXoooooooooooooooooooooooooooo$X$X$ooooX,,,,,,,,,,,,,,,,,,,,,,,,,,,,,,,,,,,,,,,X",
"XXooooooooooooooooooooooooooo$$XoooooooX,,,,,,,, ,,,,,,,=,,,,,,,,,,,,,=,,,,,,,=X",
"Xoooooooooooooooooooooooooooo$XXoooooooX,,,,,,,,  ,,,,,,,,,,,,,,,,,,,,,,,,,,,,,X",
"Xoooooooooooooooooooooooooooo$XooooooooX,=,,,,,,  ,,,,,,,,,,,,,,=,,,,,,,,,,,,,,X",
"Xoooooooooooooooooooooooooooo.........=X,,,,,,,,,  ,,,,,,,,,,,,,,,,,,,,,,,,,,,,X",
"Xoooooooooooooooooooooooooo............X%%%%,,,,,  ,,,,,,,,,,,,,,,,,,,,,,,,,,,=X",
"Xoooooooooooooooooooooooo.......    ...X%%%%%%%,,    ,,,,,,,,,,,,,,,,,,,,,,,,,,X",
"Xoooooooooooooooooooooo.....     ##    .%%%%%%%%%, * ,,,,,,,,,,,,,,,,,,,,,,,,,,X",
"Xoooooooooooooooooooo.....   #########    %%%%%%%% * ,,,,,,,,,,,,,,,,,,,,,,,,,,X",
"Xooooooooooooooooooo....   #############  %%%%%%%% 1* ,,,,,,,,,,,,,,,,,,,,,,,,,X",
"Xoooooooooooooooooo....  ########+##++###    %%%%%  * ,,,,,,,,,,,,,,,,,,,,,,=,,X",
"Xoooooooooooooooo...... ########++++#++##+##   %%%% 1  ,,,,,,,,,,,,,,,,,,,,,,,,X",
"Xooooooooooooooo......  ########++##++++##+###  %%%  * ,,,,,,,,,,=,,,,,,,,,,,,,X",
"Xoo$ooooooooooo......  #####   #+++++++#+#+#### %%%% * ,,,,,,,,,,,,,,=,,,,,,,,,X",
"X$$oooooooooooo...... ###### . ##+##++++#+++### %%%% * %,,,,,,,,,,,,,,,,,,,,,,,X",
"Xooooooooooooo....... #####  .   #####+++++####   %% * %%,,,,,,,,,=,,,,,,,$$$$,X",
"Xooooooooooooo......  ###   .... #####+++#++##### %% 1  %,,,=,,,,,,,,,,,,$$,,$$X",
"Xoooooooooooo....... ##   ....  ########+######## %% 1* %%,,$,,,,,,,,,,,,$,,,,,X",
"Xooooooooooooo......    .....  ##################   % * %%%%$,=,,,,,,,,,,,=,,,,X",
"Xoooooooooooo..............  ;###-###-#-##### #####   *  %%%%%,,,,,,=,,,,,,,,,,X",
"Xooooooooooooo............. ;;###-####-###### ######  ** %%%%%%,,,,,,,$,,,,,,,,X",
"Xoooooooooooo.............. ;#---##-#######  #   ### % * %%%%%%%,,,$$$$=,,,,,,,X",
"Xoooooooooooo.............. ;#-######---#-########## % * %%%%%%%,,,,,,=,,,,,,,=X",
"Xooooooooooo.........      ;;##-#--#####-###########        %%%%,,,,,=,,,,,,,,,X",
"Xoooooooo            ####  ;;##-####------##########  #####            ,,,,,,,,X",
"X        ################  ;;###########-###########  #####++++########        X",
"X #####-####-######+##### O ;##--#---###-########## O #####+++++############## X",
"X ####-#--#-####+++++#### O ;;####--#-#-########### O ####+++#+++##++####+#### X",
"X ###-#-#####--#++++++### &O ;##--#-#-#-########## OO ####+++++++++#+##+#+#### X",
"X #######-#--##-##++###### O ;;;#--############### O ###+##+##+##++++++++#+##  X",
"Xo ##-##-##-#--#+#++++#### O  ;;#################  O ##++++#####++++++++++### $X",
"Xo ;-#-#-#-#---##++++#+### &OO ;################ OOO ##+++++##++#++++++++++#  ,X",
"Xoo ;---#-##-#--#+#+#+#+## &OO ;;############### OOO ###++++#+++#+#++#+#++## ,,X",
"Xoo ;###--####-###++####+# &OO  ;;;;;;#########  OOO ####++++#+#++++++#++##  ,,X",
"Xooo ----##-#######+++++## &OOOO               OOOOO ##+##+++#+#+#++++##### ,,,X",
"Xooo ;#-#-#--#######+#++## &&OOOOOOO O OO  OOOOOOOOO #######+++#+++#++++##  ,,,X",
"XXXXX ;-####-########+##### &&&OOOOO4O4OOO4OOOOOOOO ########+#+#+++#++++## XXXXX",
"X,,,, ;;####################  &&&OOO7O77444OOOOOO  #########++++#++++++##  ooooX",
"X,,,,, ;###################--#  &&&&7O7OOO4OOO   ########+++++++++++#+### oooo=X",
"X,,,,, ;;################-##--#-     & OO      ###########+#++#+#++++###  oooooX",
"X,,,,,, ;;##############----#########     #############+##+#++++#+###### ooooooX",
"X,,,,,,  ;;;#################--##--##################+#++##+#+++++++###  ooooooX",
"X,,,,,,,,   ;################-####--################++##+##+#+#++#++   ooooooooX",
"X,,,,,,,,,,, ;;############-#-##--####################++++++####### oooooooooooX",
"X,,,,,,,,,,,   ;;#########-#--###--#################++#++#++#####   oooooooooooX",
"X,,,,,,,,,,,,,, ;;######--##-#-######################+++++###### oooooooo=oooooX",
"X,,,=,,,,,,,,,,  ;#######-#####--#-####################++++#+##  ooooooooooooooX",
"X,,,,,,,,,,,,,,, ;;#######--###-#######################++##### * oo=oooooooooooX",
"X,,,,,,,,,,,,,,,, ;;######-#-###-########################+#### * ooooooooooooooX",
"X,,,,,,,,,,,,,,,,  ;;;;;;#################################### 1* ooooooooooooooX",
"X,,,,,,,,,,,,,,,,       ;;;#############################       1* oooooooooooooX",
"X,,,,,,,,,,,,,,,, ###### ;;;;;;######################## oooooo 11* ooooooooooooX",
"X,,,,,,,,,,,,,,<2222####       ;#################       oooooo 11* ooooooooooooX",
"X,,,,,,,=,,,,<<<222222####  ,,$ ;;;;;;;;;;;;;;;; ooooooooooo=o 11*  oooooooooooX",
"X,,,,,,,,,,=<<222222222### ,,$,                  ooooooooooooo  11* oooooooooooX",
"X,,,,,,,,,   22222222222   ,,$,,,,,,,,,Xoooooooooooooooooooo=oo 11* oooooooooooX",
"X,,,,,,,,  #8 22222222222,,,,$,,,,,,,,,Xooooooooooooooooooooooo 11* oooooooooooX",
"X,,,,,,,,     22222223332,,,,$$,,,,,,,,Xooooooooooooooooooooooo 111* ooooooooooX",
"X,,,,,,,,<<<22222222223322,,,,$,,,,,,,,Xoo=oooooooooooooooooooo  111 ooooooooooX",
"X,,,,,,,,<<<<2222222222332,,,,$$,,,,,,,Xoooooooooooooooooooooooo 111 ooooooooooX",
"X,,,,,,,,<<<<2222222222332,,,,,$,,,,,,,Xoooooooooooooooooooooooo 111 ooooooooooX",
"X,,,,,,,,<<<<2222222222332,,,,,$,,,,,,,Xoooooooooooooooooooooooo  111  ooooooooX",
"X,,,,,,,,    2222222223322,,,,$$,,,,,,,Xoooooooooooooooooooooooo  1>11 ooooooooX",
"X,,,,,,,, #8 <22222222322,,$$$,,,,,,,,,Xoooooooooooooooooooooooo @>:>>  oooooooX",
"X,,,,,,,,      2222222322$$$,,,,,,,,,,,Xooooooooooooooooooooooo= @5555  oooooooX",
"X,,,,,,,,= ##8 222222222,$$,,,,,,,,,,,,Xoooooooooooooooooooooooo  56666 ooooo=oX",
"X,,,,,,,,,        22222,,,$$,,,,=,,,,,,Xoooooooooooooooooooooooo  69996 oooooooX",
"X,,,,,,,,,,,   #8   22=,,,,$,,,,,,,,,,,Xooooooooooooooooooooooooo 6999  oooooooX",
"X,,=,,,,,,,,,,    8 ,,,,,,,$,,,,,,,,,,,Xooooooooooooooooooooooooo     oooooooooX",
"X,,,,,,,,,,,,,      ,,,,,,,X$$,,,,,,,,,XooooooooooooooooooooooooooooooooooooooXX",
"X,,,,,,,,,,,,,,,,,,,,,,,,,,X$$$,,,,,,,,XooooooooooooooooooooooooooooooooooooooXX",
"X,,,,,,,,,,,,,,,,,,,,,,,,,,$X$$,,,,,,,,XoooooooooooooooooooooooooooooooooooooXXX",
"X,,,,,,,,,,,,,,,,,,,,,,,,,,,XX$$,,,,,,,XoooooooooooooooooooooooooooooooooooooXXX",
"X,,,,,,,,,,,,,,,,,,,,,,,,,,,,XX$$$,,,,,XooooooooooooooooooooooooooooooooooooXXXX",
"X,,,=,,,=,,,XXX,,,,,,,,,,,,,,,X$$$$,,,,XooooooooooooooooooooooooooooooooooooXXXX",
"X,,,,,,,,,,XXXXXXXX,,,,XXXXXXXX$$$$,,,,XooooooooooooooooooooooooooooooooooXXXXXX",
"XXXXXXXXXXXXXXXXXXXXXXXXXXXXXXXXXXXXXXXXXXXXXXXXXXXXXXXXXXXXXXXXXXXXXXXXXXXXXXXX"
};
