/* XPM */
static char *_a7f07118eda4894b609e50bb3584af2XxmDx2B22EKBOfxu[] = {
/* columns rows colors chars-per-pixel */
"80 80 28 1 ",
"  c black",
". c #120A0A",
"X c #110D0D",
"o c #1F1212",
"O c #290E07",
"+ c #0A0A24",
"@ c #091033",
"# c #131333",
"$ c #2E2121",
"% c #3B2D2D",
"& c #451B11",
"* c #6B3B0C",
"= c #473130",
"- c #20204F",
"; c #370C6E",
": c #44084D",
"> c #454F54",
", c #644E4D",
"< c #A3103A",
"1 c #995813",
"2 c #D11E50",
"3 c #D64F75",
"4 c #929620",
"5 c #C2A204",
"6 c #E3E61C",
"7 c #B9BD40",
"8 c #531D99",
"9 c #E8EB84",
/* pixels */
"XXXXXXXXXXXXXXXXXXXXXXXXXXXXXXXXXXXXXXXXXXXXXXXXXXXXXXXXXXXXXXXXXXXXXXXXXXXXXXXX",
"XXXXXXXXXoooXXXXXXXXXXXooooo     $XooooX,,,,,,,,,,,,,,,,,,,,,,,,,,,,,,,,,,,,,,,X",
"XXXXoooooooooXXooooooooooooo ###   ooooX,,,,,,,,,,,,,,,,,,,,,,,=,,,,,,,,,,,,,,,X",
"XXoooooooooooooooooooooooooo #####   ooX,,,,,,,,,,,,,,,,,,,,,,,,,,,,,,,,,,,,,,,X",
"XXoooooooooooooooooooooooooo #######   X,,,,,,,,,,,,,,,,=,,,,,,,,,,,,,=,,,,,,,=X",
"Xooooooooooooooooooooooooooo ###+#+###   ,,,,,,,,,,,,,,,,,,,,,,,,,,,,,,,,,,,,,,X",
"Xooooooooooooooooooooooooooo #++#+++####   ,,,,,,,,,,,,,,,,,,,,,=,,,,,,,,,,,,,,X",
"Xooooooooooooooooooooooooooo ###+++++#####   ,,,,,,,,,,,,,,,,,,,,,,,,,,,,,,,,,,X",
"Xooooooooooooooooooooooooooo ##++++#+#++#### ,,,,,,,,,,,,,,,,,,,,,     ,,,,,,,=X",
"Xoooooooooooooooooooooooooo ####++++##+++#### ,,,,,,,,,,,,,,,,,,    66 ,,,,,,,,X",
"Xoooooooooooooooooooooooooo ####+++#++++++### ,=,,,,,,,,,,,,,,,, 1>5699 ,,,,,,,X",
"Xoooooooooooooooooooooooooo ##+++++++++++#+## ,,,,,,,,,,,,,,    11>5699 ,,,,,,,X",
"Xoooooooooooooooooooooooooo ##+#++++++##+++#++  ,,,,,,,,    *1111>:5699 ,,,,,,,X",
"Xooooooooooooooooooooooooo. ###++++#+++++++#++# ,,=,,,   ***111111>5566 ,,,,=,,X",
"Xooooooooooooooooooo.o.o... ###++++++#+++++++## ,,,,, ***1111111  @@    ,,,,,,,X",
"Xooooooooooooooooo......... ##++#+##++++#+##++##     *1111111         ,,,,,,,,,X",
"Xoo$oooooooooooo........... #+++##++####++++++### ***1111     ,,,,,,,=,,,,,,,,,X",
"X$$oooooooooooo............ +++++#++++++++#++#####  1     ,,,,,,,,,,,,,,,,,,,,,X",
"Xooooooooooooo............. ++#+###+##+#++++++######  ,,,,,,,,,,,,=,,,,,,,$$$$,X",
"Xooooooooooooo............. ++++####++++++++#####+### ,,,,,,=,,,,,,,,,,,,$$,,$$X",
"Xoooooooooooo.............  +++++#++++###+##++++##### ,,,=,,$,,,,,,,,,,,,$,,,,,X",
"Xooooooooooo.............. ###++#+++++###+++##++#+### $,,,,$$,=,,,,,,,,,,,=,,,,X",
"Xoooooooooo............... ######++++####+####+#++#+# $$,,,$,,,,,,,,=,,,,,,,,,,X",
"Xoooooooooo...........     #####++++########+++++++## ,$$,,$,,,,,,,,,,$,,,,,,,,X",
"Xooooooooo.........    *** ######++##+#####++#+++++###  $$$,,,,,,,,$$$$=,,,,,,,X",
"Xooooooooo....      ****   ###################+#+###### ,,,,,,,,,,,,,,=,,,,,,,=X",
"Xoooooooo...   ****11   ..      ############++#++###### ,,,,,,,,,,,,,=,,,,,,,,,X",
"Xoooooooo   **1      .       OOO       ######+#+####### ,,,,,,,,,,,,,,,,,,,,,,,X",
"X$oo=ooo. **1   .....  ######  OOOOOOOO ############### ,,,,,,,,,,,,,,,,,,,,,,,X",
"X=$oooo       ....... #########   OOOOOO ############## ,,,,,=,,,,,,,,,,,,,,,,,X",
"Xo$$o     ........    ########### OOOOOO ############## ,=,,,,,,=,,=,,,,,,,,,,,X",
"Xooo   ........... ##### #########   OOOO ##############  ,,,,,,,=,,,,,,,,,,,,,X",
"Xoooooo........    ##### ########### OOOO ##############; ,,,,,,,,,,,,,,,,,,,$,X",
"Xoooooo.......  ######## ############ OOO  #############; ,,,,,,,,,,,,,,,,,,,$$X",
"Xoooooo....... #######  ############# OOOO #############; ,,,,,,,,,,,,,,,,,,,,,X",
"Xoooooo......  ######### ############ OOOO #############; ,,,,,,,,,,,,,,,,,,,,,X",
"Xoooooo...... ###+#+#### ############ OOOO #############; $,,,,,,,,,,,,,,,,,,,,X",
"Xoooooo...... #+++++#################  444 #############; $,,,,,,,,,,,,,,,,,,,,X",
"Xoooooo....   +##++######-#-#########  O4O  ############; $$,,=,,,,,,,,,,,,,,,,X",
"XXXXXX=X...  ###+#+++#####----####### OO4OO ############; XXXXXXXXXXXXXXXXXXXXXX",
"X,,,,,,%%%. ###+#+++##-##-#-##--##### OO7OO ############; o$oo$$oooooooooooooooX",
"X,,,,,,,%%  ##++++++###-#-#-#########  477  ############; $$oooo$ooooooooooooo=X",
"X,,,,,,,%% ##+++++####-##-#-##--####; OOOO& ############; $oooooo$oooooooooooooX",
"X,,,,,,,%% ##+#+++#########-#-######;  477 #############; ooooooo$oooooooooooooX",
"X,,,,,,,%  ###+#+#######-####---####; OOO& ##-##########; ooooooo$$$oooooooooooX",
"X,,,,,,,, ####+#+#########-##--#-###; OOO& #--#-#-######; oooooooooooooooooooooX",
"X,,,,,,,, ###+++++####--##-####--###; OOO& #-#--########; oooooooooooooooooooooX",
"X,,,,,,,,  ###+++#  ####-####-#-###;; OO&& ###-##-#-####; oooooooooooooooooooooX",
"X,,,,,,,,, ####### % ###-#--#-##;;;; OOO& -######--####;  ooooooooooooooo=oooooX",
"X,,,=,,,,, #####   %  ##--######;;   OO&& ##-###-#####; oooooooooooooooooooooooX",
"X,,,,,,,,, ##### %%%% ;;######;;; OOOOO& #-#----######; ooooooooooo=oooooooooooX",
"X,,,,,,,,,  ####   %%% ;;;;;;;;   OOOO&& --####--##-##; oooooooooooooooooooooooX",
"X,,,,,,,,,, ######  %%    ;;;  OOO&&&&& #-#-##-###-###;  ooooooooooooooooooooooX",
"X,,,,,,,,,,  ###### %%%%%%   OO&       ####-###-##--#;;    ooooooooooooooooooooX",
"X,,,,,,,,,,, ######  %%%%%      ##########--####--###;; ## oo22222oooooooooooooX",
"X,,,,,,,,,,,  ###### %%%%% #########+######-####-###;;  ## 222333222oooooooooooX",
"X,,,,,,,=,,,,   ####  %%%% ########+#++#############; ####22333333222ooooooooooX",
"X,,,,,,,,,,=,,,  #### %%%% #######+##++#############; ###2223322233322oooooooooX",
"X,,,,,,,,,,,,,,,    # %%%% ####+#+#+#+#+############; ##222232222222222ooooooooX",
"X,,,,,,,,,,,,,,,%%=   %%%%% ##++#++##++#############; ##222222222222222ooooooooX",
"X,,,,,,,,,,,,,,,,%%%%%%%%%% #+++++++++#############;; #222222222222222   ooooooX",
"X,,,,,,,,,,,,,,,,,,,%%%%%%% ##+++++#+#############;;  #222222222222222 8 ooooooX",
"X,,,,,,,,,,,,,,,,,,,,%%%%%% ##++##++############;;;    22222222222222    ooooooX",
"X,,,,,,,,,,,,,,,,,,,,,,%%%% ##++#+#############;;  oooo22222222222222 8  ooooooX",
"X,,,,,,,,,,,,,,,,,,,,,,,%%% ####-##-###########;  ooooo<<222222222222 #  ooooooX",
"X,,,,,,,,,,,,,,,,,,,,,,,,,, ###-#----#########; oooooooo<2222222222      ooooooX",
"X,,,,,,,,,,=,,,,,,,,,,,,,,, ###-#--###########; oooooooo<<2  22222< 8  ooooooooX",
"X,,,,,,,,,,,,,,,,,,,,,,$$$$ #-##-#--##--#####;  ooooooooo< 8 2<<<   #  ooooooooX",
"X,,,,,,,,=,,,,,,,,,$$$$$,$$ ##-#--###--#####; oooooooooooo # <<<< 8 # ooooooo=oX",
"X,,,,,,,,,,,,,,,,,$$,,,,,,$ ######-#########; oooooooooooo   <<<< #   oooooooooX",
"X,,,,,,,,,,,,,,,,,,,,,=,,,, ##-#-##--#-####;; ooooooooooooo  <<<<   oooooooooooX",
"X,,=,,,,,,,,,,,,,,,,,,,,,,,$ #-##--#--####;; ooooooooooooooooooooooooooooooooooX",
"X,,,,,,,,,,,,,,,,,,,,,,,,,,X -#-###-#---;;;  oooooooooooooooooooooooooooooooooXX",
"X,,,,,,,,,,,,,,,,,,,,,,,,,,X #-###--#-#;;  oooooooooooooooooooooooooooooooooooXX",
"X,,,,,,,,,,,,,,,,,,,,,,,,,,$ ##-#-#-#-;  ooooooooooooooooooooooooooooooooooooXXX",
"X,,,,,,,,,,,,,,,,,,,,,,,,,,, #####-;;  XoooooooooooooooooooooooooooooooooooooXXX",
"X,,,,,,,,,,,,,,,,,,,,,,,,,,, #####;  ,,XooooooooooooooooooooooooooooooooooooXXXX",
"X,,,=,,,=,,,XXX,,,,,,,,,,,,, ####  ,,,,XooooooooooooooooooooooooooooooooooooXXXX",
"X,,,,,,,,,,XXXXXXXX,,,,XXXXX     $$,,,,XooooooooooooooooooooooooooooooooooXXXXXX",
"XXXXXXXXXXXXXXXXXXXXXXXXXXXXXXXXXXXXXXXXXXXXXXXXXXXXXXXXXXXXXXXXXXXXXXXXXXXXXXXX"
};
