/* XPM */
static char *_8d77edd5c6d4f41f86ea69f91bdd784lbRy7thhO0avaF8i[] = {
/* columns rows colors chars-per-pixel */
"80 80 28 1 ",
"  c black",
". c #120A0A",
"X c #110D0D",
"o c #1F1212",
"O c #290E07",
"+ c #0A0A24",
"@ c #091033",
"# c #131333",
"$ c #2E2121",
"% c #3B2D2D",
"& c #451B11",
"* c #6B3B0C",
"= c #473130",
"- c #20204F",
"; c #370C6E",
": c #44084D",
"> c #454F54",
", c #644E4D",
"< c #A3103A",
"1 c #995813",
"2 c #D11E50",
"3 c #D64F75",
"4 c #929620",
"5 c #C2A204",
"6 c #E3E61C",
"7 c #B9BD40",
"8 c #531D99",
"9 c #E8EB84",
/* pixels */
"XXXXXXXXXXXXXXXXXXXXXXXXXXXXXXXXXXXXXXXXXXXXXXXXXXXXXXXXXXXXXXXXXXXXXXXXXXXXXXXX",
"XXXXXXXXXoooXXXXXXXXXXXooooooooX$$XooooX,,,,,,,,,,,,,,,,,,,,,,,,,,,,,,,,,,,,,,,X",
"XXXXoooooooooXXooooooooooooooooX$$XooooX,,,,,,,,,,,,,,,,,,,,,,,=,,,,,,,,,,,,,,,X",
"XXoooooooooooooooooooooooooooo$X$X$ooooX,,,,,,,,,,,,,,,,,,,,,,,,,,,,,,,,,,,,,,,X",
"XXooooooooooooooooooooooooooo$$XoooooooX,,,,,,,,,,,,,,,,=,,,,,,,,,,,,,=,,,,,,,=X",
"Xoooooooooooooooooooooooooooo$XXoooooooX,,,,,,,,,,,,,,,,,,,,,,,,,,,,,,,,,,,,,,,X",
"Xoooooooooooooooooooooooooooo$XooooooooX,=,,,,,,,,,,,,,,,,,,,,,,=,,,,,,,,,,,,,,X",
"Xooooooooooooo      ooooooooo$XXoooooo=X,,,,,,,,,,,,,,,,,,,,,,,,,,,,,,,,,,,,,,,X",
"Xooooooooooooo    8 oooooooooo$XXooooooX,,,,,,,,,,,,,,,,,,,,,,,,,     ,,,,,,,,=X",
"Xooooooooooo   #8   22ooooooooo$XooooooX,,,,,,,,,,,,,,,,,,,,,,,,, 6999  ,,,,,,,X",
"Xooooooooo        22222oooooooo$XooooooX,,,,,,,=,,,,,,,,,,,,,,,,  69996 ,,,,,,,X",
"Xooooooooo ##8 222222222oooooooXXXoooooX,,,,,,,,,,,,,,,,,,,,,,,,  56666 ,,,,,,,X",
"Xoooooooo      2222222322ooooooXXXoooooX,,,,,,,,,,,,,,,,,,,,,,,, @5555  ,,,,,,,X",
"Xoooooooo #8 <22222222322oooooo$XXoooooX,,,,,,,,,,=,,,,,,,,,,,,, @>:>>  ,,,,=,,X",
"Xoooooooo    2222222223322o$oo$$XXoooooX,,,,,,,,,,,,,,,,,,,,,,,,  1>11 ,,,,,,,,X",
"Xoooooooo<<<<2222222222332oo$$$$XXooo=oX,,,,,,,,,,,,,,,,,,,,,,,,  111  ,,,,,,,,X",
"Xoo$ooooo<<<<2222222222332ooo$$$XXoooooX,,,,,,,,,,,,,,,,,,,,,,,, 111 =,,,,,,,,,X",
"X$$oooooo<<<<2222222222332ooooo$$XoooooX,,,,,,,,,,,,,,,,,,,,,,,, 111 ,,,,,,,,,,X",
"Xoooooooo<<<22222222223322oooooooXXXoooX,,,,,,,=,,,,,,,,,,,,,,,  111 ,,,,,$$$$,X",
"Xoooooooo     22222223332ooooooooo$XoooX,,,,,,,=,,,,,,,,,,,,=,, 111* ,,,,$$,,$$X",
"Xoooooooo  #8 22222222222oooooooooo$$$$XXXX=XX,,,,,,,,,,,=,,$,, 11* ,,,,,$,,,,,X",
"Xooooooooo   22222222222   ooooooooooo$$$,,,,XX,,,,,$$$,,,,$$,= 11* ,,,,,,=,,,,X",
"Xooooooooooo<<222222222### oooo                  $$$,,$$,,,$,,  11* =,,,,,,,,,,X",
"Xoooooooooooo<<<222222####  ooo ;;;;;;;;;;;;;;;; ,,,,,,$$,,$,, 11*  ,,$,,,,,,,,X",
"Xoooooooooooooo<2222####       ;#################       $$$,,, 11* $$$$=,,,,,,,X",
"Xoooooooooooooooo ###### ;;;;;;######################## ,,,,,, 11* ,,,=,,,,,,,=X",
"Xoooooooooooooooo       ;;;#############################       1* ,,,=,,,,,,,,,X",
"Xoooooooooooooooo  ;;;;;;#################################### 1* ,,,,,,,,,,,,,,X",
"X$oo=oooooooooooo ;;######-#-###-########################+#### * ,,,,,,,,,,,,,,X",
"X=$ooooooooooooo ;;#######--###-#######################++##### * ,,,,,,,,,,,,,,X",
"Xo$$ooooooooooo  ;#######-#####--#-####################++++#+##  ,,=,,,,,,,,,,,X",
"Xoooooooooooooo ;;######--##-#-######################+++++###### =,,,,,,,,,,,,,X",
"Xooooooooooo   ;;#########-#--###--#################++#++#++#####   ,,,,,,,,,$,X",
"Xooooooooo=o ;;############-#-##--####################++++++####### ,,,,,,,,,$$X",
"Xoooooooo   ;################-####--################++##+##+#+#++#++   ,,,,,,,,X",
"Xoooooo  ;;;#################--##--##################+#++##+#+++++++###  ,,,,,,X",
"Xoooooo ;;##############----#########     #############+##+#++++#+###### ,,,,,,X",
"Xooooo ;;################-##--#-     & OO      ###########+#++#+#++++###  ,,,,,X",
"Xooooo ;###################--#  &&&&7O7OOO4OOO   ########+++++++++++#+### ,,,,,X",
"XXXXX ;;####################  &&&OOO7O77444OOOOOO  #########++++#++++++##  XXXXX",
"X,,,, ;-####-########+##### &&&OOOOO4O4OOO4OOOOOOOO ########+#+#+++#++++## ooooX",
"X,,, ;#-#-#--#######+#++## &&OOOOOOO O OO  OOOOOOOOO #######+++#+++#++++##  oo=X",
"X,,, ----##-#######+++++## &OOOO               OOOOO ##+##+++#+#+#++++##### oooX",
"X,, ;###--####-###++####+# &OO  ;;;;;;#########  OOO ####++++#+#++++++#++##  ooX",
"X,, ;---#-##-#--#+#+#+#+## &OO ;;############### OOO ###++++#+++#+#++#+#++## ooX",
"X, ;-#-#-#-#---##++++#+### &OO ;################ OOO ##+++++##++#++++++++++#  oX",
"X, ##-##-##-#--#+#++++#### O  ;;#################  O ##++++#####++++++++++### oX",
"X #######-#--##-##++###### O ;;;#--############### O ###+##+##+##++++++++#+##  X",
"X ###-#-#####--#++++++### &O ;##--#-#-#-########## OO ####+++++++++#+##+#+#### X",
"X ####-#--#-####+++++#### O ;;####--#-#-########### O ####+++#+++##++####+#### X",
"X #####-####-######+##### O ;##--#---###-########## O #####+++++############## X",
"X        ################  ;;###########-###########  #####++++########        X",
"X,,,,,,,,            ####  ;;##-####------##########  #####            ooooooooX",
"X,,,,,,,,,,,%%%%%%%%%      ;;##-#--#####-###########        .......ooooooooooooX",
"X,,,,,,,,,,,,%%%%%%%%%%%%%% ;#-######---#-########## . * .........oooooooooooooX",
"X,,,,,,,,,,,,,,%%%%%%%%%%%% ;#---##-#######  #   ### . * .........oooooooooooooX",
"X,,,,,,,=,,,,,=,%%%%%%%%%%% ;;###-####-###### ######  ** ........oo=oooooooooooX",
"X,,,,,,,,,,=,,,,,%%%%%%%%%%  ;###-###-#-##### #####   *  .........oooooooooooooX",
"X,,,,,,,,,,,,,,,,,%%    %%%%%  ##################   . * .........ooooooooooooooX",
"X,,,,,,,,,,,,,,,,,=% ##   %%%%  ########+######## .. 1* ..........oooooooooooooX",
"X,,,,,,,,,,,,,,,,,,,  ###   %%%% #####+++#++##### .. 1  .........ooooooooooooooX",
"X,,,,,,,,,,,,,,,,,,,, #####  %   #####+++++####   .. * ..........ooooooooooooooX",
"X,,,,,,,,,,,,,,,,,,,, ###### % ##+##++++#+++### .... * .........oooooooooooooooX",
"X,,,,,,,,,,,,,,,,,,,,  #####   #+++++++#+#+#### .... * .........oooooooooooooooX",
"X,,,,,,,,,,,,,,,,,,,,,  ########++##++++##+###  ...  * ........ooooooooooooooooX",
"X,,,,,,,,,,,,,,,,,,,,,, ########++++#++##+##   .... 1  .......oooooooooooooooooX",
"X,,,,,,,,,,=,,,,,,,,,,,  ########+##++###    .....  * ......ooooooo=oooooooooooX",
"X,,,,,,,,,,,,,,,,,,,,,,$   #############  ........ 1* .....oooo=oooooooooooooooX",
"X,,,,,,,,=,,,,,,,,,$$$$$,$   #########    ........ * .....ooooooooooooooooooo=oX",
"X,,,,,,,,,,,,,,,,,$$,,,,,,$$     ##    ........... * ...oooooooooooooooooooooooX",
"X,,,,,,,,,,,,,,,,,,,,,=,,,,$,,,%    %%%X.........    .oooooooooooooooooooooooooX",
"X,,=,,,,,,,,,,,,,,,,,,,,,,,$,,,,,%%%%%%X.........  .oooooooooooooooooooooooooooX",
"X,,,,,,,,,,,,,,,,,,,,,,,,,,X$$,,,,,,%%%X.........  oooooooooooooooooooooooooooXX",
"X,,,,,,,,,,,,,,,,,,,,,,,,,,X$$$,,,,,,,,Xoooooooo  ooooooooooooooooooooooooooooXX",
"X,,,,,,,,,,,,,,,,,,,,,,,,,,$X$$,,,,,,,,Xoooooooo  oooooooooooooooooooooooooooXXX",
"X,,,,,,,,,,,,,,,,,,,,,,,,,,,XX$$,,,,,,,Xoooooooo ooooooooooooooooooooooooooooXXX",
"X,,,,,,,,,,,,,,,,,,,,,,,,,,,,XX$$$,,,,,XooooooooooooooooooooooooooooooooooooXXXX",
"X,,,=,,,=,,,XXX,,,,,,,,,,,,,,,X$$$$,,,,XooooooooooooooooooooooooooooooooooooXXXX",
"X,,,,,,,,,,XXXXXXXX,,,,XXXXXXXX$$$$,,,,XooooooooooooooooooooooooooooooooooXXXXXX",
"XXXXXXXXXXXXXXXXXXXXXXXXXXXXXXXXXXXXXXXXXXXXXXXXXXXXXXXXXXXXXXXXXXXXXXXXXXXXXXXX"
};
