/* XPM */
static char *_2f7d611d98b4beee0cfbace6e6a4ac2dp6uYckO9qz7XavY[] = {
/* columns rows colors chars-per-pixel */
"80 80 28 1 ",
"  c black",
". c #120A0A",
"X c #110D0D",
"o c #1F1212",
"O c #290E07",
"+ c #0A0A24",
"@ c #091033",
"# c #131333",
"$ c #2E2121",
"% c #3B2D2D",
"& c #451B11",
"* c #6B3B0C",
"= c #473130",
"- c #20204F",
"; c #370C6E",
": c #44084D",
"> c #454F54",
", c #644E4D",
"< c #A3103A",
"1 c #995813",
"2 c #D11E50",
"3 c #D64F75",
"4 c #929620",
"5 c #C2A204",
"6 c #E3E61C",
"7 c #B9BD40",
"8 c #531D99",
"9 c #E8EB84",
/* pixels */
"XXXXXXXXXXXXXXXXXXXXXXXXXXXXXXXXXXXXXXXXXXXXXXXXXXXXXXXXXXXXXXXXXXXXXXXXXXXXXXXX",
"XXXXXXXXXoooXXXXXXXXXXXooooooooX$$XooooX,,,,,,,     ,,,,,,,,,,,,,,,,,,,,,,,,,,,X",
"XXXXoooooooooXXooooooooooooooooX$$XooooX,,,,,   ### ,,,,,,,,,,,=,,,,,,,,,,,,,,,X",
"XXoooooooooooooooooooooooooooo$X$X$ooooX,,,   ##### ,,,,,,,,,,,,,,,,,,,,,,,,,,,X",
"XXooooooooooooooooooooooooooo$$XoooooooX,   ####### ,,,,=,,,,,,,,,,,,,=,,,,,,,=X",
"Xoooooooooooooooooooooooooooo$XXooooooo   ###+#+### ,,,,,,,,,,,,,,,,,,,,,,,,,,,X",
"Xoooooooooooooooooooooooooooo$Xoooooo   ####+++#++# ,,,,,,,,,,,,=,,,,,,,,,,,,,,X",
"Xoooooooooooooooooooooooooooo$XXooo   #####+++++### ,,,,,,,,,,,,,,,,,,,,,,,,,,,X",
"Xoooooooo     oooooooooooooooo$XXoo ####++#+#++++## ,,,,,,,,,,,,,,,,,,,,,,,,,,=X",
"Xoooooooo 66    ooooooooooooooo$Xo ####+++##++++#### ,,,,,,,,,,,,,,,,,,,,,,,,,,X",
"Xooooooo 9965>1 ooooooooooooooo$Xo ###++++++#+++#### ,,,,,,,,,,,,,,,,,,,,,,,,,,X",
"Xooooooo 9965>11    oooooooooooXXX ##+#+++++++++++## ,,,,,,,,,,,,,,,,,,,,,,,,,,X",
"Xooooooo 9965:>1111*    oooooooX  ++#+++##++++++#+## %,,,,,,,,,,,,,,,,,,,,,,,,,X",
"Xooooooo 6655>111111***   ooooo$ #++#+++++++#++++### %%,,,,,,,,,,,,,,,,,,,,,=,,X",
"Xooooooo    @@  1111111*** $oo$$ ##+++++++#++++++### %%,,,,,,,,,,,,,,,,,,,,,,,,X",
"Xooooooooo         1111111*     ##++##+#++++##+#++## %%%,,,,,,,,,=,,,,,,,,,,,,,X",
"Xoo$oooooooooooooo     1111*** ###++++++####++##+++# %%%%,,,,,,,,,,,,=,,,,,,,,,X",
"X$$ooooooooooooooooooo     1  #####++#++++++++#+++++ %%%%%,,,,,,,,,,,,,,,,,,,,,X",
"Xooooooooooooooooooooooooo  ######++++++#+##+###+#++ %%%%%%,,,,,,,=,,,,,,,$$$$,X",
"Xooooooooooooooooooooooooo ###+#####++++++++####++++ %%%%%%%=,,,,,,,,,,,,$$,,$$X",
"Xooooooooooooooooooooooooo #####++++##+###++++#+++++  %%%%%%%,,,,,,,,,,,,$,,,,,X",
"Xooooooooooooooooooooooooo ###+#++##+++###+++++#++### %%%%%%%%=,,,,,,,,,,,=,,,,X",
"Xooooooooooooooooooooooooo #+#++#+####+####++++###### %%%%%%%%%%,,,,=,,,,,,,,,,X",
"Xooooooooooooooooooooooooo ##+++++++########++++#####     %%%%%%%,,,,,$,,,,,,,,X",
"Xooooooooooooooooooooooo  ###+++++#++#####+##++###### ***    %%%%,,$$$$=,,,,,,,X",
"Xooooooooooooooooooooooo ######+#+###################   ****      ,,,,=,,,,,,,=X",
"Xooooooooooooooooooooooo ######++#++############      %%   11****   ,=,,,,,,,,,X",
"Xooooooooooooooooooooooo #######+#+######       OOO       %      1**   ,,,,,,,,X",
"X$oo=ooooooooooooooooooo ############### OOOOOOOO  ######  %%%%%   1** ,,,,,,,,X",
"X=$ooooooooooooooooooooo ############## OOOOOO   ######### %%%%%%%       ,,,,,,X",
"Xo$$oooooooooooooooooooo ############## OOOOOO ###########    %%%%%%%%     ,,,,X",
"Xooooooooooooooooooooo  ############## OOOO   ######### ##### %%%%%%%%%,,   ,,,X",
"Xooooooooooooooooooooo ;############## OOOO ########### #####    %%%%%%,,,,,,$,X",
"Xooooooooo=ooooooo=ooo ;#############  OOO ############ ########  %%%%%%,,,,,$$X",
"Xooooooooooooooooooooo ;############# OOOO #############  ####### %%%%%%,,,,,,,X",
"Xooooooooooooooooooooo ;############# OOOO ############ #########  %%%%%,,,,,,,X",
"Xooooooooooooooooooooo ;############# OOOO ############ ####+#+### %%%%%%,,,,,,X",
"Xooooooooooooo=ooooooo ;############# 444  #################+++++# %%%%%%,,,,,,X",
"Xooooooooooooooooooooo ;############  O4O  #########-#-######++##+   %%%%,,,,,,X",
"XXXXXX=X=XXXXXXXXXXXXX ;############ OO4OO #######----#####+++#+###  .XXXXXXXXXX",
"X,,,,,,,,,,,,,,,,,,,,, ;############ OO7OO #####--##-#-##-##+++#+### ....ooooooX",
"X,,,,,,,,,=,,,,,,,,,,, ;############  774  #########-#-#-###++++++##  ...ooooo=X",
"X,,,,,,,,,,,,,,,,,,,,, ;############ &OOOO ;####--##-#-##-####+++++## ...ooooooX",
"X,,,,,,,,,,,,,,,,,,,,, ;############# 774  ;######-#-#########+++#+## ...ooooooX",
"X,,,,,,,,,,,,,,,,,,,,, ;##########-## &OOO ;####---####-#######+#+###  ..ooooooX",
"X,,,,,,,,,,,,,,,,,,,,, ;######-#-#--# &OOO ;###-#--##-#########+#+#### ..ooooooX",
"X,,,,,,,,,,,,,,,,,,,,, ;########--#-# &OOO ;###--####-##--####+++++### ..ooooooX",
"X,,,,,,,,,,,,,,,,,,,,, ;####-#-##-### &&OO ;;###-#-####-####  #+++###  ..ooooooX",
"X,,,,,,,,,,,,,,,,,,,,,  ;####--######- &OOO ;;;;##-#--#-### . ####### ...=oooooX",
"X,,,=,,,,,,,,,,,,,,,,,,, ;#####-###-## &&OO   ;;######--##  .   ##### ...ooooooX",
"X,,,,,,,,,,,,,,,,,,,,,,, ;######----#-# &OOOOO ;;;######;; .... ##### ..oooooooX",
"X,,,,,,,,,,,,,,,,,,,,,,, ;##-##--####-- &&OOOO   ;;;;;;;; ...   ####  ..oooooooX",
"X,,,,,,,,,,,,,,,,,,,,,,  ;###-###-##-#-# &&&&&OOO  ;;;    ..  ###### ..ooooooooX",
"X,,,,,,,,,,,,,,,,,,,,    ;;#--##-###-####       &OO   ...... ######  ..ooooooooX",
"X,,,,,,,,,,,,,22222,, ## ;;###--####--##########      .....  ###### ..oooooooooX",
"X,,,,,,,,,,,222333222 ##  ;;###-####-######+######### ..... ######  ..oooooooooX",
"X,,,,,,,=,,22233333322#### ;#############++#+######## ....  ####   ..ooooooooooX",
"X,,,,,,,,,2233322233222### ;#############++##+####### .... ####  ....ooooooooooX",
"X,,,,,,,,222222222232222## ;############+#+#+#+#+#### .... #    ....oooooooooooX",
"X,,,,,,,,222222222222222## ;#############++##++#++## .....   ......ooooooooooooX",
"X,,,,,,   222222222222222# ;;#############+++++++++# .............oooooooooooooX",
"X,,,,,, 8 222222222222222#  ;;#############+#+++++## .............oooooooooooooX",
"X,,,,,,    22222222222222    ;;;############++##++## ............ooooooooooooooX",
"X,,,,,,  8 22222222222222,,,,  ;;#############+#++## ...........oooooooooooooooX",
"X,,,,,,  # 222222222222<<,,,,,  ;###########-##-#### .........oooooooooooooooooX",
"X,,,,,,      2222222222<,,,,,,$$ ;#########----#-### ...o.o.oooooooooooooooooooX",
"X,,,,,,,,  8 <22222  2<<,,,$$$,, ;###########--#-### .ooooooooooooo=oooooooooooX",
"X,,,,,,,,  #   <<<2 8 <$$$$$,,,,  ;#####--##--#-##-# oooooooooo=oooooooooooooooX",
"X,,,,,,,,= # 8 <<<< # $$,$$,,,,,,, ;#####--###--#-## oooooooooooooooooooooooo=oX",
"X,,,,,,,,,   # <<<<   ,,,,$$,,,,=, ;#########-###### ooooooooooooooooooooooooooX",
"X,,,,,,,,,,,   <<<<  ,=,,,,$,,,,,, ;;####-#--##-#-## ooooooooooooooooooooooooooX",
"X,,=,,,,,,,,,,,,,,,,,,,,,,,$,,,,,,, ;;####--#--##-# oooooooooooooooooooooooooooX",
"X,,,,,,,,,,,,,,,,,,,,,,,,,,X$$,,,,,  ;;;---#-###-#- ooooooooooooooooooooooooooXX",
"X,,,,,,,,,,,,,,,,,,,,,,,,,,X$$$,,,,,,  ;;#-#--###-# ooooooooooooooooooooooooooXX",
"X,,,,,,,,,,,,,,,,,,,,,,,,,,$X$$,,,,,,,,  ;-#-#-#-## oooooooooooooooooooooooooXXX",
"X,,,,,,,,,,,,,,,,,,,,,,,,,,,XX$$,,,,,,,Xo  ;;-##### oooooooooooooooooooooooooXXX",
"X,,,,,,,,,,,,,,,,,,,,,,,,,,,,XX$$$,,,,,Xooo  ;##### ooooooooooooooooooooooooXXXX",
"X,,,=,,,=,,,XXX,,,,,,,,,,,,,,,X$$$$,,,,Xooooo  #### ooooooooooooooooooooooooXXXX",
"X,,,,,,,,,,XXXXXXXX,,,,XXXXXXXX$$$$,,,,Xooooooo     ooooooooooooooooooooooXXXXXX",
"XXXXXXXXXXXXXXXXXXXXXXXXXXXXXXXXXXXXXXXXXXXXXXXXXXXXXXXXXXXXXXXXXXXXXXXXXXXXXXXX"
};
