/* XPM */
static char *result[] = {
/* columns rows colors chars-per-pixel */
"80 80 167 2 ",
"   c #0F0B0C",
".  c #100C0C",
"X  c #190F0F",
"o  c #1A100F",
"O  c #0E0C13",
"+  c #0E0E1D",
"@  c #150F13",
"#  c #190F12",
"$  c #150F1B",
"%  c #171016",
"&  c #1C1111",
"*  c #16101C",
"=  c #1B131B",
"-  c #261C1C",
";  c #291E1D",
":  c #2B201F",
">  c #0C0E26",
",  c #0D0F2E",
"<  c #120F23",
"1  c #100F29",
"2  c #0F102E",
"3  c #141123",
"4  c #1B1523",
"5  c #1E1926",
"6  c #13122B",
"7  c #19162B",
"8  c #1D192C",
"9  c #0C0F34",
"0  c #090F3C",
"q  c #0D1033",
"w  c #0B113D",
"e  c #151532",
"r  c #181734",
"t  c #161834",
"y  c #1C1A33",
"u  c #12153C",
"i  c #16183E",
"p  c #1A1B3C",
"a  c #221B23",
"s  c #291F21",
"d  c #211B2C",
"f  c #221E35",
"g  c #281F31",
"h  c #231F39",
"j  c #292024",
"k  c #27202A",
"l  c #2A222E",
"z  c #392827",
"x  c #36282E",
"c  c #3D2B2A",
"v  c #2A2333",
"b  c #24213C",
"n  c #2A253C",
"m  c #2F293E",
"M  c #3B2D35",
"N  c #332C3E",
"B  c #392E3C",
"V  c #3C323F",
"C  c #422E2D",
"Z  c #45302E",
"A  c #42363F",
"S  c #46393E",
"D  c #4D3D3E",
"F  c #503F3E",
"G  c #51403F",
"H  c #090F40",
"J  c #0A1243",
"K  c #0E154A",
"L  c #0F184E",
"P  c #121642",
"I  c #151942",
"U  c #1B1D42",
"Y  c #10174A",
"T  c #131A4C",
"R  c #1C1E4B",
"E  c #0F1850",
"W  c #131B53",
"Q  c #191F54",
"!  c #151E5A",
"~  c #201F41",
"^  c #1F2046",
"/  c #1C2253",
"(  c #17205E",
")  c #19215D",
"_  c #242242",
"`  c #2A2641",
"'  c #2E2942",
"]  c #252549",
"[  c #27284F",
"{  c #2D2B4B",
"}  c #332C41",
"|  c #373042",
" . c #3B3241",
".. c #353049",
"X. c #3B344E",
"o. c #3F384D",
"O. c #212554",
"+. c #272952",
"@. c #2A2B53",
"#. c #212559",
"$. c #262A5B",
"%. c #292B58",
"&. c #343151",
"*. c #3B3552",
"=. c #343359",
"-. c #3A365B",
";. c #172160",
":. c #1A2463",
">. c #1C2669",
",. c #1E296D",
"<. c #1F2A70",
"1. c #272D65",
"2. c #292D61",
"3. c #232C6F",
"4. c #2E346F",
"5. c #313361",
"6. c #3C3B68",
"7. c #222D74",
"8. c #242F79",
"9. c #26317C",
"0. c #2A347D",
"q. c #303878",
"w. c #413642",
"e. c #453943",
"r. c #4C3D42",
"t. c #443A4B",
"y. c #4A3E4B",
"u. c #503F41",
"i. c #443C54",
"p. c #463F5B",
"a. c #4F4044",
"s. c #4E414C",
"d. c #544342",
"f. c #594645",
"g. c #5C4846",
"h. c #52444B",
"j. c #584748",
"k. c #5E4A48",
"l. c #4D4254",
"z. c #45405F",
"x. c #4B435C",
"c. c #514452",
"v. c #514559",
"b. c #604C4A",
"n. c #474264",
"m. c #4B4464",
"M. c #45426D",
"N. c #49456B",
"B. c #454472",
"V. c #484672",
"C. c #424379",
"Z. c #273481",
"A. c #2A3684",
"S. c #2C3986",
"D. c #2B3789",
"F. c #2E3A8B",
"G. c #313D8D",
"H. c #2F3D91",
"J. c #323E92",
"K. c #36418E",
"L. c #3B438C",
"P. c #354195",
"I. c #384496",
"U. c #36439B",
"Y. c #38459C",
"T. c #3745A0",
"R. c #3946A2",
/* pixels */
". . . . X   . . . . X .     .               O O @ $ 6 / U * O                               , / :.>.>.! J 9 > + O .   .   . .   . . . . . . . . .             . ",
". .   . X o . . . o & &               O O + $ 6 e R / Z.0./ 4 O 5 a   X X X .   d.d.u.d.d.r.i.Z.F.G.G.A.2.T P i  . .e.d.d.f.f.f.G b.b.f.G b.f.b.b.b.b.b.b.b.b.  ",
". . . . & & & & o o & & o .   o # & * 4 r i ~ #./ 8.Z.0.H.H.U + - -   X X X o   u.d.d.u.r.e.T 1.J.T.Y.J.Z.! J R } w.e.d.f.d.d.C f.f.G b.b.b.b.f.b.g.f.b.b.b.b.. ",
". . & & & & & & o o & & o o o o & & 7 O.3.3.A.F.D.A.H.J.P.F.] w 5 O - & o & & O d.a.d.d.d.r.t.6.J.T.T.U.Z.;.K J J P } e.G d.f.d.f.G b.f.b.G f.b.G b.f.b.b.b.b.. ",
". . & & & & & & & & & o o o & o & 6 I 0.H.H.D.J.P.J.H.J.D.7.E q q % & & & % = 7 l.x.l.h.d.r.y.Z.D.F.D.Z.<.! J H J J p e.d.d.f.d.f.f.f.f.b.f.C f.b.b.b.b.f.b.C . ",
". & & & & & & & & & o & o o o o & 3 Y >.H.T.U.J.H.D.Z.7.>.! K H q % X . % 3 L S.J.U.P.x.y.e.{ [ ;.;.;.;.W K K J J J i e.d.G G f.G f.G b.f.f.f.f.f.f.f.b.b.g.b.  ",
". & - o & & & & & & o & o o o o $ 0 K >.H.U.J.D.7.>.;.! E J J 9 * % X & * w P t x.=.U.P.i.J w K Y J K K K J J H w } e.u.G f.G f.C G G f.G f.f.f.g.b.f.f.f.b.f.  ",
". & X X & & & & o & o o o o o o # * u <.Z.D.8.>.W K J K H J , + % X X & * w b 3 y.x.M.P.x.e. .w J w J J J J K J _ B D F G G d.G f.G f.d.f.f.f.f.f.f.f.b.b.f.b.  ",
". & o X o & o & & & o o o o o o # * K W ( ( ! E K J J J H 0 7 O O % X X % J P t n.n.U.P.l.r.S A V m b w w J J J P  .e.D d.d.G G d.G d.f.G f.f.f.f.f.f.g.g.g.C . ",
". & o - & o & o o & o o o o X o @ 1 q J K K K J J J H H w q 3 q , @ X . % 3 T 9.J.P.P.x.s.D G D D e.S V  .' n w 0 w p D D G G G G G f.G G f.d.f.f.f.f.f.g.f.g.. ",
". & & o o & & & & o o o o o X o 0 0 w q H J J J H 0 q q w 0 0 q O & o X % * Y :.F.M.x.s.a.D G z G G D S G S Z V  .w.S D u.D d.d.u.d.G d.d.d.d.d.G f.f.f.f.g.g.. ",
". & o & & o o & o o o o o o X X % * 0 0 0 H 0 9 q 0 0 0 q $ $   O   X X & & 7 ) D.M.l.a.G G G F D G G G D G D D D D D D S e.e.y.h.d.G d.G d.d.d.G f.f.f.g.f.f.. ",
". o & o o & & o o X o o o # & & % & % * > , 0 0 0 q $ * o o X       X X X # 3 ( F.P.m.h.F F G F G G D G F F F G D G D S w.J Y S.l.s.d.F r. . .d.f.d.f.f.f.f.f.. ",
". o o & & X X o & & X o X & = d 5 = % @ & % * $ * * % @ X X X -     X X X & 4 ) F.U.J.c.u.F G D G D z D F F F D G D D w.w  .t.i.G.p.t.} }  . .r.G d.G f.C f.f.. ",
". & & & # & & & & + % & & = f P.P.5 % & # # X @ @ X X - X X - -     . X X & 3 ) F.C.n.y.d.D G G G G G D F F G D D D D | K *.y.y.x.H..._ _ w P w. .V d.d.d.f.f.. ",
". o & o & & % < % < % & 4 8 G.b b y 8 % & X X X X X X X - - - -     X X X x * W G.J.P.h.a.d.G G G G G G F F F G D D  .T ) A.n.x.x.F.&.K J _ P }  . .r.d.d.f.f.. ",
". o X ; & * 1 1 3 0 % % e A.y 8 f P.J.4 & & # X X X X X X - - -     o X & & = 3 x.x.l.s.a.a.a.G G G G G D G G G D S X.:.S.J.P.P.x.t.P J K K E L K _ } d.d.d.f.. ",
". : ; & = ] u J q 0 3 3 e Y 7 8 _ P.] 5 & & & X o o X o o o o - -   o . o & & t l.z.l.l.s.l.l.s.G G G D G D D D S o.;.F.J.M.n.J.s.t.| J J T >.! K J } r.d.f.d.. ",
". o o # d A.;.Y w 0 q 0 q J 3 y S.J.%.h 8 4 * o o o o o o o o o X       o & & O d.h.d.h.s.s.s.M a.a.a.a.a.a.G r.t.) F.P.J.x.s.y.a.S l w K W ,.<.W K e a - ; d.  ",
". o o - h J.8.! K J H H w q w K ) S.J.U.[ P.= & o o o o o o o o o o :   o o & % s.h.h.v.x.x.m.*.x.z.x.l.l.a.a.a.y.G.J.P.-.l.r.D S S _ w J E ,.9.>.T r e.u.- ;   ",
". # & 5 1.J.D.;.K J J J H 6 3 3 Y :.F.U.I.b = & o o o o o o o o o o o : : ; : 3 P.3 8 Y.U.Y.Y.Y.Y.T.Y.Y.N.x.n.a.y.| x.n.G.y.r.D S w w ^ J E <.A.9.W } } r.d.d.. ",
". X = f J.U.D.;.K J H J J 3 @ % * r :.F.P.b = # o o o o o o o o o o o X o & j v P.v.x.I.U.Y.Y.T.Y.R.R.R.Y.Y.{ z.d.r.r.s k u.z D D V i w J E >.A.Z.;.P ' | d.d.  ",
". X = _ U.U.A.;.K J w J 0 $ # X & * 8 ) F.8 & & o o o o o & o & & o o o o & j j c.h.h.c.x.' p @.I.Y.Y.R.R.R.Y.{ s.r.G - D G D D D V w _ J K ( 9.9.;.K } } r.d.  ",
". & 8 1.J.J.8.! J J w J 3 @ X X o & * 4 8 = & & o o o & & o & o o & o & & & & . f.d.f.j.f.f.M h.v.m.L.Y.T.Y.R.Y.@.x.s.- D D G F D S p ' J J E >.7.;.K w |  .d.  ",
"  = d G.J.H.<.E J J J H $ @ # X o X o & & & & X & X o & & & & & & & & & & & & . f.f.f.f.f.d.: G j.h.v.x.n.Y.Y.Y.Y.Y.{ s.r.D G D D D V q w w K W ,.;.E J J | u.  ",
"  # d D.J.A.:.K J H H H * # X X X X X X o o & X X o o & & & o & & o & & & & & . f.f.f.f.f.f.- : d.d.d.d.h.l.m.L.I.T.Y.m.s.F F G D D S w m J K E ;.>.! J J w.z   ",
". * d $.J.8.! K J J q 0 $ # X X X X X X o o o o o o & o & o & & o & o & & o & . f.g.f.f.f.f.f.: : ; d.d.f.d.h.m.I.T.T.P.l.G F F F D D A p w K L ! ;.W J i e.d.  ",
". & 8 F.D.:.K 9 H H 6 0 @ o X X X X & X o o o o o & o & & & & o & & & & & & & . f.k.f.f.f.f.f.f.f.d.f.c d.d.d.h.x.L.Y.Y.x.a.G G G D D S  .w u P E W K _ w.u.d.  ",
". a 8 8.7.W J e w 9 < $ # X X X X # o o o o o o & & & o & o o & & & & & & & & X g.f.g.g.f.Z f.f.f.; d.f.G C G d.h.m.Y.Y.x.d.a.G G F F D S p } J J K Y u  .r.d.. ",
". x J Y i Y J 6 0 w w % & X X X X X o o o o o o & o o & o & & o & & & & & & o . g.g.g.g.f.f.f.f.C f.f.d.f.d.f.G d.l.P.U.n.B d.G G D G F D S A i P J } w u e.d.. ",
"  # a 8 w J 0 1 0 w < % X X X o X # o o o o o o o & o & - o o & & - & & & & & . k.g.f.k.g.f.g.Z : f.f.f.f.d.f.c d.B x.I.P.l.r.G z G F z d.D D w.V i  .p p r.G   ",
"  X # & % $ 1 * 0 0 % @ X X X . X X X o o X o & & o & o X o & & o o & & & & & . g.k.k.g.k.k.f.: f.f.f.f.f.f.d.f.d.d.h.m.U.x.a.d.G z d.G G G G d.D r.e.r.r.u.d.  ",
"  o X & % & & * % * % & o X X o o o o o o o o & & & o & & & & & & & & & - & & o k.k.g.k.g.k.g.g.C g.g.G g.g.f.G g.G h.x.I.m.h.d.G G G G G G G G d.F u.d.u.; d.. ",
"  o X X # & = = 4 = B = X X X o X o z o o o o & o o & & & & & & o - & & & & o o k.k.k.k.k.g.k.g.g.g.g.g.G g.G g.G g.f.v.I.P.l.d.G G G d.G G D d.G d.d.d.d.; ;   ",
"  o X & X & 4 G.8 b P.7 & & o o & X o o & & & & & & & & & & & & o & & & o o o X k.k.k.k.k.k.g.g.g.g.g.C f.f.k.G g.g.f.c.P.U.x.d.d.G G a.d.d.d.d.d.h.s.d.u.d.f.  ",
"  o & & & = 8 d f P.P.b 4 4 5 = & X o = = 5 = & & & & & & & & & o & & & & o o X   k.b.g.k.k.Z : k.g.g.g.g.f.g.f.g.G f.h.m.U.x.h.d.G d.d.d.h.s.d.d.h.J.l.h.d.f.  ",
"  o o o & 8 P.d y @.P.@._ ] P.8 % X & = b P.8 & o o & & o o o & & & & & & & & o     k.k.k.k.k.: g.k.g.g.g.g.f.f.: : : h.x.U.x.h.d.d.a.h.c.x.J.l.l.x.N.m.l.h.d.  ",
"  X o o & d G.8 y A.S.F.P.U.P.y = X & y P.Y.b = o & & & Z o & & & & & & Z & o X   C X g.k.k.: : g.k.k.g.g.g.f.g.d.f.j c.V.Y.v.d.d.d.l.P.x.J.U.N.M.U.U.J.J.h.d.  ",
"  X o o # * 5 7 t W ) >.S.F.G.y % o = b U.Y.n & o o & & o o & & & & o & o o o .         k.: : k.b.k.g.g.g.g.g.f.f.f.j v P.Y. .h.d.d.l.U.x.x.n.U.J.J.J.G.! s.f.  ",
"          O f w J J K Y p ) W + O   O f Y.Y.p X . . . o O   . . X o . . X . . . X     X X : o o     . C             O 7 P.~ * .   $ 3 P.7 4 r G.S.>.) p 3 O     ",
"  G d.G D B _ ` J ' | '  .e.V G G G a.x.Y.Y.N.c.f.d.f.f.f.f.k.f.k.g.k.k.. . . . o & & & - & Z & - & & & - & & & o o = v q.d j : X & = 5 4 * 7 W W y 4 = # X X   ",
". d.d.F e.N J J u N l B S D D D G G a.x.I.T.U.v.d.d.f.f.f.f.f.k.g.k.g.k.g.b.. . o & & & & & & & & & & & o & & & & & : l K.a & o ; X & * w w 4 J 4 % # # # X C . ",
"  G G d.S J J J H ^ w n m D G G G D a.x.U.R.Y.*.h.f.d.f.f.f.f.f.g.g.k.k.k.k.. . & & & & & & & & & & & & o o & & & & : = = = & o o ; & & * * # * % # @ # X X # . ",
"  G f.G w.P J J H J P J N S D G G G a.l.I.T.T.N.s.f.c f.f.f.g.g.g.g.k.g.g.k.k.. & & o - & & & & & & & Z & & Z & & & o & = & & o X ; X X & & & # 3 % $ X - # X . ",
"  d.d.u.t.W E J J J J H b S D G G G G s.m.U.Y.U.v.h.f.f.f.f.f.f.G b.g.k.k.k.k.. & & & - & & & - & & & - & & & & & & & & o & o o o ; ; ; X & # $ < 3 q 4 # % # . ",
"  f.d.u.i.7.;.E J J H ' n M D D G G G a.l.I.Y.Y.n.h.c d.f.f.f.f.g.k.g.g.g.k.k.. & & & & & & & & Z & & Z & & & & & & & o o & o o o o X X o # * 1 w H K y 4 * # @ ",
"  u.u.e.W 0.8.! K J 0 m V n D G G S G G s.l.N.U.U.x.h.f.f.f.f.f.G g.g.g.g.k.k.. & & & & & & - & & & & & & & & & & & & & & o & o o o o o & # < 9 H H Y 1.T 7 <   ",
". d.d.e.R 4.D.>.E J J m w n V S G G G G G a.l.N.Y.B.c.d.f.d.f.f.b.g.g.g.k.g.k.. - o & & & & & & & & & & & & & & & & & & o & o & o o o X # * 2 H 0 K E ;.0.T 4   ",
"  d.F e./ S.H.9.! K w ' 0 ' b D D F F F F D l.L.N.I.n.h.h.d.f.f.f.f.g.f.g.g.g.. & & & & & & & & & & & & & & & & & & & & & & & & o o o # & < w 0 J K ! 8.A.W 4 @ ",
". d.f.e.T A.J.A.( K J _ J w b S F F F F D G s.K.n.m.x.m.x.h.h.j.u.g.f.g.g.g.g.. & & & & & & & & & - & & & & & & & & & & & & & & o o o & & 1 0 w J K ) 8.8.T * . ",
". d.u.r.t.>.H.D.;.K J _ H H ' B S F D F G G a.l.K.I.n.m.m.N.n.c.k.u.g.f.g.g.g.. & & & : & - & & & & & & & & & & & & & & & & & & # X X z % w w H J K ;.7.:.r & . ",
". d.d.d.t.$.J.F.<.E J ` 0 J w N D D G F D G a.s.x.I.Y.Y.Y.V.I.N.m.b.g.f.f.f.f.. o z : : & & & & & & & & ; & & & & & & & & & & & X X X # $ H J J J K :.7.! 7 % . ",
". d.G f.u.p.J.J.9.( J _ ^ w w V D D D G F F D d.a.x.N.Y.R.R.5.{ ` { v : : ; . . X : o o & & & & & & & & & & & & & o o & & & o o X & X X = w H H K W ,.8.! w * . ",
". d.f.G f.l.G.U.A.( K J J w p V D D F D F D G G d.s.K.N.U.U.Y.Y.N.m.v.c.f.g.f.. o o & & & & o & & & & & & & & & o & & o & & o o X # - X 3 H H J K ;.8.Z.Q u % O ",
". d.f.f.u.s.n.J.A.( K J J w | S D D G D D G G G d.a.s.s.x.n.=.Y.Y.Y.Y.v.f.d.f.X & & & & & & & & & & & & & & & & & o o & & o & & # # # = 2 1 2 K E >.Z.Z.T 4 #   ",
". f.d.d.f.u.l.A.0.W J J J J N S r.a.r.y.d.r.u.u.G G d.a.d.B G.x.m.N.N.Y.d.f.f.X & & o & & & & o & & & & & & & & o & & o & & - : 7 - # * 9 3 q J ! 7.D.:.Y * & . ",
"  f.f.f.d.d.a.s.N I i J P w w S r.s.G.x.x.i.r.u.G F G u.u.f.g h.y.L.J.v.b.f.u.# o & o & & & o & o & & o o & o & & o & & C = g J.J.d - x = $ 0 w E 0.0.T 4 & o . ",
"  f.f.d.f.d.d.d.a.e. .g V i p e.r.s.M.P.J.F.y.r.F G G G F - d.f.j.c.c.y.u.f.f.. & & & o o & & & & & o & & o & o & & & & = g I.~ h h 7 = # # $ 4 e y T Y = o o . ",
"  f.f.f.f.G f.f.G G G D D w.e.y.s.z.P.P.F.) t.D F F F F F - u.u.u.u.u.b.d.d.u.. & o & o & & & & o & & o o & & & o o o & M F.g w.h J.J.a & & # = * = * = # & o . ",
". f.f.f.f.f.G f.d.G G d.r.r.l.P.n.B.J.F.:.m D D F F F F F - F F u.f.f.u.d.f.u.. o & o o o & & & & o o & o & & o o o o & 4 K 7 7 p.J.] d = & & # X X & & & o o   ",
". g.f.f.f.G f.G G d.a.d.d.s.x.P.P.J.S.:...D D D F F F F F - - F F f.G G F f.F . o o o X & X & X o o o o & X X & & X X & $ J 7 r F.J.%.` d a - & & & o & & & o   ",
". f.g.f.f.f.G f.d.d.G d.l.P.x.x.n.D.( T w.S D D F F F F F F - F G G G f.f.F G . o o C X X & X & o & o & & & & X X & X & # * P Y :.D.J.J.+.J.= # & o & o & & & X ",
". g.g.f.f.f.f.f.f.d.d.d.s.P.x.y.y.*.Y } A S B A S D D D D D - ; G G G G f.G G . X o X X & X & & & & & & & & & # # # & & # # $ 7 Y :.J.J.J.] = # o & - X & & o   ",
". g.g.g.f.f.f.f.f.G d.d.h.x.P.i.t. .w  .N V A A B S S S B B F ; G G G G F G G . X & X & X & # # # < < $ < < < < # # # & # & # # 3 r 1.J.J.h - & & o X X o o o X ",
". g.g.g.g.f.f.f.G g.G f.d.h.l.F.Y w V N n } w i V b h ' | } V - a.G G G G G G   o o o X X # @ < < 3 , 1 3 9 < 3 q % & % & & o & & * r ) P.d & & & & & & & & o   ",
". g.b.g.f.g.f.f.f.g.g.G d.d.h.s.t.S  .V J P _ U J _ U P w w 7 7 B G G G G a.a.  & o o o & @ < 9 e 0 H 0 0 0 w 0 1 * 3 % # & X o & & = 4 5 = & & & & & & & & o X ",
". g.g.g.g.g.f.g.f.G G C d.d.d.f.a.G S w I _ J J J J H J u w u } m V D G G G s.3 = & o o # & * 0 H 0 J J H J 6 6 H 2 q * * & X & & o & c & & & & & & o o & & - X ",
". b.b.g.g.g.g.f.f.g.g.G G f.G G G a.S P K W E K K J J J J J J w ` m e.G d.s.x.K.y % & o # % 0 w H J H J J J J H J J 0 q % & X c o & & o & o o - o o o - & & & o ",
"  b.g.b.g.g.g.g.g.C G f.g.G f.G G G e.8 L :.( ( ! E E E K J J J J m V G a.x.Y.F.) 4 & & # @ 3 2 H H K H J J J J J J J w & o o & & o & & & o & o & & & & & Z & . ",
"  b.b.g.b.g.g.g.g.f.g.f.f.g.G f.G a.a 8 { W ( >.<.,.>.;.! K K J H p w.G a.x.P.F.( 4 % & # & * H J K H H J J J J J H w * = o & & & & & & o & X - & & & & & & & . ",
"  b.g.b.b.g.g.g.g.f.g.f.f.G g.G d.r.u U } O.( >.<.8.<.<.,.;.E J 0 I S G d.x.U.F.( 6 & & @ % 2 w J K H K K H K J J 6 3 % & o & o o & & & & & X X - & & & & & & X ",
". b.b.C b.b.g.g.g.g.g.f.g.g.G f.d.d.r. .K 3.( :.>.>.>.<.<.,.E J } A r.G a.l.B.D.( J & & % 0 w w J H K H H K J H w 6 * = & & & & & & & o & & & & & & & & & & & . ",
". b.b.b.k.k.k.k.k.f.k.f.g.f.f.f.f.d.d.r.t.Q 7.<.;.;.:.>.<.:.E U ' e.G a.a.m.P.F.( 6 $ & & % 3 w J H J H J J J J 2 6 q 2 & o & & & & & & & & - o & & & & & & X . ",
". b.b.b.b.k.k.k.k.g.k.g.g.f.f.G d.f.d.d.r.t.i.W ! <.9.8.7.>.L J w S a.d.s.I.Y.P.y w % & & & % * > , 2 H J w J w 0 H 0 * & & & & & & & & & & o o & & & & & & . . ",
". b.g.b.b.k.k.k.k.k.k.f.g.f.f.f.f.f.f.d.d.d.d.e.o.&.=.! W Y p w w p D a.h.l.x.y 5 = & # # X o & & % * * * 3 3 * * * * & & & & & & & o o o & & & & & - & & . . X ",
". b.b.b.b.b.b.k.k.k.g.k.g.g.f.f.f.f.j.d.d.d.d.G a.a.a.r.3 + a a w.e.d.d.d.s.v.7 4 & & o o o o o & & & & % & & & & & & & & & & & & & & & - & & & - & & & & . . . ",
". b.b.b.b.b.b.k.k.k.k.k.g.g.g.g.f.f.f.f.G f.f.f.d.d.d.d.d.    - - - d.d.f.h.P.P.5 = o o o & o & & X o & o & & o & & o & & & & & & & o o o & & & & & & o X X . . ",
"X b.b.b.Z b.b.b.Z k.k.k.. . . f.f.f.f.f.f.f.G f.f.f.G d.d.d.  - ; ; ; d.d.h.c.3 & & o o & & & o & & & o o & o & & & o o & & & & & & & o & & & & & & & o .   . . ",
". b.b.b.b.b.b.b.b.k.k.. . . . . .   . f.f.f.f.  . . .         - - : : d.d.j.d.% & & & o & o o o X & & & & o & o o o o o & o o & & o & o & o o o & & o   . X . . ",
". . X . . X O . . . . . . . . . . .   .     .                                   .   . .   . .           .   . . O . . . X . . . o X X X o X X . o o X X . . . . "
};
