/* XPM */
static char *result[] = {
/* columns rows colors chars-per-pixel */
"80 80 246 2 ",
"   c #0F0C0D",
".  c #110C0D",
"X  c #190E0F",
"o  c #0F0D10",
"O  c #110E13",
"+  c #1D0E11",
"@  c #130F18",
"#  c #141112",
"$  c #1C1113",
"%  c #13111B",
"&  c #1D141B",
"*  c #1E1B1C",
"=  c #220E12",
"-  c #280F14",
";  c #221213",
":  c #2C1315",
">  c #22151B",
",  c #2C141B",
"<  c #241B1E",
"1  c #2B1B1D",
"2  c #321316",
"3  c #331419",
"4  c #3A141A",
"5  c #34181D",
"6  c #1D1623",
"7  c #1B1724",
"8  c #1D162B",
"9  c #1E182C",
"0  c #1E1A33",
"q  c #1E1B39",
"w  c #231523",
"e  c #2A1624",
"r  c #231924",
"t  c #2B1C24",
"y  c #27162B",
"u  c #231A2B",
"i  c #2C1A2B",
"p  c #331924",
"a  c #321C2B",
"s  c #231B34",
"d  c #2B1C36",
"f  c #231C3C",
"g  c #361B38",
"h  c #2B2225",
"j  c #252228",
"k  c #2A222B",
"l  c #33242A",
"z  c #39252A",
"x  c #2A2334",
"c  c #372736",
"v  c #393339",
"b  c #44161C",
"n  c #451A39",
"m  c #571B31",
"M  c #442B2E",
"N  c #462A38",
"B  c #562935",
"V  c #4A3233",
"C  c #4B3839",
"Z  c #652436",
"A  c #1F1E42",
"S  c #261E45",
"D  c #371C44",
"F  c #341F50",
"G  c #1F2048",
"H  c #282248",
"J  c #362749",
"K  c #282657",
"L  c #352655",
"P  c #3F395F",
"I  c #382461",
"U  c #531D4A",
"Y  c #6D1E4D",
"T  c #751D4B",
"R  c #432746",
"E  c #4C3B47",
"W  c #543D4D",
"Q  c #5C3D4C",
"!  c #5A2953",
"~  c #473C57",
"^  c #4B3E53",
"/  c #433C5A",
"(  c #543D54",
")  c #6B3053",
"_  c #753956",
"`  c #7E1F63",
"'  c #4D3A67",
"]  c #683A68",
"[  c #773468",
"{  c #4F414E",
"}  c #554446",
"|  c #5B4647",
" . c #5C4947",
".. c #54444B",
"X. c #5A454A",
"o. c #5D4A4A",
"O. c #4D4153",
"+. c #4A4058",
"@. c #534452",
"#. c #5C4856",
"$. c #54445B",
"%. c #5E5059",
"&. c #634547",
"*. c #684547",
"=. c #634449",
"-. c #6B4648",
";. c #624B4A",
":. c #6B494A",
">. c #714A4C",
",. c #654B54",
"<. c #724C53",
"1. c #645353",
"2. c #6B5859",
"3. c #76585A",
"4. c #4C4367",
"5. c #564966",
"6. c #5C4D72",
"7. c #6E546D",
"8. c #7B6468",
"9. c #7C647C",
"0. c #9F1D4E",
"q. c #931D53",
"w. c #A11E4E",
"e. c #A21E51",
"r. c #AF1F56",
"t. c #B91F5A",
"y. c #872958",
"u. c #912355",
"i. c #A1204F",
"p. c #A52153",
"a. c #AB2457",
"s. c #AC245B",
"d. c #B4235B",
"f. c #B8255D",
"g. c #941F62",
"h. c #A71E64",
"j. c #8F2C68",
"k. c #983975",
"l. c #A92769",
"z. c #B92866",
"x. c #B33171",
"c. c #D01E5F",
"v. c #C3235F",
"b. c #CD1E65",
"n. c #D31C64",
"m. c #DB1C68",
"M. c #F80C68",
"N. c #EB1167",
"B. c #E91668",
"V. c #E41C6B",
"C. c #EB1C6C",
"Z. c #F6156B",
"A. c #F6176C",
"S. c #FB136D",
"D. c #F31B6D",
"F. c #FB1471",
"G. c #F51A73",
"H. c #FD1B73",
"J. c #FF1E7A",
"K. c #C62666",
"L. c #CC2B6A",
"P. c #D62669",
"I. c #DB236C",
"U. c #C7346C",
"Y. c #D4316D",
"T. c #C72674",
"R. c #DC2574",
"E. c #D82B74",
"W. c #CA3A75",
"Q. c #DB3272",
"!. c #D83B78",
"~. c #E3236C",
"^. c #E9236D",
"/. c #EB2374",
"(. c #E82875",
"). c #E42C7C",
"_. c #ED2A7B",
"`. c #F22474",
"'. c #FD2276",
"]. c #F72A75",
"[. c #F3257A",
"{. c #FD247B",
"}. c #F42A7C",
"|. c #FE2A7D",
" X c #E2347B",
".X c #E6377A",
"XX c #F8337D",
"oX c #89536F",
"OX c #AE487C",
"+X c #876E73",
"@X c #896778",
"#X c #976A7D",
"$X c #94757C",
"%X c #D7437B",
"&X c #E8427F",
"*X c #755E82",
"=X c #D23B83",
"-X c #E92980",
";X c #FD2581",
":X c #F32D81",
">X c #FE2C82",
",X c #E93A82",
"<X c #F43382",
"1X c #FE3385",
"2X c #F53B84",
"3X c #FD3C85",
"4X c #FF3489",
"5X c #FF3C8B",
"6X c #8E5D86",
"7X c #A95685",
"8X c #856D87",
"9X c #976A85",
"0X c #8C748A",
"qX c #987A87",
"wX c #AA6B87",
"eX c #DA4982",
"rX c #C45084",
"tX c #EB4885",
"yX c #F44388",
"uX c #FF428D",
"iX c #F34D8C",
"pX c #FF4A8E",
"aX c #E9538B",
"sX c #F7528E",
"dX c #FF4592",
"fX c #FF4C94",
"gX c #FF4E98",
"hX c #FF5295",
"jX c #F45994",
"kX c #FB5C95",
"lX c #FF559A",
"zX c #FF5C9D",
"xX c #FE639D",
"cX c #FF699E",
"vX c #FF5DA1",
"bX c #FF63A2",
"nX c #FF6BA5",
"mX c #FF66A8",
"MX c #FF6CA9",
"NX c #FF71A6",
"BX c #FF74AB",
"VX c #FF7AAE",
"CX c #FF7CB2",
"ZX c #A7858B",
"AX c #AD8E92",
"SX c #FF81B4",
/* pixels */
".   . . = = X . . . . . . .   .   O O O % % @ @ @ % % % % @ @ O O O o o o o o o % # o % % % 7 % 7 w w w 6 @ @ @ @   .           . . . . . .             .   .   ",
"  .   X = : : X . + ; X . . .   O O O O % % 7 6 6 8 7 w w 6 6 @ j u O + & $ & O X.....@.#.@.@.@.$.@.#.#.Q ,.Q X...W ..| | |  . . .;. . .;. .;.;.;.;.;.;.;.;.;.. ",
". . . . : 4 b : ; ; X ; ; $ . $ $ & & w w e i u u s d i i u 8 % k u % & & & & O ..@...#.#.$.$.5.5.5.5.5.5.Q Q Q X.X.| | }  . .z  . . .;. . .;.;.o.;.;.;.;.;.;.. ",
". . + + : 2 2 : ; X ; : 4 4 : $ & * 6 y i g c d s f x g d f x % k % h * & > * @ @.@.@.#.#.( 5.5.6.5.5.5.5.,.( Q Q Q Q |  .&. .;. . . . . .;. .;.;.o.;.o.;.;.;.. ",
". . ; ; ; : : : ; + ; 2 b b 5 & & 6 u i n n D D H H S H g J g 8 8 6 6 6 w e e 7 $.$.$.#.$.$.4.4.5.5.4.5.4.$.( Q B Q Q Q =.Q -.*. . . . . .;.v o.o.;.;.;. .;.M . ",
"  ; : : : ; ; ; + + $ : 5 4 , > w r u d D R F F J H H S J J f 8 8 8 8 w i p y 8 #.5.5.5.5.4.4.4.4.4.4.' ' $.( ( Q Q Q | Q -.*.*.;.;. . . . . .o.;.;.:.:.;.;.;.. ",
"  ; : 2 : ; X X $ X $ $ : > > e i i s d J H K K L K H F J J f f 0 i g y n m i s 7.] 6.6.5.4.4.' 4.' 4.' 5.6.6.5.X.( W Q C &.*.*.C 1.;.;. . .o.o.;.;.>.>.;.;. .. ",
"  ; : : : ; X ; $ $ $ $ $ $ r a a i f f S S G K K K K K F L T D U T T e.h.h.z.z.W.W.x.OXk.[ ' k.' 4.6.6.7.7.9.7.7.2.,.} =.Q | &.1.2.1.;. . .o.o. .;.:.;.;.;.;.# ",
". X ; ; ; ; + $ $ X $ $ $ * i c c d f S H G K K K K K F g.T.` R.;XL.).>X_.}.5X4X<X<X1X<X X>X:Xk.=Xx.] 6.*X9.*X@X@X@X8.2.#.} } } %.1.o. . . .o.o.;.;.;.o.;.o.M   ",
". ; + : : : ; $ X $ $ $ $ * k c c g S H G K K K I K ` T.R.).:X4X4X4X5X4X5X5X5X5X5X5X1X5X5X4X4X1X;X4X-X7X*X6X9.*X6X@X@X@X8.,.} } o.o.o. .} o.1.1.1.o. .o.;.o. .  ",
". X ; : 2 : ; + ; $ $ $ $ < j x c d S H K K K j.' l.).1X:X4X5X5X5X5X5X5XuXdXdXdXfXuXuX5XuX5X5X5X4X4X4X:X=X7XW.6X@X8X#X$X$X+X2.X...} } } } o.1.2.1.;. . . .;.;.  ",
". ; $ : : : < > : : ; > & & 7 s d d S F K ' l.j.-X4X5X1X5XuX5XuXdXdXgXgXhXdXgXhXdXgXgXgXuXfXfXuXdXuX5X5X2X;X7X,X7X@X#X$X$X#X@X3...o...} } o.%.1.1.o. . .;. .;.  ",
". X $ ; > 1 h h 3 , , & & & 7 8 8 q S F ! -X=X:X4X4X5XdXdX5XfXgXgXlXlXzXlXlXlXlXlXlXlXlXlXhXgXgXdXdXdXuXdX5X4X2X1X7X#X#X9X$X#X#X2.%.{ ......o.o. .o. .o.1.;.;.. ",
". X $ $ > h l h e , , - & 6 7 8 8 g S g.-XT.;X5X4XdX5XgXfXgXlXlXlXvXzXlXzXzXzXvXzXvXzXzXzXlXhXlXlXgXgXfXdXuXuX1X1X4X=X9X9X$XqX$X9.%.@...........o. .o.1.C 1.;.  ",
"  $ $ $ & t k e e e e e 6 6 7 8 g D h.-X-X;X5X5X5XdXgXgXkXzXlXzXvXvXvXvXvXvXzXvXvXvXzXzXzXzXlXzXlXzXlXhXfXfXfXdX4X4X4XtX9X7X9XqX+X7.@.^ { ......} } o.1.2.2.;.. ",
"  $ $ $ & * > 6 & e e y 6 8 8 g D z.:X-X4X5XgXgXgXvXvXvXvXzXzXzXvXvXzXbXbXzXzXzXvXzXzXvXzXvXzXzXlXhXlXlXfXgXdX5X4XuX4X4XXX9XwX0X8X( O.^ ............o.1.1.1.o.. ",
"  $ $ h & & & 6 8 8 y y 8 8 D n b.;X:X5X5XgXgXlXzXzXzXzXzXbXzXbXvXvXvXbXxXzXzXzXzXzXzXkXlXzXlXlXlXhXhXpXfXuX1X|.|.>X1X4X1X1X7XwX8X*X' ^ ( R W ..Q =.X.,.o.;.o.. ",
". h j & & 6 7 7 8 8 8 8 8 g D b.F.;X4XdXlXgXzXzXzXvXzXxXvXzXbXvXbXbXxXbXvXbXzXzXkXlXlXlXlXhXhXpXfXpX5X3X1X|.'.'.H.A.J.{.{.S.[.7XW.*X5.~ ^ @.( @...Q X.X.| ;.| . ",
". # * & 6 8 8 8 8 8 0 8 D U t.;XF.M.>XgXlXlXzXzXzXbXzXvXxXbXvXbXxXxXbXbXbXxXbXzXlXhXfXgXpXXXXXpX1X1X1X>X'.G.].'.{.F.F.Z.M.F.M.S.7Xx./ ' / ~ ~ ( @.Q p i h p -.X ",
"# * * 6 7 8 8 0 q q q D D t.;X;XF.;X>X5XhXzXzXzXvXvXbXxXvXbXbXbXbXmXbXbXbXbXvXvXkXkXkXpXuX<XXX]./.`.C.C.D.D.G.].|.|.'.|.F.M.M.M.F.x.x.' / / ~ ~ ^ x k ..&.p p = ",
"@ > w 6 8 0 0 f S S S D h.:X}.H.F.{.1X1X1XlXzXzXvXzXbXbXxXbXbXmXmXnXnXmXmXMXmXxXvXlXkXfXpX3X_.(.^.B.V.B.B.B.A.D.>X1X5X|.5X{.S.M.M.M.k.] P P / +.^ d { } } ;.-.= ",
"; e y 9 0 0 s S S S F ` [.:X>XS.F.F.'.'.'.1XzXbXbXxXbXbXbXnXbXmXnXnXMXnXMXMXMXnXbXbXkXuXpXXX(.].~.^.B.V.m.B.A.C.|.uXuXdX5XuX;XS.M.M.-X6./ P P / ~ { c { X.| -.+ ",
"> p i u 0 q S S S F ! R.).>X{.F.M.A.A.H.D.1XfXxXbXbXbXbXbXnXmXMXBXMXBXBXBXMXNXNXNXxXxXhX2X(.^.m.m.~.(.(.`.V.B.C.`.|.dXhXhXdXfX{.F.J.4Xk.L / P P ~ O.O.{ ..=.-.= ",
"& i i s q q A A G F =XR.>X5X{.F.M.Z.A.N.D.1XfXvXbXbXbXnXmXMXMXBXBXBXVXVXVXVXVXBXVXBXbXbX2X(.n.m.m.~.(.<X_.XX~.V.`.].uXhXzXlXfXgX5X5X4X5X] P H / ~ +.{ { ..X.Q + ",
"@ w s 0 q S A G K l.h.;X5X5X5XZ.N.M.N.N.Z.1XlXzXvXmXnXnXMXMXVXBXBXCXVXCXCXCXCXCXVXVXNXsXhXc.n.n.m.~..X].uX3XuX^.B.1X1XgXzXzXzXgXgXdX4X-X!.F H H ~ ~ { { ..X.X.. ",
"@ w 8 0 q A A A U ` :X4X5XdX5XG.M.N.N.N.[.uXkXzXzXnXnXnXBXVXBXCXVXCXCXVXVXBXnXlXnXnX,XhXI.c.c.n.n.I.^.yXhXlXuXdXXX`.dXzXzXzXzXlXgXfXuX1X=Xk.L / P ^ ^ { ..| c   ",
"% 6 u 0 A A A F F -X4X5X5XdX|.|.Z.N.N.N.XXfXfXhXzXzXnXBXBXVXCXCXCXBXnXVXmXkXiXiX.XQ..XP.P.P.P.c.P.n.P.XXkXkXxXhXsXhXzXzXbXzXzXzXhXdXdX5X:X] ] / ~ E { { W } |   ",
"% 6 8 0 q A S S g.-X4X4XfXlXfX'.A.N.N.`.1XdXfXdXhXbXmXCXCXVXCXCXBXnXnXxXjXaXtX.XQ.Q.Y.Y..XQ.P.P.n.n.c..XhXnXMXmXxXbXxXbXzXvXzXvXvXhXdXdX5X-X7.' P +.^ { { } | O ",
"% x 8 0 J x S U -X;X4X5XgXlXfX1XD.D.N.}.4X3XuXfXgXzXnXMXVXSXCXBXNXcXcXxXsXaXtX!.Q.L.Y.Q..XtXtXP.E.c.c.n.iXNXnXMXnXmXbXxXbXvXvXxXlXlXgX5X5X1X7X6.{ +.{ { ..X.| + ",
"@ v x u d S D T.:X;X5XdXgXlXpXdX1XD.B.C.XX1XXXyXfXhXxXnXBXVXVXBXNXNXcXaXaXtX!.%XU.L.K.U.%XiXsXaX X XP..XbXnXBXnXnXnXbXbXvXzXzXvXzXgXgXfX5X2X<XoX+.{ { { ....=.- ",
"@ 6 i x d g U /.;X4X5XdXlXlXlXuXuX].B.C.`.XXXXXXyXhXhXxXBXVXVXVXNXVXcXxXaX%XW.K.f.v.K.L.!.tXkXxXxX XyXcXbXCXBXBXnXMXbXbXbXbXvXzXvXvXgXgX5X5X4X7X7.{ { { ..X.| = ",
"O & 7 8 i g z.t.>X5X5XvXzXzXlXdXuX3XD./././._..X.XyXiXiXNXNXNXnXBXVXVXcX%XeXz.s.d.d.K.U.U.%XkXcXnXnXBXBXCXVXCXBXMXnXnXmXvXvXbXxXzXzXvXdXdX5X<X<X8.@.{ { ..} | . ",
"O 6 6 w y n T ;X>X5XdXlXlXzXlXhXpX1X`.C./.~.~.(..X.X&XkXzXnXkXQ.aXBXNXaXeXx.p.p.s.z.z.U.!.%XaXcXNXBXVXSXSXCXCXVXBXmXmXmXbXxXxXzXvXvXlXhXuXdX1XrXOX%.@.....t }   ",
"o = @ 6 y d h.;X1X5XgXhXvXvXlXzXhX1X`.^.V.I.~.~.(..X.XhXkXiXY.L.U.xXaXaX%Xa.p.p.p.a.U.U.eXaXaXxXcXVXVXSXSXSXCXVXBXMXmXmXmXbXbXvXzXzXzXlXdX5X4X,X@X,.O.....t h   ",
"o @ & & & U b.-X1XdXdXvXzXvXzXlXlXhX`.C.V.~.~.I.~.Q.tX&XtXE.v.K.%XaXjX%XU.a.p.i.0.p.a.%X%XaXxXjXjXxXVXVXSXCXCXCXBXMXMXnXbXbXvXvXvXvXzXgXhXdX1X1XOX%.@...X.X.| . ",
". & & & - T b.;X5X5XlXlXvXvXzXzXkXhX<X^.V.~.I.I.I.Q. XtXY.v.v.f.%XaXaXU.a.a.i.i.0.0.i.z.%X%XaXxXaXaXcXSXSXSXCXCXBXMXMXmXmXbXbXbXvXzXlXlXfXdX5X>XW.#.@...X.=.=.O ",
". & & & e y N.4X>X5XlXvXvXzXzXzXzXpX3X}.^.~.~.P.I.Y. XQ.v.v.v.K.f.%X%Xx.s.i.i.i.0.0.e.p.U.aXaXaX%X&XaXNXSXSXSXVXCXMXnXbXbXbXbXvXzXzXzXzXgX5X5X1Xj.<.@.X.=.=.=.+ ",
"O = & = & q./.;X5XdXzXzXvXzXvXzXzXfX3XXX.X^.Q.(.E.~.E.P.v.t.f.f.%X%X%Xz.p.i.0.i.0.0.0.e.a.%XaXW.%X!..XxXVXSXSXVXBXNXbXmXnXbXbXbXzXvXzXzXgXdX5X1XE.,.@.o.#.=.=.. ",
"= w , e e e./.>X5XhXgXzXvXzXzXvXlXzXuXXX2X<X.X(. XQ.P.P.v.t.d.d.f.%Xx.s.i.i.0.0.0.0.0.i.i.s.U.%XU.Y.%X.XnXSXSXVXBXbXxXbXbXmXxXvXzXvXvXvXvXdX5X1X,X] O.@.X.| | @ ",
"- = - - w n /.4X5XuXzXvXzXzXbXvXbXlXpX3XyXpXyX&X).Q.E.K..Xv.t.d.a.f.z.a.p.0.0.0.0.0.i.i.i.p.a.z.v.K.Y.&XiXVXSXVXnXnXzXzXbXbXbXzXzXzXlXlXgXdXuX4XT y % % % @ ; = ",
"+ Q Q Q Q _ [.>X5XuXzXzXvXvXbXxXxXkXpXpXpXpXfXpXtX X,XtX.XjXU.d.f.x.a.a.a.e.w.0.0.0.0.w.w.e.e.a.v.K.L.E.iXzXCXBXBXzXkXzXzXxXbXzXzXzXzXzXgXfX5X4XT g w w w , 3 - ",
"O W } Q Q K.[.>X5XhXhXzXzXzXzXbXzXbXhXfXpXlXkXkXiXiXhXjXnXnXNX!.z.f.f.i.w.e.e.0.0.0.e.0.e.w.d.d.f.L.L.K.Y.nXnXVXcXhXhXhXbXbXbXzXzXzXzXlXlXdX3X4XR.g r y e e B > ",
"O } ..W Q x.:X>X5XdXlXzXzXbXzXbXbXlXlXhXlXxXxXkXzXcXxXxXnXCXNXBX%Xf.a.a.p.e.e.w.e.w.i.i.i.p.f.d.v.Y.Y.P.b. XnXxXhXhXpXpXlXbXxXlXzXlXlXlXgXdX3X4XR.g i a p p , + ",
"O W W ..) ) [.1X1XdXzXzXzXvXbXvXbXzXlXkXzXxXnXnXxXxXBXBXVXVXSXnXcX%XOXa.a.p.e.i.e.w.0.p.p.d.a.f.L.L.!.P.b.n.(.yXyX3X3XpXhXzXzXlXlXzXzXzXfX5XdX1XY T i a p 3 , O ",
"o ..{ { ( x./.>X3XuXzXzXzXzXvXbXbXbXlXzXbXxXnXNXnXNXSXSXVXSXSXCXkX%X%Xa.a.a.p.i.e.e.a.f.f.a.U.U.L.!.&XP.P.c.n.I..X(.XXuXlXzXkXlXlXlXlXzXgXdX5X>XT.g y i t r & O ",
"o ....{ ( j.-X;X4XgXgXzXzXzXvXbXzXxXxXnXmXcXNXNXBXVXSXSXCXCXSXcX%X%XU.U.f.a.a.a.e.s.x.x.OX%X%XU.!.tX.X.Xc.c.n.n.m.(.~.XXhXlXlXgXlXlXlXlXlXdX4X1Xz.s 0 u r 7 < # ",
"O ..{ O.( ( R.>X1X5XlXlXzXbXbXvXbXbXmXmXnXNXNXBXVXVXSXSXSXCXBX%XU.v.U.f.f.f.a.r.a.U.aX%X&XjX%X!.iXzXiXY.n.n.n.m.n.V.^.`.5XlXpXpXfXlXlXvXdXuX5X:XU U 0 8 7 k k j ",
"O ..@.( ~ [ x.>X1X5XlXzXzXzXzXbXbXxXbXnXnXBXNXBXVXVXSXSXSXBXNXtXU.v.r.f.a.a.a.a.U.aXaXNXNXxXcXaXnXkXlXQ.n.n.n.n.m.^.V.`.1XuXdXfXdXlXlXlXdX5X4XR.u.f 0 8 9 v v v ",
"O ..@.O.@.] (._.1XuXuXlXzXzXvXbXbXbXmXnXnXnXBXBXVXVXCXCXxXzXiXjX!.K.K.f.d.d.d.U.xXxXVXSXSXCXxXVXcXNXyXiXn.n.n.I.~.V.V.C.3X3X4XuXfXpXlXfXfX5X4X;X` J 0 0 u x v v ",
"o @...O.J ~ j.|.>X1XgXlXzXzXzXbXbXbXbXmXMXMXBXBXCXVXVXxX&X XiX.X.XY.K.v.d.d.K.xXnXVXSXSXSXSXCXCXSXNXbXQ.m.n.m.(._./.m.B.|.1X|.1XuXhXhXlXuX4X4Xl.D A 0 8 7 y l k ",
"# ....@.O.+.] {.|.1XdXlXzXzXzXzXbXbXbXmXMXBXMXBXBXVXMXhXQ.Q.P.Q.Q.Y.L.v.v.v.iXtXNXVXSXCXSXSXSXSXCXCXnX(.I.m.~.XXXX/.B.B.C.'.|.|.4XhXhXfX5X5X1Xy.G x q 0 8 6 r # ",
"o ....@.O.~ ( k.>X1X1XgXzXzXzXbXxXbXbXnXbXMXBXnXNXbXkXfXXXI.P.P.P.P.P.P.P.Q.!.kXkXnXCXCXCXCXSXSXSXVXBXhXI.I.3X<X<X[.V.B.D.A.'.XX3XfXgXdXdX1Xz.! J H s 9 7 * & O ",
"o o.@.@.@.O.( ] [.|.5XdXlXzXzXvXbXvXbXbXnXnXmXnXnXlXiXpX,XR.n.n.b.b.n.b.Y.Q.tXkXxXNXVXSXSXSXSXSXSXCXBXnXyXpXyXgX1X[.B.D.Z.A.H.>X3XfXfXdX5X>Xj.! L H s 9 7 * & O ",
"o ..o...@.O.( oXk.|.4XfXfXzXzXzXxXvXgXlXzXlXlXzXxXlXfX2X.X_.I.m.n.n.P..XQ.sXcXcXNXVXSXSXSXSXSXSXCXCXVXmXnXkXlXdXdX`.B.A.A.H.H.J.5XfXfX3X4Xx.z.R J x s 7 6 & & O ",
"o  ...@.@.{ @.$.T._.>X3XhXgXlXvXzXfXhX1XuXhXpXuXhXlXfXXX_.~.I.I.n.n.yX&XNXSXNXVXSXSXSXSXSXSXCXCXBXVXBXBXnXMXbXlX|.`.A.D.H.H.H.{.1XdXdX4X;X-X! J J d u 7 6 & & O ",
"o  . .....@.O.@.y.}.;X1X|.gX5XlXlXlX1X].|.3X1X1X3XdX2X2X(.I.I.m.m..X(.xXVXSXSXSXSXSXSXSXCXCXCXCXBXBXBXBXnXnXbXhX].D.A.'.H.H.J.{.1XdX5X4X4Xl.~ E c x r 6 & & $ O ",
"o  .} @.....@.@.R l.{.;X{.J.5XdXlXuX'.H.|.'.].].}.1X5XXX/.~.m.m.V.I.iXpXnXVXVXSXCXSXCXCXCXVXCXBXBXMXBXMXnXMXxXgX].H.{.|.{.'.{.J.1X5X4X1XK.! ! J c i 6 * * $ $   ",
"o  . .o. .........#.(.|.J.S.|.dXdX|.{.F.Z.'.'.'.G.XX}.}.`.C.V.^.~.`.XXpXfXxXBXNXCXBXCXVXBXVXVXBXMXBXMXMXnXbXbX4X5X1X5X>X1X|.J.H.5X4X5X:XT ) c c a w 6 * # * $ . ",
"o  .o.1.1.1.#....._ _ ].F.S.S.1X4X4XH.M.M.N.A.A.G.D.`.`.`.^.}._._.XXXXyXhXlXzXnXmXMXBXBXBXBXMXMXMXMXMXMXMXbXbXlX3XgXuX5X4X4XJ.>X4X5X>Xy.y.N c c i w $ $ $ $ ;   ",
"   .o.1.2.1.....| X.j.l.J.S.S.J.>X|.H.M.M.M.M.D.Z.D.B.'.`.].].1XuX3XpXhXlXlXxXbXbXnXnXMXMXMXMXMXMXnXbXmXbXbXbXvXlXgXhXfX5X>XH.|.5X1XK.l.R c l k r * * < ; $ $ . ",
"   .o.1.1.1.o.o.,.-.,.K.K.;XF.H.'.{.H.S.H.F.F.A.D.A.'.|.|.|.1X3X3XpXlXzXzXvXmXmXnXnXnXMXnXnXbXnXmXbXnXbXmXbXzXvXvXzXlXlXdX{.{.{.4XE.L.! c c l t > ; , : : ; $ . ",
"   .;.o. .1.1.2.2.2.,.Q L.R.J.J.H.J.J.H.{.{.1X5X|.|.uXdX5X3XgXuXpXhXlXzXbXxXbXmXmXmXnXnXmXnXnXmXbXmXbXbXbXvXbXvXzXxXlXgX4XS.H.>X:XE.) N c l h t & > , 3 : ; X . ",
"+ -.&. .X.o.1.2.3.2.1.#.,.~./.;X{.J.J.{.{.>X4XuXuXfXhXhXlXlXgXlXlXzXlXzXzXxXxXbXnXnXbXmXmXbXbXmXbXbXxXvXbXvXvXbXvXzXlXuXH.H.H.[._.y.C c l t r $ > > 3 3 : : ; . ",
"; -.*.;.o.o.1.2.2.2.1.X.Q _ /.[.>X|.|.'.{.1X4X5XfXfXgXlXlXlXzXxXzXxXbXzXbXbXbXbXbXbXbXxXbXxXbXxXbXbXbXzXvXxXvXzXzXlXfX>XJ.H.[.{.y.N c l t < $ $ 1 p b 4 4 : : X ",
"+ -.*.;. . . .;.o.o. . ...;._ }.[.>X>X>X4X>X5XuXuXfXgXhXvXlXzXzXzXzXzXvXbXbXbXbXvXvXbXbXbXbXvXvXbXvXvXzXbXzXvXzXlXgX5X>X>X:X'.y.N z l 5 > & & 1 z V Z b b b : X ",
". &.;. . . . . . . . .....o.1.oX`._.>X1X>X5X5XdXuXfXgXgXhXlXlXvXzXvXvXvXbXvXzXzXvXxXbXvXbXbXbXzXbXzXzXvXzXzXzXhXgX5X5X5X[.[.y.N z l a 1 , $ < h C *.Z Z b b : . ",
".  .;.;. .;. .;.;. . .z } ..%.7.oX_. X|.:X>X5X5XpXfXgXhXlXzXzXzXzXzXvXvXvXzXzXxXvXzXzXzXzXzXvXzXzXzXvXvXlXvXhX5X4X5X>X(._.y.N z a t 3 B : > 1 z C C B b b 2 ; . ",
". ;.;. .*.*.*.*.*.&. .} } o.1.2.@X9X).!.;X4X>X4XdXgXgXhXlXhXlXzXzXzXvXvXzXvXzXzXvXxXzXvXzXvXvXvXzXvXlXhXlXdX5X5X4X>XL.R.Y C N 2.l 1 1 3 : ; : z M M b 2 b 2 ; # ",
". ;.;.;.:.-.-.-.-.B  . . ...o.8.+X#X9Xl.g.;X4X;X4X5XgX5XhXlXhXlXvXlXvXzXzXzXlXvXvXzXzXzXzXzXvXhXlXvXdXfXdX5X>X4X>Xg.z.Z z z v v h h h ; ; ; 1 4 2 ; ; : 2 V ; . ",
". ;.;.;.:.*.-.-.-.*.&. . ...o.8.+XqXW E 7X7X-X>X}.>X4XdX5XdXlXfXhXzXlXlXlXzXzXvXzXlXzXlXvXhXgXlXdX5X5X5X>X>X4XR.u.e.n a l z z h z z z < $ ; : : : ; ; ; ; ; X . ",
"; -.;.;.1.1.>.>.>.*.&.&.;.| o.2.$XqXqX0X0X9X[ =X;X).;X2X4X5X5XdXdXdXgXuXgXhXhXlXhXgXdXgXdXdXdX5X5X4X1X>XR.>Xz.T T g i t p 5 1 1 z z 5 1 ; ; ; ; : ; ; X ; ; ; X ",
": -.;.V 2.2.3.3.<.:.&.*.-.&.;.;.8.qXZXqXqX0X9X0X6X).=X[.;X>X>X1X4X1X1XuX4X4XdXuX5X5X5X4X4X5X1X1X5X>X[.h.(.T n U z i e > , : : : 5 5 5 2 : : : 2 2 : : ; ; : 2 ; ",
"; :.;.;.1.3.+X+X>.>.;.;.*.&. . .1.8.+XZXZX*XZX*X0X9X7X! z.).;X;X3XXXXX>X1X>X1X1X1X>X>X>X1X>X{.>X/.z.q.y.U z g a p w & + : : ; ; : : : 2 : 2 2 b b b 2 : : b 4 2 ",
". *.;.:.3.3.3.3.>.:. .;. .;. . .o.%.8.qXZXZXZXZX0XqX0XD ( y.x.-X%XXX>X,X;X|.XXI.>X;XP.;X[.q.R.z.u.n m n a i e > & & & & $ ; ; $ ; ; ; : 2 2 4 b b b 2 2 : 4 4 2 ",
". ;.;.>.>.>.3.>.>.;. . . . . . .o.o.1.8.*XZXZX0XZXqXqX/ s E E qX%XwX#X&XrXrXrXT T T P.Z B q.B R c n a i w 6 & & & % + $ $ $ $ + $ X X ; ; ; : 2 2 2 4 2 : ; ; ; ",
". ;.;.>.>.>.>.:.:.;. .;. . . .;.o.....o.8.9.$XZXqXAXZXZXr w E W ZXZXZXZXAXZXAXl z B M g a M V C V l e > & & # & $ + $ $ $ X ; ; ; ; $ $ ; X ; ; : 2 2 2 ; . X . ",
". ;.;.1.>.;.;.;.;. .;. .;. .;. .o.o.o.o.1.2.8.8.$X$XZXZXZX* 7 E } } ZXAXAXZXZXj M M z z 1 z M V z 1 $ & # & $ $ $ $ $ $ X ; : : : ; X ; ; ; ; ; ; 2 2 2 X # # # ",
". ;.;.;.V ;.;.;.M ;. .;.. . X :.o.o.o.o.1.1.%. .1.+X$X$XZXZX< C C C } ZXAXZXZX* v v l 1 < ; 2 5 , $ $ + + $ $ $ > & $ $ X ; : 2 : ; ; ; : : : ; ; : 2 : $ * h * ",
". ;.;.;.;.;.;.;.;.;.;.. . . ; ; $ #   o.o.;.o.. . . # % # $ * V C C C $X+X8.3.# h h h $ $ $ $ ; $ $ $ $ $ $ $ h h 1 * $ $ ; : 2 : ; X ; : 2 : ; ; ; . . $ * h * ",
". . . . . . . . . . . . . . $ ; X         o . . . . . . . . # . . # # # # # . . # # # .         . .         # * h * #   . . . . . . . . ; ; ; . . . . . . * h * "
};
