/* XPM */
static char *result[] = {
/* columns rows colors chars-per-pixel */
"80 80 244 2 ",
"   c #0F0C0D",
".  c #110C0D",
"X  c #190E0F",
"o  c #0F0D10",
"O  c #110E13",
"+  c #1D0E10",
"@  c #140F19",
"#  c #141113",
"$  c #1D1113",
"%  c #13111B",
"&  c #1C141B",
"*  c #1E191C",
"=  c #220E12",
"-  c #290F13",
";  c #221213",
":  c #2C1315",
">  c #22151B",
",  c #2C141A",
"<  c #231A1D",
"1  c #2B1B1D",
"2  c #321316",
"3  c #331419",
"4  c #3A141A",
"5  c #35191D",
"6  c #1D1522",
"7  c #1A1525",
"8  c #1C1C33",
"9  c #241524",
"0  c #241A25",
"q  c #2B1D23",
"w  c #27172A",
"e  c #2B1D2B",
"r  c #341A28",
"t  c #281B34",
"y  c #361C37",
"u  c #2B2124",
"i  c #252228",
"p  c #2B222B",
"a  c #342126",
"s  c #34232B",
"d  c #392629",
"f  c #3A252C",
"g  c #2D2236",
"h  c #342433",
"j  c #3A2837",
"k  c #33253B",
"l  c #3A3238",
"z  c #44161C",
"x  c #4A1A33",
"c  c #42282B",
"v  c #462638",
"b  c #502E33",
"n  c #483639",
"m  c #682631",
"M  c #2A2348",
"N  c #322542",
"B  c #372745",
"V  c #32294B",
"C  c #2A2753",
"Z  c #382C50",
"A  c #561844",
"S  c #691949",
"D  c #751A4B",
"F  c #452845",
"G  c #49374A",
"H  c #583D4C",
"J  c #462758",
"K  c #473756",
"L  c #573051",
"P  c #67274C",
"I  c #6F2E52",
"U  c #4C3562",
"Y  c #743569",
"T  c #574247",
"R  c #5C4647",
"E  c #5C4947",
"W  c #55454C",
"Q  c #5A4549",
"!  c #5D4A4A",
"~  c #524451",
"^  c #544552",
"/  c #5C4C53",
"(  c #5A4658",
")  c #634547",
"_  c #684547",
"`  c #634449",
"'  c #6B4648",
"]  c #624B4A",
"[  c #6B494A",
"{  c #6E4F4F",
"}  c #714A4C",
"|  c #644C55",
" . c #635354",
".. c #69565A",
"X. c #76585A",
"o. c #4E4468",
"O. c #564965",
"+. c #664967",
"@. c #685666",
"#. c #725B65",
"$. c #735775",
"%. c #796268",
"&. c #7A6578",
"*. c #9F1D4E",
"=. c #901D51",
"-. c #A11E4E",
";. c #A21E51",
":. c #AB1F59",
">. c #B71F58",
",. c #88275A",
"<. c #A1204F",
"1. c #A42153",
"2. c #AC2557",
"3. c #AD255B",
"4. c #B5235B",
"5. c #B6275D",
"6. c #BB235D",
"7. c #AD1F65",
"8. c #8C2965",
"9. c #992467",
"0. c #AA2668",
"q. c #B72865",
"w. c #B83070",
"e. c #D01E5F",
"r. c #C1225F",
"t. c #CD1E62",
"y. c #D31C63",
"u. c #DB1C66",
"i. c #DB1D6A",
"p. c #EE0E66",
"a. c #F80C67",
"s. c #EA1568",
"d. c #E41D6B",
"f. c #EB1C6C",
"g. c #F6146B",
"h. c #FB136D",
"j. c #F5196C",
"k. c #FB1472",
"l. c #F61973",
"z. c #FD1B73",
"x. c #FE1F7A",
"c. c #C72867",
"v. c #D6276A",
"b. c #DB236C",
"n. c #C7356C",
"m. c #D3316D",
"M. c #CB2774",
"N. c #D92A73",
"B. c #CB3974",
"V. c #DC3272",
"C. c #D83A78",
"Z. c #E4226C",
"A. c #E9226D",
"S. c #E32675",
"D. c #E92877",
"F. c #F32674",
"G. c #FD2176",
"H. c #F4257B",
"J. c #FE247B",
"K. c #F42B7B",
"L. c #FD2A7D",
"P. c #E7347A",
"I. c #E33B7C",
"U. c #F9327D",
"Y. c #905171",
"T. c #B2487D",
"R. c #84676D",
"E. c #866A78",
"W. c #966B7C",
"Q. c #8D7278",
"!. c #96757B",
"~. c #A36F7E",
"^. c #C64A7E",
"/. c #D7437B",
"(. c #E6437E",
"). c #6F5E85",
"_. c #786584",
"`. c #D33A83",
"'. c #EB2E80",
"]. c #FA2881",
"[. c #FE2C82",
"{. c #E93783",
"}. c #F43383",
"|. c #FE3384",
" X c #F43C83",
".X c #FC3B85",
"XX c #FF3489",
"oX c #FF3C8B",
"OX c #955386",
"+X c #B05386",
"@X c #856C87",
"#X c #966986",
"$X c #8A7288",
"%X c #967787",
"&X c #9C7C84",
"*X c #917B94",
"=X c #A66787",
"-X c #B96288",
";X c #A47A85",
":X c #C64F87",
">X c #DC4983",
",X c #EA4985",
"<X c #F44788",
"1X c #FF428D",
"2X c #FF4A8E",
"3X c #E9528B",
"4X c #F7528D",
"5X c #FF4592",
"6X c #F74C90",
"7X c #FF4C94",
"8X c #FF4E98",
"9X c #EC5892",
"0X c #FF5295",
"qX c #F45994",
"wX c #FA5C95",
"eX c #FF549A",
"rX c #FF5C9D",
"tX c #CF6697",
"yX c #FE639C",
"uX c #FF699E",
"iX c #FF5DA1",
"pX c #FF63A2",
"aX c #FF6AA5",
"sX c #FF66A8",
"dX c #FF6CA8",
"fX c #FF71A6",
"gX c #FF74AB",
"hX c #FF7AAE",
"jX c #FF7CB2",
"kX c #9E828A",
"lX c #97899C",
"zX c #A48288",
"xX c #A99198",
"cX c #988AA3",
"vX c #A698A8",
"bX c #B7A9B3",
"nX c #CA819D",
"mX c #C98CB3",
"MX c #FF81B4",
"NX c #C4ADBA",
"BX c #BCB5C6",
"VX c #C1A3C1",
"CX c #C5B9C6",
"ZX c #C6C3CC",
/* pixels */
". .   . + = + X . . . . .     . . O O O @ @ % % % % % % @ @ @ o o o o o o o o o O O O % @ % 7 % 7 7 w 9 & @ @ @ O o             . . . . . .               .     ",
".   . . = : - X . + ; X . .   . O O O O @ @ % 7 7 0 0 9 9 7 7 @ e w O $ & $ & O W W ^ ^ ^ ^ ~ ^ ~ ( | ( | H H H W W Q R R R R R E E ] E E ] ] ] ] ] ] ] ] ] ] . ",
". . . . 2 z 4 : + ; X ; ; X . $ & & & 6 9 w e w 8 t t e t w 7 @ p 0 % & & & & O W ^ ^ ( ( ( ( O.O.O.O.( +.H H ( H Q Q T R R ! l E E E ] E E ] ] E  .]  .] ] ] . ",
". . + ; ; 2 4 2 ; X ; : 4 4 1 $ & & 6 w t y y y t t t y y t t 7 p % i 6 & > * % ^ ^ ^ | | U O.O.@.O.O.O.O.| H H H ` H R R R E ) E E E E ] E E ] ] E E E ] ] ] . ",
". . ; ; ; : : ; ; + = 2 z z 5 > @ 9 w w y A A y M M M M y N N 7 7 r w 7 r 9 r 7 ( ( ( +.O.O.O.o.o.o.o.o.O.O.( H b H ) H ) _ _ _ ] E E E E E l ] E ] ] ] ] ] n . ",
". ; : 2 : ; ; ; $ + $ : 4 5 , > 9 9 8 y M A C C M M M M y J y 8 A t 7.t.r =.t.D @.8.8.+.w.w.o.Y o.o.o.U U U K ^ H H H ) H ' _ _ ] ] ] E E E E ! ] ] ' ] ] ] ] . ",
". ; : 2 : ; + ; $ X $ ; ; > > q w w t t M M C C C C C C C J 7.].=.7.N.N.].D.S.].}.N.`.'.'.}.+.Y `.+.Y U O.U K K H H H H _ H _ ) n  . .] E E E ! ] [ } [ _ ] ] . ",
". + : : : + + X X $ $ $ $ $ 0 r y t t t M M C C C Z 9.8.S '.].].XX[.K.XXoXK.XXoXoXXXXXXXXX}.XX}.`.'.XXT.$.$.+.+.| | ^ Q T R ` _  . . .] E E E E ] ] ] [ ] E ] . ",
". X ; ; ; ; X $ $ X $ $ $ * e h j y t M M M J J J 7.9.'.D.[.XXXXoXoXoXoXoX1XoXoXoX5X5XXXoXoXoXoXXX}.}.'.w._.OXY.$.Y.R.#.%.#.R.X.%.X.] E E E ! ] ] E E ] ] E c . ",
". X ; : : : ; $ $ $ $ $ & * p j j j M C C J J w.].w.'.XX5XXXoX5X5X5XeX5XoX8XeX5X7X0X7X5X5X5X5X5X5XXXXXXXoXK.`.T.E.@XW.zXbXbXxXzXQ.R. .E E E  . . .] ] E ! ] ] . ",
". ; ; : 2 : ; + $ ; $ $ & * p k B B Z J J J `.].].XXXX5X1X7X5X5X0XeX8X7X0XeXeXiXeX0XeXeX7X5X7X7X1X5X1XoX5XXX}.+XP.^.#XnXZXZXZXNXxX!.%.! E !  . . .] E ! E ] ] . ",
". + $ : 2 : < ; : : ; ; & * p g j v J q.w.`.k.k.].oX5X5X7XeXeXeXrXrXeXwXrXrXrXrXiXeXrXiXiXrX7X0X0X8X8X5XoX5XoXXX[.XX XbXNXZXCXCXCXxX!...W E  . . .] E E ! E E . ",
". X $ $ > u u u q 3 , ; & q p h B B 9.0.].z.x.h.].8XoX8XrXrXrXiXrXrXrXpXrXrXrXiXiXrXiXrXrXrXeXeXiX0X0X8X7XoX8XoXXX{.[.9XNXNXNXCXBXbXxXR.! W W ! ! E E ! ] ! E . ",
". $ $ $ > u s u q , , > q e p k S 9.9.H.J.G.h.z.XXoX8XiXeXrXiXrXrXrXrXiXpXrXrXiXrXrXyXiXrXrXiXrXrXiXeXeXeX7X8X8X1XXXXXXX1XmXmXCXBXBXvXQ.#.W W W E E !  .T  .] . ",
". $ $ $ $ q e w , q r r r e h v b.D.D.|.[.k.a.J.[.1XXX8XrXrXiXiXyXpXiXyXiXiXiXyXpXiXrXrXiXrXrXiXiXrXiXiXrXrX0X7X7X1XoXXXXXtXVXNXBXbXvX%X%. .W T W W !  .....]   ",
". $ $ $ & * > > 9 r y j h y ,.M.M.[.oXXXXXa.z.j.J.J.XXXXpXiXiXrXpXiXiXpXpXpXpXuXyXpXpXrXrXrXiXyXrXiXrXrXrXeXrXeX0X0X8XoXXXXXoXmXmX%XlX$XR.#.W W W W /  . . .! . ",
". $ $ i & & & 7 e f j h h S S.q.].|.oXXXk.p.g.g.s.z.j.rXrXpXpXyXpXpXiXiXpXpXsXpXpXyXpXyXiXyXwXrX0XiXrXiXrXrXrXeXrX0X7X5X1XXXoX|.vXcX*X@X@XI | ^ W ` ` / ! ! ! . ",
"  u i & & 6 7 e t g y k k M.D.[.XXXXoXL.a.a.p.p.s.j.XX7XrXpXpXpXpXpXpXpXpXdXpXsXpXpXpXuXrXeXwX0X0X8XeXrXeX0X0XeX0XeX7X0X5X5XoXXXtX*X@X@X_.@X$.^ W H H Q E ) ] . ",
"# $ * & 6 7 t g y M M D 7.0.].oXoXoX1X[.z.p.p.p.j.XXoX5XpXpXpXuXpXpXaXaXsXsXsXdXsXsXsXsXpXrX0XwX7X1X5X0X0X0X5X0XeXeX0X1X|.5XoXXXXX`.Y @X@X&.&.+.H Q r p u a _ + ",
"o * * * 7 t k k N N B t.S.].|.|.1X0X7XL.G.p.p.s.f.F.7X0XyXiXpXsXaXsXdXdXdXdXdXdXdXdXsXpXaXpXrX0X2X2X.XU.U.1X2X.X7X5X|.L.[.L.oXoXoXXX`._._._.&.+.~ g e Q ) 5 r = ",
"@ > 9 7 g k k N Z V 8.8.].[.|.1X0X7X0X.Xz.j.p.s.f.U.5XiXrXpXsXsXdXdXdXdXgXgXdXgXgXdXfXdXaXaXuX0X0X7X1XF.K.U.U..XL.U.J.H.G.z.z.L.XXXX{.OX)._.).$.O.t ~ W T E ' - ",
"= q w w g N V V J D J H.[.|.oX8XeXrX1X1X|.s.s.f.F.5X7X0XyXyXsXdXgXhXfXgXgXhXgXgXgXhXhXhXfXdXpX0X2X2X(.U.A.A.A.f.j.f.G.G.J.G.z.j.x.[.[.K.OX)._.).O.~ g ~ W R H = ",
"> r e k N N V V J 8.N.].[.oX0XeXeXrX1X1X|.g.s.f.|.1X7X5XeXrXpXgXhXhXjXjXhXhXjXgXhXjXjXhXhXfXpXpX0X1XU.F.Z.A.d.d.s.s.s.l.G.L.L.l.g.h.k.J.l.)._._.$.O.~ ~ W H ' = ",
"& w p k N V V V C 0.[.[.oX5XeXeXrX5X5X1XU.[.s.F.K..XoX7X7XrXfXhXhXhXjXhXhXhXhXhXhXgXhXhXhXhXgXpXP. XS.b.Z.b.A.s.s.s.j.f.z.[.L.G.a.h.a.a.OXOXU _.&.@.~ ~ W R _ + ",
"@ w y k N V C C Z M.].].oX7XeXiXeXeX5X7XoXF.f.H.K.P.U.1X7XyXdXhXjXjXjXjXgXhXaXyXqXfXhXwXsXhXpX4X}.y.y.u.u.b.F.A.A.d.s.f.J.[.XX.XoXk.z.a.a.8.7.U _.&.( ~ W Q T O ",
"@ e h N N V V J M.M.[.oX5X5XeXiXiXeXeX2X5Xf.F.f.D.D.D.P.0XiXyXfXjXhXhXdXgXsXuXwXqX,X4XwXI.V.0X6Xb.y.y.y.u.S.S..XK.D.A.f.G.L.1X5X5XL.g.h.a.a.0.w.&.&.@.^ W W c   ",
"% p k N B V C 9.S.H.XXoX7XeXrXrXrXrXeXeXF.f.f.A.Z.A.P.P.<X7XpXfXhXhXhXgXfXuXwXqX3X3X(.I.m.v.N.v.v.e.e.y.b.Z.P.U.1XK.Z.s.f.|.|.2X1X5XL.h.k.a.k._._._.@.( W W Q o ",
"7 h j k B Z J 9.D.].oXoXeXrXrXrXrXrXrX0XF.S.f.d.d.Z.P.P.P.(.eXfXfXhXgXfXhX9XyX3X,X(.C./.v.v.V.I.v.m.e.v.y.u.P.<X2X2XZ.A.f.|.|.0XeX5X5XL.a.a.N.@X@X$X&. .W H Q O ",
"* G j k @.B Z 7.[.XXXX8XeXrXiXrXrXrX0X2X1XA.d.d.Z.Z.b.P.P.4X<XdXwXwXuXhXhXuX3X/.>XB.m.6.m.m.V.C.(.v.v.y.u.e.v.2XrXeX1XA.U.A.0XeXrXeX7XoXz.x.|.T.E.Q.E.#.Q Q R + ",
"* ..G j B B P 7.[.XX5X8XrXiXrXpXiXrXeX2X.XF.S.d.b.v.Z.v.(.4X,X<X3XC.n.fXhXuX(.3XC.q.5.6.6.c.m.C.6X,Xv.N.e.e.P.2XrXpXpX0XU.<XrXyXeXiX8X.X1XXXXX|.$X$X$X&./ W ` - ",
"6 h G G v F q.H.].oX0X0XrXrXrXrXrXrXyX7XU.U.Z.Z.b.b.b.P.I.,Xv.m.m.c.yXyXuX3X3XT.q.4.4.6.c.q.m.,XwXwX4XV.V.y.<X<XyXdXyXpX0XrXrXrXiXrXrX8X5XoXoX#X=X$X!.E. .Q ` + ",
"* s h j j F H.q.].oX5XrXrXeXrXiXpXrXrXoX1XP. XP.b.v.V.V.I.V.m.M.c.c./.yX/.3X/.2.;.2.2.5.q.n.C./.3XyXaX4Xb.I.P.aXaXdXsXpXpXpXpXrXiXiXeX0X7X1XXXI.#X%XkXQ...T Q X ",
"* s s h j q.7.[.XXoX1XrXrXrXpXiXpXyX0XoX.X<XU. XP.v.V.N.N.N.c.t.6.6./.>X>Xn.q.2.1.;.1.4.w.C./.C.,XuXuXfX<XI.pXjXfXgXdXsXpXpXpXrXiXiXrX0X0XoXXX|.:XkX&X%X#.u Q . ",
"* a s s x x H.[.|.oX0XeXrXrXrXiXpXiXwX2X1X2X5XI.<XP.N.v.v.c.>.>.4.c./.>X^.2.2.2.*.*.;.2.n.B././.9XuXfXMXjXhXjXjXhXdXdXdXdXpXiXpXiXiXrXiX5X5X.XXX{.=XkX&X%.u u . ",
"* a a s v A S.].|.7X0XrXrXpXiXyXpXrXeX0X7X2X2X0X(.<XP.m.c.t.>.>.4.q.B./.q.<.3.<.*.;.*.1.5.^./.yX9XwXuXfXMXMXMXhXjXdXgXdXpXpXpXiXrXrXrX0X8XoXoXXX X;XkX&XR.] R . ",
"* a a a y ,.,.L.5X1XeXiXrXrXrXpXpXrXwXwXeX0XwX0X2XI.I.I.I.6.r.>.>.>.n.n.2.1.<.<.*.*.-.*.1.q.3X9XyXqXqXuXMXMXMXhXhXhXdXdXsXpXpXiXpXrXrXrX0X7XoXoX-X&X;XzXW.X.` O ",
"& a a a s S v.[.XX7X0XrXrXpXrXpXpXrXrXeXiXyXeXwXrXwX{.4XyXqXn.n.2.n.w.2.3.1.<.<.*.*.*.-.-.T.>XqX(.3X4XuXMXMXMXhXjXgXdXaXsXdXpXyXrXrXiXrXiX5XoX}.>X=XkXzX!.X.` + ",
"> d a d p x ].[.XX7XrXrXrXiXrXpXyXrXrXyXyXuXaXaXrXuXdXuXuXgXC.n.4.5.5.3.2.<.<.*.*.*.*.*.2.3./.3X(./.3XuXuXMXMXMXhXgXaXaXaXpXpXpXyXiXiXrX5X5X5X|.3X-XkXzX~.X.` O ",
"3 r c c y =.D.|.oX1X0XrXyXrXpXiXpXyXyXpXpXdXfXdXuXgXhXdXfXhXfX/.5.q.3.1.;.<.*.<.*.-.-.-.-.5.2./././.(.4XfXhXMXhXhXhXdXaXsXsXpXiXiXrXrXrX8X5X5XoX}.*XzXkX&XX.R O ",
"r r 3 r r D v.[.oX1XeXiXrXiXrXpXpXaXsXsXsXfXfXgXdXMXhXjXhXhXMXaX/.5.0.<.;.;.*.*.-.-.<.-.-.-.2.6.q.m./.I.yXhXMXMXgXgXdXaXsXpXpXpXiXiXiXeXeX5XoXoX0.t 0 0 6 @ + = ",
", ;X~.~.W.Y.L.XX|.7XiXiXrXrXpXpXpXsXaXaXfXfXgXhXhXhXMXMXhXhXhXyXyXq.2.2.;.;.;.;.-.-.;.-.;.-.:.6.c.c.m.,X,XjXjXjXhXdXaXaXpXuXpXyXpXrXrXrX0X7X5XN.<.I f f q r , : ",
", zX;X!.~.Y.J.|.XX7X0XrXiXiXpXpXpXpXsXfXdXfXgXhXhXhXMXMXjXhXuXyX/.n.w.3.3.;.;.;.-.-.1.;.;.;.2.6.6.c.m.v.gXjXMXhXjXpXsXpXsXaXpXiXrXrXrXeXeX5XoX}.,.A j y c r b - ",
"* zXzX&XW.H.].[.oXoX0XiXiXrXpXpXpXpXdXdXfXfXhXhXMXMXjXMXhXwXwXC.B.B.n.5.1.;.1.<.1.<.-.1.<.1.4.5.c.c.M.m.eXjXjXjXpXaXrXpXsXpXiXiXiXrXrXrXeX5XoXXXw.j v v x r 3 @ ",
"* zX;X!.W.T.L.L.|.5XeXrXrXiXpXpXpXaXaXdXgXfXhXhXhXhXMXyXyXaXn.c.r.n.5.5.2.1.1.<.-.1.1.;.5.n.5.r.m.m.v.c.V.pXjXuXdXrX0XyXpXpXrXpXiXiXrXeX0X1XoX|.N.P v v c r , O ",
"* zXkX%X#XOXK.L.[.7XiXrXrXrXpXiXpXpXsXdXfXfXgXhXjXsX,XyXyXqXC.c.c.5.4.4.2.2.2.2.w.1.5.q.^.n.n.c.m.`.b.t.e.fXdXuXuX0X0X0XuXpXiXrXrXiXiXeX5X5XoXXXM.F j v f q > O ",
"* zXkX%X*X=X+X].oXoX8XeXeXiXyXpXpXuXdXpXdXfXdXgXdX7XS.V.4X{.,Xm.r.6.>.:.>.>.2.n.n./.w.>X/./.I.C.C.V.v.v.P.V.yX0X0X0X2XpXiXpXiXrXrXrXeXeX8X5XXXN.I B k h h i < # ",
"* &X%X*XlXcX+X[.J.oX|.oXeXiXrXpXrX8X7XpXpXsXpXpX0X,XV.b.v.I.V.m.r.6.6.4.2.n.n.q.3XfXfX/././.C.3X<XC.v.e.y.S.v.P. X2X5XrXpXyXeXrXiXrXeXrX8XoX[.S.,.F N k i p p i ",
"# Q.E.$XcXcX'.].].k.G.G.eX0XeX7XXX7X0X2XpXiXyX7X2X2XP.y.y.t.m.v.m.c.r.r.r.uXaXyXhXMXMXyX(.(.(.yX{.<Xe.e.e.e.u.Z.P.oX0X0XrXrXeXrXeXrXrX7X1XoX[.Y 8.F N h l l B l ",
"# #.#.&.kX*XOX'.x.k.k.oX5XiXoXx.L.2X1X.XoXwX0X<X X XP.b.u.y.y.y.v.e.c.c.,XyXhXhXMXMXhXMXyX,XaXeX(.V.y.t.y.y.u.Z.A.}.2XeXwXeXeXeXeXrX0X5X2XoXXX'.Z +.N k h k l l ",
"# / / #.( @X$X+Xk.k.k.[.5XoX[.k.h.L.U.U.J.0X5X5XP.S.P.S.y.e.t.y.e.e.V.3X3XwXdXhXhXMXMXMXMXhXfXdX<Xy.i.y.e.u.d.d.A.A.oX0XeXeXeXwXeXeX7X5XoX|.XXV.V N N k p p s i ",
"# W ~  .&.$X@X`.].a.k.k.|.XXz.k.a.g.G.F.U.|.1X.XU.S.i.u.u.y.e.<Xy.m.0X,X,XyXfXfXhXMXMXMXMXjXhXpX6XV.t.i.e.d.Z.f.Z.F.5X0X7X0X0X0XrXeXeX1XoXXX|.J V V N k t 0 > % ",
"O W ~ ( &.$X@X`.'.].k.].[.J.z.a.a.j.g.G.j.}.K. XK.f.i.i.u.u.P.,XdXyXwXfXhXuXfXjXMXMXMXMXMXjXjXpX6XS.i.b.S.D.A.d.d.U.7X2X1X5X7XeXeXeX5X5XoX|.I J Z Z N k p 9 * O ",
"o W W / %.$X$X$X'.'.J.x.G.J.z.a.a.a.z.j.l.f.F.F.S.Z.d.d.u.b.Z.uXhXhXjXMXMXMXhXMXMXMXMXMXMXjXgXgX0Xu.i.S.S.P.F.d.L.H.1X.XU.1X7XeX0X8XoX1XXXw.J K ~ Z B k p * & . ",
"# W W W @.E.$X*X#X}.J.G.x.x.z.z.h.k.g.g.g.g.g.D.F.A.d.F.D.d.<X2XdXhXhXMXMXMXMXMXMXMXMXMXjXhXjXdX<Xi.Z..X2XU.A.s.s.F.G.L.|.1X0X0XiX7X5XXXXX9.I K Z Z k p 0 & & O ",
"o E W W  .&.$X$X*X].].J.J.G.z.J.].U.|.U.g.j.l.x.F.F.K.K.F.U.P.2X2XyXMXMXjXjXjXjXMXjXMXjXhXgXhXpXU.eX2X7X7XH.d.d.s.j.L.L.XX2X2XeXeX6XoX[.S.P.L K G B h e 6 * & O ",
"o E W W / #.Q.kX#X=XK.[.J.J.x.[.[.|.oX1X1Xz.|.oXL.K.U..X1X2X2X<XuXrXfXMXhXMXjXjXjXjXhXhXhXhXgXgXfXuXuXeXXXF.s.s.s.g.G.L.U.oX0X0X7X1XXX'.w.8.K G G j h 0 & & $ O ",
"o W E W W  .R.!.@.=X=XH.J.[.[.L.[.XX1X5X7X0X8X5X2X1XU.1X2X2X0XrXeXyXiXpXhXgXhXgXgXhXhXfXgXgXhXgXfXaXpX0XL.G.s.j.g.g.z.[.U..X7X0X5XXX|.'.,.Z G F F f q & * * $ . ",
"  E E ! !  .%.!.%X;X~.Y.].[.|.XXXXoXoX5X7XeX0X0XeX7X0X1X1X7XrXpXiXyXuXpXdXfXdXdXdXfXhXgXgXdXdXgXdXsX0XoX1Xf.l.z.z.l.z.G.oX0X0X5XoX[.XXc.B l B j h s 0 * $ $ $ . ",
"  ! !  . . ...Q.%X&X=XK.{.].|.[.5X5X1X1X7XeXiXeXeXrXrXrX0XeXrXpXyXiXsXsXaXdXdXdXdXdXdXdXdXdXdXpXdXsX7X.XF.G.G.z.z.z.z.z.5X7X7XoX|.|.,.P v j k j s e * * $ $ $ . ",
"  E /  ... . .R.~.;X&X;X/.{.[.XXXXoX2X7X7X8XeXeXrXyXrXrXpXrXrXrXpXpXsXdXdXdXsXdXdXdXdXdXdXsXsXsXpXpXyX.XL.J.G.J.G.z.z.XXXX5XoXXXXXw.F F j l f h s > $ < $ $ $ . ",
"  E !  . . .] ..!.~.zX~.;X/.].XXXXXX5X8X0XeX0XrXeXrXrXrXrXyXpXiXpXpXpXpXaXpXdXsXsXaXaXsXpXsXpXpXpXpX0XoX1XoXL.|.J.x.L.G.1XoXXX|.P.,.H l j j f d q > , , : ; $ . ",
"  E E ! E  . ...Q.;XzXzX;X:X].H.[.XXXX7X0XeXeXeXeXyXrXiXiXiXiXpXpXpXpXpXuXpXsXpXaXsXpXpXpXpXpXpXpXpX0X7X8X7X5X|.[.z.L.oX1XXXoXc.0.I G j h f s q > ; , 2 : ; $ . ",
"+ ' ] ] E ]  ...R.Q.zXzX;X;X-XD.J.L.oXoX8X8XeXeXeXrXrXrXrXiXpXpXiXiXiXpXpXuXpXpXiXpXpXpXpXpXpXpXiXiXrXiX0X0X7XXXx.x.L.oXU.<XS.I I H l l h d a < $ : : 3 2 : ; . ",
"; ' [ E E ]  . .X.X.Q.zX;X;X;X/.[.H.[.XX|.oX8XrXeXiXiXrXiXiXrXrXiXiXyXiXrXpXyXpXpXpXpXpXpXiXpXpXiXrXrXrXrX0X5X].[.z.L.|.U.w.9.,.F l j f d a < > < 4 r z 2 2 : . ",
"+ ' ) ] E E ] ] ! ! ..Q.&XzXzXzX:XI.P.[.[.XXoX8XiXeXeXrXeXrXiXrXeXrXyXrXpXiXpXiXpXyXiXpXpXpXrXpXiXiXiXeXeX0X|.|.k.x.[.|.w.0.q.n j f f f a 1 $ < c b m z z z : . ",
". ) ] E E E E E E E ! X.Q.&XzXzXkX=X:XL.[.XXXXXX7X8XeXiXrXrXrXrXiXrXiXrXiXiXrXpXrXiXrXiXrXiXrXrXiXrXeXeXeX2XXXg.z.D.XXN.I P F f f f f z r ; > s n _ m m z 4 : # ",
". E ] ] E E E E ) E E d X.Q.kXkXkX$X+XG.].].[.[.XX5XeX8X8XiXeXrXiXrXiXrXiXrXiXiXiXiXrXiXrXiXeXiXeXeXeX8X[.1XG.z.H.H.D D I n l f f d d ) 5 ; < d n b b z z 2 : . ",
". ] E ] ' ' _ _ ) ) E R E X.Q.!.&X#X#X#X`.OX'.].[.[.oX5XXXoXiX0XiXeX7XiXrXrXeXrXrXeXiXrXiXeXrXeX5X8X7X5XoX[.x.H.H.D y y f l n X.h a 5 2 : ; : d c c c 5 z 2 ; . ",
". ] ] ] [ ' ' ' ' b ) R E W #.Q.!.%X#XK K Y 0.'.[.l.].].XXXXoX8X5X1X0X8XeX0XrX7X7XrX0X7X1XeX8XoXoXXXXXXX|.H.S ].D w w w u d l l d u u 1 > ; 2 5 2 ; ; : : b ; . ",
"X ] ] ] [ ' ' ' ' _ ) R E W E %.!.&XH K @X@XOXOX+X`.M.].[.XX[.|.oXXX5XoXXX5X5X5X5XoX5XoXoXXXoXXXXX[.[.].D.S S t 9 9 7 @ q u d s d d a ; $ $ : 2 : ; ; ; ; ; ; . ",
"= [ ] ] ]  .{ } } [ ) ) ) E !  .%.Q.$X$X$X$XO.@X).OX`.Y P.].[.'.[.oX|.[.XX[.XXoXoX[.XXXX|.[.XXXX].[.7.A A S t w 9 9 & & > 1 1 1 d d a : ; ; ; ; : ; X ; X ; ; X ",
"- [ ] n  .X.X.X.{ [ ) _ _ ) ] ]  .@.%.E.@X$X$X$X@X@X@XU @X+X'.'.'.[.].[.K.L.[.].[.H.D.[.].].q.D ].8.A t t w w w w & & & , 3 : : 1 5 5 : : : : 2 2 : : ; ; : 2 - ",
"= [ ] ] X.%.%.R.X.[ ] ] _ ) E E ! ~ /  .@.&.&._.@X@X$X8 K ~ T.=X+X%XI.C.:X'./.v D t.7.x i.=.y x S x t w w 7 9 9 9 & = > ; : : ; : : : 2 2 2 4 z z z 2 : : 4 4 2 ",
"X ] ] { { X.X.X.{ [ ] ] E ] E E W W W ~ ~ / @.&._._.&.8 Z Z B &.@XE.Q.=X:XW.$Xx x x w r 6 9 r w 9 9 w w 9 7 6 6 + @ @ + $ ; $ $ ; ; ; : : : 4 z z z 4 : : 4 4 2 ",
". ] ] [ } } { { } ] E E E E E E ! W W W / ~ / ~ +.@.@.g 7 g s ............@...% r 6 9 & & 6 p p w 9 & 9 6 & & & @ & & + $ $ X X X ; X ; ; ; : 2 2 4 2 2 : ; ; ; ",
". ] ] [ } } } { _ ] ] E E E E E ! ! W / /  ./ / ^ ^ ~ ~ % % p i W W ~ / / Q Q % 9 9 > & @ 9 a j r 9 + @ $ & # & & & + + ; X ; ; ; X $ ; ; X ; ; : 2 2 2 ; . $ # ",
". ] ] { { [ ] ] ] E ] E ] E E E E E E !  ... ./ W W W W ~ # # i u u W /  ./ ! % q p i * $ < r c r > & % $ $ $ $ + + $ $ $ $ : : : ; X ; ; ; ; ; ; 2 2 2 $ # # # ",
". ] ] ] b ] ] E c ] E ] . . ; [ ] E ! !  ... .W ! W ! W W ! o i u u u  ... ./ # u s u > $ ; , 1 , > $ $ @ $ $ $ > > $ $ X ; 2 2 : ; ; ; : : : ; ; : : : $ * < * ",
". ] ] ] ] ] ] ] ] ] ] . . # ; ; ; X   ! ! ! ! . o o o . o o o u u u i  . . .! # u u 1 $ $ $ + ; + + $ $ $ $ $ u u < > $ X ; : : : ; X ; : 2 : ; ; ; . . # < u < ",
". . . . . . . . # . . . . . X ; X .     . o o . . o .                 # # # . . # # # .                 . . # < u < # . . . . X . . . . ; ; ; . . . . . # * u * "
};
