/* XPM */
static char *result[] = {
/* columns rows colors chars-per-pixel */
"80 80 238 2 ",
"   c #0F0C0D",
".  c #110C0D",
"X  c #1A0D0F",
"o  c #0F0D10",
"O  c #120E13",
"+  c #190E13",
"@  c #141112",
"#  c #1D1112",
"$  c #13111B",
"%  c #1D131B",
"&  c #1E1B1B",
"*  c #220E12",
"=  c #290F13",
"-  c #221213",
";  c #2C1315",
":  c #23141B",
">  c #2B141B",
",  c #281B1C",
"<  c #321316",
"1  c #34151B",
"2  c #3C151A",
"3  c #36191C",
"4  c #33201F",
"5  c #1D1623",
"6  c #1C1927",
"7  c #1E192C",
"8  c #1F1C37",
"9  c #231623",
"0  c #2B1523",
"q  c #271A24",
"w  c #231B2C",
"e  c #2B1A2C",
"r  c #351A26",
"t  c #221C34",
"y  c #271E37",
"u  c #361D34",
"i  c #2B2123",
"p  c #27232C",
"a  c #352426",
"s  c #392325",
"d  c #34212B",
"f  c #3B242B",
"g  c #2A2333",
"h  c #2A233B",
"j  c #382635",
"k  c #33243C",
"l  c #3C2B3C",
"z  c #38323B",
"x  c #45161D",
"c  c #451825",
"v  c #541C2A",
"b  c #481B37",
"n  c #44262A",
"m  c #4A2F2F",
"M  c #472837",
"N  c #57253A",
"B  c #453339",
"V  c #1F1E41",
"C  c #1F2045",
"Z  c #292549",
"A  c #362746",
"S  c #352D4E",
"D  c #332A57",
"F  c #372D62",
"G  c #591C43",
"H  c #741C4E",
"J  c #482946",
"K  c #59254A",
"L  c #453745",
"P  c #5A3D4D",
"I  c #4F2654",
"U  c #4B3B56",
"Y  c #543C54",
"T  c #682448",
"R  c #6D2F52",
"E  c #4E2F65",
"W  c #6F2965",
"Q  c #574647",
"!  c #5C4747",
"~  c #5C4847",
"^  c #55454C",
"/  c #5B464A",
"(  c #5D4A4A",
")  c #4D4256",
"_  c #544552",
"`  c #594656",
"'  c #5C4D54",
"]  c #5E5056",
"[  c #644647",
"{  c #664647",
"}  c #64434A",
"|  c #6A4549",
" . c #624B4A",
".. c #6B4A4A",
"X. c #724A4F",
"o. c #644C56",
"O. c #635253",
"+. c #6A5757",
"@. c #65535B",
"#. c #78585A",
"$. c #534A67",
"%. c #594963",
"&. c #654B64",
"*. c #685563",
"=. c #775C69",
"-. c #6A5977",
";. c #775474",
":. c #796268",
">. c #796377",
",. c #9F1D4E",
"<. c #9E1C53",
"1. c #A11E4E",
"2. c #A21E51",
"3. c #AD1E58",
"4. c #B81F59",
"5. c #882558",
"6. c #942458",
"7. c #A1204F",
"8. c #A52153",
"9. c #AC2557",
"0. c #AD245A",
"q. c #B4235B",
"w. c #B9265D",
"e. c #B51D61",
"r. c #8E2E69",
"t. c #A82567",
"y. c #B82964",
"u. c #BC3268",
"i. c #B32D72",
"p. c #D01E5F",
"a. c #C2225E",
"s. c #CD1E63",
"d. c #D31C63",
"f. c #DB1C66",
"g. c #DB1D6A",
"h. c #F80C68",
"j. c #EC1167",
"k. c #E91568",
"l. c #E41C6B",
"z. c #EB1C6C",
"x. c #F5146B",
"c. c #FB136D",
"v. c #F4196C",
"b. c #FB1471",
"n. c #F51A73",
"m. c #FE1C73",
"M. c #FF1E7A",
"N. c #C82767",
"B. c #D6276A",
"V. c #DB236C",
"C. c #C7346C",
"Z. c #D3316D",
"A. c #C82974",
"S. c #D92974",
"D. c #CA3C76",
"F. c #DC3272",
"G. c #D83978",
"H. c #E4226C",
"J. c #E9226D",
"K. c #EA2372",
"L. c #E82A76",
"P. c #F22374",
"I. c #FD2276",
"U. c #F62778",
"Y. c #FE247B",
"T. c #F32B7C",
"R. c #FE2A7C",
"E. c #E63479",
"W. c #E33B7C",
"Q. c #F8327D",
"!. c #8B506E",
"~. c #B24D7E",
"^. c #8E6D74",
"/. c #876978",
"(. c #96757B",
"). c #A47A7E",
"_. c #C5477E",
"`. c #D5437C",
"'. c #DB447C",
"]. c #E6437E",
"[. c #775D82",
"{. c #7A6688",
"}. c #CE3B84",
"|. c #D93D82",
" X c #EC2C80",
".X c #F82981",
"XX c #FD2C82",
"oX c #E93783",
"OX c #F43783",
"+X c #FE3485",
"@X c #FD3B85",
"#X c #FF3489",
"$X c #FF3C8B",
"%X c #895987",
"&X c #995685",
"*X c #A74E86",
"=X c #B74885",
"-X c #BA5685",
";X c #866B86",
":X c #976985",
">X c #8B7387",
",X c #957987",
"<X c #9B7C85",
"1X c #A96885",
"2X c #B06383",
"3X c #A57B82",
"4X c #C64684",
"5X c #D94782",
"6X c #EA4885",
"7X c #FF428D",
"8X c #F44889",
"9X c #FF4A8E",
"0X c #EA538B",
"qX c #F7528E",
"wX c #FF4592",
"eX c #F74C90",
"rX c #FF4C94",
"tX c #FF4E98",
"yX c #ED5B92",
"uX c #FF5295",
"iX c #F45994",
"pX c #FB5C95",
"aX c #FF549A",
"sX c #FF5C9D",
"dX c #FE639D",
"fX c #FF699E",
"gX c #FF5DA1",
"hX c #FF63A2",
"jX c #FF6AA5",
"kX c #FF66A8",
"lX c #FF6CA9",
"zX c #FF71A6",
"xX c #FF74AB",
"cX c #FF7AAE",
"vX c #FF7CB2",
"bX c #9D818A",
"nX c #A48184",
"mX c #FF81B4",
/* pixels */
". @ @ @ . . X X X . . . .     .     O O O $ O $ $ $ $ $ $ @ $ 6 p & $ o o     # * : + O $ $ $ 5 $ 9 r 0 : + O o o O . . . . . . . .   . . .                     ",
"@ & , & @ . - ; < ; - - . . .   + + O O $ $ $ 5 w 5 5 5 6 6 q p L ^ 6 & & & : - P } ^ ` ` _ _ _ ) ` o.R ` _ _ ^ P / [ { | { { [ ~  .~ ~  .~  . . . . . . .O. .  ",
"@ & i & - - < x x < X X - @ . ; > > % 5 5 7 7 7 7 8 7 7 7 6 6 8 L L p & : : 1 9 } ` ` ` ` ` Y ) $.%.%.&.*.@.@.@.o...| { { { { m ~  . . .~ ~  . .(  . . . . . .. ",
"@ & a i - - ; 2 x ; - - ; ; < 3 r 0 9 w w 7 7 t t t t t 7 8 g 6 z p z & : 0 r > ` ] @.&.&.&.-.-.-.[.;.>.>.{./.>X/./.!.+.| } } !  .O.+.O. .~  .~  .(  .(  . . .. ",
"@ @ - , - - ; ; ; - X - ; 1 x c c r e e y 7 8 V C Z Z h 8 A k 7 w e e q r r r 0 =././.;.;X{.{.{.{.{.{.;X{.>X>X>X+.(.(.^.!.O.~ ~  .O.+.+.( ~ m ( (  .{  . . .m . ",
"  # # ; ; ; ; ; = # # - ; 3 c N v u u u y Z Z Z Z Z Z S S S Z t j j j b N T H G =X4XD.}.=X&X;X{.{.{.{.{.{.{.{.>X,X(.<X<X(.^.#.~  .O.O.O.( ~ ~ (  . ..... . . .. ",
"  # - ; < < < < < - # # - s N N N u u y A Z Z D D D D F D $.A K H t.y.A.F.T.T.U.m.c.h.h.n.S.=X&X%X%X{.{.{.{.{.>X>XbX<XnX).).^.#.m  . .( ( ~ ~ (  . ..... .~  .. ",
"  # - ; ; < 2 x 2 < - # : f B } J j h A Z D D F F F F E W i.A. X+X$X#X#X#XXXY.m.h.h.h.h.c.M.#X+XoX4X*X%X%X{.;X>X>X(.).nXnX).).(.#.~ ~ ~ ~ (  . . . ... . . . .. ",
". # # - - * < x x < - ; 0 f L L A l h Z D D F F F W r.A. X+X#X#X#X$X$X$X+XY.c.h.h.c.c.c.m.XX+X#X+X+X+XoX}.&X%X;X>.>X(.bXbXnX).).).#.~ Q ~ O.+.O. . . . . .~ m . ",
". * * X X * < 2 2 ; * > r s j l k k A S D D F E r.|.#X+X@X$X$X7XwXwX$XXXM.x.h.v.I.Y.XXR.XX#XwXwX7X$X$X#X+XOXG.*X^.>X,X<X<XnXnXnX).(.#.~ ( O.+.O.( ~ ~ ~ (  .~   ",
". = ; ; - - ; 1 < ; - - > r d j k k Z D D E r.A.XX#X#X7X7XwXwXrXwX#XXXm.b.m.I.R.#X7XwXrXwXtXaXwXwXwX7X$X@X#X+XOX4X~.(.,X<XnXnX).3X).^.O.~ ] O.O.( ~ ( ( ~  . .  ",
". ; 1 ; - X - ; < - # - q a d g k h A D W i. X+X#X$X$XwXrXrXrXrXwX+XI.m.Y.R.+X@XwXaXaXaXsXsXaXaXaXtXtXwXwXwX$X#X#XoX_.1X<XnX).nX3X3X(.:.( ( ~ ( ~ ~ ~ ~ ( ~ (   ",
"X = ; ; # # - ; 1 ; % : r f j j u A J 5.S.#X#X$X$X$XtXtXuXuXaXuX7XR.I.Y.R.XX@X7XwXuXaXsXgXsXsXgXsXaXaXrXtXwXwX$X#X+X+X5X2X<X<X<X3X3X<X^.] Q Q Q ~ ( ( ~ ( ( ( . ",
". # - - # + % ; > > q d d f M j A K t. X#X#X$X$XtXtXaXaXaXsXaX7XQ.R.n.n.n.Y.R.R.@X7XaXsXgXsXsXgXsXsXsXsXgXrXtXwXwX$X#X+XoX-X<X<X<X<X,X(.@.^ ^ ^ Q ( ( ( n ( ( . ",
"  # # # # # # : > r f B l M u M K y. X#X#X7XwXrXrXtXgXgXaXuXtX@XR.I.z.k.v.z.z.P.U.Q.9XsXhXsXgXgXsXdXsXsXsXaXaXuXrXwX$X$X+XoX-X1X>X,XbXbX>.^ ^ ^ ] O.] ( Q ( (   ",
"  # - # % % % 5 0 r M L A k u K y.OX#X$X7XwXtXaXaXgXgXtXaXaX9X@XR.z.k.k.l.k.k.l.k.P.7XsXhXgXhXsXgXsXsXgXsXgXgXaXaXrXwX7X$XXXoX-X>X@.>XbX>.*.^ _ ] @.] ( ( ! ( . ",
"  - ; r 0 % 5 5 0 u A A B A K y..X#X$XwXwXtXaXaXsXsXsXaXaXrX7XR.J.k.k.l.l.H.J.J.J.Q.uXhXsXhXkXgXhXgXgXsXsXgXsXsXsXaXtXwX$X#X+XoX-X:X>X>X>XY _ _ ' ] o.( ! ! (   ",
"@ i s 0 0 5 5 5 7 u A J S K y. X+X7XwXrXtXaXsXsXsXsXsXaXuX7X@XP.l.k.l.J.L.Q.Q.7X7XuXsXjXhXhXhXhXhXhXhXhXsXgXsXsXsXsXgXtXwX7X$X#XoX*X;X;X;X{.] ) _ _ ' [ [ ! (   ",
"o : , 0 9 5 7 7 u u A A Y t. X#X$XwXwXrXaXgXsXsXgXsXaXuX7XQ.T.J.k.H.L.L.OX7XuXaXhXjXjXhXjXjXhXhXhXhXhXgXhXsXsXsXsXsXaXaXuXwX7X$X#XoXr.!.[.>.&.) U ^ r c r a /   ",
"o % % 9 w 7 7 t A A A D 5.E.#X$X7XrXaXaXsXsXgXsXdXpXuXwX@XQ.E.P.H.f.H.L.E.@XqXdXjXlXlXlXjXlXlXkXkXhXhXhXhXhXhXsXsXsXsXsXaXtX7X7X$X#X4X%X;.{.-.U ) u j } | i ,   ",
"O % 5 5 7 7 8 y A A A W A.+X#X$XwXrXaXsXsXgXgXsXdXuXuX9X7X7XQ.E.l.l.f.H.J.E.@XqXdXxXxXxXlXlXlXlXjXjXkXhXhXhXgXhXdXsXsXsXsXaXrX7X$X#X#X=X%X[.-.$.) w / P | [ !   ",
"O 5 5 7 7 8 8 C Z Z I e.T.+XwXwXtXaXgXsXsXsXsXsXaXuXrX9X9X9XQ.L.d.d.f.f.g.B.V.E.8XhXxXxXxXxXxXlXjXjXjXjXhXhXhXhXsXdXaXsXaXsXaXtXwX$X#XoX*X[.-.$.U ) M P P / !   ",
"$ w w 7 8 t V C Z D W S.#X#XwXrXaXsXgXgXhXsXsXsXuXuXaXuXqX9XOXL.d.d.f.d.d.d.d.B.E.hXvXcXcXcXxXxXjXkXjXhXjXhXhXhXgXsXsXaXsXaXaXaXtX$X#XXXi.!.-.%.) U ^ P } } !   ",
"q g y t 8 V C C D I A.+X#X7XwXaXsXsXsXhXsXsXsXsXdXpXsXpXuXqXrXOXf.d.d.p.d.d.p.d.W.jXvXvXvXvXvXxXcXlXjXhXhXhXhXdXdXgXsXaXaXaXsXaXtXwX$XXX X=XU -.) Y Y ^ P | }   ",
"p z g 8 8 C C C F 6. XXX$X7XuXaXsXgXsXgXsXgXhXsXhXdXhXhXhXhXjXqXV.d.d.B.B.F.F.E.8XxXmXmXmXmXvXvXvXxXlXfXsXsXsXfXgXdXsXaXaXaXuXaXaXrXwX@XXXA.W E ` Y Y P R | !   ",
"6 g g 8 8 V C Z I A..X#X$XrXaXgXgXgXdXgXhXdXhXhXhXjXjXlXzXzXzXuXB.B.F.W.6X8XiXdXfXmXmXmXmXmXmXmXvXcXxXjXdXuXuXaXsXgXaXuXuXrXqXaXaXaXwX$X#XOXr.[.%.Y Y P { P m O ",
"$ w p 8 V V C D W  X#X$XwXtXaXsXsXgXgXhXhXhXhXhXlXlXzXxXcXcXhXW.B.B.W.].qXiXdXfXzXcXcXcXmXmXmXmXvXvXvXlXsXuX9X9XuXaXaXaXrXwXrX9XuXaXwXwX#X#XD.!.%.U Y ^ / P } X ",
"$ 6 6 8 8 C C I i..X#X$XwXaXsXsXhXgXhXdXhXhXlXjXlXxXcXxXcXjXeXF.B.Z.G.'.6XeXiXfXdXdXdXdXjXzXcXmXmXmXvXxXfXqX9XQ.$X9XuXuXrX$XwX$X9XaXuXwX$X#XoX*X` U P P } | | - ",
"$ p 7 7 S Z Z H  X.X$XwXrXaXsXdXsXhXdXhXhXjXlXlXxXxXvXvXxXaX].Z.Z.Z.Z.Z.D.'.6XiXyXyX0X0XqXqXsXhXxXcXvXvXlXuXOXQ.T.OX7XwX7X@X+X+X@XwXaXwX$X#XXX~.&.Y P ^ ] O...% ",
"$ l g 7 7 h D 6. X#X$XwXtXsXsXgXgXgXhXhXhXjXlXxXcXxXvXxXhXqXW.F.Z.N.a.C.C.G.'.0XdXdX0X'.'.G.W.6XqXsXhXjXdX7XE.L.H.J.P.+X@X+XR.R.+X@X9XrXwX$XXXG.r.P P ^ ] @.@.# ",
"@ 5 p g 8 h J y. X#X$XrXaXdXsXsXhXhXhXhXlXlXlXxXcXvXcXlXpX6XW.G.C.w.y.N.C.`.5X0XyXyX].`.Z.Z.Z.Z.S.F.F.F.F.V.f.g.H.H.l.z.U.I.I.I.Y.R.$XwXwX$X+XT.i.P P ` ] @.O.@ ",
"O % 5 6 y k K A..X#XwXaXsXsXsXhXsXhXhXhXhXlXxXxXcXvXxXkXiX0X6X`.N.w.w.w.N.C.D.D.`.0X0X`.N.u.N.B.N.B.N.s.p.d.d.f.l.H.l.l.k.z.v.v.m.M.XX+XwX$XOXR.~.R P ^ @.@.O.@ ",
"O % 9 e l L W S.+X$XwXgXsXgXsXhXdXhXhXhXjXlXxXxXcXcXzXdXpXyX].D.y.q.0.0.0.q.y.y.C.`.5X_.w.q.w.N.Z.B.B.N.p.p.d.d.l.z.J.k.l.k.j.c.b.m.m.Y.+X$X#X+XD.R / ' ] z O.@ ",
"O % : r M K 5.L.#X$XrXaXsXgXgXgXhXhXhXkXlXlXxXcXcXcXjXdXdXyX'.`.y.0.0.8.2.3.7.8.9.9.y.9.8.9.w.N.Z.F.F.B.d.d.d.d.f.L.T.P.l.k.j.v.m.m.m.M.R.$X#X+XG.;.^ ^ ] j a @ ",
"o $ % d B J t. X#X7XrXsXsXsXgXhXkXdXjXjXlXxXxXvXcXcXfXfXdXyX0X`.u.8.2.2.,.,.7.7.7.1.<.1.2.9.q.w.Z.G.6XE.B.B.d.d.f.L.oXOXU.k.z.x.m.m.I.M.m.XX#X+XT.!._ ^ ` ( / . ",
"o # 9 r j M e..X+XwXuXsXsXsXgXgXgXhXhXhXlXzXxXvXcXxXzXzXfXfXdX0XC.0.8.2.7.,.,.,.,.,.7.8.1.3.w.N.N.G.6X8XW.S.f.p.f.H.OX@X@Xn.z.v.I.Y.Y.XXM.m.R.#XE.!.` ` / } [ . ",
"o # , d d M y..X#XwXaXaXsXsXdXhXhXhXhXjXlXxXcXcXvXcXxXxXxXcXjX0X_.u.9.7.,.<.,.,.,.,.,.,.8.8.9.C.C.G.0XpXsX8XF.B.d.H.@XrXwXR.J.v.I.R.@X#XXXm.M.XX+X~.&._ ! | } + ",
"O : i d g b N.XX+X$XtXaXaXuXgXsXhXhXhXjXlXxXvXvXcXcXxXxXxXxXjXyX`.C.0.7.,.<.<.,.,.,.7.7.8.8.0.C.'.G.6XjXlXhXeXL.V.L.9XsXaX$XU.I.R.$X$X7X#XM.m.M.T.-X=.' / } } . ",
"- r M z j N N.Y.m.+X$X7X+X+XrXsXgXhXhXlXlXzXcXcXcXvXcXjXiX0XdXiX5X_.0.7.,.,.,.<.,.,.7.7.7.9.w.G.6X'.6XfXcXxXlXuXOX8XaXfXhXuX@XR.+X9XrXrXwX+Xm.m.T.-X>.@.' ! / O ",
"- i a g g J S.M.c.Y.XX+XU.v.+XwXaXgXsXsXhXjXlXlXxXcXzXpXG.Z.'.0X].`.u.8.7.,.,.,.,.2.1.8.8.0.~.5XyXdXdXcXcXvXcXxXjXfXlXlXhXdXrX+X#XrXaXaXuX+Xb.m.U.5.l p $ O O O ",
"* ^.bXbX<X(.oXM.c.m.m.Y.m.z.v.#XrXuXaXaXaXsXdXsXdXzXjXqXZ.y.C.G.'.`.u.9.8.7.7.<.7.<.8.<.9.u.`.yXxXmXvXmXmXmXvXvXcXxXxXlXlXhXhXaXrXgXgXaXaX7XY.M.T.5.l p 9 % % . ",
"X (.bXbX,X:X|..Xm.c.m.c.x.j.k.U.7XuXrXwXrXrXuXuXqXaXpX8XZ.a.y.N.`.`._.y.9.8.7.7.<.8.8.7.9.C.0XzXmXmXmXmXmXvXvXvXxXxXxXxXjXjXhXhXhXgXsXsXaXrXXX.XT.5.u q , - j o ",
"+ (.bX<X>X:X|.XXY.c.h.x.x.j.k.k.Q.wX$X7X@X8X8XOX].6X9X8XZ.a.4.4.w.C.C.u.0.9.7.7.3.2.2.8.9.C.yXxXmXmXmXvXmXmXvXvXxXxXxXlXlXhXhXhXgXgXsXgXsXtX@X#XL.H u r 9 % # o ",
"O (.bXbX>X:X}..XXXY.c.h.h.j.j.j.P.@X#XOXOXOXE.E.E.E.6X6XS.a.4.w.9.q.w.9.w.9.9.9.9.9.0.0.8.C.dXcXmXvXvXmXmXmXvXvXcXxXxXlXlXhXhXhXhXgXgXsXaXrXwX+XF.H u e q : % o ",
"$ ,XbXbX,X;X4XoX#X#XY.c.h.j.j.j.z.U.+XQ.T.E.L.E.E.E.W.W.V.a.a.4.4.4.q.q.w.u.u.w.y.y.q.9.q.C.jXmXcXxXcXmXmXmXmXvXxXxXlXlXjXhXkXhXgXkXsXsXgXtX$XXXS.K u u 9 9 % O ",
"$ >XbXbX,X;X=X X+X$X@XR.c.x.j.k.j.z.P.P.J.K.H.H.V.V.F.F.F.N.s.y.a.C.`.'.`.`.`.C.C.w.q.3.4.C.dXzXlXxXcXmXmXmXmXvXcXxXlXlXhXkXgXkXhXsXgXsXtXwX#XXXi.G k w 5 % % o ",
"@ (.bX,X>X;X*XoXXX#X7X7XR.I.m.z.k.k.H.K.H.H.H.H.H.B.S.F.S.B.N.].dXfXxXzXfXyX'.D.u.w.q.4.4.N.6XpXdXzXmXmXmXmXvXcXxXxXlXlXjXhXhXdXsXhXgXsXtX$X#X.Xt.J y t 5 5 5 O ",
"o (.bX,X>X;X&X|.R.+X7XwX9X7XXX+X+XY.v.k.z.l.l.H.V.V.V.B.B.S.W.6XdXzXcXmXcXdX`.a.w.q.w.4.a.a.'.6XpXzXcXmXmXvXvXcXlXlXlXjXhXhXhXgXgXgXgXsXtX$X#X.X5.J h w 5 5 % o ",
"$ ^.bXbX>X{.;X}.#X#X$XtXtXtXwX$X7X$X+XP.J.z.H.H.H.V.E.E.L.E.6XqXhXjXcXvXmXfX'.Z.N.y.N.N.a.N.Z.8XdXcXmXmXvXvXvXxXlXlXjXjXhXhXhXhXgXsXsXaXrX#XXXL.W Y A y 7 5 % O ",
"o ^.bX,X-.>X>X=X.X#X$XwXtXgXaXrX9X9XwX+XT.J.K.H.L.E.E.].8X].8XdXjXzXcXcXmXxXsX6XG.Z.Z.N.B.B.Z.uXzXvXmXmXvXcXxXlXlXlXjXhXhXhXhXsXsXgXsXaX7X#XXXA.I A y y 9 5 % o ",
"O :.,XbX,X>X>X&XoX#X#X$XtXaXaXaXuXaXaXuX@XQ.T.L.E.OX7XqXqX8XuXdXcXcXmXmXvXcXfXpX6XW.F.B.s.s.E.fXcXmXmXcXcXlXjXlXlXjXkXhXhXhXhXsXgXgXgXrX$X+X.X6.I A A u 0 9 5 o ",
"O O./.,X,X>X>X>X}.#X#X#XwXaXsXgXaXaXaXaXuX9X@XQ.@XOX9XrXpXpXsXfXxXvXmXmXmXxXdX8XW.F.B.d.s.d.].zXmXcXcXzXlXhXjXjXlXhXhXkXhXhXhXsXaXgXaXwX$XXXS.W A A J u e 9 % o ",
"o ( +.(.,X>X>X;X-XoXXX#XwXtXsXgXgXgXgXsXsXuXrX$X@X7X9XuXsXdXjXjXjXcXmXmXmXdX6XF.B.d.d.d.p.d.].jXjXfXdXdXdXdXjXkXjXhXfXhXgXhXgXgXsXaXtX$XXX.Xi.I A J A u r r > + ",
"O ^ ' *./.bX>X>X:XoX.X#X$XwXaXsXsXgXaXsXdXsXsXaX9X9XuXuXdXfXjXzXxXcXcXvXvXdXOXF.B.B.g.f.f.f.L.7X9XrXuXaXdXhXlXhXhXhXhXhXhXsXsXgXgXaXwX@XXX X5.J A A u e r 0 0 + ",
"o Q ^ ^ *.>.bX>X>X4XOXXX#XwXrXaXsXsXsXgXsXsXhXsXaXuXuXaXsXhXlXzXzXcXvXmXvXlXuX6XE.V.B.g.f.d.V.L.Q.8XuXsXgXkXhXhXhXhXhXsXsXgXsXsXgXtX$X#XXXA.K A u k e 9 0 0 ;   ",
"  ( ( ^ _ @.:.>X>X:X|..X+X$XwXaXsXsXgXgXsXhXgXdXdXaXuXpXsXhXjXzXzXxXcXcXxXjXsXrXOXE.H.V.f.f.H.L.Q.8XuXaXkXsXhXdXdXhXhXsXsXgXsXsXaX$X#X#XK.5.A k A u e e : : : o ",
"  ( ~ ^ ^ ^ _ =.&.,X-XOXXX+X$XrXaXgXsXgXsXsXhXhXhXsXaXsXsXkXjXxXzXcXxXcXlXhXaX8XOXL.L.g.g.l.K.T.7X9XuXaXsXdXdXgXgXgXdXgXsXsXsXaXrX#X#XXXt.K k k j u r 1 , - & . ",
"  Q ( ( ^ ' ^ _ =.>X:XA.Q.XX#X7XtXaXsXsXsXgXsXhXhXhXdXsXhXjXhXlXlXlXcXzXxXhXsXwX8XE.L.l.l.l.K.+X7X9XuXaXsXgXgXkXgXgXsXgXsXgXaXtX$X#XXXS.H J k j j e r r 3 ; - . ",
"  ( ( ] O.] ^ ^ @./.,X2XoXR.+X#XwXaXsXsXgXsXsXgXhXhXhXdXhXhXhXlXkXlXlXzXlXhXdXaXwX@XQ.K.z.J.U.@X@X7XuXdXgXsXgXgXsXsXsXsXsXaXuXwX#X+XU.6.J l j j d q 0 c c 2 - . ",
"  ~ ( +.+.O.( / ^ @./.<X4X XXX#X$X7XaXsXsXsXdXgXsXsXgXfXhXhXjXhXjXlXlXjXjXhXuXaX9X7XOXT.K.P.U.+X7XuXaXgXdXsXgXsXdXgXsXsXgXaXwX#XXXY.y.K L L B j i 0 3 x v 2 - . ",
"  ~ ( O.+.O.Q Q / ^ @.^.3X4XQ.R.#X#XwXuXaXsXsXsXsXsXhXhXgXkXhXhXhXjXjXhXaX9X$X@XQ.Q.T.P.n.U.R.@XrXaXdXdXsXgXsXgXsXdXsXaXtXwX#X+XXXN.H L L L L f r , > c x < - . ",
"  ~ ( ( ( ( Q Q Q / ^ =.,X1X5XQ.XX+X7X7XaXsXgXsXsXhXsXsXdXkXdXhXhXhXhXsXuX7X+XI.P.n.v.v.n.R.$XrXaXsXsXsXsXsXgXgXsXaXsXtXwX#X+XXXS.H M l B B B f q - > < ; - - . ",
". ~ ~ ~ ~ ~ ! ! / /  .o.^.(.1X'..XXX@X#XwXrXaXgXsXsXsXhXsXhXkXhXhXkXaXuX7X].Q.R.I.n.v.x.m.+XwXuXaXsXaXsXgXsXgXsXsXaXaXwX#X#XR.V.5.M j j M m M c 3 : - - - # # . ",
". (  .( ~ Q Q ! ~ ] o.| =.<X3X1X'..XXX+X#XwXrXaXsXsXsXsXsXsXsXsXhXgXuX+XR.Q.I.I.v.x.x.v.+X7XuXaXsXaXaXsXaXsXgXsXaXrX7X#XXXY.g.5.M j j j f n m n 4 ; ; - # # # . ",
"X { { { { ~ ~ ~ ( O.+.O. ./.bXbX1X4X.XXXXX#X$XrXaXaXsXsXgXsXgXsXhXsXrX+Xm.n.x.x.h.h.x.R.7XrXuXaXaXuXaXaXsXsXaXaXwX$X#XXXXXg.<.N j d f f f n B m n 3 ; - # # # . ",
"X { ....[ ~ ~ ~ ( O.O.] ^ @.(.bX,X1X4X.XXXXX#X$X7XrXaXaXgXsXsXsXgXsXaX$XM.c.h.h.h.x.+X$XwXrXwXrXtXaXaXaXaXaXwXwX#XXXXX.XN.H N n f f f f f n B B a 4 ; ; - - # . ",
". { { { ~ ~ ~ ~ ~  .( m Q ( =./.<X:X:X=XS..XXXXX#X$XwXtXaXsXgXaXaXaXaX7XR.m.c.h.m.Y.+X@X$X7XwXrXuXaXtXrXrXwX@X+XXXXXK.q.T M n n f a f #.s s m f 4 - - < ; ; ; . ",
".  . . . .~ ~ ~ [ { [ ! Q Q ^ @.=.^.;X;X*X}..X.XXX+X@X$XwXwXuXrX$X7XwXwX#XY.m.m.m.R.XXXX#X7XwXrXrXrXrXwX#X#X+XXX.XV.6.K c n u #.s f a s s a 4 , - - ; 2 x 2 - . ",
"   .~  .( ~  . .[ m | ! Q Q Q Q ` *.>.U U U r.A.T..XXXXX+X#X7X+XM.M.R.XXXXXXY.M.m.M.R.XX+X7X$XwX$X$X#XXX+XXX.XK.e.T J M M n s s s x s 4 s 4 , # # # - 2 x m ; . ",
".  . . .( ~ ~ ~ [ { | ! Q Q Q Q ^ ^ k S >.{.{.[.=X XU.Y.XXXX+XR.b.b.c.m.Y.M.M.m.M.I.R.+X#X#X#X#X#XXXXX.XY.K.e.H M J L M n s s s n n n n s 4 - # - # - ; x ; - . ",
"- {  . . . .~  .[ { [ ! ! ! Q Q ^ ' ` ] %.&.E [.[.%X*XA.n..XXXY.b.b.c.b.m.M.m.Y.R.R.XX+XXX+XXX.XXXXX.Xg.<.T A u j j l M f s s s n n n x 3 ; - X # # X - ; - X . ",
"= .. .m ~ {  . .....| { [ } ! Q ' @.*.&.Y Y ) $.$.-.{.E &X4X|.T.M.M.M.Y.Y.Y.Y.XXY.XX.XY..XY..XP.g.e.H G A y y e g d f n n r 4 4 4 x 3 2 2 ; - # # # # # - X # . ",
"- .. . . .......#.X.....| { [ Q ' *.*.*.` _ ) ) E $.$.Z ) S /.:X~.~.G.F.E..XP.z.n.j.g.s.e.<.5.G b u u u t e e w 9 e r c s 3 , - ; - , 4 4 ; - # # # # # = = . . ",
". {  . .{ ..X.!.^.......{ { [ ~ ' +.+.@.' _ _ ) ) ) $.h z h k %.&.*.#.r.r.!.!.b b b u u 0 0 > 9 5 e u r 0 5 5 5 : : , 1 ; - # # - - 4 4 4 - # # # # # - ; < = . ",
"@  . . .......^.:.#.......{ ~ ~ ( ] @.] ' ` _ _ ) ) _ g 6 g p _ _ P ^ ` { } } 9 5 5 % % : 0 0 0 0 0 0 1 0 % % % $ % % - # # # X # - 4 a 4 , - - # - - - < ; < = ",
".  . . .......#.:.#.......{  .~ ~ ( ( ' ] ] ] _ _ _ _ _ $ $ p p ^ ^ ^ ^ [ } P 0 0 : % % % = > > 0 0 2 0 : % + $ # # # # # # # # # & , i 4 < ; ; - - - - ; = < ; ",
".  . .O.......+.+.+.O. . . .~ ~ ( ~ ( ( O.+.@.' ^ ^ ^ ^ ^ O O p i i ^ Q ! } R 0 2 0 > * # % # : = 0 > : % + # # + # # # # # # X # # & - , ; < ; - ; < ; X X - = ",
".  . . .m ......m  . . .@ @ .  .~ ( ( ( O.@.] ( ( ^ ( Q ^ ^ o i i i i ^ / ! { = 2 1 > * # # # + * * * * + + # # # # - X X # # # # # # # - ; 4 - - < < ; X . . . ",
".  . . ... . . . . .~   . . . . X * # ~ (  .( O o o o o @ o   i i i q ( ! / / X ; ; : * # # # X + + + + + X # # - ; ; ; - # # # # # # # - - - # - ; - - . . . . ",
". .     @ . . . @ @ @   . . . . * ; * .         .                     . . O . . O X O           . . . . + .     + X = * . . . . @ . . . . . . . . X X . . . . . "
};
