/* XPM */
static char *result[] = {
/* columns rows colors chars-per-pixel */
"80 80 243 2 ",
"   c #0F0C0D",
".  c #110C0D",
"X  c #0F0D10",
"o  c #110E13",
"O  c #1C0E11",
"+  c #120F19",
"@  c #141112",
"#  c #1D1212",
"$  c #14111C",
"%  c #1D141B",
"&  c #1D1B1C",
"*  c #220E12",
"=  c #290F15",
"-  c #221313",
";  c #2C1315",
":  c #22151A",
">  c #2A151C",
",  c #241A1D",
"<  c #291D1E",
"1  c #321316",
"2  c #35181B",
"3  c #1D1623",
"4  c #1E1929",
"5  c #231B23",
"6  c #2A1E22",
"7  c #271928",
"8  c #311D25",
"9  c #381C28",
"0  c #261E34",
"q  c #371D32",
"w  c #2C2224",
"e  c #2A232B",
"r  c #332225",
"t  c #34222B",
"y  c #3B232C",
"u  c #37282B",
"i  c #292336",
"p  c #342433",
"a  c #3C2433",
"s  c #34253B",
"d  c #392939",
"f  c #3A3134",
"g  c #4A1F3B",
"h  c #452A2C",
"j  c #47302F",
"k  c #462937",
"l  c #56273B",
"z  c #483338",
"x  c #54343C",
"c  c #62413E",
"v  c #301F41",
"b  c #2E2749",
"n  c #372745",
"m  c #332944",
"M  c #32294B",
"N  c #3C324A",
"B  c #2C2852",
"V  c #382B57",
"C  c #392E63",
"Z  c #531D4B",
"A  c #432846",
"S  c #58254C",
"D  c #493848",
"F  c #573946",
"G  c #5B3D4B",
"H  c #4C2655",
"J  c #4C3D53",
"K  c #483A58",
"L  c #553A56",
"P  c #712C4E",
"I  c #673B49",
"U  c #69345A",
"Y  c #773555",
"T  c #4D3D63",
"R  c #533265",
"E  c #6A3269",
"W  c #793867",
"Q  c #4F414D",
"!  c #564447",
"~  c #5B4546",
"^  c #5C4847",
"/  c #54444B",
"(  c #5A454A",
")  c #5C4949",
"_  c #4D4257",
"`  c #544453",
"'  c #584557",
"]  c #634546",
"[  c #6B4547",
"{  c #624847",
"}  c #644449",
"|  c #6B4649",
" . c #634A49",
".. c #6B494A",
"X. c #73454A",
"o. c #784348",
"O. c #71484A",
"+. c #65514F",
"@. c #674A55",
"#. c #774956",
"$. c #645254",
"%. c #68555A",
"&. c #755458",
"*. c #73605E",
"=. c #4B4263",
"-. c #584766",
";. c #6E556D",
":. c #7B666D",
">. c #9F1D4E",
",. c #9E1D50",
"<. c #A11E4E",
"1. c #A21E51",
"2. c #AC1F53",
"3. c #B71F58",
"4. c #892659",
"5. c #972E5D",
"6. c #873757",
"7. c #9B305E",
"8. c #A1204F",
"9. c #A52153",
"0. c #AB2458",
"q. c #AD245A",
"w. c #B4235B",
"e. c #B9265D",
"r. c #912F69",
"t. c #AA2366",
"y. c #B82966",
"u. c #AA366B",
"i. c #BA3268",
"p. c #AD3175",
"a. c #D01E5F",
"s. c #C2225E",
"d. c #CD1E63",
"f. c #D31C63",
"g. c #DB1C66",
"h. c #DB1D6A",
"j. c #EC0E64",
"k. c #F80C68",
"l. c #E91668",
"z. c #E41C6B",
"x. c #EA1C6B",
"c. c #F5146B",
"v. c #FB136D",
"b. c #F5196C",
"n. c #F81773",
"m. c #FE1B73",
"M. c #FE1E7A",
"N. c #C62765",
"B. c #CC2C6B",
"V. c #D62769",
"C. c #DB236C",
"Z. c #C6346B",
"A. c #D3326D",
"S. c #C82874",
"D. c #D92A73",
"F. c #CC3B76",
"G. c #DD3272",
"H. c #D73879",
"J. c #E4236C",
"K. c #E9236E",
"L. c #E42574",
"P. c #E52B73",
"I. c #EA2978",
"U. c #F42676",
"Y. c #FD2276",
"T. c #FE247B",
"R. c #F42B7C",
"E. c #FE2A7D",
"W. c #E7337A",
"Q. c #E23C7C",
"!. c #F8327D",
"~. c #874A54",
"^. c #8B536C",
"/. c #B34E7D",
"(. c #886869",
"). c #876D78",
"_. c #976A79",
"`. c #8D7079",
"'. c #977578",
"]. c #A4767D",
"[. c #C1467D",
"{. c #D8437C",
"}. c #E6437E",
"|. c #A2807F",
" X c #7F6A8C",
".X c #C83E82",
"XX c #D23C83",
"oX c #EC2A80",
"OX c #FD2681",
"+X c #F32C81",
"@X c #FE2B82",
"#X c #EA3882",
"$X c #F43782",
"%X c #FE3485",
"&X c #FD3B84",
"*X c #FF3489",
"=X c #FF3C8B",
"-X c #885886",
";X c #955984",
":X c #B35384",
">X c #866A88",
",X c #97688A",
"<X c #8C7388",
"1X c #9B7B85",
"2X c #987888",
"3X c #917192",
"4X c #AB6B86",
"5X c #A57B85",
"6X c #C84A87",
"7X c #DC4882",
"8X c #EB4885",
"9X c #FF428D",
"0X c #F44889",
"qX c #FF4A8E",
"wX c #E9528A",
"eX c #F7528E",
"rX c #FF4492",
"tX c #F74C90",
"yX c #FF4C94",
"uX c #FF4E98",
"iX c #ED5B92",
"pX c #FF5295",
"aX c #F45A94",
"sX c #FB5C95",
"dX c #FF549A",
"fX c #FF5C9D",
"gX c #FE639C",
"hX c #FF699E",
"jX c #FF5DA1",
"kX c #FF63A2",
"lX c #FF6AA4",
"zX c #FF66A8",
"xX c #FF6CA9",
"cX c #FF71A6",
"vX c #FF74AB",
"bX c #FF7AAE",
"nX c #FF7CB2",
"mX c #9E828C",
"MX c #A98587",
"NX c #A4848A",
"BX c #AC888D",
"VX c #FF81B4",
"CX c #D9A7AA",
/* pixels */
". .   . . . . . . . . . . .   . X X X + + + + + + $ $ $ $ @ + X X X + . o o . o @ + + @ $ $ $ $ 4 3 5 3 % + + o o o X     X     . . . . . .     . # * O . . .   ",
".     . . . . . . # # # . .     X X + o o + $ 3 7 7 7 q 4 e 4 & e e o - O % % o / / / ` ` ` ' ' _ ' ' ' ' / F Q / / ~ ~ ~ ~ ^ ^ ^ ^ ^ ^ ^  . . .+.O.O.O. . .+.  ",
". . .   # # # # O # # O #     # % % % $ 7 7 7 7 q q q s s i i 4 f e & > > : # + / / ` ` ` ' _ _ _ ' ` L L ` / / / ( ( ~ ! ^ ^ f ^ ] ] ]  . .^  ...o.o.[ +. .{ . ",
". . # # # # # # O O # # # # # # : : 7 7 7 0 s s s s v n m m N i m 3 e 6 7 : $ $ ` ` ` _ _ =.=._ =.=._ L L ` J / ! I I } ~ ~ ~ ~ ] [ [ o. . .^  ...o.O. . . .+.. ",
". . # # - - # # O O @ # # # # & 7 8 9 q q A n H H n n n M N V i 0 7 7 7 7 7 3 3 ` ' ' -.-.=.=.=.=.=.T T L L J L k I Y I ] ~ ~ ~ ^ [ I o...{ j  . ..... . . .j . ",
". # # # ; ; ; * # O # # # & , 5 8 9 g A A A V H V V V V M K 0 0 0 7 7 q 9 P s q @.W U #.-.-.=.=.T T T T T K J L I I I [ ] ~ ~ ~ ^ [ o.o.[ ^ ) {  . . . .O... .. ",
". # # - ; 1 ; * # # # # % w u u a k A A n V V V V V V V V K v S S 3.A q.4.D.y.+XH.+Xp.G.r.H.W p.R E T T T K K L L G G I F ! ~ ] h [ ] ] ^ ^ ^ ) { ^  ...O.O. .. ",
". # # O ; ; ; O # # # # , p z f d d n n M V C C C C C V U E S.Z y.t.+XoX*X@X*X+X%X+X%X%X*X+X+Xp.XXE r.T R K K J Q D D ! ! ! I [  .{ ^ ^ ^ ^ ^ ^ ^ {  . ... . .. ",
". # # # # - - # # # # - r u z f d s m b V V C C C C W H t.y.+XR.*X*X*X*X=X&X=X=X=X=X=X*X=X*X=X*X%X#X%Xp.S.R U K J J D Q ! ! ] ..+. .) ^ / ^ ~ ) { ^ ]  . .{ j . ",
". # # # # # - < w < ; < r u u p s s m M B V C C R E XXoX*X*X9X*X=X=XrX9X9XrXrXrXyXrXyXrXyXrXrX=X9X=X*X*X%XXXH.U U J Q / / ( } @.%.$.) ^ ^ ^ ) ~ ^ ^ .... .{ ) . ",
". . # # # # - w r r w r r t t p s v n M V V R W oXoX*X$X=X=X=XrXrXyXyXrXyXuXdXyXdXdXdXuXpXyXyXrXrXrXrX=X=X*X@X+XR.Y r.' @.' } @.$.$./ ! ! ~ ~ ~ ^ {  .[ ..{ { . ",
". # # # O # % < w u u r r u p d d A M M V r.S.S.oXOX*X=X=XuXyXrXuXyXdXdXdXdXdXfXdXdXdXdXdXdXyXpXrX=X=X@X%X%X*XY.E.n./.q.' I G ( ) / / ! ! ) } } )  ..... .{ )   ",
". # - - - # # : 6 r r r t t f A A A V M R p.oX*X*X=XrXrX9XuXyXdXdXjXfXfXdXfXfXfXdXfXfXfXfXpXpX9X%X@X@Xm.Y.v.v.k.v.k.v.k.i.5.J L / / / / ! I } } +.%.$. .{  .) . ",
". - < w 6 : # , 8 r t r t p d D A A H y.oX*X=X=X*X=XuXuXdXfXjXjXjXfXfXjXfXjXfXfXfXfXdXpXyX=X9X!.E.Y.Y.T.b.v.k.n.v.k.k.k.n.c.#./ Q Q Q Q ! ( I  .$.%.%.) f ) ) . ",
". & w u e : , 8 r 9 t t p p m N n 4.D.D.oX@X*X=XuXdXdXdXfXfXfXjXfXjXjXjXfXfXfXpXdXqXpXpX9X&XE.Y.n.U.Y.E.@X%X@X=XOXT.v.v.k.Y./.r.` J Q / L ( ( ' $.$.+.) ^ ^ )   ",
". & < w 6 6 8 t y y a a p p d k A 4.oX*X*X=XuX=XuXuXjXjXjXjXfXjXfXfXfXfXfXfXdXfXpXyX9X9X%XY.E.U.x.n.n.@X*X%X=X*X9XOXT.n.@XY.*X:X^.N Q L L G / / ` ) ) / ^ ^ ^   ",
". # : e 6 y y a a a a a s s s Z S.U.*X*X=XrXuXdXfXfXfXfXjXfXjXjXfXfXfXgXfXdXpXqX}.!.!.!.K.x.z.j.l.l.b.T.Y.9XqXpXdXrXuX@X*X=X*X#X#X;.;.R K A Q ` Q / / / ^ ^ ^   ",
". w 6 5 9 a k a q s s s s v 4.D.D.@X=X=XuXuXfXdXfXfXfXkXkXkXkXfXgXfXfXdXpXqXyX9X9X!.!.K.x.l.z.z.z.l.l.x.U.%X!.pXfXfXdXyXuXrXrX%X+X:X^.-.K J Q Q Q / / / ~ ~ ^   ",
"# > > 7 p a a s 0 s v v v v 4.I.*X=X=X=XyXfXdXjXfXkXjXkXjXkXjXgXgXjXfXfXpXpXqXpX9X!.U.I.z.K.x.K.z.z.l.z.b.U.9XdXfXfXfXfXyXyX9X=X*X*Xr.;.-.=._ _ Q Q e w 6 w ) . ",
"- 2 8 t p q s n b v b b A t.oX@X*X=XuXjXfXfXfXjXfXfXkXkXgXkXkXkXkXkXfXhXfXsXdXqXqX!.I.g.g.J.I.U.K.!.z.K.l.z.%XrXfXfXjXfXdXdXyX9X*X*X.X;X;.-.K K K e e / / 6 6 . ",
"* 8 q p s s s b v b b Z n y.+X*X9XyXdXfXfXfXfXkXkXkXgXfXgXlXzXzXzXlXzXlXkXgXpXpX0XP.P.C.g.g.I.W.9X9X!.9XK.!.rXfXkXfXfXfXjXfXuXuX=X=X*X$X-X;.-.L Q i Q / / ^ ~ . ",
"* 9 h d s m m b B v B v S.@X*XrXrXyXfXfXfXjXjXkXfXjXkXzXzXkXlXlXlXxXxXcXxXvXkXkXqX$Xg.a.g.h.J.L.9XeXfXgXpXpXyXkXjXkXjXjXfXfXdXdXuX=X=X*XXX;X;.-.J J d / / ) } O ",
"3 q a d s m b b B B V S.S.OX@XrXpXfXfXfXjXjXkXgXkXkXkXkXlXzXxXxXvXvXvXcXvXcXvXlXqXV.g.a.f.C.V.R.!.eXgXkXzXfXlXgXkXjXkXjXfXfXfXyXuXrX=X@X+X-X XR L Q Q Q ! } I * ",
"= q d s m M b B B B H S.n.M.%XuXuXdXfXjXjXjXkXjXkXkXlXlXxXxXvXvXvXvXnXbXbXbXvXcXpXC.a.a.a.f.f.V.V.eXgXxXxXlXlXgXkXkXjXkXfXfXfXfXdXuXrX*X*X.XW ;.=.J _ Q / ( } O ",
"$ q d s m M B B B H y.OXM.v.T.9X9XdXpXfXjXkXkXgXzXzXxXlXxXvXvXvXbXnXnXnXvXxX0X8XV.V.V.f.V.f.a.a.V.W.0XcXvXxXxXzXkXkXkXkXjXfXjXjXdXuXuX=X=XG.r.T -.K Q Q ! / ~ @ ",
"$ q d m n M M B B V t.OXv.m.Y.@X@X%X&XjXjXkXkXkXkXlXlXxXvXvXnXbXbXnXcXkXeXQ.Q.G.D.V.H.Q.8XD.D.a.f.W.kXvXvXxXvXzXxXkXkXgXkXjXfXfXjXdXyXrXrX*XT.-X;._ Q Q / ! f   ",
"$ q d s b M M B B t.OXOXm.v.Y.T.U.b.qXyXfXkXkXkXlXxXxXvXvXbXbXbXvXkXcXsXwXQ.A.V.G.A.Q.}.}.0XG.W.W.Q.kXnXbXvXxXxXlXzXkXkXkXkXfXjXjXjXyXrX=X=XXX;X;._ J Q / / ^   ",
"$ p p m m M M B V t.oXOXv.k.b.b.m.c.%XyXgXkXlXzXlXxXvXvXbXbXbXbXxXgXaX0XQ.H.G.A.A.A.{.8XsXgXaXgX0XvXnXnXnXnXvXvXxXlXzXkXjXjXgXjXfXfXdXyXrX=X*XXX:.-.Q D / / /   ",
"> D p s ;.b b M W x.*X*XOXv.v.c.l.l.*X*XdXjXkXzXxXvXbXvXnXnXvXlXgXgXiXgX8X{.B.e.N.N.A.F.wXaXhXcXnXbXVXVXnXnXbXvXlXlXlXzXkXkXfXfXfXfXdXuXuX=X*X#X:X;.H L / ! !   ",
"5 #.D s s m b H Z oX*X=XT.k.j.j.j.j.U.9XpXdXjXfXlXcXnXnXnXvXcXcXhXhXwX{.F.y.N.e.y.N.A.H.wXeXhXhXvXbXVXVXnXnXnXvXxXlXlXzXkXkXkXkXfXfXfXjXuXrX=X*X:X#.G ( / / !   ",
"= a D J s m m S oXOX*X*X=Xv.k.j.j.x.%X=XyXpXdXkXlXvXnXnXnXvXvXcXhXiXiX}.H.y.w.e.y.Z.Z.F.{.eXsXgXgXbXnXVXVXnXnXvXxXxXlXzXkXkXjXjXfXfXjXjXuX=X=X#X$X^.@.G / ! / . ",
"+ 9 t p s s s t.t.oX*X*X=Xn.c.j.j.l.U.rX9XyXyXdXfXxXxXbXnXvXvXvXbXhXhX{.i.0.0.0.q.Z.Z.{.wXgXsXaXwXhXxXVXVXVXnXbXvXlXkXlXkXkXkXkXfXjXdXdXdXuX=X*X$X^.#.G / ~ /   ",
"+ 8 t p p s v 4.L.*X=XrXyXE.Y.l.j.x.R.%X&X=X9XqXpXfXgXvXvXbXxXvXcXcXcX}./.0.9.9.9.e.q.[.{.wXiXwX{.wXeXcXnXVXVXnXvXxXgXkXkXgXzXfXgXfXfXfXdX9X=X%X*X/.^.~ ~ 6 /   ",
"o 6 t p q q S L.L.*X=XyXyX&Xm.b.j.l.E.+X$X!.0X9XqXpXgXcXvXsXsXaXbXlX}.[.2.9.2.<.9.9.e.i.{.wXiX}.}.{.eXgXnXnXVXnXvXlXfXgXgXkXkXgXfXdXfXfXdXuX9X=X#X[.(.) / w w   ",
"o 8 9 t p p g t.@X*XrXpXdXpX%X%Xl.l.U.U.R.U.!.Q.0X8XfXdXlXeXH.B.gXaXiX{.i.0.<.<.>.,.9.9.[.{.wX{.A.A.{.Q.lXvXnXnXxXxXfXdXfXkXkXjXgXfXfXdXdXyX=X=X%X#X_.' / / ( . ",
"# 9 h 9 t p P C.R.%X9XuXdXpX9X=X%XT.x.U.K.P.I.P.W.W.8XpX8XA.d.N.{.wX{.{.q.>.<.<.,.,.1.>.0.0.{.{.Z.s.A.V.wX0XnXnXvXlXeXqXfXdXjXfXfXdXdXfXfXdXrX=X@X7X_.@./ / ~ X ",
"O h h 9 9 p S N.@X*XyXdXdXdXyXqX=X%Xx.x.L.z.J.J.P.G.}.8X8XB.N.e.{.7X8X{.e.8.,.>.>.>.>.>.1.1.9.2.e.q.B.B.D.G.zXlXxXxXeXqXqXpXjXfXfXdXdXdXdXdXrX=X%X%X;X&./ ^ (   ",
"o 9 h 9 t p 4.U.OX*XrXdXfXdXuXyXqX%XU.x.z.J.J.C.C.W.W.8XD.s.3.s.Z.{.{.i.9.8.>.,.,.>.>.>.<.1.1.2.w.e.N.B.V.G.G.lXgXpX&X!.=XpXdXpXdXdXdXdXfXdXyX=X&X6X4X%./ ( } o ",
"O 8 2 9 9 p l I.@X=XrXfXdXfXdXuXpX!.U.z.x.J.J.C.C.G.W.Q.V.s.s.w.e.{.[.Z.q.<.5.<.>.8.,.<.<.<.<.0.e.e.N.A.V.s.V.G.V.9XW.!.R.qXpXdXpXyXyXdXdXdX9X=X=X#X:X&.} } } : ",
"* : : 3 5 0 r.+X+X*X9XdXfXjXfXfXfXqX9XK.L.J.J.g.C.C.G.D.V.s.3.3.0.e.Z.e.2.<.<.<.8.>.>.1.8.<.9.0.q.s.Z.W.G.V.a.a.a.C.C.J.J.%X=XpXyXrXrXuXuXjXyX=X%Xy.l 9 7 = = = ",
"= (.].5X2X<X_.+X@X=XrXfXdXfXjXjXfXpXyX!.R.P.J.G.G.V.V.G.V.d.y.3.0.e.e.i.q.0.8.,.1.,.1.,.8.9.9.q.Z.y.B.Q.}.V.f.d.a.f.g.z.z.U.%X9X9X9X=XyXpXdXqX=X=XW.9.k 9 1 > * ",
"- ^._.1X`.<X7XR.@X%XrXdXfXfXfXfXfXfX9X&XI.R.W.P.P.W.V.G.B.H.B.B.3.w.i.e.9.9.8.1.9.,.<.1.8.0.9.q.Z.A.H.8XG.W.V.d.a.g.h.K.z.z.&X&X&X%X9XqXyXdXrX=X@XA.P l 9 5 j o ",
"O &._._._.).;X#X@X*XyXdXfXdXjXjXgXgXyXyX!.$X!.0X8X8XW.W.Q.8XaXlX{.{.w.e.0.0.8.9.1.1.<.1.9.q.u.{.H.{.H.wX0X8Xf.f.g.f.l.K.z.z.U.Y.%XE.%X&XdXyXrX=X*X+X6.l 9 5 # X ",
"o &._._.,X>X:X+XE.%X9XuXjXfXfXjXfXfXfXdX&X9XqXqXqXtX}.wXpXgXvXvXcXcX{.{.i.i.0.9.9.1.1.q.i.{.Z.7XwX{.8XkXfXdXG.f.f.g.J.I.x.x.l.x.Y.Y.%X&XyXyXrX=X%XZ.P l q > % X ",
"o $.).`.`.).-X6X@X*XrXuXdXjXjXfXkXkXfXfXqXqXqXdXsXsXpXpXgXlXcXcXVXbXcXaX{.i.e.i.w.q.0.0.Z.wXiXvXiXgX8XhXxXgXW.h.g.h.P.W.K.x.l.j.b.v.T.E.tXyX9X*X*XI.Y k q , % X ",
"@ $.).1X>X>X;X+X+X%X=XuXfXfXfXgXfXkXgXpXpXtXpXdXfXsXfXhXcXvXbXbXbXVXgX{.F.Z.Z.e.w.0.q.i.wXlXcXcXbXgXvXbXvXkXtXV.g.P.+X!.R.x.l.c.v.m.Y.*X=XyXrX*X@Xr.G d e 3 % X ",
"5 %.:.<X<X X>X6XR.*X=XdXpXjXfXjXfXkXkXfXdXyXfXgXkXlXlXgXcXnXVXbXVXhXhXH.s.Z.w.0.2.q.3.Z.gXbXVXVXVXbXVXVXnXlXeXC.I.J.&X9X&Xz.l.n.n.n.M.OX%XrX=X*X@Xi.S s 7 3 % X ",
"i *.:.<X<X X>XXXXX@X%XrXyXfXfXjXfXkXgXgXfXfXfXfXgXlXcXvXbXVXVXVXVXvXsXZ.N.e.w.3.w.3.Z.lXbXVXVXVXVXVXVXVXbXnXvX!.0XqXfXrXE.n.l.b.m.m.m.Y.T.9X=X*XI.Y N s 5 3 % o ",
"f ;.*. X<X X<X,X@X@X=XrXuXdXfXfXgXjXkXkXfXfXfXzXlXcXvXvXbXnXVXVXbXlXgX8XN.N.s.3.e.N.Z.gXbXbXVXbXVXVXVXVXnXnXzXzXaXfXfXpXE.K.b.m.m.Y.m.M.*X=X*X+XI.6XN 0 7 3 $ o ",
"e $.$.:.%. X X3XXX+X*X=XdXfXfXfXjXjXkXkXfXjXkXzXlXcXvXbXbXVXVXVXcXfXsX8XA.S.N.N.s.s.8XsXlXcXbXbXnXVXVXnXnXnXbXvXxXxXkXuXU.U.b.Y.T.E.Y.m.E.=X=X%Xr.L s 4 3 3 % + ",
"& ` _ :.<X<X X X6X*X*X*XrXyXjXfXjXgXkXjXgXkXlXlXxXcXvXvXbXVXnXgX8XP.0XQ.H.G.B.N.s.G.H.eXgXhXbXVXVXVXVXVXbXvXvXvXcXcXkXgX&XY.E.9X@X%XE.M.E.=X%XS.p.H i 4 4 3 % X ",
"X / _ *.<X XmX3X,XXXOX*XrXuXfXfXfXfXjXkXkXkXzXlXxXxXvXvXnXvXlXxX}.G.V.V.V.f.V.V.V.G.8XhXcXVXVXVXVXVXnXnXvXvXvXvXvXlXlXkX=X&X%X9X=X=X@Xm.m.@X@XD.U B 0 4 3 3 % o ",
"X / / %.mX<X<X<X,X+XOX*X*XyXdXfXfXfXkXgXkXgXzXlXlXvXvXvXvXnXlXpX0XV.C.V.f.f.d.d.G.pXpXhXbXbXVXVXVXVXnXnXvXvXvXxXxXxXlXjXpX=XyXyXyX9X&Xm.M.*XL.W U m 0 4 3 3 % X ",
"@ / / %.:.mX2X<X3X:XoX*X%XyXdXfXfXfXfXkXkXkXkXzXlXxXxXvXcXkXdXsXqXP.C.f.f.f.f.f.}.gXbXnXVXVXVXVXVXVXbXbXvXvXvXxXzXzXkXkXgXyXdXdXdXrX%Xv.v.@XoXW N n 0 3 3 & % o ",
"@ ^ / %.:.mX2X<X3X4X7X@X@X=X9XfXfXfXfXjXkXkXkXlXkXlXxXxXxXhXfXqX$XW.W.h.g.f.g.8XhXVXbXVXnXnXnXnXbXnXvXvXxXxXxXzXzXkXkXkXjXjXjXfXfXyX*Xv.m.+Xr.K A s i 3 3 % % o ",
"  ^ / $.).mX1X2X3X3X4XR.OX*X=XpXdXfXjXfXfXkXjXkXzXlXkXzXjXkXdXqX$XI.L.J.h.g.g.P.0XlXlXbXvXnXvXbXvXvXxXxXxXxXxXzXzXkXkXjXkXkXjXfXdX9XT.v.m.E.4.n m s 4 3 $ : # o ",
"X ) / ) :.'.1X1X;.5X:X#XOX@X=XrXdXjXfXfXkXkXkXkXgXfXdXpXkXdXdXrX!.P.L.h.h.g.C.I.qXqXlXhXvXlXxXlXvXxXxXxXxXlXkXzXkXkXkXjXjXkXjXdXdXyXT.M.OX4.A d p p 5 & & # # . ",
"  ^ ^ ~ *.'.5XNX5X2X2X^.E.OX%X=XyXpXfXfXjXfXjXkXfXpXeX9X=X%XqXyX=XW.J.z.z.L.J.K.!.0XpXpXgXkXzXlXlXlXxXlXzXlXlXkXgXkXkXjXjXjXfXfXdX=X@XR.R.4.a s p e 5 , - & # . ",
"  ^ ~ ~ +.'.|.NXmXmX1X2X6XW.@X%XrXyXjXjXfXjXfXyX%XE.}.9X%XU.!.$X$XR.K.K.z.U.R.9X9XpXyXfXfXzXlXzXlXxXlXkXkXkXkXgXjXkXfXgXjXfXdXuXuX=X*XR.4.d a a q 7 e e w & # . ",
"X ^ ) ~ ) (.|.MXNXNXmX1X4X:XE.@X*X=XyXyXdXdXdXdX%Xm.E.Y.E.Y.n.b.R.U.U.U.R.%X!.9XqXpXfXkXkXkXzXzXlXkXzXkXkXkXkXkXkXfXjXjXfXdXdXrX=X@XW.r.4.k k a e w e u w - # . ",
"  ) ^ { [ &.'.|.NXNXNXmX1X/.H.@X@X=X%XyX=XdXpX=XY.n.n.Y.Y.U.n.x.b.U.U.U.U.!.9XqXpXfXdXfXgXkXkXzXkXkXgXkXkXkXjXjXjXjXfXjXdXpX=X*X*X%XD.6.F k z j r 7 w w < - - . ",
"  ^ ) [ ....(.|.MXMXMXNXmX5X:XOXOX*XT.Y.T.rXrXrXE.v.j.v.k.b.c.b.b.b.T.E.&X9X9X9XpXdXfXgXkXkXkXkXkXkXkXkXkXkXkXfXjXjXfXdXyXuX=X*X@XS.6.@.} F F z f 6 < - - - - . ",
"  ) [ { [ c *.'.MXMXBXNXNXmXmX/.S.OXn.v.v.E.%X*XT.v.k.k.k.k.v.b.@X%X%X=XqXyXdXsXfXkXjXkXjXkXjXkXgXjXfXkXfXjXjXjXfXfXjXdXrX*X*X+XE.i.Y | G F x D f w , # - ; ; # ",
". [ [ X.o.o.&.'.|.BXBXMXNXNX1X4XoXR.M.n.v.m.%X%XY.m.k.v.n.E.E.E.@X9XrXpXdXfXfXgXjXgXfXjXkXfXkXjXjXfXkXfXfXfXjXfXfXdXyX=X%X%X%XI.u.~.O.[ F z f f u < % # - ; 1 - ",
". | [ o.~.~.~.'.|.|.|.BX|.BXMX5X4X/.m.m.k.n.M.M.M.M.m.m.@X%XrX9XyXpXdXpXdXfXfXfXfXfXfXgXkXfXfXgXfXfXfXjXfXfXjXdXuXuXrX*X%X@XB.~.u.&.o.| z r < < - - - # # ; ; - ",
". | [ ~.6.~.(.(.|.|.BX|.BX|.5XMX2X<X:XF.OXM.M.M.M.m.m.Y.@X@X=X=XrXyXuXdXdXfXfXfXfXfXfXjXjXjXfXfXjXfXfXjXjXfXdXyX9X=X%X@XL.L.i.~.&.&.O.x y , # # # # - # # # - . ",
".  .X.o.~.~.(.~.(.|.|.~.MXMXMX].1X3X,X>XH.oXE.OXT.T.T.Y.T.%X=XrX9XyXyXuXpXpXfXfXdXfXfXjXfXfXfXfXjXfXjXdXpXyXrX%X*X%X@XU.Z.Y [ O.&.O.I (., : : - ; - - - # # # . ",
".  .[ X.O.O.+.*.~.(.|.|.MXMXMXMXmXmX3X>X-XoXI.OXOXOXE.@X%X%X=X9XrXyXpXdXdXfXdXfXjXfXfXfXdXfXfXfXfXfXyXuX=XyX=X*X*X@XB.7.Y 6.[ CX| I j < # # ; ; ; ; ; ; - # # . ",
".  ... . .{ +...O.j (.|.BXBXBXBXmXmX2XK K L E I.R.OXOXOX%X*X*XrXrXuXuXuXdXdXfXdXdXfXfXfXdXfXuXdX=XjX=X=X&X*X@XT.y.R.7.Y c o.o.O.c h < # # - 1 1 1 1 1 ; * j - . ",
".  . . . .{ {  .[ { &.(.|.BXBXBXBXmX` J >X X X-X-XoXL.+XE.@X@X*X*X=X=XyXrXyXyXdXrXdXrXuX=XrXrXrX*X*X*X*XOX%XR.L.6.P I I I X.O.+.z 8 - - - - ; 1 1 ; ; ; - # * . ",
".  . . .{ { { { { { { ..'.|.|.BXmXNX1X,X3X<X-. X-X-X-XD.XXM.OX@X@X%X@X=X%X=X*X=X%X=X%X=X%X%X@X%X@X*XOX@XC.y.U U F I I I c [ c x u ; = 1 ; - 1 2 2 2 ; ; # - ; * ",
"- O...j  . ...O.[ { [ [ o.(.'.].NX5X5X2X2X<X3X>X>X>X>XR S.:XE.+XE.E.@X@X@XOX*X@X%X@X%X@X@X@X@X@X@XL.D.4.Y Y Y F F I F c c j u u < , ; 1 ; = 1 h j f u < - - 1 ; ",
"1 o.o.O...O.o.o.o.[ [ [ [ c &.(.'.'.5X1X<XmX2X<X>X>X>Xn L L :X;XH.:XT.W.E.R.OXK.OXz.OXU.OXC.C.5.5.5.5.G I F F F F F F h u < - - - # ; ; ; - 1 h j j j r - - - - ",
"1 o.O.....O.o.o.o.O.[ [ { { {  .&.(.'.1X1X2XmX<X<X3X<X0 D F F ,X2X2X4X4X4X4XQ.Z 2.l 4.l P F 6.I U F G F F F F x k h 8 > - # # # # # * - # - ; h j j h w ; - . . ",
"- O.O...O.O.O.O.O. . .{ { ^ ^ ^ ) ) %.:.).).<X).).).).N 3 D D `.<X`.).`.`.,X'.9 q q 9 g h l k F x F F k z k t r 6 , , % # # # O O # # # # # ; 1 h 2 2 2 ; . . . ",
"O  . .+...O.O. . .{ { { { ^ ^ {  .) ) ) $.%.%.%.%.-.' %.$ $ p D ;.&.%.%.%.%.*.$ 5 : : , 5 7 r u r u t 8 5 , : % % 6 w < # # O # # # # # # # # ; ; ; 1 2 1 . . . ",
". +.+.+.+.O... .{  .{ { { ^  .{  . .) ~ ) / / ) ` / ) / / @ & k z h ) / ` $.$.& : % 6 w 5 & # : : : % % @ % # % , w u w # # # # - # O # # # # - - ; ; 1 # . . . ",
"- *.+.+.j O... .j  .[ [ . . . [ | | ) ~ ) ) ) ) ) ) / / / / + u u u e ~ ) $.%., : , w e w , # # # O # # # O # @ % < w < # # - ; ; ; - # # * # # # # - - . . . . ",
"< *.*.+.+.+. . . ...O.* . . . # * O o ) ) ) $.& & @ . X o     6 w 6 w ) ) $.$.& & - w w < - O O # O % O # O O # # - - & # # - 1 1 1 - # # # # - # # . . . . . . ",
"& < &   . . . . O O # # . . O . . . . . X @ & e w @   .   . . .     X X X @ @ @ . . @ @ o .   .                       . . . . # * O . . . . . . . . . . . . . . "
};
