/* XPM */
static char *_c9cb679ec244eb5fb065c0f7503dc80Q86WIjfhVxkMtiFt[] = {
/* columns rows colors chars-per-pixel */
"80 80 21 1 ",
"  c #030202",
". c #060303",
"X c #090606",
"o c #0E0909",
"O c #0C0C0C",
"+ c #110D0D",
"@ c #140F0F",
"# c #0F0F19",
"$ c #1F1212",
"% c #28231D",
"& c #1D1D3A",
"* c #2E2121",
"= c #4A3B2C",
"- c #473130",
"; c #111144",
": c #373550",
"> c #464646",
", c #52525D",
"< c #585858",
"1 c #644E4D",
"2 c #686868",
/* pixels */
"++++++++++++++++++++++++++++++++++++++++++++++++++++++++++++++++++++++++++++++++",
"+++++++++$$$+++++++++++$$$$$$$$+**+$$$$+111111111111111111111111111111111111111+",
"++++$$$$$$$$$++$$$$$$$$$$$$$$$$+**+$$$$+11111111111111111111111-111111111111111+",
"++$$$$$$$$$$$$$$$$$$$$$$$$$$$$*+*+*$$$$+111111111111111111111111111111111111111+",
"++$$$$$$$$$$$$$$$$$$$$$$$$$$$**+$$$$$$$+1111111111111111-1111111111111-1111111-+",
"+$$$$$$$$$$$$$$$$$$$$$$$$$$$$*++$$$$$$$+111111111111111111111111111111111111111+",
"+$$$$$$$$$$$$$$$$$$$$$$$$$$$$*+$$$$$$$$+1-1111111111111111111111-11111111111111+",
"+$$$$$$$$$$$$$$$$$$$$$$$$$$$$*++$$$$$$-+111111111111111111111111111111111111111+",
"+$$$$$$$$$$$$$$$$$$$$$$$$$$$$$*++$$$$$$+11111111111111111111111111111111111111-+",
"+$$$$$$$$$$$$$$$$$$$$$$$$$$$$$$*+$$$$$$+111111111111111111111111111111111111111+",
"+$$$$$$$$$$$$$$$$$$$$$$$$$$$$$$*+$$$$.. @111111-1111111111111111111111111111111+",
"+$$$$$$$$$$$$$$$$$$$$$$$$$$$$$$+++$$$.. @11111111111111111111111111111111111111+",
"+$$$$$$$$$$$$$$$$$$$$$$$$$$$$$$+  ..... @@@@@@111111111111111111111111111111111+",
"+$$$$$$$$$$$$$$$$$$$$$$$$$$$$$.X  ..... @@@@@@@@11-1111111111111111111111111-11+",
"+$$$$$$$$$$$$$$$$$$$$$$$$$$*$$XX  ..... @@@@@@@@1111111111111111111111111111111+",
"+$$$$$$$$$$$$$$$$$$$$$$$$$$$**XX  ...o. @@@@@@@@11111111111111111-1111111111111+",
"+$$*$$$$$$$$$$$$$$$$$$$$$$$$$***  ..... @@@@@@11111111111111111111111-111111111+",
"+**$$$$$$$$$$$$$$$$$$$$$$$$$$$$*X ..... @@@@@@111111111111111111111111111111111+",
"+$$$$$$$$$$$$$$$$$$$$$$$$$$$$$$$.   ..OOOO@@@@1-111111111111111111-1111111****1+",
"+$$$$$$$$$$$$$$$$$$$$$$$$$$$$$$$..X ..OOOO@@@@1-111111111111-111111111111**11**+",
"+$$$$$$$$$$$$$$$$$$$$$$$$$$$$$$$.OOOOO%%==OOOOO1111111111-11*111111111111*11111+",
"+$$$$$$$$$$$$$$$$$$$$$$$$$$$$$$OO<<<<<<<>>>>>>>OO111***1111**1-11111111111-1111+",
"+$$$$$$$$$$$$$$$$$$$$$$$$$$$$$$OO<<<<<<<>>>>>>>OO***11**111*11111111-1111111111+",
"+$$$$$$$$$$$$$$$$$$$$$$$$$$$$$$OO<<<<<%%==<<>>>OO111111**11*1111111111*11111111+",
"+$$$$$$$$$$$$$$$$$$$$$$$$$$$$$$$.OOO<<%%==,,OOO111111111***11111111****-1111111+",
"+$$$$$$$$$$$$$$$$$$$$$$$$$$$$$$$.OOO<<%%==,,OOO*1111111111111111111111-1111111-+",
"+$$$$$$$$$$$$$$$$$$$$$$$$$$$$$$$.OOO<<,,,,,,OOO***1111111111111111111-111111111+",
"+$$$$$$$$$$$$$$$$$$$$$$$$$$$$$$$.OOO<<,,,,,,OOO1111-111111111111111111111111111+",
"+*$$-$$$$$$$$$$$$$$$$$$$$$$$$$...OOO<<,,,,,,OOO@1*111-1111111111111111111111111+",
"+-*$$$$$$$$$$$$$$$$$$$$$$$$$$$...OOO<<,,,,,,OOO@-111111111111-11111111111111111+",
"+$**$$$$$$$$$$$$$$$$$$$$$$$$.....OOO<<,,,,,,OOOoX@11111-1-111111-11-11111111111+",
"+$$$$$$$$$$$$$$$$$$$$$$$$$.......OOO<<,,,,,,OOOX@@@@1111111111111-1111111111111+",
"+$$$$$$$$$$$$$$$$$$$$$$$$$.......OOO<<,,,,,,OOO@o@@@1111111111111111111111111*1+",
"+$$$$$$$$$-$$$$$$$-$$$$$.........OOO<<,,,,,,OOO@@@@@@@11111111111111111111111**+",
"+$$$$$$$$$$$$$$$$$$$$$$$.........OOO<<,,,,,,OOO@@@@o@@1111111111111111111111111+",
"+$$$$$$$$$$$$$$$$$$$$$$$.........OOO<<,,,,,,OOOX@@@@@@1111111111111111111111111+",
"+$$$$$$$$$$$$$$$$$$$$$$$.......OO,,,,,,,,,,,>>>OO@@@@@11***11111111111111111111+",
"+$$$$$$$$$$$$$-$$$$$$$$$....o..OO,,,,,,,,,,,>>>OO@@@@@1111*11111111111111111111+",
"+$$$$$$$$$$$$$$$$$$$$$$$.....OO<<<<<,,,,,,,,,,,>>OO@@@1111**11-1111111111111111+",
"++++++-+-+++++++++++++++   OO<<<<,,,,,,,,,,,,,,,,>>OO ++++++++++++++++++++++++++",
"+1111111111111111111111111@OO<<<<,,,,,,,,,,,,,,,,>>OO$$$$$$*$$**$$$$$$$$$$$$$$$+",
"+111111111-11111111111111OO,,&&::222::;;;;;;;;;;;##>>OO$$$**$$$$*$$$$$$$$$$$$$-+",
"+1111111111111111111111-1OO,,&&22&&&;;;;;;;;;;;;;##>>OO$$$*$$$$$$*$$$$$$$$$$$$$+",
"+111111111111111111111111OO,,&&22&&&;;;;;;;;;;;;;##>>OO$$$$$$$$$$*$$$$$$$$$$$$$+",
"+111111111111111111111111OO,,&&::222&&;;;;;;;;;####>>OO$$$$$$$$$$***$$$$$$$$$$$+",
"+111111111111111111111111OO,,&&&&:::&&;;;;;;;;;####>>OO$$$$$$$$$$$$$$$$$$$$$$$$+",
"+111111111111111111111111OO,,&&&&:::&&;;;;;;;;;####>>OO$$$$$$$$$$$$$$$$$$$$$$$$+",
"+111111111111111111111111OO,,####&&&&&;;;;;;#####OO>>OO$$$$$$$$$$$$$$$$$$$$$$$$+",
"+11111111111111111111111111OO,,,,###;;;;;;;;###>>>>OO$$$$$$$$$$$$$$$$$$$$-$$$$$+",
"+111-111111111111111111111111OOOO,,,,,,,>>>>>>>OOOO$$$$$$$$$$$$$$$$$$$$$$$$$$$$+",
"+1111111111111111111111111111OOOO,,,,,,,>>>>>>>OOOO$$$$$$$$$$$$$$$$-$$$$$$$$$$$+",
"+11111111111111111111111111111111OOOOOOOOOOOOOO$$$$$$$$$$$$$$$$$$$$$$$$$$$$$$$$+",
"+11111111111111111111111111111***OOOOOOOOOOOOOO$$$$$$$$$$$$$$$$$$$$$$$$$$$$$$$$+",
"+11111111111111111111111111111*11111111+$$$$$$$$$$$$$$$$$$$$$$$$$$$$$$$$$$$$$$$+",
"+11111111111111111111111111111*111-1111+$$$$$$$$$$$$$$$$$$$$$$$$$$$$$$$$$$$$$$$+",
"+1111111111111111111111111111-*11111111+$$$$$$$$$$$$$$$$$$$$$$$$$$$$$$$$$$$$$$$+",
"+1111111-11111-111111111111111*11111111+$$$$$$$$$$$$$$$$$$$$-$$$$$$-$$$$$$$$$$$+",
"+1111111111-11111111111111111*111111111+$$$$$$$$$$$$$$$$$$$$$$$$$$$$$$$$$$$$$$$+",
"+1111111111111111111111111111*111111111+$$$$$$$$$$$$$$$$$$$$-$$-$$$$$$$$$$$$$$$+",
"+11111111111111111-11-1111111*111111111+$$$$$$$$$$$$$$$$$$$$$$$$-$$$$$$$$$$$$$$+",
"+1111111111111111111111111111**11111111+$$$$$$$$$$$$$$$$$$$$$$$$$$$$$$$$$$$$$$$+",
"+11111111111111111111111111111*11111111+$$-$$$$$$$$$$$$$$$$$$$$$$$$$$$$$$$$$$$$+",
"+11111111111111111111111111111**1111111+$$$$$$$$$$$$$$$$$$$$$$$$$$$$$$$$$$$$$$$+",
"+111111111111111111111111111111*1111111+$$$$$$$$$$$$$$$$$$$$$$$$$$$$$$$$$$$$$$$+",
"+111111111111111111111111111111*1111111+$$$$$$$$$$$$$$$$$$$$$$$$$$$$$$$$$$$$$$$+",
"+11111111111111111111111111111**1111111+$$$$$$$$$$$$$$$$$$$$$$$$$$$$$$$$$$$$$$$+",
"+1111111111-111111111111111***111111111+$$$$$$$$$$$$$$$$$$$$$$$$$$$-$$$$$$$$$$$+",
"+1111111111111111111111*****11111111111+$$$$$$$$$$$$$$$$$$$$$$$-$$$$$$$$$$$$$$$+",
"+11111111-111111111*****1**111111111111+$$$$$$$$$$$$$$$$$$$$$$$$$$$$$$$$$$$$$-$+",
"+11111111111111111**111111**1111-111111+$$$$$$$$$$$$$$$$$$$$$$$$$$$$$$$$$$$$$$$+",
"+111111111111111111111-1111*11111111111+$$$$$$$$$$$$$$$$$$$$$$$$$$$$$$$$$$$$$$$+",
"+11-11111111111111111111111*11111111111+$$$$$$$$$$$$$$$$$$$$$$$$$$$$$$$$$$$$$$$+",
"+11111111111111111111111111+**111111111+$$$$$$$$$$$$$$$$$$$$$$$$$$$$$$$$$$$$$$++",
"+11111111111111111111111111+***11111111+$$$$$$$$$$$$$$$$$$$$$$$$$$$$$$$$$$$$$$++",
"+11111111111111111111111111*+**11111111+$$$$$$$$$$$$$$$$$$$$$$$$$$$$$$$$$$$$$+++",
"+111111111111111111111111111++**1111111+$$$$$$$$$$$$$$$$$$$$$$$$$$$$$$$$$$$$$+++",
"+1111111111111111111111111111++***11111+$$$$$$$$$$$$$$$$$$$$$$$$$$$$$$$$$$$$++++",
"+111-111-111+++111111111111111+****1111+$$$$$$$$$$$$$$$$$$$$$$$$$$$$$$$$$$$$++++",
"+1111111111++++++++1111++++++++****1111+$$$$$$$$$$$$$$$$$$$$$$$$$$$$$$$$$$++++++",
"++++++++++++++++++++++++++++++++++++++++++++++++++++++++++++++++++++++++++++++++"
};
