/* XPM */
static char *result[] = {
/* columns rows colors chars-per-pixel */
"80 80 236 2 ",
"   c #140E0F",
".  c #160F10",
"X  c #190F12",
"o  c #171011",
"O  c #1B1013",
"+  c #251416",
"@  c #281517",
"#  c #251319",
"$  c #2C161B",
"%  c #2D181C",
"&  c #371618",
"*  c #31171D",
"=  c #32181E",
"-  c #2F1920",
";  c #351A21",
":  c #3A1C23",
">  c #391E2C",
",  c #3F1F30",
"<  c #362326",
"1  c #392427",
"2  c #3C242A",
"3  c #3E2A2F",
"4  c #3E2A31",
"5  c #41151A",
"6  c #51121E",
"7  c #421F26",
"8  c #670F23",
"9  c #6C0F24",
"0  c #7E0B2C",
"q  c #7B103D",
"w  c #422026",
"e  c #43242B",
"r  c #4B262C",
"t  c #46282F",
"y  c #4E292E",
"u  c #51292F",
"i  c #492631",
"p  c #462931",
"a  c #4B2931",
"s  c #522B31",
"d  c #592E34",
"f  c #562639",
"g  c #5A2D3B",
"h  c #473136",
"j  c #4B3234",
"k  c #4D353A",
"l  c #533235",
"z  c #5C3136",
"x  c #543239",
"c  c #5D333B",
"v  c #59393E",
"b  c #63343B",
"n  c #6B3B3E",
"m  c #751449",
"M  c #5D2B45",
"N  c #583943",
"B  c #5B3D43",
"V  c #662A49",
"C  c #7B244C",
"Z  c #633B44",
"A  c #6A3846",
"S  c #753D48",
"D  c #692A54",
"F  c #773558",
"G  c #792E66",
"H  c #5E4147",
"J  c #654147",
"K  c #64444B",
"L  c #69464D",
"P  c #664E4E",
"I  c #6A4C4F",
"U  c #794347",
"Y  c #774248",
"T  c #7D454B",
"R  c #66504F",
"E  c #6C4C51",
"W  c #6C4C56",
"Q  c #7E4352",
"!  c #734E55",
"~  c #755157",
"^  c #775258",
"/  c #7B545B",
"(  c #7E585D",
")  c #7B5863",
"_  c #85092C",
"`  c #870935",
"'  c #980835",
"]  c #AB073A",
"[  c #B5053A",
"{  c #CE023F",
"}  c #901352",
"|  c #B90845",
" . c #B0124B",
".. c #88325A",
"X. c #AA2F50",
"o. c #981D6F",
"O. c #B80B65",
"+. c #AD1771",
"@. c #862B68",
"#. c #972666",
"$. c #893B67",
"%. c #9A2A78",
"&. c #8C3270",
"*. c #943979",
"=. c #AE2B7A",
"-. c #C90745",
";. c #D50546",
":. c #DC0143",
">. c #DD034A",
",. c #C8194C",
"<. c #CB0855",
"1. c #DC0555",
"2. c #D80857",
"3. c #D11759",
"4. c #E20045",
"5. c #E1024A",
"6. c #E0094B",
"7. c #F1024F",
"8. c #E50657",
"9. c #FD0455",
"0. c #F70659",
"q. c #FE065B",
"w. c #C92352",
"e. c #D6295B",
"r. c #CB0B64",
"t. c #CC0A6C",
"y. c #D40C64",
"u. c #D80A66",
"i. c #D20A6C",
"p. c #CA1369",
"a. c #D9166C",
"s. c #CA0D79",
"d. c #D20B71",
"f. c #DC0D7A",
"g. c #C71374",
"h. c #D61678",
"j. c #FA0C66",
"k. c #ED1070",
"l. c #E9187D",
"z. c #FD1A75",
"x. c #F41B78",
"c. c #FE1D7B",
"v. c #CD296B",
"b. c #D7237A",
"n. c #F8227E",
"m. c #81464B",
"M. c #824357",
"N. c #83575E",
"B. c #AA465E",
"V. c #845C62",
"C. c #8B5B64",
"Z. c #995474",
"A. c #B4556E",
"S. c #8A6167",
"D. c #8E646A",
"F. c #91656B",
"G. c #956B6F",
"H. c #8A6373",
"J. c #976C77",
"K. c #9F7378",
"L. c #A86A76",
"P. c #A4747A",
"I. c #A7767C",
"U. c #B3757C",
"Y. c #C85E76",
"T. c #CD627A",
"R. c #AE1580",
"E. c #BA1887",
"W. c #B91194",
"Q. c #9C2D86",
"!. c #B8288A",
"~. c #A73386",
"^. c #AF2F90",
"/. c #C50E84",
"(. c #C91487",
"). c #D61588",
"_. c #C61796",
"`. c #D21391",
"'. c #E71686",
"]. c #EB138D",
"[. c #F51B86",
"{. c #FE1F81",
"}. c #DA2789",
"|. c #CC308F",
" X c #EB2687",
".X c #FF2183",
"XX c #F6248D",
"oX c #FC238A",
"OX c #EB249A",
"+X c #FB2491",
"@X c #F5269A",
"#X c #E53295",
"$X c #C41AA3",
"%X c #DC1CA9",
"&X c #EC1CA4",
"*X c #D12EAB",
"=X c #EA2EA7",
"-X c #F527A4",
";X c #E825B5",
":X c #B64B8E",
">X c #BA5798",
",X c #9D7284",
"<X c #AC6E8D",
"1X c #AD7B82",
"2X c #A8778B",
"3X c #B27E84",
"4X c #B7788C",
"5X c #B76798",
"6X c #BA7794",
"7X c #B652A7",
"8X c #AF70AC",
"9X c #D34598",
"0X c #C65098",
"qX c #C5758F",
"wX c #DB46A8",
"eX c #C851A8",
"rX c #C472AB",
"tX c #B58186",
"yX c #B68389",
"uX c #BB858C",
"iX c #BD898D",
"pX c #B58C93",
"aX c #BB8996",
"sX c #B58BAD",
"dX c #BA9AA5",
"fX c #BCA3AA",
"gX c #BDA8B3",
"hX c #C08B8F",
"jX c #C38D92",
"kX c #C69499",
"lX c #C492AB",
"zX c #C4A1A5",
"xX c #C3A4AB",
"cX c #C3ACB5",
"vX c #C3ADB7",
"bX c #C7B3BA",
/* pixels */
"                          o o o X . X O o O X X X X X . X X X X X X X X X X X X o o o O O O X X X o o o O X O X X X O o o o O o O o o o o .       . .           ",
"                  + + + o o o o X X X X X . X @ @ # @ @ @ @ @ X < < X @ @ @ @ # P L P I I I I I I L I I P I P P I I P I I P P P P P P P P P P P I P P P P P P   ",
"        + + + + + + + + + o o @ # @ @ @ @ @ @ @ $ @ @ @ @ @ @ X < < X @ $ @ @ X P P L P I P L P P I P P I I I I I I I P E P P l R P P R P P P P R R P P P R P   ",
"    O + + + + + + + + + + + + @ @ @ @ @ @ @ @ $ @ @ $ $ $ $ 1 X < + 1 $ $ @ @ # L P P L I L P P I I P I I I I I I P P I P I P P E R E E P P P P P P P P R P P   ",
"    + + + + + + + + @ @ @ @ @ @ @ @ $ @ $ $ $ @ $ $ $ $ % 1 > # $ @ $ $ % $ $ # P P J I I I I I I I I I I I I I l I E I E I E P P P R R P E j P P P P P P R j   ",
"  + + O + + + + @ + @ @ @ @ + % $ @ $ $ @ $ $ $ % $ $ - $ > X # $ * $ $ $ $ # # L P I I I I J L P Y I I I I I E R E E R E P E I E E E P E P P P P P P P P P P . ",
"  + + + + + + + @ @ @ @ @ $ % $ $ $ $ $ $ * * $ % % % $ % 1 # $ * $ * $ $ $ $ # P d I I I L I I P P L L I I E I I E E I E E R E l R E R R P R E P P E P P R R . ",
"  + + + + + + + @ @ @ @ $ @ $ $ $ * $ - $ $ $ * % % % $ % 2 # # * * $ * * * a # L L L J P L I I L L I I I I I E E I E E E E R E E P E E E E ~ R P P P R P E P o ",
". + + # # @ # # @ % @ $ $ % % % $ * $ = $ % * $ * * * * $ * 2 # # * $ * * * * # E ! L ! R R E P I E I L E E L L I E E E E E E E E E E E E E E R E R P P I P j   ",
". + + + # @ @ $ % @ @ % % % % % * $ * $ * - * * $ * * * * = = 2 # * * * ; & = # ^ / / ^ ~ ~ ~ ~ E L L E L L E E E I E E E E E E E E E R R E E R R E E P R R I   ",
". + + @ @ @ @ $ @ @ % % $ * % % * * * * * = * * = - * * - * = 2 # = & * ; = ; $ / / / / ( / ^ v E E E L L E E E E E E E I I E E E I E E E E E E R E P E I R P X ",
"o + @ + # $ @ $ % % % % - $ * - * * * * * - = = = = = = ; = ; # # $ = ; ; ; ; # / / / / / / / / ! E L W L L L E E E E E E Y E E E ~ E E E E E R E R E P P P P o ",
"o @ + @ @ @ % $ $ $ $ = * * * * * ; * * = - - ; = = ; ; ; ; ; $ - # ; ; ; : ; - / ~ / / / / ^ / ^ ! E E I E L L E E E L E E E ! I ! L I P ~ E E E R ~ P E R P O ",
"o @ @ @ @ @ $ $ % = % = * - * ; * - ; * ; * ; ; ; = ; & ; ; ; p $ $ ; ; ; ; ; $ / / ~ / / ~ / ^ ^ ^ c ! ! W E E L L E E E E ! L ! L ! E E E R E E E E R l R R O ",
"o + $ @ $ $ $ * * * * = * * * ; * ; * ; ; * & ; ; ; ; i : : p p $ - ; : : : : $ ~ ~ ~ ~ ~ ^ / ^ ^ ^ ^ ! ! ! ! ! L W E E ! L L E E ! E E E E E E E E E E E R P O ",
"o @ + % $ $ $ $ $ * * * * ; = * = ; ; ; * ; ; : ; ; : : p p p p $ $ > > 7 A : - S.S.V./ ~ ~ ~ ~ ! E L K J K E ! Q E L L L L L ! I z ! E I ~ E ~ R E R E R E E O ",
"o $ % < $ $ % % * * * * ; ; ; = = ; ; & : : : : : : : : : r y a $ ; e r y y t ; tXtXI.K.D.^ I J J B N k k k B L I ~ W L H N H E ! L ! E E x E I E E E E E R E O ",
"o < < $ $ % % $ * * * ; ; * = = ; ; ; ; : : : : : : : : : e r N B > y u a u y > jXjXjXiX1XS.H k h v B H v k k v B K K H k h v K L E L ! ! E ! E E E E E E R E O ",
"O @ $ @ % % % = * * * ; ; ; ; ; = : : : : : : : : : w e y y u y u > : < u y a > jXjXjXiX1XS.H 2 v L E ! I K J v k k B K H N N B I E x ! E ! L L E E 3 2 1 1 R O ",
"O $ $ $ $ $ % = * * ; * ; * ; ; 7 & : : 7 : : : : e y y u u u u u y J > y u p < iXiXiXyXK.~ P v ( V.S.V.N.( / L h 3 B ) H.H.^ K A L E E E E E ! ! 2 2 P E 1 2 O ",
"X @ $ $ % $ * * * * ; = ; : : : : : : : : : : : e y u u u u u u y u u J D B A 4 2 < < V.- % V.K.I.K.P.P.P.P.G.N.N 4 W ,X,X2X,XW B W L E E E E E E 3 E E E E E O ",
"X @ $ $ $ * * - * * = ; * & : : : : : : : : : 7 y y s u u u u u y e y y i M G G F 6XuX2XG.% - tXyXyXtXyXZ Z Z K.K B H.2X2X2X,X) B B L W E ! E E E E l I R E R O ",
"X $ $ $ $ $ * $ = ; * = : : : 7 : : : : : : 7 f u f u u u u r r r f f f D m Q.Q.7X>X6X2XF.a ; B J J J Z hXjXL Z S.W ,XsXsXpX2X) B Z L L x E W E E I I ! E E R + ",
"X $ % $ * * * * * = ; * : : : : : : : : : 7 r y u u i u u r r f f f D G o.+.O.O.|.0X>X<XC.^ L U.uXyXhXhXjXjXkXJ B ) ) 2XpX,X,XW Z L ! W L E e E ! I ! I E E E O ",
"O $ $ % % * = = = ; = ; : : : : 2 : : : : y y u s u s u u s f V q } #.+.g.<.2.1.a.h.|.~...Y V 3XuXuXiXiXiXjXjXjXB B W J.,X) W W L ~ Q e e , e x ~ E E E E W R O ",
"O $ $ % $ = % * - * = ; : : : : : : : 7 r y y u u s s g d g C #. . .3.y.8.5.5.5.5.>.3.X.q C #.&.5X6XuXuXiXjXjXjXjXyXK.G.) H K E ^ ^ ^ W E W g ! I E E E E R x # ",
"O $ @ % % % % ; = = : : : : : : : : : r y s y u d d V V ..} #.p.<.:.:.6.4.4.:.:.{ { [ ' 0 ' v.=.=.$.4X4XiXiXiXjXjXiXuX1XJ.V.! ^ N./ ^ ! E x L L E E ~ I E E E O ",
"O @ % % % % = * & = ; : : : : : : : : y u s u d d g V @.} O.<.1.6.4.4.4.4.{ [ [ ] ' _ _ ` [ 3.a.b.|.:XZ.pXdXdXdXkXaXjXjXuX1XV./ ^ / N.~ E E E E E E E E E E E O ",
"O 2 $ $ l * * * ; ; ; : : : : : : : r y u u d d d M G o.R.O.2.5.4.4.4.4.:.[ ' _ _ _ _ ' [ ;.1.2.g.R.^.5XsXtXfXgXzXzXkXkXjX3XF./ N.^ N.^ ! L L ! E E E ! E I E O ",
"O l 2 $ * * * * ; : : : : : : : : e y u u d d d c D Q.!.W._.d.1.4.4.4.4.:.] _ ' ] ] [ { { >.1.i./.E.!.7X8XsXgXgXcXxXkXkXkXC.F.^ ^ / / / ! ! L E E E L E E E E O ",
"O $ 1 2 % * * * = : : : : : : : 7 r u u d d d s M G ^.}.).`.).a.8.5.4.4.;.] _ ] { ;.:.4.4.8.u.s./.s.h.eX8XsXfXzXbXkXzXkXjXuXF.N.Z ^ / Z ^ ! E E E E ! E E E E # ",
"O @ % $ $ * * & & : : : : : : : e u y s d d d g D @.|.'.x.l.'.l.a.1.5.>.<.| 0 } O.;.>.5.1.u.f.a.u.1.a.$X7X8XsXgXvXbXxXkXkXtXC.~ ^ Z / N.^ E E L ! I E I E E E O ",
"+ $ $ * $ & * = = : = : : : : w u u u d d d x D G ^.#Xx.z.j.x.l.f.u.u.u.r.O.m m } O.<.u.i.d.u.1.6.4.8.h.|.7XsXgXgXgXvXzXaX1XC.^ ^ M.) / / ! L E E E E E E 2 E O ",
"- > % $ * = * & = : v : : : : e u u G.d z x c D Q.*X Xz.z.z.z.x.l.)././.s.O.} q m } +././.i.1.>.6.6.>.2.}.7XsXgXgXvXbXgXkX1XV.^ ^ / ) / / ! E E Y W E E I 2 1 O ",
"4 2 = $ $ * = = : : : : : : : y u u d d d g V &.|.OXn.z.z.z.z.z.l.`._./.t.<.[ ' ` } +.W.W.t.;.-.w.,.,.;.a.9XrXvXvXvXvXbXxX1XV.^ / ^ / / V.^ W L L E E E E E E + ",
"- < % * $ * = = : : : ; : ; : r u d l z d b F ~.}. Xc.c.c.n.c.c.'.`._.t.-.[ ] ' _ } O.E.W.i.-. .B.X.X.| 2.OXrXlXgXvXvXbXcXpXV.~ ^ / / / / ^ ! E E E E E E I I O ",
"O - % % * * * = = = : : : ; 1 u u d d d d b ..!. Xc.c.c.{.{..X[.&X`.s.<.] _ 9 8 9 0  .O.s.t.w.w.A.A.X.[ 6.a.9XrXZ.L.U.bXbXzXF.^ / / / ) / / ! E E E E E E E E O ",
"O % $ % $ * * = : : 2 & : ; J u u d d b z V #.v.x.c.c..X.X.X.XOX%X`.r.| 0 6 5 & 5 6 0  .t.s.p.e.T.U.A.,.6.8.b.0XlXvXI.bXbXcXP.^ ^ / ^ / ( ( ^ W E E E E L E E O ",
"X % % % $ $ = ; : : : : : : w r u d b d c F =.b.z.c..X.X.X.XoXOX%X).2.] 9 5 & & & 5 9 ] t.(.h.e.T.hXY.e.6.6.a.0XlXxXU.U.bXbXN.N.^ / ^ / / N.^ ! L E E L E E E # ",
"X X X # # # l @ N $ $ @ % % * < 1 2 2 e p M %.b.x.c.c..X.X{.oXOX%X).1.[ 9 & & & & 5 9 ] r._.(.v.T.qXY.e.6.3.p.+.D M N x x h : % $ $ - $ - $ $ $ # # # # # X X O ",
"X E I I I I E ^ / ( / / / ~ D.yXkXzXzXzXxXlXrX}.n.n.n.n..X.XoX@X%X`.r.| 0 6 & & 5 6 _ | i.(.h.e.Y.qXY.e.>.r.!.~.$.Q m.U.T n J a : : : : : ; = = = = = * % $ @ # ",
"O E I I I L E ^ / ( B / / ^ D.tXkXkXzXkXkXzXqX9X#X.Xn.n..X.X.XXX&X%Xf.<.] _ 9 9 9 _ ] <.t.s.y.e.Y.U.A.w.2.g.=.*.M.Q U.U.U b r 1 i : : : : : : ; = = $ % % $ s X ",
"O I I I L I ! ^ ( / ( / / ^ ( 1XjXkXkXkXdXjXrX:X#X+X.X.X.X.X.XoX&X%X%Xf.2.| [ [ [ | O.s.(.t.2.3.e.B.X.,.<.=.@.F Q T U.U n u r 7 : p : : : : ; * $ = = $ * $ $ X ",
"O I I I I L E ^ / ( / / / ^ ( K.hXjXjXjXhXuXqXrXwX#X+XoX.X.X.X.X&X;X%X%X].0.8.7.2.d._._._.i.6.>.,.X.| -.t.=.5XY T T T J b u r : : p : : : : ; = $ = $ = $ $ @ # ",
"+ I I I I L ! ^ ( ( / / / / ~ D.tXjXjXjXhXuX4X6X7X*X-XoX.X.XoX+X-X;X;X;X&X].k.].'.).`.$X_.d.1.>.{ { -.2.g.%.F Q T T U b u y w 7 : i a p : : : * = = $ $ $ $ $ X ",
"O I I I I E L / / ( / / / / ^ N.P.iXjXjXhXuXuX<X5X*X=X+XoXoX+X-X-X@X@X-X&X&X&X&X].'.f.f.d.d.u.1.:.:.1.p.=.@.F m.m.U n s u y r & : : : : & 7 = = * = = $ $ $ $ X ",
"O I I I I L ~ / ( / ( ( / ^ ^ ^ V.I.jXjXiXiXyX4X<X:XwX-X+X-X-X-X@X+XoXoX{.-X@X].k.j.q.0.8.u.i.i.2.2.y.(.Q.$.m.U m.n b u r r w & : : : : : : = ; * * * $ * $ @ # ",
"O I I I I I I ^ ( ( / / / / / ^ / G.tXjXjXiXiX3X4X6XwX=X=X;X;X-X+XoX.X.X{.{.c.j.j.j.q.9.9.8.u.s.s.i.h.^.*.Q T m.U n s u u r 2 : : : : : : : ; * = * - $ $ $ @ X ",
"O I I L I L ~ / ( ( ( ( / / / / ~ / P.iXhXjXiXuXyXqXeX*X%X;X-X+X.X.X.X.X.X{.c.j.q.q.q.q.9.7.8.i./.(.(.*.M.M.M.U n z y u r e : : : : : : : : : * * l % % $ $ @ X ",
"O I I I l E E / ( N.( ( / / / ^ / ^ N.U.iXjXhXiXuX6X5X7X*X#X X{..X.X.X.X.X{.z.j.q.q.9.9.9.7.8.y.h._.^.Z.M.T U S c u u r w & : : : : : : : : ; ; * * * % $ $ $ X ",
"O I P I E I E ~ / ( ( ( ( / / / ^ ^ ^ F.I.hXhXhXhX4X6X>X9X}. X.Xn..X.X.X.X{.z.j.q.q.q.9.9.0.k.h.|.^.Q.&.T Y n z u s y e w : : : : 7 : Z : : * * $ = % $ $ $ % X ",
"O E E I E L E ! / ( ( ( / ( / / / ^ ^ Q G.1XiXhXhXhX4X6XU.0X9X X.Xn..X.X.X{.c.j.q.q.0.0.j.l.#X^.~.Q.M.M.U b s u u y r w : : : : : : : : : : * * * = $ = $ $ $ X ",
"O I I I E E E E ^ / ( ( ( ( / / ^ ^ ^ ^ ~ D.1XuXhXuXiXyX4X4X$.=.v.b. X#XXX.Xc.j.q.q.j.a.a.!.~.Q.$...T Y c u u u u r e : : : : : : : : : ; ; * * * * = % % @ @ X ",
"+ R I E I I E I E / ( ( ( ( ( / N.^ ^ ^ ~ ~ D.I.tXhXiXiX4X3XD L.A.:X9XwX#X@Xx.j.j.a.a.+.#.@.M.M.T T U b u u u u r r : : : : : : : : : : ; ; ; ; * * % % $ % % X ",
"o E I P E I E E E / / ( ( ( ( / / ^ N.^ ~ ~ ~ C.L.tXuXiXuXtXZ I.J.L.Z.5XeX|.}.h.h.=.#...F S T m.U U b l u s u u r : : : : : : e : : : ; ; * ; % * % % % $ $ @ X ",
"O P E E E E E E I E ^ / ( ( ( ( N.^ ^ ^ ^ ^ ~ ~ ~ F.I.uXuXN.Z tX1XI.4X4X5X>XeX=.=.@.V n S U m.U U n l u u u y e 7 : : : > : : : : : ; ; ; ; * * = % * % $ @ $ X ",
"O P E E E E E E l E ! ^ ( N.b ( / / ^ / ^ ^ ^ ~ ^ ! V.G.I.3XZ uX4X4XtXyXuX6X6XD D V b n U U U U n d s u f u r 7 : : : : Z : : : : : ; x * ; = ; * % % % % @ % O ",
"O E P E I E E E I E ! c / ( ( ( V./ / / / / ^ ^ ^ ! ! ^ N.x I.3XhXhXiXiXyXiXuX, f s z S U U n b s u u u r r 7 : : : : : : w 7 : ; ; ; - ; * = = * * % % @ % @ O ",
"O P P E E E E E ! ! L L ! / ( / ( / / / / ~ ^ ~ ~ ~ ~ ! ! t V.J.U.yXiXiXuXuXuX> y y s c z l u u u r s u r 7 : : : : : 7 Z : : c ; ; ; ; ; = = = * % * % % @ @ o ",
"O P E P E E E E I E I ! E ^ ^ N./ V.Z / N.Z / ^ ^ ^ ~ ~ ! t ! N.F.K.I.I.I.J.S.- : > 7 7 r r u u u u r i 7 : : : : 7 : > : : : ; x ; ; ; ; ; = = * % % % % @ % o ",
"O P E E E E E E ! L W E E E ~ ^ / V./ / / / / / / ^ ^ ~ ~ r t ! ^ N.C.V.( ^ ! $ ; : : : 7 e e r i e 7 7 ; : 7 : : : 7 > : : ; ; ; ; ; ; = ; = % % * % % % @ @ o ",
"O P E P R E E E L E E E W E E ^ / V.N.( N.N./ ^ / / / / / ^ p ! ! ! ! ! ! ! ! $ ; ; c : 7 : 7 7 7 7 : : : 7 : : 7 : : 5 : ; ; ; : ; ; % ; = = = % % % % % @ @ o ",
"o E P E P E E E E ! E E E Q E L ! / N./ / N.N./ N./ ^ N.^ ^ t a ^ ^ ! ^ ! ^ ! - ; : : : ; ; : > : : : : : > ; 7 : : ; ; ; ; ; ; ; ; ; ; = = * * % % % $ % @ % o ",
"o P P P E E E I E L E E E E E ! E ^ / N.) ( / N.^ ^ N.^ / / ^ i ^ ^ ^ ^ ^ ^ ^ $ : : ; : : : : : : : : : : > 5 ; ; ; ; : ; ; : ; ; ; = = ; = * * % % @ $ @ % + O ",
"O R R E R P E E I E E E E ! ! I U E ~ / ( N.( ( ( / / / / / / i ^ / ^ ^ / ^ ^ - : : ; : ; 7 ; : : : : : & ; : ; ; ; ; : ; ; : ; = ; : * * * * * % % % % + + @ o ",
"O R E P E E E R E ! E E E E E I E E I E ~ / ( ( N.( ( ( ) / a a / / / ^ / / ^ $ ; : : : ; 7 : ; : : : ; ; ; : ; ; ; ; ; ; ; ; ; * ; = = * * * % % % % + % % + o ",
"O P P E P P E P R E P l E E ! ! E E E E E ! ^ / / ( ( i a t / ) / / / / / ^ N.- ; ; : : : ; ; ; ; ; ; ; ; : * ; ; ; ; ; * : ; * ; = ; x * * % * % % % % + % + o ",
"O R P P E P E E I E I ~ E E I E ! E E E E E E t p p p p / / / ^ ^ ^ ^ ^ ^ ^ ^ # ; ; ; ; ; ; & ; * ; ; ; ; * ; ; ; ; ; ; ; * ; x = = * * * % * % % % + % + + + o ",
"o P R R R R E E R l R E E E E E E E I e 2 e e e E e e ! ! ! ! ! ! L E E ! W E $ ; & ; = ; * = = * ; ; * * ; ; ; * ; ; * * : = * = = = = % = % % % % + + @ j @ o ",
"o P P I P E R R I I I E E E E E E E w w I E E E E E 2 2 L L L I x L E L L L L # ; ; = * = * = = ; * ; ; ; * * * : = * : = = = * % = % % % % % $ % @ + % @ @ @ o ",
". P P P R E E R ! I I I R ! E E E E E E E E l I E E E e L E L E L E E L I L E # = = = * = = = = * ; ; * & * * ; = = ; = = * * * * * % % % % @ % @ @ @ @ @ + @   ",
". P P j R R R E R R I I I P E E E E E E E E ~ I E E I e E E E L E E L E I E L # * * & * * * = * * * * * ; * * * * = * % = * * * * $ % % % $ $ $ @ @ @ @ + + @   ",
"  P P P P P P P P P P P E E I E E E P E E E E E E E E # 1 2 L E E E L I L I I + * * * * * * * * * * & * * * * * * * $ * % * % * $ = $ $ % @ % % + @ @ @ + +   o ",
"  P P P P P P P P P I P R E R E R E E E I P E E E L I # 2 2 2 E I I E L I E I + & * @ * @ % * % * * * * * * * $ * * * $ * % % % % $ $ $ % @ + @ @ @ + + + +     ",
"  P P P P P P P P P P I R E R I E E E E E E I E E E E 1 # 1 2 L I E I L L E L @ $ $ $ * * * % % * $ $ $ * $ $ * $ * * @ % % % $ % % @ @ @ $ @ @ + + + + +       ",
"  R P R R P P R P P P P E R R I E R P E I R E E E E E E # + 2 1 I I I I I I I # % % * $ $ $ $ % $ * $ $ $ $ * $ $ % $ * @ $ $ $ $ @ % @ @ @ @ @ + + + + + o     ",
"  R P R P P P R P P P P P P P I R E P E I I P E R E E E L O # 1 1 1 I I I I I + @ $ $ $ $ $ @ $ $ $ $ $ $ $ $ $ @ * $ $ % + $ $ @ @ # @ @ @ + + + + + +         ",
"  P R R 3 R R P j P P P o O o P E R R P P E E P E E R E K E O 1 1 1 1 I I I I O $ @ @ @ $ $ $ @ $ $ @ $ $ @ $ $ $ @ @ $ + $ @ $ $ @ @ @ @ @ # + + + + +         ",
"  P P P R R R R P P P . X X X o O O O P R I P O O O O O O O O 1 < < < I I I I O @ @ $ @ @ @ @ @ @ # $ $ @ $ @ $ @ @ @ @ $ @ $ @ @ @ @ @ # # # + + +             ",
"                      .   o X X O o o O X X O O o O O O O o O O O o O O o X O O O O O O O O O O X X X X X X X X O O O O o o o o o o o o o . . . o o             "
};
