/* XPM */
static char *result[] = {
/* columns rows colors chars-per-pixel */
"80 80 155 2 ",
"   c black",
".  c #110E0D",
"X  c #13130E",
"o  c #161A0F",
"O  c #151310",
"+  c #1F1412",
"@  c #161A10",
"#  c #1D1B12",
"$  c #1F1B19",
"%  c #221513",
"&  c #241B14",
"*  c #291C16",
"=  c #201918",
"-  c #2D1E19",
";  c #301F17",
":  c #311E1B",
">  c #0D2F07",
",  c #17200D",
"<  c #1B340E",
"1  c #1C2112",
"2  c #252314",
"3  c #2A2316",
"4  c #262A15",
"5  c #2A2B17",
"6  c #2D231A",
"7  c #2D2B1A",
"8  c #33251D",
"9  c #38261E",
"0  c #332A1D",
"q  c #382B1F",
"w  c #2E3119",
"e  c #33311D",
"r  c #38311F",
"t  c #2E2421",
"y  c #2F2B21",
"u  c #352623",
"i  c #3A2621",
"p  c #362B23",
"a  c #382A21",
"s  c #3A2C29",
"d  c #373322",
"f  c #3A3224",
"g  c #3C332A",
"h  c #3C3C28",
"j  c #42352C",
"k  c #433A2D",
"l  c #463230",
"z  c #463831",
"x  c #4D3C36",
"c  c #4F3E38",
"v  c #513937",
"b  c #533D3A",
"n  c #274B14",
"m  c #2B491B",
"M  c #3E6927",
"N  c #47402F",
"B  c #4A4434",
"V  c #474934",
"C  c #4A4B35",
"Z  c #4E473A",
"A  c #4E4A39",
"S  c #524136",
"D  c #59423D",
"F  c #534B3D",
"G  c #4C5036",
"H  c #54523D",
"J  c #5E513C",
"K  c #60523E",
"L  c #45722E",
"P  c #564B41",
"I  c #5B4D45",
"U  c #5F4E48",
"Y  c #565340",
"T  c #5C5245",
"R  c #5E5945",
"E  c #5F5048",
"W  c #634F4C",
"Q  c #6B4C49",
"!  c #605547",
"~  c #685545",
"^  c #605947",
"/  c #63524C",
"(  c #6A574D",
")  c #655B4B",
"_  c #695B4E",
"`  c #72504D",
"'  c #71584C",
"]  c #675250",
"[  c #6A5552",
"{  c #6C5B53",
"}  c #725D56",
"|  c #7B5A52",
" . c #745D59",
".. c #785F5B",
"X. c #6B624E",
"o. c #6E6253",
"O. c #736355",
"+. c #716855",
"@. c #766359",
"#. c #7A635D",
"$. c #766959",
"%. c #7C6C5D",
"&. c #7E705D",
"*. c #7E6461",
"=. c #7E6B60",
"-. c #815E57",
";. c #806D5F",
":. c #81745F",
">. c #826763",
",. c #836D64",
"<. c #886E67",
"1. c #856B68",
"2. c #8A6E6A",
"3. c #847264",
"4. c #897467",
"5. c #867966",
"6. c #8C7A67",
"7. c #867168",
"8. c #8C736B",
"9. c #8D7A6A",
"0. c #91746D",
"q. c #917C6E",
"w. c #947570",
"e. c #947B72",
"r. c #9A7E75",
"t. c #9C7D79",
"y. c #389328",
"u. c #65A542",
"i. c #8E806B",
"p. c #958172",
"a. c #9B8275",
"s. c #9E8379",
"d. c #9F897A",
"f. c #A08177",
"g. c #A3857C",
"h. c #A8877F",
"j. c #A4897D",
"k. c #A9887F",
"l. c #9FFF54",
"z. c #FFED6E",
"x. c #A68480",
"c. c #A98781",
"v. c #A68980",
"b. c #AC8C83",
"n. c #AF8D88",
"m. c #B18F87",
"M. c #B48E8B",
"N. c #AE9185",
"B. c #B09087",
"V. c #B5928B",
"C. c #B9958E",
"Z. c #BB9691",
"A. c #BE9992",
"S. c #C09994",
"D. c #FFFF9F",
/* pixels */
". . . . . X X X . . . . . . . . . . . X o o o o X . . X X X X o X . O X X . . . X o o X X . X X X X . . . X X X . . . . . . . . . X . . . . . . . X o X . . . . ",
". . . . X o o X . % + + . . . . . . . o 1 1 , 4 1 # + # # # 1 o 5 5 O # # % + X U U P P P F F Z A I W U I P F I W W W W W ] W W U T T W W W W W W I H I W W W . ",
". . . . + % # % % + + + + . . + + + + & 2 4 4 4 2 1 # 1 # & 1 , 5 7 @ 2 * % & X / / T F Z Z H P U / / I D Z F P U W W W W W W l T H T T U W I U W T I I I U W O ",
". . + + + + % + % + + + + + + + + + % & 2 2 4 2 2 % # # # = 7 , y 1 d 3 3 3 & O }  .! A V H Y _ { { { / P F F W ] ] ] W / _ [ { ) Y Y T U P P I I I I P P I T @ ",
". . + + + + + + % # % + + + + % % * % & & 2 2 2 1 & + + + 0 p # 3 2 3 6 3 3 3 + @. .^ C C F R { { O.o.O. .}  ...b  .} } O._ O.@.} _ ^ _ / W j F P F F F F E j O ",
". + + + + + + % # 2 # % + + % % % & * 2 2 & * 2 2 & % % & j @ # 5 7 7 - : 7 7 @ #.{ Y H Y T _ { { @.=.8.8.8.2.2.0.<.,.8.,.X.@.<.1.#.O.} _ [ T F F Z F F U / W . ",
". + + + + + # # # 2 % & % & % * % & & 2 2 & * 2 2 & % % * j # 7 7 0 : : 8 6 7 # =.S R R X.@.=.#.%.7.8.8.8.,.7.9.t.t.e.e.6.%.:.e.Q 2.>.#.@. ._ I I P I U / W W . ",
"X + % + + + # 1 1 & & 2 & & * % & & & 2 2 2 3 4 2 2 & ; 3 j # 2 0 0 9 : u i ' # r.8.%.$.&.7.7.=.,.,.,.,.,.3.3.9.g.k.r.9.                     .{ / T E / W W W . ",
"o & + + + # 1 # & 2 4 2 & & & * * % * & * 2 3 4 4 3 6 : : u x & 1 0 8 8 8 0 8 = s.t.r.e.e.e.e.w.8.%.$.:.q.e.8.6.a.f.q.  n n n n u.u.u.u.u.n     { ] ] U W W l . ",
"X + + + + # % & & 2 2 2 3 & % % * & * * - 6 6 7 7 8 8 i i i i b $ 0 0 0 0 7 7 1 9.a.s.g.b.c.c.c.a.5.3.q.j.b.j.p.p.e.q.  n n n n n n n n u.u.u.  #.} ] W W W W X ",
"X + + + % # & & & & 2 2 2 & * * * * * ; : 8 8 0 0 0 0 8 9 i i P $ i                             v.p.p.a.b.C.C.b.a.a.g.  n n n n n n n n n n u.   . .] ] W W E O ",
". + % % & & * * 3 3 & 2 & 3 3 * - ; : 8 9 0 0 a 0 0 0 0 q i i = $ = l.l.l.l.l.l.l.l.l.l.l.l.l.l.k.r.a.a.N.C.C.V.b.m.b.    n n n n n n n n n u.u.   .] T T E U @ ",
". % * % & * & * 3 2 2 2 2 3 4 5 3 6 9 9 i i a 0 0 0 0 8             m m m m m m m m m m m m m m             k.k.c.h.s.r.  n n n n n n n n n n n u.  / Y P E U O ",
". % & * & * * 2 2 2 2 & & 3 5 7 5 8 9 9 i i 0           l.l.m m m m m m m m m m m m m m m m m m m m m m m m           1.8.    n n n n n n n n n u.  / T l W W X ",
"X % * 3 3 2 3 & 2 2 2 & * * 3 7 0 0 a 8 0 0     l.l.l.l.l.m m m m m m m m m m m m m m m m m m m m m m m m m m m m m   @.*.7.  n n n n n n n n n u.  { ] W W W . ",
". & * * 3 3 2 2 2 2 3 * * ; 5 0 e w 0 7 7 8   l.m m m m m L m L m m L m m m m m m m m m m m m m m m m m m m m < m m m   #.#.  n n n n n n n n n m    .[ W W ] . ",
"O * % s - * * * 2 4 2 3 5 7 w e w w 0 7 0   l.l.m m m m m L L m m m m m m m m m m m m m m m m m m m m m m < < m m m m   #.#.    n n n n n n n n     @...] ] W . ",
". i s * - = * = 3 2 2 3 8 0 e w w w 0 i     l.m m m m m m L L m m m m m m m m m m m m m m m m m m m m m m < < < < < m m     8.      n n n n n     7.#... .] W . ",
". * * * 3 * * * % * * 0 0 q e 5 0 9 9 8   l.l.m m m m m L m m m m m L m L m m m m m m m m m m m m m m m m < < < m m m m m   8.7.4.              s.8.s s s u ] . ",
"O % % - * * * % & * 6 0 q q q w 7 9     l.l.m m m m m m m m m L m L m m m m m m m m m m m m m m m m m m < < < m < m m m m m     =.6.k.N.j.q.j.N.b.x l #...s t . ",
"+ % = * = * 3 2 & ; 8 0 0 q a         m m < < < < < m m m L m L L m m L L m m m m m m m m m m m m m m < < m < m m m < m < < < <       b.b.b.V.A.A.b t.1.*... .. ",
". % % % * * 3 3 * 8 i i 0 0   l.      < <   < m < < n m m L m L L m m L L m m m m m m m m m m m m m m < < < < m m m < < < < < < m m m   b.Z.A.A.A.V.` 2.*.*.... ",
". % * * * = * 3 8 u i i a 0     n n n       < m < < < n L m L m L m L L m m m m m m m m m m m m m m m m m < m m < < < < < m m m m m m   ;.C.A.A.C.k.r.0.>.*.... ",
". % % % * * * - : 8 8 i a   l.m n n   z.z.    < < n < n m m L m L m M M M M M M M M M n m m m m m m m m m m m m < < < m < m < < < m m     S.D Z.c.q.0.8.>... .. ",
". = % : & * * - 6 0 7 6 i   l.n n n     z.    n n n n n m m m m n M M m L L m m m m m m n M m m m m m < < m m < < < < < < < < < m < m m   S D -.g.9.9.8.*.@.[ X ",
". % % % * 2 3 6 8 6 7 5   l.l.m         z.    n n n n n m m n n n L m L L m m m m m m m m M M M m m m m < m m m m < < < < m < < < < < m     | B.g.t.r.8.@.E h X ",
". % % : 2 2 6 : : 7 7 w   l.L n   z.  z.z.z.      n n n m n n n n n n                         M M M m m < m m m m < m < m < < m < < < m m   a.g.d.f.e.=.R A Z X ",
". % % % & 2 - : 6 6 0   L L L n   z.z.z.z.z.z.D.      n n n n y.> > > > > >     > >   > > > > > M M M n m < m m < < m < m < < < < < m m m m   v.h.r.7.%.R A V X ",
". u % % b - - - 8 6     m m < n     z.      z.z.z.z.    n n y.> >   l.l.l.l.l.n n n n n n n n   > > M M m m m < < < m < m < < < < < m < m m     v.6.%.O.) I P X ",
". v s % * 6 : t 6 8   m m < < n         n     z.z.z.D.  n n y.> >   l.n n n n n n n n n n n n n > > > M M m < < < < m < m < < < < < m < < m m   k.7.%.O.] U P X ",
". : s s 3 7 6 : 8 8   m < < < n n n n n n n       z.    n   y.> >   n n n n n n n n n n n n n n > > > n M < < < < m < < < m m < < m < < < < m   b.8.,. .] I P X ",
". = % : 7 5 6 : : u m m m < < < n n n n n n n n       n n   >     l.n n n n n n n n n n n n n n     >   n < < < < m < < < m m < < m < < < m m m m.r.<.*.} W I . ",
". % * * 6 5 6 6 0   m m < m < n n n n n n n n n n n n n n   >   l.l.n L L n n n n n n n n n n n n   >   n m < < < m m < < m < < < < < < m < m m   g.8.1.*.u W . ",
"O * % - 3 5 6 3 7   m m L m L < n n n n n n n n n n n n m y.>   l.n L L m L n n L n n n n n n n n   > >   n m m m m m < < m < < < < < L m L m m   c.0.,.*.u t . ",
"+ * * 6 3 5 3 6 3   m m L m L < n n n n n n n n n n n n m >   l.l.n n n L L n n L n n n n n n n n n   >   n m < < m m n n m < < < < < L m L m m   c.q.3.*. .] . ",
"@ 3 = 3 2 6 6 6 6   m m m m m L m m n n n < n m L < < m m   l.l.n n n n n n n n n L n n n n n n n n n     n m < < m n n n n n L m m L m m m m m   b.e.9.2.*.[ . ",
"@ - * * 6 6 3 3 0   m m m m m L m m L L < < < m m < < m m   l.l.n n n n n n L L L L L n n n n n n n n     n m < < m n n n n n n m m L m m m m m   C.b.h.e.>.[ . ",
"O = % * * 6 6 6 u   m m m m m L m m L L L L L m < < < < <   l.l.n n n L L n n n n L n n n n n n n n n     n < n < n n n n n n n n m L m m m m m   S.A.V.r.>.} . ",
". * * * * 3 3 6 8   m m L m m m m m L L L L L m < < < < <   n n n n n n n n n n L n n n n L L L n l.l.    n < n n n n n n       n m m m m L m m   S.A.b.0.@.{ . ",
". . O O @ # P + |   m m L m m m m m L m L L L m < < < < <   n n n n n n n n n L L L L L n n n L n l.l.    n < n n n n n     z.    n n m m L m m   = = & 1 # O . ",
"+ [  .} } @.o.,.f.  m m L m m m m m m m m < < < < < < < <   n n n n n n n n n n L n n n n n n n n l.l.    n n n n n n n   D.D.z.    n m m L m m   a i i 8 ; & . ",
"O ] {  . . .+.=.9.  m m L m m m m m m m m < < < < < < m m >   n n n n n n n n n L n n L L L n L n l.  > n m n n n         D.D.    n n n n L m m   f 9 9 8 5 x . ",
"O / [  . .@.#.%.:.  l.L m L m m L L m m m < < < < < < m m > >   n n n n n n n n n L n n L m L m l.  > y.n n n n     D.    D.D.D.    n n   m L l.  f 0 0 8 3 & . ",
". ] [ } { { o.$.3.  l.L m L m L L L m m m m m m m m m < <   >   n n n n n n n n n n n n n L L l.l.  >   n < n n   D.D.D.D.D.D.D.z.    n   m L l.  0 9 8 8 3 * X ",
". / ] _ ! R R @.5.p.  l.L L L L L L m m m m m m m m m n n   >     n n n n n n n n n n n n n n l.    >   n < n     D.D.D.D.    z.z.z.  < L L l.  u.    0 9 * % X ",
". W ! / ) T T _ $.3.  l.L L L L m m < < < m m m < < < m n   > > >   n n n n n n n n n n n n n l.> > y.  n < m n                       < L L l.  u.u.  i 3 * % . ",
". W T / ! T H H X.5.  l.L L L L m m < < < m m m < < < < n n > > >   n n n n n n n n n n n n n l.> > y.  n n < < < n n n n n n     < < L L L l.  u.u.  9 ; % & X ",
". W T I Y H G G %.f.  l.m m m L m m m m m < < < < < < n n n > > >   n n n n n n n n n l.l.l.l.  > > y.n n n n < < < n n n n < < < < < m m m l.  n u.  8 * % # o ",
". W U F F Z V H 9.M.A.  L L L m m L m m m m m m < < < < n n n > > > > > > > >   > >     > > > > > y.n n n < < < < < n n n n < < m < m L L L     n u.  - % % # o ",
". / U P f F F o.g.Z.A.    m m < < < m < < m < < n n n n n n n     > > > > > > n n n n n > > > y.  n n n n n n n n n n n < < < < L n L L m l.  n n u.  & % + & X ",
". W T F F P / <.c.n.C.Z.    m < < < < < m < < < n n n n n n n n n n n n n n n n n n n n n L L n L L n n n n n n n n n n n n < < n n n l.l.  n n n n   & % # + . ",
". T U I D I } 0.k.g.b.V.N.  m m < m < < < < < < < < n n n < n n n n n n n   n n n n n n n n n n n n n n n n n n n n n n n n n n n n n l.  n n n n     & % + + . ",
". W W P F U } 0.j.d.b.N.j.    m m < < < m < m < m < n n n < n n n n n u.  z.      n n n L L n n n L n n n n n n n n n n n n n n n n n l.  n n n     2 % % # + . ",
". W W W P ! } 0.a.p.j.N.b.b.  m m m m m m < < < m < n < < n n n n n n     z.z.z.  n n n n n L L n L n L n n n n n n n n n n n n n n l.  n n n     2 2 % + + + . ",
". W W W / ( { 3.5.6.d.N.N.b.  m m m < < < < < < < m < < < < < n n n n     z.z.  n n n n n L L n n L L n L n n n n n n n n n n n l.l.l.  n n     6 * & + + + + . ",
". W W / [ { [ #.&.9.j.j.p.s.e.      < < < < m < < m < m < < < n n n     z.z.z.  n n n n n L L n n L L n L n n n n n n n n n n l.      n       : * * % + + + % . ",
". W W W / ! { #.J i.j.d.6.6.~ &.+.    m m m m m < < < m < < < n n   z.z.z.z.  n n n n n n L L n n L L n L L n n n n n n n n l.  r r       9 ; ; % + + + + + + . ",
". W U I F Y { $.3.p.j.( i.5.i.9.=.        m m m m m < < < < n n n   z.z.z.z.  n n n n n n n n n L n L n n n n n n n n l.l.  a e e e r e 8 - * % % + + + + + + . ",
". W W I F Y { @.3.e.q.9.9.p.p.a.6.  u.      m m m < < < <         z.z.z.z.  n n n n n n n n n n L n L n n n n n n n n l.    0 K e e e 4 3 * % & % % + + + + + . ",
". W W / ! ! ^ { #.3.&.3.9.9.p.g.r.  u.u.u.u.  m m m m <   z.z.z.z.z.z.z.z.  n n n n n n n L n L n n n n n n n n n n l.l.  a e 0 ' 0 3 3 # % & % + + + + + + + . ",
". ] W W [ [ T ! O.o.+.$.%.3.p.n.h.  M M u.u.  m m m < <   z.z.z.z.z.z.z.  n n n n n n n n n n n n n n L L n n n n l.l.  0 a 0 8 9 : * & & 1 2 & % + + + + + + . ",
". W W ] ] [ ! T _ ) ^ X.X.+.d.V.V.a.  M M M M   m m m < <   z.z.    z.z.  n n n n n n n n n n n n n n L L l.l.l.l.l.          9 6 * * % # % # # % % + + + + + . ",
". W W W ] [ / ! _ _ Y H Y +.s.C.Z.n.  M M M M         < < n     n   z.z.z.  n n n n n n n n n n n n n L L l.            u.u.u.  5 * * # & % + % + + + + + + + . ",
". W W W / ] / T ! { ^ Y _ 1.t.M.M.C.  M M M M M   ,.    < n n n n   z.z.    n n n n n n n n n n n n n L     0 0 a a   n n n u.    & 2 2 1 % + + + + + + + + + . ",
". W W W W W W I ! [ _ { >.8.t.x.h.m.  M M M M M   s.h.  n n n n n         n n n n n n n n n n L n n L     0 w         n n n u.u.  2 4 2 & + + + + + + + + + + . ",
". W W W W ] W W [ } { #.=.,.8.8.e.f.      M M     k.V.  n n n n n n n n n n n n n n n n n n n L n n L   e 0     n n n n n n n u.u.  4 4 2 % + + + + + + + + + . ",
". W W W W W ] / ! { } b #.#.>.<.8.e.e.0.7.      p.s.N.  n n n n n n n n n n n n n n n n n n n n n n     a a   n n n n n n n n n n   4 B & + + + + + + + + + + . ",
". W W ] W W W W I / [ { } #.=.1.1.,.8.e.a.s.b.c B B N     n n n n n n n n n n n n n n n n n n n n     i 9 0   n n n n n n n n n n n   * % % + + + + + + + + + . ",
". W W W W W W I P j E ( { *.*.#.#.*.8.z x c D b s.k h &.    n n n n n n n n n n n n n n n n n n   8 8 7 8 6         n n n n n n       & % + + + + + + + % j % X ",
". W W W W W U W U U / {  ...#.{ { @.g g w.g.c.f.s.9.h k       n n n n n n n n n n n n n n n n     7 7 3 * * 3 2 2       n n n   * * % % % % + + + + + + % # 2 o ",
". W W W W U T U W W ] [  ...#.@._ _ ^ R { =.J ,.8.8.7.k 9.6.3.    n n n n n n n n n n n n     i   6 3 2 2 * * & * * &         * % & % % & + + + + + + + % + % X ",
". W W j W / W T W W W ] [  . . .{ X.R H H H R / @.%.#.g =.%.$.%.  n n n n n n n n n n       7 6 6 6 4 2 * * & 2 3 = * * & * % * * % % # 2 % + + + + + + + % + . ",
". W W W W W E T T U E W W ] ] [ _ _ _ E P Z V Z ! { [ O d p ) o.#.  n n n n n n     8 0 7 7 6 6 3 2 4 1 2 & 2 4 4 4 * & & % & % & = & & % + + + + + + + + + X . ",
". W Q ] W W T H H T E E W W W / / E / U P Z B Z I U / @ y y y }  ...    n n n     ; 3 3 3 6 - 3 2 2 1 2 & & & 2 2 3 * % % % * & & & & + + % + + % + + + + + X . ",
". W ] W W W I P Y T T T T U W W E E U W U I I I U W E y O t t { [ }  .#.>.2.2.# 6 3 * 3 * * * & 2 & 2 & % & & % & = & % % % + & 2 & + + + + + + & # % + o X X . ",
". W W W W W W W E E U T T U W W W W W W W W W W E W U E O . t t ] ] / / [ { { 1 - % & & % & % % # 2 & % % + % + % % % % + + % % # + + + + + + + # & & # # X . . ",
". W W W W W W W W W W E T T / W W W W W W W W W W W W W W . . t t t U T T T ^ X % % + + + + + + 2 2 & # % + + + % + + + + + + + + + + % + + + % % & & + X . . . ",
". W W W l ] W W l W W E @ O . W ] W ] W W W W W W W W W W W . t y t t E U T U . + + + + + + + + 2 2 & + + + + + + + + + + + + + + & # & + + + + + + % @ X . . . ",
". W W W W W W W W W W . O X . . . . . W W W W . . . . . . . . y y y 6 W ! W Q . + + + + + + + + # & # % + + + + + + + + + + + + + & 2 2 # % + + + + . X . . . . ",
". . . . . . . . . . . . X . . . . . . . . . . . . . . . . . . O O X . . . . . . . . . . . . . . . . . . . . . . . . . . . . . . . X o o O . . . . . . X X . . . "
};
