/* XPM */
static char *result[] = {
/* columns rows colors chars-per-pixel */
"80 80 18 1 ",
"  c black",
". c #110D0D",
"X c #1F1312",
"o c #0D2F07",
"O c #1B340E",
"+ c #2E2221",
"@ c #473230",
"# c #274B14",
"$ c #2B491B",
"% c #3E6927",
"& c #45722E",
"* c #644F4D",
"= c #389328",
"- c #64A542",
"; c #65A542",
": c #9FFF54",
"> c #FFED6E",
", c #FFFF9F",
/* pixels */
"................................................................................",
".........XXX...........XXXXXXXX.++.XXXX.***************************************.",
"....XXXXXXXXX..XXXXXXXXXXXXXXXX.++.XXXX.***********************@***************.",
"..XXXXXXXXXXXXXXXXXXXXXXXXXXXX+.+.+XXXX.***************************************.",
"..XXXXXXXXXXXXXXXXXXXXXXXXXXX++.XXXXXXX.****************@*************@*******@.",
".XXXXXXXXXXXXXXXXXXXXXXXXXXXX+..XXXXXXX.**********************          *******.",
".XXXXXXXXXXXXXXXXXXXXXXXXXXXX+.XXXXXXXX.*@******************* ####;;;;;#  *****.",
".XXXXXXXXXXXXXXXXXXXXXXXXXXXX+..XXXXXX@.********************* ########;;; *****.",
".XXXXXXXXXXXXXXXXXXXXXXXXXXXXX+..XXXXXX.********************* ##########; ****@.",
".XXXXXXXXXXXXXXXXXXXXXXXXXXXXXX+.XXXXXX.*********************  #########;; ****.",
".XXXXXXXXXXXXXXXXXXXXXXXXXXXXXX+.X              ************** ###########; ***.",
".XXXXXXXXXXXXXXXXXXXXXXXXXXXXXX...::::::::::::::***************  #########; ***.",
".XXXXXXXXXXXXXXXXXXXXXXXXXXX      $$$$$$$$$$$$$$      ********** #########; ***.",
".XXXXXXXXXXXXXXXXXXXXXX     ::$$$$$$$$$$$$$$$$$$$$$$$$     ***** ########## @**.",
".XXXXXXXXXXXXXXXXXXXXX  :::::$$$$$$$$$$$$$$$$$$$$$$$$$$$$$ *****  ########  ***.",
".XXXXXXXXXXXXXXXXXXXXX :$$$$$&$&$$&$$$$$$$$$$$$$$$$$$$$O$$$ *****   #####  ****.",
".XX+XXXXXXXXXXXXXXXXX ::$$$$$&&$$$$$$$$$$$$$$$$$$$$$$OO$$$$ *******       *****.",
".++XXXXXXXXXXXXXXXXX  :$$$$$$&&$$$$$$$$$$$$$$$$$$$$$$OOOOO$$  *****************.",
".XXXXXXXXXXXXXXXXXXX ::$$$$$&$$$$$&$&$$$$$$$$$$$$$$$$OOO$$$$$ ****@*******++++*.",
".XXXXXXXXXXXXXXXXX  ::$$$$$$$$$&$&$$$$$$$$$$$$$$$$$$OOO$O$$$$$  *********++**++.",
".XXXXXXXXXXXXXX    $$OOOOO$$$&$&&$$&&$$$$$$$$$$$$$$OO$O$$$O$OOOO   ******+*****.",
".XXXXXXXXXXXXX :   OO O$OO#$$&$&&$$&&$$$$$$$$$$$$$$OOOO$$$OOOOOO$$$ ******@****.",
".XXXXXXXXXXXXX  ###   O$OOO#&$&$&$&&$$$$$$$$$$$$$$$$$O$$OOOOO$$$$$$ @**********.",
".XXXXXXXXXXXX :$## >>  OO#O#$$&$&$%%%%%%%%%#$$$$$$$$$$$$OOO$O$OOO$$  *+********.",
".XXXXXXXXXXXX :###  >  #####$$$$#%%$&&$$$$$$#%$$$$$OO$$OOOOOOOOO$O$$ ++@*******.",
".XXXXXXXXXXX ::$    >  #####$$###&$&&$$$$$$$$%%%$$$$O$$$$OOOO$OOOOO$  @*******@.",
".XXXXXXXXXXX :&# > >>>   ###$######            %%%$$O$$$$O$O$OO$OOO$$ *********.",
".XXXXXXXXXX &&&# >>>>>>,   ####=oooooo  oo ooooo%%%#$O$$OO$O$OOOOO$$$$ ********.",
".+XX@XXXXX  $$O#  >   >>>>  ##=oo :::::######## oo%%$$$OOO$O$OOOOO$O$$  *******.",
".@+XXXXXXX $$OO#    #  >>>, ##=oo :#############ooo%%$OOOO$O$OOOOO$OO$$ *******.",
".X++XXXXXX $OOO#######   >  # =oo ##############ooo#%OOOO$OOO$$OO$OOOO$ *******.",
".XXXXXXXXX$$$OOO########   ## o  :##############  o #OOOO$OOO$$OO$OOO$$$*******.",
".XXXXXXXX $$O$O############## o ::#&&############ o #$OOO$$OO$OOOOOO$O$$ ****+*.",
".XXXXXXXX $$&$&O############$=o :#&&$&##&######## oo #$$$$$OO$OOOOO&$&$$ ****++.",
".XXXXXXXX $$&$&O############$o ::###&&##&######### o #$OO$$##$OOOOO&$&$$ ******.",
".XXXXXXXX $$$$$&$$###O#$&OO$$ ::#########&#########  #$OO$#####&$$&$$$$$ ******.",
".XXXXXXXX $$$$$&$$&&OOO$$OO$$ ::######&&&&&########  #$OO$######$$&$$$$$ ******.",
".XXXXXXXX $$$$$&$$&&&&&$OOOOO ::###&&####&#########  #O#O########$&$$$$$ ******.",
".XXXXXXXX $$&$$$$$&&&&&$OOOOO ##########&####&&&#::  #O######   #$$$$&$$ ******.",
"......@.@ $$&$$$$$&$&&&$OOOOO #########&&&&&###&#::  #O#####  >  ##$$&$$ .......",
".******** $$&$$$$$$$$OOOOOOOO ##########&########::  ####### ,,>  #$$&$$ XXXXXX.",
".******** $$&$$$$$$$$OOOOOO$$o #########&##&&&#&#: o#$###    ,,  ####&$$ XXXXX@.",
".******** :&$&$$&&$$$OOOOOO$$oo #########&##&$&$: o=####  ,  ,,,  ## $&: XXXXXX.",
".******** :&$&$&&&$$$$$$$$$OO o #############&&:: o #O## ,,,,,,,>  # $&: XXXXXX.",
".********* :&&&&&&$$$$$$$$$## o  ##############:  o #O#  ,,,,  >>> O&&: XXXXXXX.",
".********* :&&&&$$OOO$$$OOO$# ooo #############:oo= #O$#           O&&: XXXXXXX.",
".********* :&&&&$$OOO$$$OOOO##ooo #############:oo= ##OOO######  OO&&&:    XXXX.",
".********* :$$$&$$$$$OOOOOO###ooo #########:::: oo=####OOO####OOOOO$$$: #;;  XX.",
".********** &&&$$&$$$$$$OOOO###oooooooo oo  ooooo=###OOOOO####OO$O$&&&   #;; XX.",
".***@******  $$OOO$OO$OO#######  oooooo#####ooo= ###########OOOO&#&&$: X #;; XX.",
".***********  $OOOOO$OOO#####################&&#&&############OO###:: XX ##; XX.",
".************ $$O$OOOOOOOO###O####### #############################: XX  ##; XX.",
".************  $$OOO$O$O$O###O#####- >   ###&&###&#################: XX ###; XX.",
".************* $$$$$$OOO$O#OO######  >>> #####&&#&#&##############: XX  #### XX.",
".************* $$$OOOOOOO$OOOOO####  >> #####&&##&&#&###########::: X  ####  XX.",
".**************   OOOO$OO$O$OOO###  >>> #####&&##&&#&##########:   XX ####  XXX.",
".*******@*****@*** $$$$$OOO$OOO## >>>> ######&&##&&#&&########: XXX@  ###  XXXX.",
".**********@******** $$$$$OOOO### >>>> #########&#&########:: XXXXXX ###  XXXXX.",
".*******************  $$$OOOO    >>>> ##########&#&########:  X@XXXX #   XXXXXX.",
".*************  **@**@ $$$$O >>>>>>>> #######&#&##########:: XXX@XXX   XXXXXXXX.",
".*************   ***** $$$OO >>>>>>> ##############&&####:: XXXXXXXXXXXXXXXXXXX.",
".************* ;   **** $$$OO >>  >> ##############&&:::::  XXXXXXXXXXXXXXXXXXX.",
".************* ;;;;  **    OO#  # >>> #############&&:     XXXXXXXXXXXXXXXXXXXX.",
".************* %%;;; *****  O#### >>  #############&  XXXXXXXXXXXXXXXXXXXXXXXXX.",
".************** %%%% ****** #####    ##########&##&  XXXXXXXXXXXXXXXXXXXXXXXXXX.",
".************** %%%%  ***** ###################&##& XXXXXXXXXXXXXXXXXXXXXXXXXXX.",
".**********@*** %%%%% ***** ######################  XXXXXXXXX    XX@XXXXXXXXXXX.",
".************** %%%%% *++++  ####################  XXXXXXXXX  ;;; XXXXXXXXXXXXX.",
".********@*****   %%  ++*++  ################### XXXXXXXXXXX ###;  XXXXXXXXXX@X.",
".*****************   *****++  ################## XXXXXXXX    ###;; XXXXXXXXXXXX.",
".*********************@****+   ################  XXXXXXX  #######;; XXXXXXXXXXX.",
".**@***********************+**  ##############  XXXXXXXX ########## XXXXXXXXXXX.",
".**************************.++*  ############  XXXXXXXXX ########### XXXXXXXXX..",
".**************************.+++* ##########   XXXXXXXXXX    ######   XXXXXXXXX..",
".**************************+.++*  #######  XXXXXXXXXXXXXXXX   ### XXXXXXXXXXX...",
".***************************..++* ######  XXXXXXXXXXXXXXXXXXX    XXXXXXXXXXXX...",
".****************************..+++  ###  XXXXXXXXXXXXXXXXXXXXXXXXXXXXXXXXXXX....",
".***@***@***...***************.++++     XXXXXXXXXXXXXXXXXXXXXXXXXXXXXXXXXXXX....",
".**********........****........++++****.XXXXXXXXXXXXXXXXXXXXXXXXXXXXXXXXXX......",
"................................................................................"
};
