/* XPM */
static char *result[] = {
/* columns rows colors chars-per-pixel */
"80 80 130 2 ",
"   c black",
".  c #110D0D",
"X  c #14130F",
"o  c #141110",
"O  c #1F1312",
"+  c #171B12",
"@  c #1D1B12",
"#  c #1F1918",
"$  c #231513",
"%  c #2B1716",
"&  c #241B14",
"*  c #2A1D16",
"=  c #201919",
"-  c #2D1E1A",
";  c #311F1B",
":  c #0D2F07",
">  c #1C240F",
",  c #1B340E",
"<  c #1E2212",
"1  c #242114",
"2  c #2A2216",
"3  c #262C15",
"4  c #2A2916",
"5  c #2D2219",
"6  c #2E2B1A",
"7  c #34241C",
"8  c #39251F",
"9  c #33291D",
"0  c #38291F",
"q  c #2E2221",
"w  c #2E2821",
"e  c #352521",
"r  c #3A2622",
"t  c #342A22",
"y  c #392921",
"u  c #362A28",
"i  c #3B2B29",
"p  c #353424",
"a  c #393426",
"s  c #3C3329",
"d  c #42342E",
"f  c #443B2D",
"g  c #473230",
"h  c #4C3B36",
"j  c #513935",
"k  c #543C39",
"l  c #583E3D",
"z  c #274B14",
"x  c #2B491B",
"c  c #3E6927",
"v  c #444332",
"b  c #494635",
"n  c #464931",
"m  c #4C4B37",
"M  c #4D4739",
"N  c #4E4B38",
"B  c #524135",
"V  c #554338",
"C  c #534A3D",
"Z  c #5E4C3E",
"A  c #54503D",
"S  c #45722E",
"D  c #564B41",
"F  c #5B4C45",
"G  c #5E4E48",
"H  c #575141",
"J  c #5C5244",
"K  c #5C5843",
"L  c #634A42",
"P  c #6A4C47",
"I  c #644F4D",
"U  c #6A5046",
"Y  c #64524D",
"T  c #6B544D",
"R  c #63594A",
"E  c #695B4E",
"W  c #675150",
"Q  c #6A5452",
"!  c #6C5A52",
"~  c #795350",
"^  c #725C56",
"/  c #7B5852",
"(  c #755D59",
")  c #785E5B",
"_  c #69604E",
"`  c #6D6252",
"'  c #736455",
"]  c #766459",
"[  c #7B635D",
"{  c #776959",
"}  c #7C695D",
"|  c #7E6461",
" . c #7F6B60",
".. c #826563",
"X. c #836D64",
"o. c #886E67",
"O. c #876D68",
"+. c #896F69",
"@. c #857264",
"#. c #887167",
"$. c #8A7867",
"%. c #867168",
"&. c #8C736B",
"*. c #8E7B6B",
"=. c #91756E",
"-. c #917B6E",
";. c #937671",
":. c #957B73",
">. c #9A7C75",
",. c #9E7E79",
"<. c #389328",
"1. c #65A542",
"2. c #978073",
"3. c #9B8275",
"4. c #9D8579",
"5. c #A3847C",
"6. c #A8867F",
"7. c #A6887E",
"8. c #9FFF54",
"9. c #FFED6E",
"0. c #AA8782",
"q. c #A68882",
"w. c #AC8C83",
"e. c #B09187",
"r. c #B5928B",
"t. c #B9958E",
"y. c #BD9691",
"u. c #BE9993",
"i. c #C19A95",
"p. c #FFFF9F",
/* pixels */
". . . . . . . . . . . . . . . . . . . . . . . . . . . . . . . . . . . . . . . . . . . . . . . . . . . . . . . . . . . . . . . . . . . . . . . . . . . . . . . . ",
". . . . . . . . . O O O . . . . . . . . . . . O O O O O O O O . q q . O O O O . W W W I I I Y Y I I I I I I I I I I I I I I I I I W I I I I I I I I I I I I I . ",
". . . . O O O O O O O O O . . O O O O O O O O O O O O O O O O X q q . $ $ $ $ o ) ) ( ! Q Q Q W Q W W W I I I I I W I I I I I g I I I I I I I I I I I W I I I . ",
". . O O O O O O O O O O O O O O O O O O O O O @ O O O $ O O q X 6 o t = & * - o =.&.O.} [ [ [ [ ) ^ ( ! Q I Y W Q W W I Y Y I I I I I I I I I I I I I I I I I . ",
". . O O O O O O O O O O O O O O $ $ $ @ $ @ @ $ O O $ O O 8 u o 1 1 & * 5 2 2 O >.&.} ` ` ' { } | | [ ....[ [ ) k ) ^ ^ Q Y Y Q Y I I I I I g I I I I I W I g . ",
". O O O $ O O O O O O O O O O $ $ & & & & & $ @ $ O $ $ $ r o + 1 2 2 - - 5 5 + ;.o.` R ` {  .@.%.&.;.;.;.+.&.&.=.@.[ [ [ R                     I I I I I I I . ",
". O O O O O O O O O O @ @ @ $ $ $ & 1 1 1 & $ $ & & $ * - d + 2 2 6 - ; ; - 6 O 4.L ' { &.3.>.>.2.5.q.4.;.#.X.&.=.=.X.X.{   z z z z 1.1.1.1.1.z     I I I I I . ",
". O O O O O O O O O $ $ @ & $ % & $ & 1 < 1 & & 1 & 5 5 7 d @ @ 7 7 e ; e e / # w.7.3.5.w.r.w.4.4.4.3.2.-.#.} X.=.=.X.{ [   z z z z z z z z 1.1.1.  I I I I I . ",
". O O O O O O O O @ @ $ & & & & * $ & * & 1 1 2 3 2 8 8 8 8 h = @ 7 9 9 7 9 9 # w.e.r.t.u.u.t.w.4.$.$.*.2.>.@. .X.@.{ ` X.  z z z z z z z z z z 1.  I I I I g . ",
". O O O O O O O O @ @ & & & % & * * * * * 5 7 4 2 7 8 r y r y k # t 9 7 9 6 9 < 2.5.w.t.u.i.y.t.7.2.$.2.7.w.4.*.@.{ { ' X.    z z z z z z z z z 1.1.  W I W I . ",
". O O O O O O O O @ @ > & * & & % * * - 7 7 7 7 9 9 9 9 9 r r D = e                             w.2.2.2.w.t.r.5.-.$.%.X.X.-.  z z z z z z z z z z z 1.  I I I . ",
". O O O O O O O O $ & & & & * * 2 - 5 7 9 9 0 9 9 9 9 9 y r r = # = 8.8.8.8.8.8.8.8.8.8.8.8.8.8.7.2.2.4.w.t.y.e.0.5.,.#.X.&.>.    z z z z z z z z z 1.  I I I . ",
". O O O O O O O O & & 1 & 1 * 2 5 5 7 7 y y y 9 9 9 9 9             x x x x x x x x x x x x x x             7.7.0.6.,.+.%.=.;.;.  z z z z z z z z z 1.  I I I . ",
". O O O O O O O $ < 1 & & 1 2 2 5 5 8 8 y 9 y           8.8.x x x x x x x x x x x x x x x x x x x x x x x x           +.+.&.;.#.  z z z z z z z z z z   g I I . ",
". O O O O O O O @ 1 1 * * 2 2 2 7 7 9 9 9 9     8.8.8.8.8.x x x x x x x x x x x x x x x x x x x x x x x x x x x x x   #.+.O.O...    z z z z z z z z     I I I . ",
". O O O O O @ O & 1 1 * * 2 2 7 9 9 9 9 7 9   8.x x x x x S x S x x S x x x x x x x x x x x x x x x x x x x x , x x x   o.[ { } +.      z z z z z     I I I I . ",
". O O 5 $ O O $ 1 1 1 * 2 5 6 6 6 6 9 9 9   8.8.x x x x x S S x x x x x x x x x x x x x x x x x x x x x x , , x x x x   %.{ ] [ o.=.:.              I I I I I . ",
". - ; O O O O $ $ 1 1 5 7 8 9 9 9 6 9 8     8.x x x x x x S S x x x x x x x x x x x x x x x x x x x x x x , , , , , x x     [ [ X.%.=.;.&.#.#.&.#.] I I I I I . ",
". O O O O O O $ $ 1 - ; 7 8 9 6 6 9 0 e   8.8.x x x x x S x x x x x S x S x x x x x x x x x x x x x x x x , , , x x x x x   ..^ ' [ L ;.&.X.} &.+.] q q q q I . ",
". O O O O $ $ $ $ % 7 8 8 0 0 9 6 0     8.8.x x x x x x x x x S x S x x x x x x x x x x x x x x x x x x , , , x , x x x x x     Q ] %.;.&.X.@.&.=.s u Y I q q . ",
". O O O O O $ $ & ; 9 9 9 0 y         x x , , , , , x x x S x S S x x S S x x x x x x x x x x x x x x , , x , x x x , x , , , ,       &.&.&.;.>.:.g ) Q W W I . ",
". O O O O $ & $ % 7 r 9 9 9   8.      , , x , x , , z x x S x S S x x S S x x x x x x x x x x x x x x , , , , x x x , , , , , , x x x   &.>.>.>.>.=.F Q I P I . ",
". O O O O $ $ - 7 8 y y y 7     z z z x x x x x , , , z S x S x S x S S x x x x x x x x x x x x x x x x x , x x , , , , , x x x x x x   P >.>.>.=.o.[ ^ W I I . ",
". O O O $ % * 5 - 7 8 8 e   8.x z z   9.9.x   , , z , z x x S x S x c c c c c c c c c z x x x x x x x x x x x x , , , x , x , , , x x     >.g :.o.] ^ ) Q I I . ",
". O O $ = & 2 5 5 6 6 6 7   8.z z z     9.    z z z z z x x x x z c c x S S x x x x x x z c x x x x x , , x x , , , , , , , , , x , x x   g g P X.' ( ) Q I I . ",
". O O $ & 2 2 5 7 5 4 4   8.8.x         9.    z z z z z x x z z z S x S S x x x x x x x x c c c x x x x , x x x x , , , , x , , , , , x     L &.X.| | ) Q I g . ",
". O $ $ & 2 5 - 5 5 4 3   8.S z   9.  9.9.9.      z z z x z z z z z z                         c c c x x , x x x x , x , x , , x , , , x x    .X. .X.) ) Q Q I . ",
". O $ * 2 2 5 q 5 7 6   S S S z   9.9.9.9.9.9.p.      z z z z <.: : : : : :     : :   : : : : : c c c z x , x x , , x , x , , , , , x x x x   %.%.| ( ) ^ W I . ",
". 8 $ * V * - ; - 6     x x , z     9.      9.9.9.9.    z z <.: :   8.8.8.8.8.z z z z z z z z   : : c c x x x , , , x , x , , , , , x , x x     &.[ ! ( Q Q I . ",
". j i * 2 5 ; ; 5 -   x x , , z         z     9.9.9.p.  z z <.: :   8.z z z z z z z z z z z z z : : : c c x , , , , x , x , , , , , x , , x x   =.| ^ ) ) Q I . ",
". $ i s 2 5 - - q 5   x , , , z z z z z z z       9.    z   <.: :   z z z z z z z z z z z z z z : : : z c , , , , x , , , x x , , x , , , , x   :.| [ [ ) Q I . ",
"o % $ 5 5 5 5 - - * x x x , , , z z z z z z z z       z z   :     8.z z z z z z z z z z z z z z     :   z , , , , x , , , x x , , x , , , x x x ,.O.| | ) Q I . ",
"o = * * 5 4 5 2 2   x x , x , z z z z z z z z z z z z z z   :   8.8.z S S z z z z z z z z z z z z   :   z x , , , x x , , x , , , , , , x , x x   =.| [ | q W . ",
"o % % 5 4 4 2 2 1   x x S x S , z z z z z z z z z z z z x <.:   8.z S S x S z z S z z z z z z z z   : :   z x x x x x , , x , , , , , S x S x x   5.O.| | q q . ",
"o $ * * 4 5 2 1 1   x x S x S , z z z z z z z z z z z z x :   8.8.z z z S S z z S z z z z z z z z z   :   z x , , x x z z x , , , , , S x S x x   6.;.O.| ( I . ",
"o % = - 1 5 2 1 2   x x x x x S x x z z z , z x S , , x x   8.8.z z z z z z z z z S z z z z z z z z z     z x , , x z z z z z S x x S x x x x x   w.,.=.O.) W . ",
"o % = * - 5 2 2 *   x x x x x S x x S S , , , x x , , x x   8.8.z z z z z z S S S S S z z z z z z z z     z x , , x z z z z z z x x S x x x x x   r.w.6.;.[ Q . ",
"o % % * 5 2 2 5 5   x x x x x S x x S S S S S x , , , , ,   8.8.z z z S S z z z z S z z z z z z z z z     z , z , z z z z z z z z x S x x x x x   i.y.r.5...( . ",
"o = % & 2 2 5 5 e   x x S x x x x x S S S S S x , , , , ,   z z z z z z z z z z S z z z z S S S z 8.8.    z , z z z z z z       z x x x x S x x   i.i.y.0.&.) . ",
"o o o o + # F o ~   x x S x x x x x S x S S S x , , , , ,   z z z z z z z z z S S S S S z z z S z 8.8.    z , z z z z z     9.    z z x x S x x   # = = # o . . ",
"o [ ) ) ( ] ] &.6.  x x S x x x x x x x x , , , , , , , ,   z z z z z z z z z z S z z z z z z z z 8.8.    z z z z z z z   p.p.9.  x z x x S x x   r r r e - & . ",
"o ) | | [ [ ' @.3.  x x S x x x x x x x x , , , , , , x x :   z z z z z z z z z S z z S S S z S z 8.  : z x z z z         p.p.    x z z z S x x   r r r e ; l . ",
". ) ) ) [ [ { } @.  8.S x S x x S S x x x , , , , , , x x : :   z z z z z z z z z S z z S x S x 8.  : <.z z z z     p.    p.p.p.    z z   x S 8.  d r r 8 - % . ",
". Q ( ( ! E E ' @.  8.S x S x S S S x x x x x x x x x , ,   :   z z z z z z z z z z z z z S S 8.8.  :   z , z x   p.p.p.p.p.p.p.9.    z   x S 8.  8 r r e % $ . ",
". I Y Y J F J ' $.2.  8.S S S S S S x x x x x x x x x z z   :     z z z z z z z z z z z z z z 8.    :   z , z x   p.p.p.p.    9.9.9.  , S S 8.  y r y 8 e $ $ . ",
". I I G D C C R ' @.  8.S S S S x x , , , x x x , , , x z   : : :   z z z z z z z z z z z z z 8.: : <.  z , x x                       , S S 8.  y 8 y r 7 % $ . ",
". I I F D D C A _ @.  8.S S S S x x , , , x x x , , , , z z : : :   z z z z z z z z z z z z z 8.: : <.  z z , , , z z z z z z x x x x S S S 8.        8 * $ O . ",
". I I D M M m m ' >.  8.x x x S x x x x x , , , , , , z z z : : :   z z z z z z z z z 8.8.8.8.  : : <.z z z z , , , z z z z , , x x x x x x 8.  z 1.1.    $ O . ",
". I I D M b v C { 5.w.  S S S x x S x x x x x x , , , , z z z : : : : : : : :   : :     : : : : : <.z z z , , , , , z z z z , , x , x S S S       z 1.1.  $ O . ",
". I I F s M M J X.;.q.    x x , , , x , , x , , z z z z z z     : : : : : z z z z x x x : : : <.  z z z z z z z z z z z , , , , S z S S x 8.  6   z 1.1.  O O . ",
". I I F C D F ! O.&.;.>.    x , , , , , x , , , z z z z z z z z z z z z z z z z z x x x z S S z S S z z z z z z z z z z z z , , z z z 8.8.  9 9   z z 1.  O O . ",
". I I F D F Y ) o.o.&.=.&.  x x , x , , , , , , , , z z z , z z z z   9.      z z x x x z z z z z z z z z z z z z z z z z z z z z z z 8.  9 y     z z 1.  O O . ",
". I I F C D Y ) &.+.;.&.%.    x x , , , x , x , x , z z , z z z z z   9.9.9.  z z x x x S S z z z S z z z z z z z z z z z z z z z z z 8.  0 y   z z z 1.  O O . ",
". I I F D C F ) O.&.&.*.&.&.  x x x x x x , , , x , z , , , z z z z   9.9.  z z z x x x z z S S z S z S z z z z z z z z z z z z z z 8.  9 e     z z z z   O O . ",
". I I I F D F T ] [ &.&.&.#.  x x x , , , , , , , x , , , , z z z   9.9.9.  z z z x x x z S S z z S S z S z z z z z z z z z z z 8.8.8.  9     z z z z     O O . ",
". I I I I F F I E ] %.&.X.%.[       , , , , x , , x , x , , z z   9.9.9.  z z z z x x x z S S z z S S z S z z z z z z z z z z 8.      8 9   z z z z     $ O O . ",
". I I I I G G Y B { %.#.o. .V E R Y   z x x x x , , , x ,       9.9.9.  z z z z z x x x z S S z z S S z S S z z z z z z z z 8.  6 9 9 P     z z z     % O O O . ",
". I I I I Y Y Q ] ..#.L  .' ` { ! Y J Y   x x x x x , ,   9.9.9.9.9.9.  z z z z z x x x z z z z S z S z z z z z z z z 8.8.  9 9 6 9 7 5   z z z     % $ O O O . ",
". I I I I I W Q ) ..O.X.X.} {  .{ R J E     x x x , , ,   9.9.9.9.9.  z z z z z z x x x z z z z S z S z z z z z z z z 8.    9 Z 6 7 7 2   z       & $ $ O O O . ",
". I I I I I W Q ^ [ } X.@.}     [ R f ! ) j   x x x x , ,   9.    9.  x z z z z z x x x z S z S z z z z z z z z z z 8.8.  y 9 9 U 7 2 2       * $ % % O O O O . ",
". I I I I I I W ! Y ! ' ' '       ' K Q ' ^   x x x , , , z z z   9.  x x z z z z x x x z z z z z z z S S z z z z 8.8.  r ; 8 7 r ; * * & * $ = * $ $ $ O O O . ",
". I W I I I I I Y K H K K E   1.      ' ' Q Q   x x x , z z z z       x x x z z z x x x z z z z z z z S S 8.8.8.8.8.    r d 8 ; 5 * & = & * = % % $ $ O O O O . ",
". I I I I I I Y Y J m n N E   1.1.1.1.    ] !         , x x x x x x x x x x x x x x x x z z z z z z z S S 8.          8 8 8 ; 7 2 * & 1 & & % $ $ O O O O O O . ",
". I I I I I I W G F C m K '   c c 1.1.1.  } ` E E Q     x x x x x x x x x x x x x x x x z z z z z z z S     9 9 8 y 0 7 ; ; ; - 2 2 1 & 1 & % $ O O O O O O O . ",
". I I I I I I I I F D F E ^ |   c c c c    .' ` ]  .O.  x x x x x x x x x x x x x x x x z z z S z z S     6 6 9 0 7 9 4 ; ; ; - * & 1 & & & $ $ O O O O O O O . ",
". I I I I W I I I F F I Q Q ^   c c c c     ] ] ] +.;.  z z z z z z z z x z z z z z z z z z z S z z S   9 9 9 9 0 8 7 5 ; - - * & 1 1 & & $ $ O O O O O O O O . ",
". I I I I I I I I I I g Y Y R   c c c c c   } } X.&.=.  z z z z z z z z z z z z z z z z z z z z z z     9 8 t 9 7 7 7 5 -         1 1 h $ $ O O O O O O O O O . ",
". I I I I I I I I I I I I Y Y   c c c c c   %.d d s s     z z z z z z z z z z z z z z z z z z z z     8 y 9 7 7 - * * 5     1.1.1.  $ $ O O O O O O O O O O O . ",
". I I I I W I I I g I I I I I       S c     g g #.a p     z z z z z z z z z z z z z z z z z z z   9 9 9 8 6 - 2 * & & &   z z z 1.    $ O O O O O O O O O g O . ",
". I I I I I I I I I I I I I I F D Y       O.#.#.&.X.a a     z z z z z z z z z z z z z z z z z z   7 4 4 * * * & &         z z z 1.1.  O O O O O O O O O O O O . ",
". I W I I I I I I I I I I I I I F F F C J E V [ o.%. .i       z z z z z z z z z z z z z z z z     5 2 2 * * & &     z z z z z z z 1.1.  O O O O O O O O O O O . ",
". I I g I I I I I I I I I I I I I I D b v C J ! [ } { a ] '     z z z z z z z z z z z z z z     * 1 > 1 @ @ @ $   z z z z z z z z z z   O O O O O O O O O O O . ",
". I I I I I I I I W I I I I I I I I F C M b M D Y ! ! o u p K     z z z z z z z z z z z z     1 1 < > > @ @ @ @   z z z z z z z z z z z   O O O O O O O O O . . ",
". I I I I I I I I I I I I I I W I I I G F M M C F I W . w w u !   z z z z z z z z z z       & 1 1 @ < > @ @ @ @         z z z z z z       O O O O O O O O O . . ",
". I I W I I I I I I I I I I I I I I I I G F F F I I I 5 . q w Q     z z z z z z z     & 1 $ $ $ @ @ $ @ O @ O O O O $       z z z   O O O O O O O O O O O . . . ",
". I I I I I I I I I I I I I I I I I I I I I I I I I I I . X q q W   z z z z z z     @ $ @ $ O O @ O O O O O O O O $ O O O         O O O O O O O O O $ O O . . . ",
". I I I I I I I I I I I I I I I I I I I I I I I I I I I Y . . q q q     z z z     O O O O O O O $ O O O O O O O O O O O O O O O O O O O O O O O O O O O . . . . ",
". I I I g I I I g I I I . . . I I I I I I I I I I I I I I I . q q q q           O O O O O O O O O O O O O O O O O O O O O O O O O O $ O O O O O O O O O . . . . ",
". I I I I W I I I I I . . . . . . . . I I I I . . . . . . . . q q q q I I I Y . O O O O O $ O O O O O O O O O O O O O O O O O O O O O O O O O O O O . . . . . . ",
". . . . . . . . . . . . . . . . . . . . . . . . . . . . . . . . . . . . . . . . . . . . . . . . . . . . . . . . . . . . . . . . . . . . . . . . . . . . . . . . "
};
