/* XPM */
static char *result[] = {
/* columns rows colors chars-per-pixel */
"80 80 185 2 ",
"   c black",
".  c #110E0D",
"X  c #13120E",
"o  c #15190F",
"O  c #151510",
"+  c #1F1412",
"@  c #161A11",
"#  c #1D1B12",
"$  c #1E1C18",
"%  c #221513",
"&  c #281613",
"*  c #241B14",
"=  c #291B16",
"-  c #261E1B",
";  c #2B1D19",
":  c #311E1A",
">  c #0D2F07",
",  c #17210E",
"<  c #1B340E",
"1  c #172012",
"2  c #1E2212",
"3  c #252315",
"4  c #2A2217",
"5  c #252A15",
"6  c #2A2917",
"7  c #24221B",
"8  c #2C2319",
"9  c #272A1A",
"0  c #2C2A1A",
"q  c #33241C",
"w  c #39241E",
"e  c #342A1D",
"r  c #3A2B1E",
"t  c #273218",
"y  c #2C311A",
"u  c #34321D",
"i  c #38331F",
"p  c #333C1E",
"a  c #2E2321",
"s  c #2F2A22",
"d  c #352621",
"f  c #3A2622",
"g  c #352C22",
"h  c #3B2C22",
"j  c #3A2B2A",
"k  c #333222",
"l  c #3C3322",
"z  c #3C3923",
"x  c #3F342C",
"c  c #3E3E2A",
"v  c #422D25",
"b  c #452E29",
"n  c #413225",
"m  c #423B25",
"M  c #44342B",
"N  c #453B2C",
"B  c #463330",
"V  c #463A32",
"C  c #4C3D34",
"Z  c #513C35",
"A  c #533D3A",
"S  c #274B14",
"D  c #2B491B",
"F  c #3E6927",
"G  c #434127",
"H  c #42412C",
"J  c #444531",
"K  c #4A4635",
"L  c #474A32",
"P  c #4C4A36",
"I  c #4D4739",
"U  c #4E4B39",
"Y  c #514437",
"T  c #54443B",
"R  c #5A433E",
"E  c #524A3D",
"W  c #54513D",
"Q  c #57583E",
"!  c #595E3F",
"~  c #45722E",
"^  c #574742",
"/  c #5F4644",
"(  c #564B41",
")  c #5B4C45",
"_  c #5F4D48",
"`  c #575040",
"'  c #5C5345",
"]  c #575841",
"[  c #5D5944",
"{  c #5F5348",
"}  c #664B46",
"|  c #634F4C",
" . c #645446",
".. c #635B46",
"X. c #63524B",
"o. c #69544D",
"O. c #655A4B",
"+. c #695C4E",
"@. c #735D4A",
"#. c #675250",
"$. c #6A5452",
"%. c #6C5A52",
"&. c #715C56",
"*. c #7D5C54",
"=. c #755D5A",
"-. c #785F5C",
";. c #65664A",
":. c #6A634E",
">. c #6D6351",
",. c #726355",
"<. c #726A55",
"1. c #7B6857",
"2. c #75635A",
"3. c #7A625D",
"4. c #776B5A",
"5. c #7B6A5C",
"6. c #7D725D",
"7. c #7D6461",
"8. c #7E6C61",
"9. c #855D5A",
"0. c #89655B",
"q. c #836C63",
"w. c #866B66",
"e. c #8A6E6A",
"r. c #946D6A",
"t. c #847363",
"y. c #8A7667",
"u. c #847A63",
"i. c #867768",
"p. c #8C736A",
"a. c #8D7B6C",
"s. c #91736F",
"d. c #907B6D",
"f. c #947672",
"g. c #987775",
"h. c #957B72",
"j. c #9A7D74",
"k. c #9D7D79",
"l. c #A27F7D",
"z. c #389328",
"x. c #65A542",
"c. c #8D8069",
"v. c #94806E",
"b. c #968272",
"n. c #9B8275",
"m. c #9D8479",
"M. c #9F8C7A",
"N. c #A4847D",
"B. c #A38B7C",
"V. c #A98D7E",
"C. c #A6917F",
"Z. c #9FFF54",
"A. c #FFED6E",
"S. c #A48481",
"D. c #AB8683",
"F. c #A68A81",
"G. c #AC8C83",
"H. c #AD8E88",
"J. c #B28D84",
"K. c #B08F89",
"L. c #AD9384",
"P. c #B19286",
"I. c #B4948A",
"U. c #BA948D",
"Y. c #B5998B",
"T. c #BA9B8E",
"R. c #BC9791",
"E. c #BD9A91",
"W. c #BEA291",
"Q. c #C09793",
"!. c #C29C93",
"~. c #C49C99",
"^. c #CA9F9B",
"/. c #C3A195",
"(. c #C9A599",
"). c #CBA49C",
"_. c #D2A49F",
"`. c #D2A99F",
"'. c #CDA2A0",
"]. c #D0A4A1",
"[. c #D4ACA2",
"{. c #DAB1A7",
"}. c #E1B4AD",
"|. c #E6B7B0",
" X c #FFFF9F",
/* pixels */
". . . . . . . . X . . . . . . . . o o o X X X . . X . X X X X X X X X X X X X . X . O O O O O X @ O . . . X X X . . . . . . . O 2 @ . . . . . X X @ o X . . . . ",
". . . . . . X @ X % + + . . . . . X o o X X X + + + + # # # 2 , 5 6 o * % * % O =.=.&.o.$.%.%. .` ' o.X._ ( E X.| o.#.$.$.#.#.#.X.) ( ) | | | _ { ' ' _ | X.| . ",
". . . . + + * 3 % + + + + . . O + + & + + + # & 2 3 2 2 # 3 2 , 9 0 @ * * & * @ -.7.2...{ ..&.&.,.-.3.%.' E ` X.%.&.=.=.&.&.&.Z %.X.X.o.#._ ) _ X.' _ _ / _ | . ",
". . + + + % # * * + + + + + + + + + + & # + # 2 3 5 5 3 3 = k 1 k 1 g 3 8 8 = $ s.p.5.[ Q ;.5.t.h.m.g.w.O.E X.&.3.3.-.-.2.2.2.-.&.$.%.&.%.X.) ) ) ) ) ) ^ ) | . ",
". . % + + + + % + + + + + + + + + + + # # # * # 4 6 6 4 4 M V # 6 6 4 ; 8 8 8 + h.d.1...! ;.<.6.h.H.P.N.w.2.q.f.} s.e.e.q.5.q.q.7.=.=.&.o.o.V ) ^ E ^ ^ ) { V . ",
". + $ * * + + + + % + + + + + + + + , # # * * = 4 6 y e w A $ $ 0 8 8 : q q 8 $ n.u.:.:.4.c.c.d.n.I.)./.U.J.P.E.!.V.n.N.n.i.d.k.k.e.q.-.=.&.O.( ^ E ( ) _ { X.. ",
". + % 3 * % # # + + + # # # + + + + # 2 3 * = 8 4 6 r r r Y * e q q q w f w f $ C...<.c.C.W.E.I.I./.(.`.!.E.Y./.].!.P.G.C.v.n.J.9.F.g.e.7.2.+. .' | ) _ { { X.. ",
". + % * $ # # 2 # # % # # # + + + & # 3 3 4 8 4 q q u z z P 3 7 d f f f v v r.7 (.Y.L./.[.{.[.    S S S S S S   _._.Y.B.Y.E.U.E.~.Q.D.h.e.7.&.+.$.%.o._ X.{ X.. ",
". + & # # # 2 , # # # 2 3 2 % + # & 4 4 6 q q e u i n m G m E 7 7 f g v h n v 4     S S S S S S S S S S S S S S S S       [.).!.).).Q.D.e.7.&.&.$.$.$.#.#.| B . ",
". + + + & # + + # * 2 5 t 3 & & * 3 6 e q e r i i v M M G N M } 7 l h i g l     S S S S S S S S S S S S S S S S S S S S     ]./.].[.'.U.g.3.&.$.$.=.=.$.#.| | . ",
". + + + + + + + + # # 5 t 3 # & * 4 e r v r v n m n n i n M b } - v           S S S S S S S S S S S S S S S S S S S S S S   U.K.Q.).'.~.F.q.,.+.&.=.=.$.#.#.| . ",
". + + + + + + & + + # 3 5 3 3 * = q w v v l n n l l n i n b b - - = F ~ F D D S S ~ S S S S S S S S S S S S S S S S S S S             ).Q.N.e.2.-.-.-.=.=.#.#.. ",
". + + + + + # # % # 2 # 2 3 6 q q q r v n l n l i n v v             D D D D D S S ~ S S S S S S S S S S         S S S S S D x.x.x.x.S     R.S.7.=.-.7.=.=.$.#.. ",
". + + + + + # # + 2 # 3 & 8 u u e e v n n z z           Z.Z.D D D D D D D D D D D D D D D D D D D D D D D D         S S S S S S S x.x.x.  I.F.q.#.%.-.-.A =.$.. ",
". + + + + + + + * # 2 = = e u w r e h n l z     Z.Z.Z.Z.Z.D D D D D D D D D D D D D D D D D D D D D D D D D D D D D S S S S S S S S S x.  N.b.i.2.=.7.-.3.-.=.. ",
". + + + + + + + * 2 & & q e w r i e z z m M   Z.D D D D D ~ D ~ D D ~ D D D D D D D D D D D D D D D D D D D D < D D D S S S S S S S S x.x.  n.m.m.7.7.7.-.7.-.. ",
". + + : + + + + # * 3 4 e w r i i i i n m   Z.Z.D D D D D ~ ~ D D D D D D D D D D D D D D D D D D D D D D < < D D D D S S S S S S S S S S x.  U.U.k.q.-.9.7.-.. ",
". & : + + + + % * 3 4 q r v i i i i l b     Z.D D D D D D ~ ~ D D D D D D D D D D D D D D D D D D D D D D < < < < < D D S S S S S S S S S x.  U.!.N.w.q.7.-.-.. ",
". + + + + % + % = = : r v b n i i l M v   Z.Z.D D D D D ~ D D D D D ~ D ~ D D D D D D D D D D D D D D D D < < < D D D D D S S S S S S S S x.  L.Q.S.b j j j -.. ",
". + + + * * % & & q f v n v v i i m     Z.Z.D D D D D D D D D ~ D ~ D D D D D D D D D D D D D D D D D D < < < D < D D D D D S S S S S S S S   I.^.R C e.7.j j . ",
". + + + * 3 * * ; w v l l v v         D D < < < < < D D D ~ D ~ ~ D D ~ ~ D D D D D D D D D D D D D D < < D < D D D < D < < < < S S S S S     E.'./ I.g.w.3.-.. ",
". + + + $ * * = : f v v v h   Z.      < <   < D < < S D D ~ D ~ ~ D D ~ ~ D D D D D D D D D D D D D D < < < < D D D < < < < < < D D D       U.Y.(.[.9.l.e.3.-.. ",
". + + + % % * ; q v M b v u     S S S       < D < < < S ~ D ~ D ~ D ~ ~ D D D D D D D D D D D D D D D D D < D D < < < < < D D D D D D     E.Y.L.T.E.Y.D.s.7.=.. ",
". + + + + % = q w w v v v   Z.D S S   A.A.    < < S < S D D ~ D ~ D F F F F F F F F F S D D D D D D D D D D D D < < < D < D < < < D D     U.T Y.L.L.J.H.g.7.=.. ",
". + + + # 3 8 q d e u l l   Z.S S S     A.    S S S S S D D D D S F F D ~ ~ D D D D D D S F D D D D D < < D D < < < < < < < < < D < D D   Y T 1.L.B.F.H.h.7.%.X ",
". O + + 3 6 8 q w e u p   Z.Z.D S S     A.    S S S S S D D S S S ~ D ~ ~ D D D D D D D D F F F D D D D < D D D D < < < < D < < < < < D     @.M.C.V.F.F.s.>.V X ",
". + + # * 5 8 : w g u p   Z.~ S S A.  A.A.A.      S S S D S S S S S S                         F F F D D < D D D D < D < D < < D < < < D D   b.m.B.V.n.j.8.{ ` o ",
". + + # * 7 q q q r k   ~ ~ ~ S S A.A.A.A.A.A. X      S S S S z.> > > > > >     > >   > > > > > F F F S D < D D < < D < D < < < < < D D D D   B.Y.H.n.h.8.O.( @ ",
". ; + % N = ; d f g     D D < S S   A.      A.A.A.    S S S z.> >   Z.Z.Z.Z.Z.S S S S S S S S   > > F F D D D < < < D < D < < < < < D < D D     (.P.n.l.a.7.X.O ",
". B d * * 3 ; d r h   D D < < S S S S S S           S S S S z.> >   Z.S S S S S S S S S S S S S > > > F F D < < < < D < D < < < < < D < < D D   ).U.D.V.h.7.%.X ",
". + e k 3 4 : d q h   D < < < S < S < S S < S S S S S S S   z.> >   S S S S S S S S S S S S S S > > > S ~ < < < < D < < < D D < < D < < < < D   ).R.R.F.d.3.$.O ",
". + 3 y t 9 q d f h D D D < < < < S < < S < < S S S S < S   >     Z.S S S S S S S S S S S S S S     >   S < < < < D < < < D D < < D < < < D D D U.R.U.I.S.w.$.. ",
"X # 3 y t t y r g   D D < D < S < S S < < < S S S < < < S < >   Z.Z.S ~ ~ S S S S S S S S S S S S   >   S D < < < D D < < D < < < < < < D < D D   Y.H.P.K.b $.. ",
"O * * 3 6 9 0 0 r   D D ~ D ~ < S S S < S < < S S S S S D < <   Z.S ~ ~ D ~ S S ~ S S S S S S S S   > >   S D D D D D < < D < < < < < ~ D ~ D D   W.L.L.D.j d . ",
"# * % 3 3 3 6 e e   D D ~ D ~ < < S S S < S S < < < < < < >   Z.Z.S S S ~ ~ S S ~ S S S S S S S S S   >   S D < < D D S S D < < < < < ~ D ~ D D   `.T.Y.D.e.#.. ",
"o * + # 3 3 6 0 k   D D D D D ~ < D S S S < S D < < < < < < Z.< S S S S S S S S S ~ S S S S S S S S S     S D < < D S S S S S ~ D D ~ D D D D D   {./.R.J.s.$.. ",
"X + + % * 3 6 u i   D D D D < ~ D D ~ ~ < < < D < < < D D   < < S S S S S S ~ ~ ~ ~ ~ S S S S S S S S     S D < < D S S S S S S D D ~ D D D D D   }.{.).I.f.&.. ",
". + + % * 4 0 u z   D D D D < ~ D D < ~ ~ ~ < D < < < < <   < Z.S S S ~ ~ S S S S ~ S S S S S S S S S     S < S < S S S < < S S S D ~ D D D D D   |.{.].G.p.=.. ",
". + + % * 3 8 u n   D D ~ D < D < D ~ ~ < ~ ~ D < < < < < < S S S S S S S S S S ~ S S S S ~ ~ ~ S Z.Z.    S < S S S S S S < < < S D D D D ~ D D   {.[.~.n.5.2.O ",
". . . X o @ T # *.  D D ~ D D < D D < D ~ < < D < < < < < < S S S S S S S S S ~ ~ ~ ~ ~ S S S ~ S Z.Z.    S < S S S S S     A.< < < S D D ~ D D   9 9 - $ $ O . ",
". | | _ ( O.%.q.N.  D D ~ D < D D D D D < < < < < < < < <   S < S S S S S S S S ~ S S S S S S S S Z.Z.    S S S < S S S    X XA.  < S D D ~ D D   M v h q q ; . ",
". | | | '  .+.5.j.  D D ~ D D D D D < < D < < < < < < < D >   S S S S S S S S S ~ S S ~ ~ ~ S ~ S Z.  > S D S S <          X X    < < S S ~ D D   v j f q 8 / O ",
". | | ' { { O.,.t.  Z.~ D ~ D D ~ ~ D D D < < < < < < D D < >   S S S S S S S S S ~ S S ~ D ~ D Z.  > z.S S S S <    X     X X X    S < < D ~ F     h q 8 6 3 O ",
". | | _ W ( ' +.4.  Z.~ D ~ D ~ ~ ~ D D D D D D D D D < <   >   S S S S S S S S S S S S S ~ ~ Z.Z.  >   S < S <    X X X X X X XA.    S < D ~ F     g d q ; = O ",
". | | ) E U U O.4.5.  Z.~ ~ ~ ~ ~ ~ D D D D D D D D D S S   >     S S S S S S S S S S S S S S Z.    >   S < S <    X X X X    A.A.A.  < < ~ F x.x.  v q e 8 = . ",
". X._ ' U P U ( :.<.  Z.~ ~ ~ ~ D D < < < D D D < < < D S   > > >   S S S S S S S S S S S S S Z.> > z.  S < D <       < < < <       < < ~ ~ F S x.  f f q & & O ",
". | X.) U U I U ..6.  Z.~ ~ ~ ~ D D < < < D D D < < < < S S > > >   S S S S S S S S S S S S S Z.> > z.  S S < < < S S S S < < < < < < ~ ~ ~ F S x.  e f q = * X ",
". | X.( P U K K >.h.  Z.D D D ~ D D D D D < < < < < < S S S > > >   S S S S S S S S S Z.Z.Z.Z.  > > z.S S S S < < < < < < S < < < < < D D D F S x.  e q ; & * + ",
". ) ) ^ U K J P 5.N.P.  ~ ~ ~ D D ~ D D D D D D < < < < S S S > > > > > > > >   > >     > > > > > z.S S S < < < < < S S S S < < D < D ~ ~ ~ S S S   d 8 : & * X ",
". ^ ) ^ l U I ' 6.N.P.    D D < < < D < < D < < S S S S S S S     > > > > > > S S S S S > > > z.  S S S S S S S S S S S < < < < ~ S ~ ~ D F S S     8 ; & % % . ",
". ) ) ) E E ` +.6.d.H.R.    D < < < < < D < < < S S S S S S S S S S S S S S S S D S S S S ~ ~ S ~ ~ S S S S S S S S S S S S < < S S S F F S S     0 6 ; & + + . ",
". | _ ) U U ` &.q.p.m.K.I.  D D < D < < < < < < < < S S S < S S S S x.  A.      D S S S S S S S S S S S S S S S S S S S S S S S S S S F   S     e 6 4 = & + + . ",
". | | ^ K J ( 2.w.h.F.F.F.    D D < < < D < D < D < S S < < < S S S     A.A.  S D S S < ~ ~ S S S ~ S S S S S S S S S S S S S S S S S F       h 0 4 3 * + + + . ",
". | | ) U K ` >.t.d.F.G.M.G.  D D D D D D < < < D < S < < < < S S S   A.A.A.  S D S < S S < < ~ S ~ S ~ S S S S S S S S S S S S S S F       v f 6 3 3 # + + + . ",
". | | | ) E W O.2.8.n.M.n.B.  D D D < < < < < < < D < < < < S S S   A.A.A.  S S D < < S S ~ ~ S S < ~ S ~ S S S S S S S S S S S F F F   n v b q 8 * * + + + + . ",
". | | | _ ( ( { +.2.v.M.n.m.h.      < < < < D < < D < D <         A.A.A.  S S < D < < S S ~ ~ < < ~ ~ S ~ S S S S S S S S S S Z.      v v j d : = % + + + + + X ",
". | | _ ( ( ' X.K 2.d.N.m.b. .0.5.q.  D D D D D < < < D   A.A.A.A.A.A.  S S S S D S < S S ~ < < < < ~ S ~ ~ S S S S S S S S Z.  l n n 0.h f q : & % % + + + + . ",
". | _ ^ K K ) X.&.2.t.o.v.u.6.u.6.1.  F F x.D D D D < <         S < A.A.  S S S < S < S S S S S < S ~ S S S S S S S S F F   n l u v h r q q : = * * % % + + + . ",
". ) ) ^ K I ^ X.X.%.>.t.c.6.u.b.u.<.,.  F F F D D < < < < S S       A.    S S < < < S S < S S S ~ < ~ S S S S S S S S F     l @.i l w q 8 : & % = = = % % + + . ",
". ^ ) ) ^ ( U ` ....:.4.a.u.a.n.d.4.T   F F F F D D D < S S S < < S     S S S S D < S S < ~ < ~ S S S S S S S S S S F F       l 0.r e 8 = * = = ; 4 4 * % + + . ",
". ) _ | | ) U U Q ] ..>.4.8.b.F.N.t.4.  F F F F D D < < D D D D < D D D D < D < < < S < S S < S S S S ~ ~ S S S S F F S x.x.  v v w : = = * * - 4 4 3 % + + + . ",
". | | | | _ ^ I W W W ] ] >.h.H.J.n.t.  F F F F D D D < D D D D < < D < < D D D D < < S S S S S S S S ~ ~ F F F F S S S S x.x.  e q = * * * = ; 0 - * + + . + . ",
". | | | | | ^ E ( ` U L U +.p.N.D.F.m.      F F       < < D D < < D < D D D D D < S S S S S S S S S S ~ ~ F S S S S S S S S S   e 8 = 3 3 * ; 0 8 * % + + + + . ",
". | | | | X.^ U ^ ' W U ] &.e.h.k.l.m.B.F.G.      b.  < < D D < < D < D D < D D < S S S < S S S S S S ~     S S S S S S S S S S   7 * * 3 = 6 8 4 * + + + + + . ",
". | | | | | ) ^ ( { ] ] +.%.7.e.p.p.t.p.h.n.n.M.L.R./.  D D D < < < < < D < < D D S S S S < S ~ S S ~           S S S S S S       6 3 = = * ; 7 - * * $ + + + . ",
". | | | | | _ ^ ) { X.O.O.+.%.>.3.5.4.<.2.8.d.m.L.'.<   < D < D D < D < < D < D D < < < S S S ~ S S ~   l l l       S S S   f f 8 6 3 = * * * & % * 3 * % + + . ",
". | | | | | | ) ^ ) _ V ' [ O.%.%.2.,.>.>.,.8.a.L.~.[.  S < S S < S S S < < < < S S < < S S S S S S     n v v h v         w : q 8 4 4 R = - & % % * * % + + + . ",
". | | | | | | ) ^ ( ( ) ) ' [ O.%.%.>.2.5.q.p.V K I Y     < S S < S S S S < < S S S < S S S S S S     n b M v f w q q q q : : } 8 8 8 ; = % % = % % + % + + + . ",
". | | | | | | _ ^ j ( ( ) { { ' { X.%.j x B V C c.H c 4.    < < < < < S < S S S S S S S S S S S   h r l v r e q q 8 8 q 8 8 : q ; : 8 8 - = % % % % + + % M + . ",
". | | #.| | | | ) ) ^ ) { X.{ ` ( X.g g =.w.e.p.a.c.H c       S < S < S S S S S S S S S S S S     g r e w e e 6 8 8 : 8 8 8 q 8 = = 8 q ; = % = * % % + + + + . ",
". | | | | | | | | | _ | _ X.{ _ ' _ ) E ` %.Y 5.i.a.6.H y.t.<.    S S S S S < S S S S S S     n   f r q q q e y 0 8 ; q 8 q e 8 * = : - = - = = = - & + + + + . ",
". #.| B | | | | | | | | X.X.X.| | _ ^ K K U ' %.q.5.5.x 5.4.+.+.  S S S S S S S S S S       z g g e 6 6 8 8 6 6 4 = = ; ; 6 8 ; = & - = & & = & ; 6 % + + + + . ",
". | | | | | | | | | #.| X.' X.| | | ) ( K K K ^ X.%.%.O j g [ %.%.  D S S S S S     e e f g e e e q 5 5 6 4 4 3 3 ; ; = ; ; ; = & = = % & & - - - = % % + + . . ",
". | | | | | | | | | | | X.X.X.| | | | _ ^ ( K I ( ) | . s s g %.&.&.              = ; 6 0 q q e 6 6 5 3 4 4 3 = * 7 4 ; - ; = & & % = - = & & & & - - * + # X . ",
". | #.| | | | | | | | | X.| | X.| | | | { ) ^ ^ T ) _ a X s k %.%.%.%.%.+.>.=.O * * * 4 3 6 : ; 6 3 ; 3 3 = = % = 4 9 8 8 4 * * & = = - - = & - * = 3 * % X X X ",
". | | | | o.| | | | #.| | X.| X.{ X.| | | | | _ ) _ | | X 1 k k X.#.X.X.O.X.#.. + % % % * % = * = & = = = % * % * ; 4 0 0 8 ; % & % 8 8 - = & & * * $ * # X X . ",
". | | | | | | | | #.| | | | | X.{ X.| | | | | | _ | | | { $ 2 k a a { [ { | | O % % + + + + % % & % & & + & & + * % = 3 q 0 = * % % - = = % & % % % % + X X . . ",
". | | | B | | X.B | | | O # @ X.{ { | | | | | | | | #.{ | { @ s a a a { { { | O 3 3 % + + + + % % % + + + + + & % % % % = 3 * % % % - & % % % % % + + # . X X . ",
". ) | | | | | X.| #.| . X O O X . X . | | | | . . . . @ O . . 7 a a a | X.X.{ 1 9 9 3 # % * * $ + + + + + + + + % + % % % % + + % % % + % % % + + + . X o @ X . ",
". . . . . O $ X . . . . X . . . . X . . . . . . . . o $ O X . X . . . . O O 2 # 2 # O . . @ @ O . . . . . . . . . . . . . . . . . . . . . . . . . . . X o @ @ . "
};
