/* XPM */
static char *result[] = {
/* columns rows colors chars-per-pixel */
"80 80 103 2 ",
"   c black",
".  c #110D0D",
"X  c #13130E",
"o  c #141B0E",
"O  c #151410",
"+  c #1F1412",
"@  c #171910",
"#  c #1E1A11",
"$  c #221512",
"%  c #241B14",
"&  c #291D16",
"*  c #2C1E1A",
"=  c #301F1C",
"-  c #0D2F07",
";  c #16200D",
":  c #1C240F",
">  c #1B340E",
",  c #1D2110",
"<  c #242214",
"1  c #292317",
"2  c #262815",
"3  c #282816",
"4  c #2C2219",
"5  c #26291A",
"6  c #29291B",
"7  c #2E2221",
"8  c #2F2A21",
"9  c #312623",
"0  c #332B24",
"q  c #392F27",
"w  c #362A28",
"e  c #3D2E2A",
"r  c #353424",
"t  c #393426",
"y  c #3D3329",
"u  c #43322E",
"i  c #453A2E",
"p  c #473330",
"a  c #4D3C35",
"s  c #513E36",
"d  c #563D3A",
"f  c #274B14",
"g  c #2B491B",
"h  c #3E6927",
"j  c #464533",
"k  c #4A4535",
"l  c #464931",
"z  c #4A4A35",
"x  c #4D4739",
"c  c #4E4A39",
"v  c #554338",
"b  c #5D453E",
"n  c #534A3E",
"m  c #56503F",
"M  c #45722E",
"N  c #564A41",
"B  c #5B4C45",
"V  c #5E4D48",
"C  c #575140",
"Z  c #5C5344",
"A  c #5C5843",
"S  c #5E5048",
"D  c #634744",
"F  c #634B42",
"G  c #6A4C47",
"H  c #644F4D",
"J  c #64524C",
"K  c #68554F",
"L  c #645A4B",
"P  c #695C4E",
"I  c #675250",
"U  c #6A5552",
"Y  c #6D5B53",
"T  c #725C56",
"R  c #745D59",
"E  c #785E5B",
"W  c #6D6152",
"Q  c #736356",
"!  c #766359",
"~  c #7A645D",
"^  c #77685A",
"/  c #7C695D",
"(  c #7E6561",
")  c #7E6B60",
"_  c #816763",
"`  c #836C64",
"'  c #886F66",
"]  c #866E68",
"[  c #8A6E6A",
"{  c #867066",
"}  c #887067",
"|  c #8C736B",
" . c #91746E",
".. c #947672",
"X. c #987774",
"o. c #957974",
"O. c #997A75",
"+. c #9B7C78",
"@. c #389328",
"#. c #65A542",
"$. c #9FFF54",
"%. c #FFED6E",
"&. c #FFFF9F",
/* pixels */
". . . . . . . . . . . . . . . . . . . . . . . . . . . X X X X X X X X o X X . . . . X . X . O X X . . . . X X X . . . . . . . . . . . . . . . . . . . . . . . . ",
". . . . . . . . . + + + . . . . . . . . . . . + + + + # # # : ; 5 6 X # + + + X V H B N N N N x x V H V B N N B H H H I H H H H H H H H H H H H I H H H H I H . ",
". . . . + + + + + + + + + . . + + + + + + + + + + # # : # # : ; 2 6 o % # $ + o J I S c x N B N V J I B n x x B V J H H H H H p V B V H H H H H H H H H H H I . ",
". . + + + + + + + + + + + + + + + + + + + + + + + # # # # % 4 o 6 o 8 % % % # X T T L c z C L Y Y T T U B n N J I I I J I H H H V N B H H H H H H H H H H H H . ",
". . + + + + + + + + + + + + + + + + + # + + + + + + + + + 4 7 @ , < % & & % < O E T S z z C J Y     f f f     E d E T T U J K J H V H H H I p H H H H H H H p . ",
". + + + + + + + + $ + + + + + + + + # # # + + + + + $ $ $ 0 X o < % % $ % % & O ! Y C c C Z P     f f f f f f    .' / ~ R L K Y U H H H H H H H H I H H I H H . ",
". + + + + + + + + + + # + + + + + # # # : + $ $ + + $ $ % 0 @ & < & $ & & & % O ( s A       f f f f f f f f f f    .` ) ^ L P ! d T I H H H H H H H H H H H H . ",
". + + + + + + + # # + + # $ + + + + # # : # # # # , % & & t # @ < * & & & & F +     f f f f f f f f f f f f f f f f       ) ` ] _ ( T H H H H H H H H H H H H . ",
". + + + + + + # + # # # # # + + $ + + $ % # % < < < & * * * y # # & * & 4 1 1 #   f f f f f f f f f f f f f f f f f f      .o... .[ ( U H V V H H H H H H H p . ",
". + + + + + + + # # # # # $ $ + $ % # # % % < < 2 4 4 4 * * 7 p # 6 1 5 4 6     f f f f f f f f f f f f f f f f f f f f     O.O.X.[ _ E H N N V H H H H H I H . ",
". + + + + + + + + # # # # $ + $ $ $ $ & & 1 1 4 1 4 4 4 4 = * p O 4           f f f f f f f f f f f f f f f f f f f f f f   X.O.O.o. ._ T N N B H H H H H H H . ",
". + + + + + + + + + # # # # # # % $ & & & 1 4 4 1 1 4 6 4 * * + O + h h h   M f f M f f f f f f f f f f f f f f f f f f f     o.X.X...[ ( T V V H H H H I H H . ",
". + + + + + + + $ # # # # # # % % & & 4 4 = 4 4 1 4 4 4             g g g   M g f M f f f f f f f f f f         f f f f f   f     ..o... ._ T S V D H H I H H . ",
". + + + + + # # # # : # # $ , % & < 4 4 4 4 4           $.$.g g g g g g g g g g g g g g g g g g g g g g g g         f f f #.#.#.  | o.o. .) R J N B H H p H H . ",
". + + + + $ $ # # # # # $ % % < 1 4 4 4 4 4     $.$.$.$.$.g g g g g g g g g g g g g g g g g g g g g g g g g g g g g f f f f f #.  ..o.o.[ ^ W L V V H H H H H . ",
". + + + + + $ # # # # $ % % & 1 1 4 3 3 4 4   $.g g g g g M g M g g M g g g g g g g g g g g g g g g g g g g g > g g g f f f f #.#.  O...] ^ ! ! T H H H H H H . ",
". + + = + + + + # # # % % < 1 3 1 1 1 3 4   $.$.g g g g g M M g g g g g g g g g g g g g g g g g g g g g g > > g g g g f f f f f f #.  | { b { | { T H H H H H . ",
". = = + + + + + + # , % & 1 4 3 3 3 3 =     $.g g g g g g M M g g g g g g g g g g g g g g g g g g g g g g > > > > > g g f f f f f #.  ..| } { | { ! H H H H I . ",
". + + + + + + + + # % & & 4 4 3 3 4 = *   $.$.g g g g g M g g g g g M g M g g g g g g g g g g g g g g g g > > > g g g g g f f f f #.  o. .{ / | } R 6 7 7 7 H . ",
". + + + + + + + + $ & * 4 = 4 3 1 3     $.$.g g g g g g g g g M g M g g g g g g g g g g g g g g g g g g > > > g > g g g g g f f f f   o.| ) )  . .u w H H 7 = . ",
". + + + + + + + $ % * 4 4 = 4         g g > > > > > g g g M g M M g g M M g g g g g g g g g g g g g g > > g > g g g > g > > > > f     | | | ..O.O.u _ U H H H . ",
". + + + + + + $ $ & = 4 4 4   $.      > >   > g > > f g g M g M M g g M M g g g g g g g g g g g g g g > > > > g g g > > > > > > g g g   | O.O.O.O. .d T H H H . ",
". + + + + $ $ $ % * 4 = 4 4     f f f       > g > > > f M g M g M g M M g g g g g g f f f g g g g g g g g > g g > > > > > g g g g g f   G O.+.O. .` ~ R I H H . ",
". + + + + $ $ $ & 4 4 4 7   $.g f f   %.%.    > > f > f g g M g M g h h h h f f f f f f   g g g g g g g g g g g > > > g > g > > > g g     O.p O.} ! ! R U H H . ",
". + + + + % # & % 5 < 6 4   $.f f f     %.    f f f f f g g g g f h h g M M f f f         h g g g g g > > g g > > > > > > > > > g > g g   u p G ` Q ^ R J V B . ",
". + + + # % < % * < < 5   $.$.g         %.    f f f f f g g f f f M g M M g g f     %.%.  f h h g g g g > g g g g > > > > g > > > > > g     F | { ~ ~ E J N y X ",
". + + + # < % * & 1 2 2   $.M f   %.  %.%.%.      f f f g f f f f f f         f   %.%.%.      h h h g g > g g g g > g > g > > g > > > g g   ) { ` ) ~ Y B x k X ",
". + + + % # % $ % % 1   M M M f   %.%.%.%.%.%.&.      f f f f @.- - - - - -   f f f   - - - - - h h h f g > g g > > g > g > > > > > g g g g   ` [ / Y U Z x k o ",
". = + $ p % % % & <     g g > f     %.      %.%.%.%.    f f @.- -   $.$.$.$.$.f f f f f f f f   - - h h g g g > > > g > g > > > > > g > g g     | ~ Y Y Z V N X ",
". p 9 $ % & & $ % *   g g > > f         f     %.%.%.&.  f f @.- -   $.f f f f f f f f f f f f f - - - h h g > > > > g > g > > > > > g > > g g   | ( T Y K V N O ",
". + = w % % % & & 6   g > > > f f f f f f f       %.    f   @.- -   f f f f f f f f f f f f f f - - - f M > > > > g > > > g g > > g > > > > g    ._ ~ T K B B . ",
". + + $ < % % & & & g g g > > > f f f f f f f f       f f   -     $.f f f f f f f f f f f f f f     -   f > > > > g > > > g g > > g > > > g g g .._ ( ! Y H V . ",
". + + % < < % % %   g g > g > f f f f f f f f f f f f f f   -   $.$.f M M f f f f f f f f f f f f   -   f g > > > g g > > g > > > > > > g > g g   | ( ~ E 9 H . ",
". + + % < < < % 1   g g M g M > f f f f f f f f f f f f g @.-   $.f M M g M f f M f f f f f f f f   - -   f g g g g g > > g > > > > > M g M g g    ._ ( ( 9 7 . ",
". + + % < < < % 1   g g M g M > f f f f f f f f f f f f g -   $.$.f f f M M f f M f f f f f f f f f   -   f g > > g g f f g > > > > > M g M g g    .` ( ( T I . ",
". + + % < % < % 1   g g g g g M g g f f f > f g M > > g g   $.$.f f f f f f f f f M f f f f f f f f f     f g > > g f f f f f M g g M g g g g g   | ` ` _ R I . ",
". + + $ % % 1 < %   g g g g g M g g M M > > > g g > > g g   $.$.f f f f f f M M M M M f f f f f f f f     f g > > g f f f f f f g g M g g g g g   o.| | ] E U . ",
". + + $ % % < % *   g g g g g M g g M M M M M g > > > > >   $.$.f f f M M f f f f M f f f f f f f f f     f > f > f f f f f f f f g M g g g g g   O.O..._ T U . ",
". + + $ % % % % *   g g M g g g g g M M M M M g > > > > >   f f f f f f f f f f M f f f f M M M f $.$.    f > f f f f f f       f g g g g M g g   +.O.| / Y K . ",
". . . X o @ a O D   g g M g g g g g M g M M M g > > > > >   f f f f f f f f f M M M M M f f f M f $.$.    f > f f f f f     %.    f f g g M g g   + + @ @ @ X O ",
". H H V B S J Q '   g g M g g g g g g g g > > > > > > > >   f f f f f f f f f f M f f f f f f f f $.$.    f f f f f f f   &.&.%.    f g g M g g   = = = * % % . ",
". H H V H J Z P `   g g M g g g g g g g g > > > > > > g g -   f f f f f f f f f M f f M M M f M f $.  - f g f f f         &.&.    f f f f M g g   = * 4 * & s . ",
". H H H F H J L Q   $.M g M g g M M g g g > > > > > > g g - -   f f f f f f f f f M f f M g M g $.  - @.f f f f     &.    &.&.&.    f f   g M h     * 4 & < % X ",
". H H H B n m L W   $.M g M g M M M g g g g g g g g g > >   -   f f f f f f f f f f f f f M M $.$.  -   f > f f   &.&.&.&.&.&.&.%.    f   g M h     4 1 1 % % O ",
". H H B n x x S W ^   $.M M M M M M g g g g g g g g g f f   -     f f f f f f f f f f f f f f $.    -   f > f     &.&.&.&.    %.%.%.  > M M h #.#.  = 4 * % $ . ",
". H H B n x c n L W   $.M M M M g g > > > g g g > > > g f   - - -   f f f f f f f f f f f f f $.- - @.  f > g f                       > M M h f #.  = 4 & % $ . ",
". H H B N n c c Z W   $.M M M M g g > > > g g g > > > > f f - - -   f f f f f f f f f f f f f $.- - @.  f f > > > f f f f f f     > > M M M h f #.  4 = % $ $ . ",
". H H B x x k l L `   $.g g g M g g g g g > > > > > > f f f - - -   f f f f f f f f f $.$.$.$.  - - @.f f f f > > > f f f f > > > > > g g g h f #.  1 & % $ $ X ",
". H H N x k j z ^  .O.  M M M g g M g g g g g g > > > > f f f - - - - - - - -   - -     - - - - - @.f f f > > > > > f f f f > > g > g M M M f f f   1 % $ + + . ",
". H H B y x x S _ ..O.    g g > > > g > > g > > f f f f f f f     - - - - - - f f f f f - - - @.  f f f f f f f f f f f > > > > M f M M g h f f     % % $ + + . ",
". H H B N N B T ] | o.o.    g > > > > > g > > > f f f f f f f f f f f f f f f f f f f f f M M f M M f f f f f f f f f f f f > > f f f h h f f     1 % $ + + + . ",
". H H B N N J E ` ] | ..|   g g > g > > > > > > > > f f f f > f f f f #.  %.      f f f f f f f f f f f f f f f f f f f f f f f f f f h   f     1 1 % % + + + . ",
". H D B N N J E | |  .| {     g g > > > g > g > g > f f f > > > f f f     %.%.  f f f f M M f f f M f f f f f f f f f f f f f f f f f h       * 1 < % # + + + . ",
". H H B N N V R { }  . .| |   g g g g g g > > > g > f > > > > > f f f   %.%.%.  f f f f f f M M f M f M f f f f f f f f f f f f f f h       = 4 % , % # + + + . ",
". H H H B N B U ! / }  .| |   g g g > > > > > > > g > > > > > f f f   %.%.%.  f f f f f f M M f f M M f M f f f f f f f f f f f h h M   4 = * & % % % + + + + . ",
". H H H V N N J P Q { | ` ` /         > > > g > > g > g > >         %.%.%.  f f > f f f f M M f f M M f M f f f f f f f f f f $.      4 4 4 & % % $ + + + + + . ",
". H H V N x B J k ^ { | ` / v P J J J   g g g g > > > g >   %.%.%.%.%.%.  f f f f f f f f M M f f M M f M M f f f f f f f f $.  3 4 4 b & & & $ + + + + + + + . ",
". H V N x x B J R ` | F ` Q W ^ P L Z   h h g g g g > > >         %.%.%.%.  f f f f f f f f f f M f M f f f f f f f f h h   4 1 3 4 4 1 & % $ $ + + + + + + $ . ",
". H V B x x N J T _ ] ` { / ^ / ^ J Z   h h h g g > > > > > f f       %.    f f > f f f f f f f M f M f f f f f f f f h     4 k 3 4 & , $ $ + + + + + + + + + . ",
". I H V N N n B U ~ ~ ` ) ^ / { / L i   h h h h g g g > f f > > > > f     f f f f f f f f M f M f f f f f f f f f f h h   = 3 4 b & % % % $ + + + + + + + + + . ",
". H H H V B n x S L P ^ Q ^ / | ` T L       h h g g > > f > f f > f f f f f f f f f f f f f f f f f f M M f f f f h M f f   4 * & & $ # $ $ + + + + + + + + + . ",
". H H H H H N x n m m A A P { o.../ Y W Q Y     g g g > > > > > > > > f f f f f f f f f f f f f f f f M M h h h h f f       * & % % $ # + $ + + $ + + + + + + . ",
". H H H H V B n B Z z l c L { o.O.| ` ` _ Q Y K       > > > > f > > f > f f f f f f f f f f f f f f f M M h   f f f   4 * * & & % # # # $ + + + + + + + + + $ . ",
". I H H H H N c n B n c Z Q } ..X... . .| / W P K Y     > f > > > f > f f f f f f f f f f f f f f f f M             * & & & & $ % % # # # # + + + + + + + + + . ",
". H H H H H N N N N N S U T ( ] [  .| [ ] ) W W Q ) ]   f > > > > > > > f f f f f f f f f f f M f f M     5 2 1 4 * 1 1 % % $ $ % % # # # + + + + + + + + + $ . ",
". H H H H H V B B V B H K U T Q ( ) _ ) ^ / / ! / ] ..  f f > > > f > f f f f f f f f f f f f M f f M   4 4 3 4 4 * & % % % $ $ $ % # # + + + + + + + + + + $ . ",
". H H H H H H B B V H e S S Y Y Y ~ ~ ! W ! / / ) |  .  f f f f > f f f f f f f f f f f f f f f f f     * 4 4 1 * & % % % $ $ + # % # u + + + + + + + + + + + . ",
". H H I H H H B N N B B V S U U Y Y Y ^ ) ` ] y y u y y     f f f f f f f f f f f f f f f f f f   4 4 = = 4 & 1 & % # % $ $ $ p # # + + + + + + + + + + + + + . ",
". H H H H H H V d e N N B H H H H U Y q y p p p } t r P         f f f f f f f f f f f f f f f     1 1 2 1 & % % # + # # + + + + + + + + + + + + + + + + + p + . ",
". H H H H H H H V B B V V H H V N S 0 0 E ] [ ] | ` t t / { ^ /   f f f f f f f f f g       4 4 4 1 1 1 % % % % # + $ + $ + + + + + + + + + + + + + + + + + + . ",
". H H H H H H H H H H H H H H D V V B N N Y v / ` } / y ) ^ W Q ^                   4 * 4 1 4 4 * % % % % % # + # $ + # # + + + + + + + + + + + + + + + + + + . ",
". H H p H H H H H H H H H H H H H V N k z x Z Y ~ / ^ r ^ Q P W Q Q ~ ^ / ` _ @ 1 1 1 * * & 1 % 1 % : : # + # # + + + + + + + + + + + + + + + + + + + + + + + . ",
". H H I H H H H H H H I I H H H H H B N x x x N K Y Y O w r J P T U R E Y W T O & & < & < % < % < < : : # # # # + + + + + + + + + + + + + + + + + + + + + + . . ",
". H H H H H H H H H H H H H H H H H H V N x x v B J J . 8 9 0 Y T R T T Y T T O % % & < < % % % , # # : # # # # + + + + + + + + + + + + + + + + + + + + + + . . ",
". H H H I H H H H I H H H H H H H H H H V B B B V H H 7 . 6 8 U U T U T T T R O $ $ % % % % $ $ # # # # + + + + + + + + + + + + + + + + + + + + + + + + + . . . ",
". I H H H H H H H H H H H H I G H H H H H H H H H H H H . . 7 7 I I I I I I I . $ $ # $ # $ + + # + + + + + + + + + + + + + + + + + + + + + + + + + + + + . . . ",
". H H H H H H H H H H H H H H I I H H H H H H H H H H H H . . 9 7 7 H H H H H . + + + + + + + + $ + + + + + + + + + + + + + + + + + + + + + + + + + + + . . . . ",
". H I H p H H H p H H I . . . H H H I H H H H I H H H H H H . 9 7 7 7 H H H H . + + + + + + + + + + + + + + + + + + + + + + + + + + + + + + + + + + + + . . . . ",
". H H H H I H H H H H . . . . . . . . H H H H . . . . . . . . 7 7 7 7 H H I I . + + + + + + + + + + + + + + + + + + + + + + + + + + + + + + + + + + . . . . . . ",
". . . . . . . . . . . . . . . . . . . . . . . . . . . . . . . . . . . . . . . . . . . . . . . . . . . . . . . . . . . . . . . . . . . . . . . . . . . . . . . . "
};
