/* XPM */
static char *result[] = {
/* columns rows colors chars-per-pixel */
"20 40 3 1 ",
"  c black",
". c #998200",
"X c #F0D239",
/* pixels */
"  ............XXXX  ",
"  ............XXXX  ",
"  ............XXXX  ",
"  ............XXXX  ",
"  ............XXXX  ",
"  ............XXXX  ",
"  ............XXXX  ",
"  ............XXXX  ",
"  ............XXXX  ",
"  ............XXXX  ",
"  ............XXXX  ",
"  ............XXXX  ",
"  ............XXXX  ",
"  ............XXXX  ",
"  ............XXXX  ",
"  ............XXXX  ",
"  ............XXXX  ",
"  ............XXXX  ",
"  ............XXXX  ",
"  ............XXXX  ",
"  ............XXXX  ",
"  ............XXXX  ",
"  ............XXXX  ",
"  ............XXXX  ",
"  ............XXXX  ",
"  ............XXXX  ",
"  ............XXXX  ",
"  ............XXXX  ",
"  ............XXXX  ",
"  ............XXXX  ",
"  ............XXXX  ",
"  ............XXXX  ",
"  ............XXXX  ",
"  ............XXXX  ",
"  ............XXXX  ",
"  ............XXXX  ",
"  ............XXXX  ",
"  ............XXXX  ",
"  ............XXXX  ",
"  ............XXXX  "
};
