/* XPM */
static char *result[] = {
/* columns rows colors chars-per-pixel */
"160 20 3 1 ",
"  c black",
". c #998200",
"X c #F0D239",
/* pixels */
"..                                                                                                                                                            ..",
"..                                                                                                                                                            ..",
"    ........................................................................................................................................................    ",
"    ........................................................................................................................................................    ",
"  .......................                                                                                                               ......................  ",
"  ............................................................................................................................................................  ",
"  ............................................................................................................................................................  ",
"  ............................................................................................................................................................  ",
"  ............................................................................................................................................................  ",
"  .......  .........................................................................................................................................  ........  ",
"  .......  .........................................................................................................................................  ........  ",
"  ............................................................................................................................................................  ",
"  ............................................................................................................................................................  ",
"  ............................................................................................................................................................  ",
"  ............................................................................................................................................................  ",
"  ............................................................................................................................................................  ",
"  .............XXXXXXXXXXXXXXXXXXXXXXXXXXXXXXXXXXXXXXXXXXXXXXXXXXXXXXXXXXXXXXXXXXXXXXXXXXXXXXXXXXXXXXXXXXXXXXXXXXXXXXXXXXXXXXXXXXXXXXXXXXXXXXXXXXXX...........  ",
"  .............XXXXXXXXXXXXXXXXXXXXXXXXXXXXXXXXXXXXXXXXXXXXXXXXXXXXXXXXXXXXXXXXXXXXXXXXXXXXXXXXXXXXXXXXXXXXXXXXXXXXXXXXXXXXXXXXXXXXXXXXXXXXXXXXXXXX...........  ",
"  .............XXXXXX                                                                                                                        XXXXXX...........  ",
"  .............XXXXXX                                                                                                                        XXXXXX...........  "
};
