/* XPM */
static char *result[] = {
/* columns rows colors chars-per-pixel */
"80 80 4 1 ",
"  c #0B0A0A",
". c #151313",
"X c #222121",
"o c #2F2C2B",
/* pixels */
"o                  oooooooooooooooooooo  oooooooooooooooooooo                  o",
"  XXXXXXXXXXXXXXXX  ooooooooooooooooooo  ooooooooooooooooooo  XXXXXXXXXXXXXXXX  ",
" X XXXXXXXXXXXXXXXX ooooooooooooooooooo  ooooooooooooooooooo XXXXXXXXXXXXXXXX X ",
" XX XXXXXXXXXXXXXXX                                          XXXXXXXXXXXXXXX XX ",
" XXX XXXXXXXXXXXXXX ........................................ XXXXXXXXXXXXXX XXX ",
" XXXX XXXXXXXXXXXXX ........................................ XXXXXXXXXXXXX XXXX ",
" XXXXX              ........................................              XXXXX ",
" XXXXX .................................................................. XXXXX ",
" XXXXX                                                                    XXXXX ",
" XXXXX .................................................................. XXXXX ",
" XXXXX .................................................................. XXXXX ",
" XXXXX .................................................................. XXXXX ",
" XXXXX                                                                    XXXXX ",
" XXXXX .................................................................. XXXXX ",
" XXXXX .................................................................. XXXXX ",
" XXXXX .................................................................. XXXXX ",
" XXXXX                                                                    XXXXX ",
" XXXXX .................................................................. XXXXX ",
"  XXX  ..................................................................  XXX  ",
"o     ....................................................................     o",
"ooo                                                                          ooo",
"ooo ........................................................................ ooo",
"ooo ........................................................................ ooo",
"ooo ........................................................................ ooo",
"ooo                                                                          ooo",
"ooo ........................................................................ ooo",
"ooo ........................................................................ ooo",
"ooo ........................................................................ ooo",
"ooo                                                                          ooo",
"ooo ........................................................................ ooo",
"ooo ........................................................................ ooo",
"ooo ........................................................................ ooo",
"ooo                                                                          ooo",
"ooo ........................................................................ ooo",
"ooo ........................................................................ ooo",
"ooo ........................................................................ ooo",
"ooo                                                                          ooo",
"ooo ........................................................................ ooo",
"ooo ........................................................................ ooo",
"    ........................................................................    ",
"    ........................................................................    ",
"ooo ........................................................................ ooo",
"ooo ........................................................................ ooo",
"ooo                                                                          ooo",
"ooo ........................................................................ ooo",
"ooo ........................................................................ ooo",
"ooo ........................................................................ ooo",
"ooo                                                                          ooo",
"ooo ........................................................................ ooo",
"ooo ........................................................................ ooo",
"ooo ........................................................................ ooo",
"ooo                                                                          ooo",
"ooo ........................................................................ ooo",
"ooo ........................................................................ ooo",
"ooo ........................................................................ ooo",
"ooo                                                                          ooo",
"ooo ........................................................................ ooo",
"ooo ........................................................................ ooo",
"ooo ........................................................................ ooo",
"ooo                                                                          ooo",
"o     ....................................................................     o",
"  XXX  ..................................................................  XXX  ",
" XXXXX .................................................................. XXXXX ",
" XXXXX                                                                    XXXXX ",
" XXXXX .................................................................. XXXXX ",
" XXXXX .................................................................. XXXXX ",
" XXXXX .................................................................. XXXXX ",
" XXXXX                                                                    XXXXX ",
" XXXXX .................................................................. XXXXX ",
" XXXXX .................................................................. XXXXX ",
" XXXXX .................................................................. XXXXX ",
" XXXXX                                                                    XXXXX ",
" XXXXX .................................................................. XXXXX ",
" XXXXX              ........................................              XXXXX ",
" XXXX XXXXXXXXXXXXX ........................................ XXXXXXXXXXXXX XXXX ",
" XXX XXXXXXXXXXXXXX ........................................ XXXXXXXXXXXXXX XXX ",
" XX XXXXXXXXXXXXXXX                                          XXXXXXXXXXXXXXX XX ",
" X XXXXXXXXXXXXXXXX ooooooooooooooooooo  ooooooooooooooooooo XXXXXXXXXXXXXXXX X ",
"  XXXXXXXXXXXXXXXX  ooooooooooooooooooo  ooooooooooooooooooo  XXXXXXXXXXXXXXXX  ",
"o                  oooooooooooooooooooo  oooooooooooooooooooo                  o"
};
