/* XPM */
static char *result[] = {
/* columns rows colors chars-per-pixel */
"80 80 39 1 ",
"  c #01010A",
". c #09030F",
"X c #070210",
"o c #0C0413",
"O c #0F0814",
"+ c #0F0319",
"@ c #120515",
"# c #190517",
"$ c #120816",
"% c #190817",
"& c #14051A",
"* c #1B061B",
"= c #15091A",
"- c #1B0A1D",
"; c #22061E",
": c #29071F",
"> c #220A1E",
", c #29091E",
"< c #160420",
"1 c #1C0621",
"2 c #1E0B21",
"3 c #230721",
"4 c #290722",
"5 c #230C21",
"6 c #2A0C22",
"7 c #2B0F29",
"8 c #300B24",
"9 c #241124",
"0 c #2A1126",
"q c #2D1329",
"w c #31152C",
"e c #46344C",
"r c #4B354D",
"t c #4D384F",
"y c #50354E",
"u c #4E3951",
"i c #533651",
"p c #533A52",
"a c #583C55",
/* pixels */
"                                                                                ",
"                                                                                ",
"                                                                                ",
"                                                                                ",
"                                                                                ",
"              @@#oo.oO$$@##ooo$$#;;;**%@@@@*#%@.@=%$$$+oOXXX.X$-++              ",
"             @@@#%%#O=-%=;#@ooO@@%*-**=#@&%;>*%@$$$oO&&&+XOXO$22&oo             ",
"            @@r.o=&&&->>*>*%o.$&&#%%%>-&***>4>%..%o.O==u22==$292&oo&            ",
"           >=OOoO%%-*35>>>>*#.#%%%&##*>*1**396;%#%@$2229099-922==$+==           ",
"          5>%@@@%%54>96>>>64#o$*%*#@@*>-&**566>-*-=-0099q92--922<=$=&o          ",
"         ;>>*%#*-9,555>4:,66-%###@@@@&*&*1454>>;-*-909--22-$$2922=OXOOoX        ",
"        *,,,;%%*>5>>>>>54488,>:*@@@@o&***564*;>>*&-95=O@--=$O$222=+O+++X        ",
"       @%;;*%%%%;*-*;>;->466644*@#@@@@#%>44;#&*>-=-55-%o<=====299u$+<<+o.       ",
"      XO**##%%%%%#%>44;>*44>644*@#####;*%;**@@&>3u=50>%#-2=u2==22-=222+ooo      ",
"      Xo**%@###*;@&*>444334>44;****;;****&@o@@&>>-=56>%&&$$==$$=1=$296=++&      ",
"     ooO&*&@##%%#@@%*;44454484;****3;*#*@oo.o@%49>>>>--==&=======$&1602&O&      ",
"     ooXo@&@**&&@@.@@#;:4443:4*&*331*@@@@. ..O%>,>-;%---=$$&-2-%=%=*4a2+Oo      ",
"     OoXo@@@***@o..o@y;:334;;;***33*+o@@#....O%9>%%---9%%OO+=5>&O&&=-2<+oX      ",
"     oXoo@@#&**&@o####;;3334:;*%*3<&oo@#;@o@%%>,>%%%992-=$OO&-%$oO=&-1=oXX      ",
"     oXo**;**&**@@###*;*;3333>**;*&+++#*#@@#>,,,>%$----===$$O@%=t=&==<&+oo      ",
"     oX+*3;;*&#####@@**i;*3124-p31*&&&-*@o#;,,66>%$$$$-2259-&&=->-=@O&@oXX      ",
"     +++@&*&#@@##;#@o@*:3;1135433311---;#o##>6669$OO$$=250952%->9-*$o+&ooo      ",
"     +++o@@&@&@**;#@@@;:31*137533243>-;-%;;*>6>9>$OO$$--599-92---*%=+@@@o@      ",
"     +++o@&&@@&*##@@#*;***3231331-55*u-;,954,9>-%%$$o$-255---2--=@O@&&&&&&      ",
"     +++++&&++@@*#@@%%**&&**1*--*22%&-->999909%%$==$$=-992%--===OXX$=%&&@@      ",
"     +<++<+<+++&#*##&@&%**;111**i*3%%3>p99-99,%Oo$=-%>99959-=$==$X.O&%*@&&      ",
"     &++<<<<@+o@&@@@@oo%*1*323*&&*1->9>*9O=a>%$Oo$$-2999-599-=$+OX..#*@@**      ",
"     +++&11<@@@@++@**$@@***3323*&&$=--%$OO$=%O...o=-9999999>99-$O$Oo@@oo@&      ",
"     +++*<1*&@@.oo&;3-@o&**11231=@.O$OO.$-=$OXX .O259qqqq0999q6%@...o+++oo      ",
"     +++<&@+&@o..@#;>*%%*%&&&<13*%.O$OO$$99$OOXXX$225qwwq9>>909-@...o&&@oo      ",
"     &++*&++++oo@#*#-->;;#@&++&1*=OO$%OO$--$$=OOO-2229006,9>996%@...+&&@@o      ",
"     &+&&@++&@oo@**@=->>*#&=+O&&=&OO%%$OO$9==9=$-99=t-9-->>9609-@ooo@**ooo      ",
"     <++&&+&&&+oo@@@&->-----=&&======$O$=9929999999999922=22-299=@o@%**@o.      ",
"     <e++@&&&&@ooooo@-----352=-$&&1=$$$-29229q99999qqw92=929=-,9>=OO*;i*#@      ",
"     &+++@&&++++@@.oo-5>2-5>2--&@&=-$@&====99999999www99=992%>699$oo@***%#      ",
"     ++++&<&++@@@@..o*>>>----*=&+&-=#oooOO$-=9999=99ww999922>9,9>%oor*&**#      ",
"     +++&<1&@&@*@....%>>----=&--==2-$$OOOX=$=299u==9q99999-%>55%-=$=**3**&      ",
"     +&+&13&@&&&@.o..%--%%&&--35599----$$$<22=999=29999999%$>99-----;;;&@@      ",
"     +++*3*&@&*@o.o..@%%@o@&=255999=-22$$==99=2992===2==-99=-95-293**3&oo+      ",
"     ++&*1<@@***@ooo....oo@$=122222==22$$=292=229=22229=-=2--$-525-***@oo<      ",
"     ++&<*@+@&**@.@@oo.oo#--&&1225-==22==22===2222292222-$22=u=2--=@%*&o@&      ",
"     @&<<&++@&&o@o&*@...o@&-$+25952=22222O$$O===$=2=++==$O==2--221-=;;&+o@      ",
"     &<<<@&<&&@+oo&*;@@ooO&=&+19662$2222<$+$O+OOOO===+=<=2==>52=$==t***@&@      ",
"     &*&<+&&&*&@oo@*#@###@&&=&=<22===29-O++++OOOO====222222299-=$@&&@@@@@@      ",
"     ++&<+++&&&ooooo...@#or&&+++==O+$<=++o+XOOO===2992=<==-2--$t@@oo..o@..      ",
"     oo+++++&<<+ooX.....o@O@Oooo+oo+O+oXXoXXXoO=22=99u=OO$===$Oo@@o...@@..      ",
"     +o++++&<<&+oo..o...oooooooooooOOOXXXOO+OOO==$O2=$$+++$===$ooo...ry@.o      ",
"     +++++&*<*++@o......ooo@&oXo+o+++OoXXO===O+==OOO=O$$OO%9>--$o.o.@**@@o      ",
"     ++++&&<<*&+@..    Xooo&*@.Xooo+&ooOOO===O=$OO$$@&$==%5066>=.@@.@####@      ",
"     ++&@&<<<1&+......XoXo*;;@oo+oXo+OO$Ot<O++=$OOOOO@=---3686-%.###..##;#      ",
"     +++@@&+&&&+....ooo@o+**%&OoX+XXXoo====+OO=++OXXoO$%%=%>44,%###@..@#*@      ",
"     ++++oo+++@+....oo@@o&&*&OooooooXX.o=OO+O$$OOOXOO@@&#&&*>;*##:#.@###*&      ",
"     @++++++oo@+@@##.@@#@&&-%&@@@&&Oo..oO++OO$$O+O++=-%&@&&*&@%*#;;##;***@      ",
"     +<+&<++++@o.@#@#@@@&&*>*%*333&&ooX@==+OOooo+O$==-*%@***###;;;;:::**@@      ",
"     +<<<<+++&+o...@@@@@@&1,*&*685-i%Oo=-%$Oo..o+=O$%#%%*****@@*;#;:8:;&@@      ",
"     +&<<<+++&<&@.@@@@.@@@**#@@;45>3%$%&%&&OoX XX<=+@#&&*#@*&@#*###;;;**&@      ",
"     ++<<<++<&<<<++@.@##@y@#@..#%-*-->>%#r@o.. o@=&@@o@&*#******##@@*1:;;*      ",
"     <<<<<<&&<&&&&oooo@#@.@@#@.@@@%*;66>#@.#. .oO&&ooXoo#**;;;***&@@*;:4:%      ",
"     &+<<<+<&*<&+eo.o..@.y###..#-;*;>,,>#.o##..o&&ooooXo@********&+@@i:3;*      ",
"     +<<&++<<<<+oX..@@@....@#.@#,6>*$$%%@o@#@...OO@@&ooo##@@&@&;1&@@***3;*      ",
"     &&<<&&<&**&oo.ooo@o@..#@.#@;:;r.@@#@.@@o...o.o%>%o@**%@@@@*%1*&&**1**      ",
"     &<<&&*&<<<&o@.ooo@o@..###@@@;;#@.@@..ooo@.ooo#46>#O#%%%&*@@%-1*<***<&      ",
"     1<<<<<&&&*@ooo.@@###.###;#.@#;;#o@ooo@@#@o@@@&,8>-%%----&&@#-3;;*;3*<      ",
"     2<1<<&<<<<@@@@@@@#;#@####;@@.@#@@##@@r@@###@@%>6609a3->--*&&-43;3232*      ",
"     2<=1121<1**&&**@@@*&@@@@#;#o.@@@@#**@&@&-&--&%->60w05=--221=5522-*1-&      ",
"     31&<<=<12121&;*&oo@&@@..@*#@..@@@**&&&*--%-5555459521%--396266333;1**      ",
"      2<<<<+=<1****&@oo+*;#oo@*@@@O@@@**&&<;>5--50w65>5211-*>6q79553443**3      ",
"       <<<&<&&+$@**&++o@*i*@@**#@@&&***&&*;3353-505-%-53-;;*>677522-33-&-       ",
"        <1111<+o@@-&+oO&**&&@*;*&&**3-*&<&*;33-2222$&-65233>>0wq01-->-=&        ",
"         22752=+@#=+oo+&232&&*4*$=344>-&r&&*;>-5--===-64533-%46qq2-5>%=         ",
"          3732==-2=$oo+&2362*&-*&<33-3>**@@*->592$$=1552351-%46q0222-&          ",
"           21222565<+O$&=332&&@&=163->--**@&3555-$$-25-1263**>592<--&           ",
"            %2222991===$=-%&&+o+=6621*----<&2532$$=11u$<2221-55-====            ",
"             -9522=1121$=&#&*&+$-55p**---==*352=====O$=1-22-p---===             ",
"                                                                                ",
"                                                                                ",
"                                                                                ",
"                                                                                ",
"                                                                                ",
"                                                                                "
};
