/* XPM */
static char *result[] = {
/* columns rows colors chars-per-pixel */
"80 80 47 1 ",
"  c #03010B",
". c #0A040D",
"X c #0F080E",
"o c #11070C",
"O c #13090C",
"+ c #1C0C0B",
"@ c #0B0510",
"# c #140910",
"$ c #2D060D",
"% c #240E0C",
"& c #2B0D0C",
"* c #31070E",
"= c #330B0D",
"- c #3B0E0D",
"; c #25110C",
": c #2C110C",
"> c #34120D",
", c #3C110D",
"< c #380910",
"1 c #3D1310",
"2 c #32242D",
"3 c #3E2B2F",
"4 c #410F0F",
"5 c #44130E",
"6 c #4A140F",
"7 c #430F10",
"8 c #451411",
"9 c #4B1311",
"0 c #4C1812",
"q c #531511",
"w c #581612",
"e c #511F1E",
"r c #51201F",
"t c #5F201E",
"y c #63211F",
"u c #492B2D",
"i c #502021",
"p c #592726",
"a c #572826",
"s c #5E2827",
"d c #51212C",
"f c #422C32",
"g c #422F3A",
"h c #42303B",
"j c #622120",
"k c #3F3344",
"l c #423446",
/* pixels */
"77-->-45445,,55665996664664<==,55566566455556566699994=--44669996555666566666564",
"996,=-,5556556t666564965994-=>,,5666666566qqqyqqqqqqq6-==55666996656qqqqqqwqqqq4",
"9q6,=&=-55666q665,,,4--,&&$o..ou%%&,66666qq66666669999-$==,,5665666qq66666966q66",
"6q6-===56qqwqq54===**ooo+o+ . .oo+:>6666q6654,4,44<44-*$$===,46666q6555,-4<4-,5,",
"9q9-**-6qqqwqq,==&$$  XO      . .O:,5qqq65,==&=&*=====$$$$==,66qqqq55>:>==*===--",
"9qq-==,6qwwjw6,=&&$  X   .      o+>8550w5&+o. $&$$$$=$$$$$==5qqwwq65=>:>*====*,-",
"9q9-*=-6qwwwq>%O..X X    ..     X%>80065,:o  ..O$$$$$$$$$$=-6wwwqq6,,,,,,,,-==,4",
"9q9-==-6qwqq088+O+++OOX.        o&100808,%ooo.    o$$$$i$$=,666665,555556665--54",
"6q6,==,6wwq08,:;+;;O..XX@@##XXXX+%,890881%OX+Oo  .   @  ..O%,080881>66556qqq6555",
"6q65=>,6qw80881:%;++ .....     .X&,888981%+o+++ .   .. . ..%,080011>>6,55qqwq554",
"6q65>=,6w8800011,:%+O   . .. . ..%1880881>&:%%+.   ...  . X%>889005>>>5556qwq655",
"4qq6,>>518008018>:+o. . . ..  ..X%>18880881>:++o   .     ..%>888508111555qqwq654",
"46q66,5>>,00181>&+O .    .  @ @ .+:,5508885>:+o.   ..     X+:,880a65,,>566wwq66,",
"46qq00,>>,11,,>:%...      .   @ .o+:,,5511>:+o .@k  .. .   f+:>86511,>>56666qq64",
"556qqq1088>111>;O.   @@@    @   ...+:>,>&%%+o.  .    .      O+%>,>>>>>;,,,5546q7",
"5656qq88008811,;o@     @   . @     OO+%+OO.. .  .@     .  .  .o%;;;>>>:====:45t6",
"5666q665088881>+o        @  @       .oo.       @  .         . ..OO+:>a;+&$$=-566",
"9665q650080881&O     3..  @      .             @  .  .. .    ..  .O+;;;+&&$$=-66",
"9q5508508855>:+.   .        @   .        .     @.   .              o+;++&$$$*466",
"695-,>>,,,,>:+O..     . @@  @.  .      .   . .    . . .         3 . O+OO=$$$*466",
"66,==%%%%&%%+.@   .   .k       l..           @.  .      @  @   ...   .o $$$$$-66",
"45,=*.o.o..X..  ..      @    @@   .    .      .         .@        .     $$$$=-64",
"4,==$     .  .    .             @  ..       .  ..           .    .      $$$$=-66",
"-,=$$     .     .      @   @ @       l  ...  . .             . .        $$$$=-65",
"====$                   .      @         . ..        .@ @   @            $$$=-69",
"---=$            .        .  @  k.     l.  ..             @   .          $$$--69",
"4944=.                 ..    @      .@@    l .            @          .  .$$$*46-",
"9q64=.                     .               .         @ . @ ...            ****--",
"9q94oo              ..   .     @           .         @ @  @  ..            $$$==",
"9q9-ooX            .                .    .           @@@@.  .              $*&==",
"9q94oOo @         .   . .                         @       .  .       .  .  $*=-r",
"999-ooX @            . .  .          .           .@ l    @  .@@      .     X==,4",
"6q65.O X  . .             @    @          @.   .          @   .   ..ooOX..oO=,54",
"9q6-= kO++++o.        .             .   .@   @@  @@@@@ @ @ @   . .o++;u;;%++=,66",
"9q64=. oO++%+o        . @ @  @            @ @  @  .   @      @ @.X+&>,,,11>>-569",
"9q6,=  .O+%:;+O      ..                       @     @     @    .o+&>p555855,5699",
"9qq4>= ..O;><:+.       .   @                  @ l @ @  @     . .#&,8080808806597",
"4qq6,=o.O+:,1>%X              @ ...  .         @    @ .     .  .+>888808888q0566",
"496655;;;:>,8>%O              @  .    .  . ...           . . .@X;1890805880jq656",
"466qq6,,,,,588&+      .       @                .@   @  @. .    XO>888855880q6656",
"4666qq58888888>+.        .       .   @        .  ..   . .    l @+:,851,,,,6q6664",
"6666yq80098888>%o               .       @          @           @O;,18>;;%%e5qq94",
"9966qqw8888081=+o   .            @                           .. O+,r1:+Oo+=,6qq4",
"9665qwq9880581:O        .           @       .         . .  ...  o+;>>;+..O*-56q9",
"96556qq65555,&+o          3.                  .  @   .      @  l ++;:;+O.X$=-6q9",
"965,,99>>,,>:+o                                    @.k            o++++O.$$=-9q9",
"66,==--%%%%++o                                                    .OO3fo $$$4qq9",
"46-=*=Ooooooo                               .   .          .  .      O.  $$=<9q9",
"4,==$$    .                                        .      ....        .  $$*-6q9",
"--=$$$  .    .                         . h       .   .   .  ..   . .     $$=49q9",
"==&$$                                                        ..          $$=-9q9",
"==*$  .                    .                                              $=-9q9",
"--=* .        .                               .                .     .  o $=56q9",
"484=              .          .                   .         .   .   ..  .o *=-697",
"794=.               .      .   ..  h   .                .   .     .. .  . $d----",
"96,o                            .. .             .  .          .          *$$*=-",
"66,o               @    @3            .  3.              .    @  .      .  $==--",
"55,.. . @                          . ..    .              .    @     ....o $$=,4",
"56%o             3       l      .   ..@         .                 ..ogooo..&=-46",
"96;o     @@@         .           ..                 .   .       . o+%%%%%&:==,66",
"64$o  .oO+OX@@             .    @ @3                    .. .    Xo+&>111,,1:,566",
"66-o  oO++%+@@              . .                     @    .  .   oO&,188855115666",
"564O. .O+;:&+o..      .           ..       .       .           .O:18888088086566",
"965+....O%>>&+oXo     .   .  .        ...og        .. ..l  .. @.+>19988080806666",
"9q6&+XoO+;>>>;;;++..                ..O++%+O..  .   .  @..     o%,88888088000665",
"666>:&%%;;>>>>>>>;+O          . .  ++%;:>>>&+O . .    @ .    .XO;,08808866000655",
"46qq1,,>>>>>51155>:+o.   .        o+;>,,885>:+O  ..  @       .O+:>,88811,556qq55",
"-46w05,,>>>1650085,:+.   h . .   o+;>5558088,:+.X .       . .O+:>>,8111>>>556005",
",66wq88>>>155888881>+O           +%:>,,888988>%o    .  . . .X+:,>>115>>1>,-56qq7",
"556wqw81:>>>,888680>%o  .      . ++;::>,s88081%#          ..O;:>>>>11>>15-==49q9",
"5556qw08:>>1>1506881%X.  .. . . .+++O+:,888881;#@ @   @   ..++%:;;;>>>>054==49q9",
"5556qwq01>1>>856008,%.     .     XOOXO;,809001:#.   @    . .O++O;;>>>>>55-=*49q9",
"5,,,4666555556wwwww6-=O   .      .o..o%,6006w6-*XXXX@2o#   @oOOOO:1,,5566,:=-6q9",
",,-=-,5,,,--56qwwwq6-=$$$       . .k o:,0wwwq6,=$$$$$$$$X#X#2O+O+>00qq6q65==46q9",
",>=$*==*===,46wwqqq5==$$$$*X..  . ..o+:6qwwqq6-=$$$$$$*$$*$$*$$$>,0qqwqq6,==46q9",
",,==*==*==>,66qwqq65=$**$$*==*&======,5qqqq665=**$$$$$*$$$$$**&*>56wwqqq6===<9q6",
"45-4--4-,546666q665,==*=*=<--5-,4---566qq0655,==$$$**=-==&**===-,56qqq665===-6q9",
"56q9669966qqq66665554-==*<696666999q6qt6566664,-<>&=*4-e-7-----466qq6655,===56w6",
"5qqqwqqqqqqw665666q655----9qqqqq9wqqyq6656609666,,==-49698966669qq656555,,--5665",
"49969999665455466666664-=-79999966666654546696467-==-49999996969655-55545--,5564"
};
