/* XPM */
static char *result[] = {
/* columns rows colors chars-per-pixel */
"80 80 5 1 ",
"  c gray3",
". c #0B0A0A",
"X c #151414",
"o c #232323",
"O c #312D2D",
/* pixels */
"O..................OOOOOOOOOOOOOOOOOOOO..OOOOOOOOOOOOOOOOOOOO..................O",
"..oooooooooooooooo..OOOOOOOOOOOOOOOOOOO..OOOOOOOOOOOOOOOOOOO..oooooooooooooooo..",
".o.oooooooooooooooo.OOOOOOOOOOOOOOOOOOO..OOOOOOOOOOOOOOOOOOO.oooooooooooooooo.o.",
".oo.ooooooooooooooo..........................................ooooooooooooooo.oo.",
".ooo.oooooooooooooo.XXXXXXXXXXXXXX............XXXXXXXXXXXXXX.oooooooooooooo.ooo.",
".oooo.ooooooooooooo.XXXXXXXXX.....            .....XXXXXXXXX.ooooooooooooo.oooo.",
".ooooo.......................                      .......................ooooo.",
".ooooo.XXXXXXXXXXXXXXXXX...                          ...XXXXXXXXXXXXXXXXX.ooooo.",
".ooooo.XXXXXXXXXXXXXXX..                                ..XXXXXXXXXXXXXXX.ooooo.",
".ooooo.XXXXXXXXXXXXXX.                                    .XXXXXXXXXXXXXX.ooooo.",
".ooooo...............                                      ...............ooooo.",
".ooooo.XXXXXXXXXXX.                                          .XXXXXXXXXXX.ooooo.",
".ooooo.XXXXXXXXXX.                                            .XXXXXXXXXX.ooooo.",
".ooooo.XXXXXXXXX.                                              .XXXXXXXXX.ooooo.",
".ooooo.XXXXXXXX.                                                .XXXXXXXX.ooooo.",
".ooooo.........                                                  .........ooooo.",
".ooooo.XXXXXX.                                                    .XXXXXX.ooooo.",
".ooooo.XXXXX.                                                      .XXXXX.ooooo.",
"..ooo..XXXX.                                                        .XXXX..ooo..",
"O.....XXXX.                                                          .XXXX.....O",
"OOO.XXXXXX.                                                          .XXXXXX.OOO",
"OOO.XXXXX.                                                            .XXXXX.OOO",
"OOO......                                                              ......OOO",
"OOO.XXXX.                                                              .XXXX.OOO",
"OOO.XXX.                                                                .XXX.OOO",
"OOO.XXX.                                                                .XXX.OOO",
"OOO.XXX.                                                                .XXX.OOO",
"OOO....                                                                  ....OOO",
"OOO.XX.                                                                  .XX.OOO",
"OOO.X.                                                                    .X.OOO",
"OOO.X.                                                                    .X.OOO",
"OOO...                                                                    ...OOO",
"OOO.X.                                                                    .X.OOO",
"OOO.X.                                                                    .X.OOO",
"OOO..                                                                      ..OOO",
"OOO..                                                                      ..OOO",
"OOO..                                                                      ..OOO",
"OOO..                                                                      ..OOO",
"OOO..                                                                      ..OOO",
".....                                                                      .....",
".....                                                                      .....",
"OOO..                                                                      ..OOO",
"OOO..                                                                      ..OOO",
"OOO..                                                                      ..OOO",
"OOO..                                                                      ..OOO",
"OOO..                                                                      ..OOO",
"OOO.X.                                                                    .X.OOO",
"OOO.X.                                                                    .X.OOO",
"OOO...                                                                    ...OOO",
"OOO.X.                                                                    .X.OOO",
"OOO.X.                                                                    .X.OOO",
"OOO.XX.                                                                  .XX.OOO",
"OOO....                                                                  ....OOO",
"OOO.XXX.                                                                .XXX.OOO",
"OOO.XXX.                                                                .XXX.OOO",
"OOO.XXX.                                                                .XXX.OOO",
"OOO.XXXX.                                                              .XXXX.OOO",
"OOO......                                                              ......OOO",
"OOO.XXXXX.                                                            .XXXXX.OOO",
"OOO.XXXXXX.                                                          .XXXXXX.OOO",
"O.....XXXX.                                                          .XXXX.....O",
"..ooo..XXXX.                                                        .XXXX..ooo..",
".ooooo.XXXXX.                                                      .XXXXX.ooooo.",
".ooooo.XXXXXX.                                                    .XXXXXX.ooooo.",
".ooooo.........                                                  .........ooooo.",
".ooooo.XXXXXXXX.                                                .XXXXXXXX.ooooo.",
".ooooo.XXXXXXXXX.                                              .XXXXXXXXX.ooooo.",
".ooooo.XXXXXXXXXX.                                            .XXXXXXXXXX.ooooo.",
".ooooo.XXXXXXXXXXX.                                          .XXXXXXXXXXX.ooooo.",
".ooooo...............                                      ...............ooooo.",
".ooooo.XXXXXXXXXXXXXX.                                    .XXXXXXXXXXXXXX.ooooo.",
".ooooo.XXXXXXXXXXXXXXX..                                ..XXXXXXXXXXXXXXX.ooooo.",
".ooooo.XXXXXXXXXXXXXXXXX...                          ...XXXXXXXXXXXXXXXXX.ooooo.",
".ooooo.......................                      .......................ooooo.",
".oooo.ooooooooooooo.XXXXXXXXX.....            .....XXXXXXXXX.ooooooooooooo.oooo.",
".ooo.oooooooooooooo.XXXXXXXXXXXXXX............XXXXXXXXXXXXXX.oooooooooooooo.ooo.",
".oo.ooooooooooooooo..........................................ooooooooooooooo.oo.",
".o.oooooooooooooooo.OOOOOOOOOOOOOOOOOOO..OOOOOOOOOOOOOOOOOOO.oooooooooooooooo.o.",
"..oooooooooooooooo..OOOOOOOOOOOOOOOOOOO..OOOOOOOOOOOOOOOOOOO..oooooooooooooooo..",
"O..................OOOOOOOOOOOOOOOOOOOO..OOOOOOOOOOOOOOOOOOOO..................O"
};
