/* XPM */
static char *result[] = {
/* columns rows colors chars-per-pixel */
"80 80 26 1 ",
"  c #060606",
". c #080707",
"X c #090708",
"o c #0E0D0D",
"O c #110E0F",
"+ c #11110F",
"@ c #120F10",
"# c #190F12",
"$ c #141212",
"% c #1C1315",
"& c #151D13",
"* c #1D1817",
"= c #1E1718",
"- c #1F1A19",
"; c #211D1C",
": c #23201F",
"> c #262222",
", c #2B2625",
"< c #2C2827",
"1 c #282728",
"2 c #2F2928",
"3 c #332B2B",
"4 c #382F2E",
"5 c #39302F",
"6 c #3C3332",
"7 c #403635",
/* pixels */
"    XX XX       XX    X     X         Xo@->>;%++X                   OO          ",
" oo@oooo+o+oo@@o@oo;-o--o-;o-------;--**--;;;,,:222,,,,,,2**;;%;;:222:22,,:2,22 ",
"OoOOo------oooo@ooo---------o-;o---o-o---**-;%;%*;;;;*o;;**;%;;*;*2:2:2:2:22:2,o",
" OO---------;*;;---------o-----------O-=*-*-;;%;**;%*;==;;;*;;*;*;;;;;;;;;;;%;; ",
" oo;     oo     XXX  XXXX          X  o oO@@OX                             +;;; ",
" Ooo    o*o*--oooo%%%%%%%%o=----Xo=oXoo<33333$=-;;;O;;O%%%%%#OoO7+o*%;%;OO7 %;* ",
" o+;     o-o--o-o%&&&%&&%%%@----;=ooXo@,34553$--%;**XO%&&%&&&%%%o*o*;%;O557 ;;* ",
" oo-     o-o-*o-o%&&&%&&%%%@----=;OOXXO,34654$-;;*;*OO%&&%&&&%%%+*o***;+577 ;%; ",
" o--     o--oXo-o=&&&&&%&%%o----=-+.Xo+:557433$$*;*;OO&%&&&&&##;+*o***;%447 ;=; ",
" ---    Xo--oo--o%&&&&&&%%%o+---===+.o+245542$$o;*;*=O%&&&&&&;##.oo**;;;334Xo;, ",
" ;;-     oo;oo---o&&&%&&%%$O+-----*+ooo<,553-$*-o;*;;o%&&%&&&&%Ooo;**;*:222O=;, ",
" =o=    o=o;Xo--;+&&&&&%*%oooo---==*ooo,,55:$+--O*;*;=O%&&&&&%%X.;%***;:>,2+;%< ",
" -o;  oo%%o;-oo*--o&&&&%%%oooo*-----oX:<,,**$*-**O*;*;X#&&&&&&OO;*;;%**:>>>#-,< ",
" ---  @o%%%o-oo---o&&&%%%ooooo**----o<,<2,>:$**-*O;*;;;O;&&#%%OX*;*><%&*;;>%-<< ",
"Xo-- @%%%&$+--o*--o%%%&%%ooXXoo------o<<<<:***--*;o;;%;O+;%%%#O;;*<:o+%*;%>%-,, ",
" o-- @%%%&&o-*oo---Oo%%&%oooooo-oo---o<6<::*******O*%;;O##&&&O=;;11o;+%%#%,O-<< ",
" -o-o&&&&&%%@ooo=--oo&%%ooo1oooooo----o11$:$===*;Oo*;*;*O&%%%O;=11oo+&&&&*3.--1 ",
" ---X&&&&%&%@o@oo--oo=%%oXX1oo%ooo---*ooo>$*-*-*%O%+*;*;+#%%%O;=,oX-+$&&&&+O--<O",
" ;--X%&&&%&&oo11o=--;o%ooo1-*o%&oooX---o+oo-=---+%%+;*--;o%o+->1>o;*O%&&%%o -O- ",
"o--- %&&=&&&%%111o--;o%ooo1-O%&&+o1oo-*ooo**-*=-O%%#o=;-*O&Oo11ooooO&&%&%%o --- ",
"+--- %&&%&&&%%111X--=o%ooo1=O%&&oo1oo--o@o------O%%%O;;=-o&oo11ooooo&&%&%%O --- ",
"o--- %&&%&&&%%@11-ooooo@oo1*o%&&o+11o--ooo------O%%%o;==-+&+O1oo*oo+&&%&%%o --- ",
"X--- &&&&&&&&&o11--oo-oo111;o&&&+o111o--oo-----;o&%%O;=;--o=-1oXooO+&&&&&&@ --O ",
" --- &&&&&&&&&o-1----Xoo11-o%&%&&&o11o---o----o+%&%%#O==--+111-o.;O+&&&&&&@ --- ",
" --- %&&%&&&&&=@1-----oo1--o%%&&&&o;1o----O---oo&%%%%o-----oo--o.+&&&&%&%%O *;* ",
" ---X%%%%%&&&&&o1-----oo1*O%%&&&&&&o1o----o--O&&&*%%%%O----+o--o;O&&&%%%%#O ;*; ",
" --oXo%%%%&&&&&&11----oo--o%%%&&&&$o1oo-*-OO-+&&&%%%%%O------o-oO*&&&%%%OO7Oo;; ",
" --;Xo%%%%&&&&&&o1----*o-o%%&%%%&&=%o=oooo*oo&%%%%&%%%%O-----o-*X&&&&%%%++7X;** ",
" ---Xo%%%%%&&&&&+;-----ooo%%%&&&&&%&o----oooo&&*&&%%%%%O-----+--O&&&%#%%$$5XO*;O",
" ---  +o%%&$&&&&&o----;-o&&%%&%%&&%%o-------o&*#%&$%&&$&+11---OO&&&&%#;%<23oO** ",
" ---  oo%%%%&&&%%o;-----;O&%*&%%%%%o+o------OO%%#&$*$&$oo-111-Oo&&%%%%%;2,2O*;* ",
" ---  X @%%%%%&&&o------;o&&%%%%%%%o;o-------1%%%*$&&&o++oo111-o&%%##;;>,,,O*;+ ",
" --- *   o%%%%&&&oo------o&&*%%%%%oo--o------1%$$$&&&+o+-+Xoo1-+&%%%%$;:22,#;*;O",
" --- $   @%%%%&&&o+------o&&&%%%%%oo--o------1%%=$*$&&o+=+ooX1-+&%%%%=;,22,#*%%O",
" O-OO     o%%%%&+;o------oO&&&&%@o@X--oo-----1$+$&&$+&o*-+=o+11-+%$+$=,2222#;;; ",
" ---      X@%%%&o-+-----*oO%&$#Ooooo=--Xoo---1oo##&$&+o*--+=-Xo11<oo>222332#;OX ",
" ---XXXXXXXX+Oo+;--oo----oo$$OoXooo*=-*oXo---1oo$%$&*$o*--o---oXoX<<><24332**;; ",
" ---oXXXo%OXXX o--;oO-----oOoooooo$*-*Xoooo--1&*o**$*$o----o+*--oo<<1<<3,3,#**; ",
" ---X:;;-$+oXX O---oO*----o@ooXoXo$-*ooooXo--111oo&=*o*=---++----Xo<<,1>,,,O**; ",
" ---oo+@=-$$+XO---;oooo--=*o+OOo$$$*oo-ooo-o--11<X+#$o*=---o++---oo,1,<>%$OO*;*.",
" ---o:::;;;->1O*---oooo1--*o$$$o*$*=o*o  ooXo**-11oo$o=----ooo;--ooo1>><O+oo--- ",
"+---o>1>>>>>$ooooooooo**1**oo*$o***-o*o   o-o*--*1ooo=-----ooXo---oo111>>>XX--o ",
" ---O>>11>>1*@--=-o*%$o$1o**o&oo**-*oo     ooo-**1ooX-----+*%o@---1oo<><1>> ---X",
" ---$2212,1=------o*&&o**oo*oXo=**=-oOX    o*ooo-1*o------o&&&o----oo:>>>>1X-o- ",
"o--:$>1>11<$-----o&&$$$o**ooXo*-**--@3X     o-Xoo-1o@;---;+&&&=o----oo$--:oX--- ",
".-->*11>>>%------o&$&&&o*-**ooo$----$<o     O-ooo*1oo----o&&&&&@---->+$$oooXoo-+",
" -->=:>>>&o-----o&&&&&&X$*-***o*----*>oo    O-oXo*11o----o&&&&&&O---**+ooX o--- ",
" -=>*>>>>$o-----+&&&&&&X**--**o-----%>oX    O-ooo*11o-;-;o&&&&&&O----$$oXoXo--- ",
" ---*>,<>$X-----o&&&&&&oo$--**o+--=%1;@o  Xo%ooo*--1o----o&&&&&&o;;--=@OXXXXo-- ",
" -=1$2>>>$o----+*&&&&&&$X*----oo-*-$%=@X Xo%%ooo----;o--+&&&&&%%&o---=$OXXXX---X",
".---o1>>%$o----O&&&&&&$$Xo--*ooo--@%o:oXXXo%%&o@-----+--o&&&&&&&&o;;-**O X  --- ",
" =;-oO*%@-o*-*O&&&&&&$&&+o--*o1oooo&%@XXXo%&%&oo------o-o=&&&&&&&&oo---*++  --- ",
" ---o+%%o-o---o&&&&&&&%%%o---o1oo+%%%oXX @%%%&%%oo**--+o-&&&&&&&&&o+----+o  -o- ",
" ---oo+o-oo-+O&&&&&&&*%%%oo--X1Xoo%%%o   o%%=&&&oooo---o=&&&&&&&&&&&o-----o+-;- ",
" =--o=++-oo-oo&&&&&&&&%%%o---o1o-;o&&%@o@%&&&&ooO--o---o%&&&&&&&&&&&o;----o --- ",
" +--oo*---oo&&*&&&&&&&%%%Oo----o-;o&&$@@o%&&&&@o*+--o--+%&&&&&&&%&&&&o----1 --- ",
" --- +---Xoo&&&&&&&&&%%%o;X----X---o%%@@o%%&&o---+--oo--o%&&&&&&&&&&&o;---1 +-- ",
" --- ---oo-o&&*&&&&&*&%%o-oo---o--;o%%o@@%%*&o----o-*o-oo&&&&&&&%&&&&o11--1 --- ",
" --- ***o-o&%%%&&&%&&&%oo--o---o---o%%@oo%%%&o;---o-*-oo-o&%%&&&%%&&&&11--1X--- ",
" --* ooo--o&%%%&&%&%%%%oo--oo-*o----@%oo@%%&@;-----+---X-o%&&=&&%%&&&=o1--1o--- ",
" --- ooo--o&%%%&&%&%%%$oX;-oo**o---=@%o@o%%&o------o---o-o%&&%&&%%&&&%+1--1+--- ",
" --- o**--O&%%%&*%&%%%=oo&-oo*-o---;o%ooo%%&o-----;+---o-o%*&%&&%%&&&%o1--1o--- ",
" ---Xo--*+*$&&%*%%%%%%+-o---oo*o;=;=@%@oo%%%o------o--o---@%%%%&%-%%&%&1111 ---O",
" ---Xo*$*$%#%%%%%%%%%&o-o---Xooo--=;oo XXo%%o-----;o--o---@%%%%%%%%%%&&o111 O-- ",
" ---+o$*$*&%%%%%%%%&&O*.o;**.oo.-----+   o%oo-------o11----oo=%%%%%%%&%%OO1o--- ",
" ---oo**$&%%%%%#%%#;%o;o;*;;+Ooooo--*+   o=oo-----1111o----oo%%%%%%%%$%#OO* --- ",
" ---o*+$==%;;#%%#;%$&O;O***ooo*ooXo---O  Xo1oX---11o*oo----Oo%%%%%%%%%#@oo+X--- ",
" ---o>++:;:;;;%%#&&Oo;*.;*O..O**+X-+o&O  Xo11o--11-+%o-o----;o%%%%%####oXXOX--- ",
"++--oo&-::>>>>=$%%$OO;oo**ooo$+;-*o-oXO   o;11Xo11@%%%@o-----O%%#%###OOXXXXX--o ",
" ---oo$*<>><,<>,%&X;%;.*;*oOo$O**-oXoooooo---1oo1=@%%%ooo-----@%%####OOX XXX=;+ ",
" =;=o1111,,11>,1%%O;;*X;*oo.%$#*-*--oXoooo;--1oX1;o%%%o=-----=o%##O#OXXX    --oX",
"+-=1o211><,<<<,%%O;;*;o;*o#O##OO------o+o+;--1oo1o%%%%&o-------$##OOXX    X --o ",
"oo--o1111,>1<<<<#O*;*o;*oooo+++O*--------+--=,o =o%%%%%@=------oOOXX.      +--o ",
"o+--o1111,<>><,<%o;*;o%;o..o*+OO-*-------o---<oo-o%%%%%@------*oOOXX.      o--+ ",
"OO+-o6661>><4><oO;*;*;;*oooo+33o---------+----oo;oo@o%%%o;-----=OXXX        -oo ",
"O@o-oooooooooooooX         o        .            XXo  XX  o    XXXXX   +    +oO ",
"oOo@;-;-;==1<;+-;*;**;%*;*;*;*;*--+-------+=;o*%--;=---oo;---o--;;%*;;=-=;;=-oOO",
" oo+oooo*;=;*;o=*;*;;*;;*;*;;Oo;------------*;;;--o------=---;--%;;*;*Oo+oo+o+O ",
" Oooo@o@+oOoOoo;;*O;%;;;*;;**;;%------*--*--;*;%---------o---oo-;o;;oooOooOo@O- ",
"Oo+o@o+@o+o+                         . ++  .o             X   oX OooO        o  "
};
