/* XPM */
static char *result[] = {
/* columns rows colors chars-per-pixel */
"80 80 41 1 ",
"  c #05020E",
". c #09030F",
"X c #070210",
"o c #0C0413",
"O c #0F0814",
"+ c #0E0319",
"@ c #120515",
"# c #190517",
"$ c #120816",
"% c #190817",
"& c #14051A",
"* c #1B061B",
"= c #15091A",
"- c #1B0A1D",
"; c #22061E",
": c #29071F",
"> c #220A1E",
", c #29091E",
"< c #160420",
"1 c #1B0621",
"2 c #1D0B21",
"3 c #230621",
"4 c #290722",
"5 c #230C22",
"6 c #2A0C22",
"7 c #260B28",
"8 c #2A0E29",
"9 c #300B24",
"0 c #241124",
"q c #2A1126",
"w c #2D1329",
"e c #31152C",
"r c #45344A",
"t c #4B364D",
"y c #4B384D",
"u c #50354E",
"i c #4E3550",
"p c #4E3951",
"a c #533651",
"s c #533A53",
"d c #583C55",
/* pixels */
" XX   X+$+OXXXoo  ...O......$OXXXX    XOo...   Xo oOoX  X     XOXXOoo X     XXX ",
"XXXXXXO=-=$OXOyo  ..O@@OO.O%2=$OXOoX  OO@..  rXO$ooOOXXXOXXX  XOoXOO$$OoXoXX$OOO",
"oooooO=<2-=*$OO.  ...OooO%%$==$i$OOO...O..   Xo$&&OoooXoOOOoXXOO+oooO$$OoXOO==O+",
"Xo+++=<<-2-5-$O...oo...@O$$$$=====1*@Oo ....XXXOO$&$oooXooXXXo+<&++OOOoooo O=<=o",
"o+oo++&&=-*;;@@X.... XOO.$ooO$-=%#:###@.o@o@@.o.o%*=$$+XXX   X$2<+O$$$O+XOooOO+X",
"XX+XX+++@$=a*#@@@@@.oO$$@@#.o@$$=*;;-;%@@@@###$o@-$$$$O+O    X$=O+oO==$OOoOXXoXX",
"oXXoXXooO@@%#@@@@#@$O=**--#@.oO@@#-;*-*$&&%;;;%@O=$.O&&&OoOOO=22=o+O&==+oOOoXXXX",
"o++XXXXo@-*%$@t@@=-*@->;;;;@oo$@@=#%*--****>>;%.o@@.$==p22===220&oo+O++$$$+oXXXX",
"o++OoXXo=*3;$@OoO$-**>5>>>>;@.$**#@@@;31-**565;%=$@$-0-0000-02--&+===Oo+<$++o+oX",
"+&-&&$&&=355%@@@%->65665,>6>#O@**;#@@*;****;66>-*-*-0q00w0---0222=+$$OXo$O++o++o",
"O&&&oOo$*;56%##-->,>55>,;,66;%##@##@@=****535,>;;*-5q0--22=$O202<=Oooo+oXXo+o++o",
"o++ooXo&*3,>;##->0>>>>>53699,>:*@@@@o$=**484-;>;%=-05-$$-2==O=222=Oo+&+XXXXXXoOX",
"X+oXX X$%;;*%%%%;---;;;;;666664*#@@@@@***64;%&*;**=5>-$@*1==-=200p$+<<+XXXXXoooX",
"oo+XX Xo%;###$%%###;>63;;;4>444*######*;*;*#&@=;5p=5q>$#*2=p2==22-=221&OOOoOOOOX",
"X+++XXXo**#@#@*;;@=*;464;334443*#**;;****%@@@@#3q-*565&*+$$=-$$=2=$200<$+=&==+Oo",
"+++++oXo&*%@###%#@@@;;44434694;*#*1;;###@oXXo@#5,>->;--=*$$=$====$&27q2=++$+O=y+",
"++&&++oX@@&@##*&@@.@@#;:3444:;*&*333&&@#@. ..O%00>--%---=O@$22-%=%**5d2++ooo==&=",
"++<=<OXXX@@@*1&&o..o@u;;3433;;***41&&o@@#....O%>;%%%--0%-OO$*2;@O===*1=+oXoO&&++",
"o&=<=oooo&@#***&oo####;;33334;%#1;*&oo@###O@##,,>%%-00--=$OO$*-@X@==-2*+X++o<&<+",
"X+$&OoXo**;*&**##@##*#;;;4336;**;*&+++=*#.@#>,,0>%%%----==$$$$*$t=&=*<+oXX++<+<+",
"Xo+o+Xo+*3;;*@#####@@#*a*31135;a43*&$***#o#;,,6,>%$$$$---52-=@=-0-$@+$&oXX+&&<++",
"o+++++++&##&#&@#;;#@o@*4;3*324533111--**#o#*>,66>%OO$$-20qq52*->>>-@oo@oX++++++X",
"X++oo++ooo@&@&&####@@#;:3;*337531555>-;%;*;*>,0,-%$O$$--500250----*@$&&@oo+oXoXX",
"o+ooo++++@#@@&&#;#@@@**;*1*153151*5;*s-;>66500>--$$$o$-255------$@$@&&&&*&o++++X",
"X+X+++++++<++o&&##@@*#*%#**1***-*55%=**;00000,%%$==$$%0005-=-*==O..$=%#&&&o&&++o",
"X+++++<+<++<&@o&#*##&@@*****31-*p;;==3>d0000,0%OO$=%--0002>0=$=$o  O@*#@&&&@&+++",
"++++++++<<<<@@o#&&@&@o@#**;171**&***>0>-0O=s0%OOX@=*-002->0>-=$OOO..@#@@&*&@&o+o",
"++++++++<11<@o@@oo&*%@O@**13231*&=&=--$$OO==OO..XO=-0000000000-$$$$.@&&o@@&@&&&X",
"X+++++++&11&&@@oXo&33-$@%*=1113*=@.O$OOO$-==O   X@25qwweqq>0qq0-@O..o&&Xooo&&&+X",
"++++++++<&&&&@ooo@#;>-$%#*&&&113*@$$OOO@$-0$$O  X=220weweq00qqq%@. .o&&&@oo##&+X",
"++XX++++&&+o+oX.####*--;*&@&++&1%=O.%%OO$0-$$=OOO-2--0q0,0>>0q0%@.  o#&&@@&&*&+r",
"XX+++<<+*&++&&oo@##&*->>;=%*+o&**=OO%%OOO-----=$-00-p->>->0>>qq%@@Xo&*&@ooX@o+++",
"++X+<+++&&++&&+oo@@@=---*%--*+$==*=$=$O$-20000000000000==00---0>*@o@%;*&o .Xo+&+",
"+++<<<t++&&&&&&oooooO-;-2-5522=*$&2=$$$-222200w000w0ww00=202--00>$Oo%*a*#@XXo+&&",
"++<&&+++o&&&+++@@@.oo*>>525>-2<$o&1-@o&==2220000000weew0220->>,60=o@&*#**#@Xo+&o",
"++<&&++++&*&++@@@@. @-,>*----=*$+$*=@o@oOO$=-000==00eew000-0>>,0>$oot#***#@o+o&o",
"+<++++++&11&&&@#@...O#>>----==-*==2-*$OOOOO==-0ws000w00000---0>>-*$=**;*#*&o+o&o",
"++++++++&1;&&&&&@....@%;-%=%*-55500----=$$=20=000==000=0-0%$>00-----*4*&o&o&&o@X",
"X++++++&***&o&*#@.o..O@@@oo&=273000=-0-$$==00=220=======0-0=-0>2-051;;&@o+&i&&XX",
"X++++++&11*&&**#@ooo..@o.@@@=-22222==2-$O$00-=200=0=2202--2--$-225-#**&oo<13#oXX",
"++X+X+++<&&++&*#@.@@o.o..@*-=$2225-=222===22=$22=022<202-$-2-p=-2==@**&Xo*1*&oXX",
"++X+r+<<*&+&@&&@o@&*@o.oo@*-&&2505-=<22--==O$+$<==--=+=$=O$--2-222-=;;#o&&i&oooX",
"++++&&<1<&&&&&@ooo&*#.@@@@$=+$15062==55-==O++OOOOO==$=&<====-52-$=*p**#@@@@@@ooo",
"X+++&&&<<+&&&##+o@@###@#&@&=*+<=52==2222=++O=OOOO==-=<22202250-=$@@@&@@&@o@@@XXX",
"++<++o+&<+++&&&&@ooo@.@.@@t@=+o&=$O+&==$ooOXoOO$==0002<=---20-$y@@oo...@o.oo@oXX",
"+<<+oo++&+++&1&ooo......o@@@@oo++ooO$+oXXoOXOXO=2==00p=OO$==$$oo@@...o@@..o@&&oo",
"++<<++X++++&1<++o.......@oooooooooo+$OXXXOoO+OO=====2O=OOX$$-$$@o@o..uu@oXo@**&X",
"++++++++++&<1&&+o@.....ooXo@&oXoo++O+ooXoO+<$++==OOO+OO=OO*0>--$oo..o#*@@@o@##oX",
"++<+++++++&<1<&+@..   XXX.@##@XXoooo+OO$OO=====$OOOO@$==--5q6q>$@@@..##*#&@ooo+X",
"+++++++<+<<<1*&+...   XXX@#;;@oo+ooooO@$Oy=++O=$=OOOo@=-%->699;$.###.@##*#&ooo+o",
"++++++++&&&&&&&+....Xoooo+&1%&@OX+oXoXo$===oOO$&+oXXo@@=$*-;6,>%####..###@ooo&&@",
"++++++++ooXooo&+....X@@&o&**=@oXooooXX @+==+OO$OOOOO@@@@@#@*;;;####..###*&+++@oo",
"X++X+++++++++o&o#.##.@@#&&*-%&@@&=&o. .oOO&+O$$OO+++=-%=@&#*&@*;#;;##;***&&oo@oX",
"X+++X+<+&<++++&o.@###@@#&&*>*%*35;#&@.X@=$+OOoooO+$&***%@***#@#*;;::::*#@@oo@@&@",
"++++++<<<<+++&@o...#.#.@@=*;*&*485*a*Oo=*%$O@.XXOO+$@*-*#****@#*;#;49:;&@@@a#1*#",
"+++++++<<<++&&&&@.#.#.#.@@**#@@;:555-@@=*&$@..X.+==$@@@%##&##@@*###;;;**&&@##**@",
"++++++<<<<+&&&<<&&+@o@##@u@@#..###*--;>%#u@... .@==&@&@@**##**#**#@@*3;;;#&oo&@o",
"++++<<+<<<<<&<<&&&oo.o##@.@###..@&%#;,q>#@@@....o$&oXXX@#**;331*%&@@&;:4:*@oXo@o",
"+++++++<<<<+&&&&&r.oo.@..u@#..##;;-;;,,>@.o#@..o$&@ooX.o&*#****1*&o+@a44;*&o&&&o",
"++<++<&<+++<1<<&oo.X@@.@..@##..#,,>-$@-%#.@#@...O&o@#@oo##&@@@&;*&=+#**44*&&*;*o",
"X+<&+&<<<&&&&*&&oo.X.@o@..@##@@#;,;t..@#@.@@@...Xo@#>%o@**%@@@&#*-**&**;*&&*;3#o",
"o+<<<&<<<&&<<1<&o@Xooo@@#..####.@;;#@O@@..@o.@o.oo@;6>@@#*%%#&#@*-*****11&&&;1&o",
"O$2<<1<<<&&&&1*&o@ooo@###.#####.@#;;#@@@.o@@#@@#@@*,9>>%**---*&@@;3;1*1;1*#*%**+",
"+<<<1111<1<<&&&&o@@@@@###@###;#@@.@#@o##@@t@@#@#@@%>,0qqd-----*&=;33;333**1**=*o",
"+<1272*<12<22<***&*%#@@#&&@o@#;#@.o@o#**#&&&*==%*=%->6qe85=-2222-2>-5;**%&***-1o",
"=<2777<=<<<<2211<***@oo@&@@o.###@o@@@@#*&&&*--%1555;56q522%%*57455753531*&**==-O",
"o+27872&<&&<&=1###*#&oo+**#@o&#&@oo@@@#*&&*3;5--7qq65>5-*1-*>6w8555;33;*152==2-O",
"o=<2771<<<<&&&&&&*1&o++$*a#@@**#@@&&###*1**3552-5q8-*-52-*:->6w802-;>52&275<-==+",
"O2<2272<<1121<&O@&*&+oo@**&$@*;*&&*;5-*&&&*;33-2-52$@-65253;;6eww-*-5;=$2722=O+o",
"=<=<2722122772&O@@*+oo+=151*&#;3$&333;*=t&@*;;>52==$=;65353**5www2-0>*$*<22=++++",
"+=<21022227722$<---$ooO<2532#=-*&*335;-**&@*;>50-$=*255555--*>000222-$&*<<=<<=++",
"X+12222<2732<222585*+o$&*551*&&&=273-;--*#&&2555-$$-222*>7;*;>002<2<&oo+=&++O=oX",
"X$22<==&<221<2020022=<=&***%*+o+-57;----=*&*2522=$*=2p==22222202====$O++$&+OO+++",
"O$=++oO=2222$2202=2222=$$$&=*++$-05s*%-22=<*532-===&+O=222=<s=2=====$=21*$&&o++o",
"$==$o+o$2712<202$O+<222-*@@%*&$=2202****=$$1342--==+OO-2=002200$OO$$$-022=&+oo+o",
"$-2<&=++<1112<00=+OO=202$oo@*&$-02221%+O+oo$23-2-=+OOO===22200$OoOOOX=02==<=Oooo",
"@=55-<+o&<<1<<222-$$$-2-$XX$$+o$-2--*@@.o..O*-200===$$22220=2=$OO=$OOO2-$&2==OOo",
"$-052=&OO=<<&==2022=+OOOXXO$$oXo$--$$@r oooO$$=----=$O2d02=OO=$0--$OXO$=O$&*<=OX",
"$--===-&+O+++$<2502=OO  XO$$OXXXO=$$yO  .@oo$OXX$-$OOO=002OOO=002-=OXXO$oo+&=Oo ",
"$$Ooo+-$XXXXX$$$-22$$X   OOXX XX .O.     .. XX  XX   XO$=OO==$$===OOOXXXXoo$OOX "
};
