/* XPM */
static char *result[] = {
/* columns rows colors chars-per-pixel */
"80 80 231 2 ",
"   c #070606",
".  c #080707",
"X  c #070608",
"o  c #09060B",
"O  c #0C0B0B",
"+  c #100F0F",
"@  c #0F0713",
"#  c #0F0911",
"$  c #0F071D",
"%  c #120A15",
"&  c #10071F",
"*  c #140B1B",
"=  c #1A0E1E",
"-  c #131313",
";  c #171419",
":  c #19141C",
">  c #1C1C1C",
",  c #2F111A",
"<  c #211E1E",
"1  c #33131C",
"2  c #39161F",
"3  c #150D23",
"4  c #1C0F23",
"5  c #15072D",
"6  c #14082A",
"7  c #1B0D2D",
"8  c #171025",
"9  c #1A1225",
"0  c #1E152D",
"q  c #1B0D32",
"w  c #270F2B",
"e  c #251528",
"r  c #21152D",
"t  c #21182E",
"y  c #341322",
"u  c #3B1B24",
"i  c #37162A",
"p  c #3B162A",
"a  c #221531",
"s  c #2A1634",
"d  c #231931",
"f  c #281439",
"g  c #341532",
"h  c #3A1735",
"j  c #242121",
"k  c #2D2929",
"l  c #4E1A29",
"z  c #501B2D",
"x  c #431837",
"c  c #4B1C3D",
"v  c #561E39",
"b  c #48232E",
"n  c #54202F",
"m  c #572230",
"M  c #5A2332",
"N  c #5B243A",
"B  c #632235",
"V  c #65223B",
"C  c #692639",
"Z  c #71253B",
"A  c #77293E",
"S  c #2D1542",
"D  c #381748",
"F  c #4C1F42",
"G  c #471C49",
"H  c #561E45",
"J  c #461E53",
"K  c #471E58",
"L  c #661F57",
"P  c #592647",
"I  c #452156",
"U  c #4A2054",
"Y  c #4B255D",
"T  c #572956",
"R  c #642346",
"E  c #6B2443",
"W  c #63254B",
"Q  c #762743",
"!  c #672559",
"~  c #7C2D55",
"^  c #4E2463",
"/  c #582567",
"(  c #5D2071",
")  c #652867",
"_  c #772B66",
"`  c #732E6B",
"'  c #7D316B",
"]  c #6A2A77",
"[  c #652C7C",
"{  c #7B2C76",
"}  c #852C46",
"|  c #912F4A",
" . c #822C63",
".. c #882C64",
"X. c #853168",
"o. c #892D76",
"O. c #873279",
"+. c #923274",
"@. c #95347A",
"#. c #DC154E",
"$. c #DA1653",
"%. c #DB1957",
"&. c #D5195E",
"*. c #DB1959",
"=. c #CE1C6C",
"-. c #D51B61",
";. c #D91D62",
":. c #D11E6D",
">. c #DA1F68",
",. c #CA1E75",
"<. c #C61F7E",
"1. c #C91F79",
"2. c #CE226D",
"3. c #D2236E",
"4. c #DA2169",
"5. c #CD2777",
"6. c #C6207F",
"7. c #CD237B",
"8. c #C42A7E",
"9. c #D42372",
"0. c #D92777",
"q. c #D2257B",
"w. c #DA2778",
"e. c #D6297D",
"r. c #DC287A",
"t. c #FF286D",
"y. c #EF2C7D",
"u. c #F52977",
"i. c #FC2A73",
"p. c #F42B7A",
"a. c #F92D7B",
"s. c #6D2F81",
"d. c #792F85",
"f. c #7F288E",
"g. c #6D3288",
"h. c #763487",
"j. c #7D3699",
"k. c #8C2C8B",
"l. c #932C8A",
"z. c #86368A",
"x. c #983688",
"c. c #8A399B",
"v. c #963698",
"b. c #AD2F8A",
"n. c #BF238D",
"m. c #BC2E8E",
"M. c #A6358A",
"N. c #B6328B",
"B. c #A42D94",
"V. c #BD2492",
"C. c #B72D95",
"Z. c #B7279F",
"A. c #BA269A",
"S. c #BD299D",
"D. c #A23493",
"F. c #A73799",
"G. c #B73698",
"H. c #BC359B",
"J. c #9B3BA3",
"K. c #943AAD",
"L. c #9A3BAA",
"P. c #B627A1",
"I. c #B428A5",
"U. c #BC2BA3",
"Y. c #B32AAB",
"T. c #BB2DAB",
"R. c #A33DA4",
"E. c #A83AA9",
"W. c #B43DA4",
"Q. c #B737AB",
"!. c #B52EB3",
"~. c #AA36B0",
"^. c #B837B3",
"/. c #C52282",
"(. c #CA2583",
"). c #C62A84",
"_. c #C1238B",
"`. c #CD2C8C",
"'. c #D42B84",
"]. c #D52B86",
"[. c #DE2B8E",
"{. c #C1358D",
"}. c #D4318D",
"|. c #DB358F",
" X c #C22793",
".X c #CA2C96",
"XX c #C42D9B",
"oX c #CC2D9B",
"OX c #DC2C92",
"+X c #D42C98",
"@X c #C9379A",
"#X c #C73A9C",
"$X c #D63393",
"%X c #D93392",
"&X c #D7369B",
"*X c #E72A84",
"=X c #E92A82",
"-X c #E22C8B",
";X c #E73187",
":X c #EB3185",
">X c #EC338C",
",X c #F43183",
"<X c #F3358D",
"1X c #E52F91",
"2X c #E73495",
"3X c #E43A9D",
"4X c #EB399A",
"5X c #F23690",
"6X c #C32DA4",
"7X c #CA2DA3",
"8X c #C22CA9",
"9X c #C735A7",
"0X c #CE3DA7",
"qX c #D433A3",
"wX c #D937A5",
"eX c #D23DAC",
"rX c #C43AB3",
"tX c #E43BA4",
"yX c #ED3EA4",
"uX c #844886",
"iX c #9942AE",
"pX c #A743A8",
"aX c #AE50A8",
"sX c #AA43B5",
"dX c #B846B7",
"fX c #C848AE",
"gX c #D441AC",
"hX c #C746BA",
"jX c #D944B5",
"kX c #B245C3",
"lX c #CE49C0",
/* pixels */
"k . O . O O X O O X O O     O         j j j j j j j j < < < < < < < < < < < <     < < < < < < < < < j j d j j j j j j k j O   .   $ X O   X O O . O . O O O O k ",
". . < j > > > > > > > > > > > > > >   . j j j j j < j < < < < < < < < < < < <     < < < < < > < < < < < < j j < j j j j . . > > > > > > > < > > > > > > j > . O ",
"O < . < > j > > > > > > > > > > > > >   j j < j < < < < < < < < < < < > < < >     > < > > < < < 0 < < < < < < < j j j j   > > > > > > > > > > < > > > j > O > O ",
"X < > . j > > > > > > > > - > > > - >   . . X .               .           1         $ X         $                     X . - > > > - > > > > > > > j > > O > > O ",
"X > j > O d > > > > > > > > > > > - >   + + O O + O O + O O 2 O O O             X     X     O O 3 * O O O + 3 O O + + O . > - > > 0 > > > > > > > > > . > > > O ",
"X < > > 0 O > > 0 > > > > - > - > > >   O O + O O + + O u           - - - - - - 0 u u - - -           O O O O 8 O + O + . 0 9 > - > > > > > > > > > O > > j > O ",
"X d > > > > O X       X .             .                   - k - u - - - - - 8 - - g - - - - - - 8 u >   . X .   . . . $ X X   &   O             O O > > > j > O ",
"O < > > > > X - - 8 + + 8 + + + + O + O + O O O       - - - - - - - - - - - + - - - - - u - - - u - - 8 - &     O O + O + O O + + + + + + - - + - O > > > > > O ",
"  > > > > >   - + + + + + + + O O + O + O O     - - - - u u - + - - - + - - - - - - - - - - - - - - - - - - - - . . O O + O + + 3 O + - O - + + + O > > > > < O ",
"O > > > > > . + + O O 8 O + + O + O O O O   > - - - - u - n u u - - + - % 4 e 9 9 w - u + % + u u - + - - - 9 - - 9   O 3 O 3 O 3 + + O O O + - +   > > > > >   ",
"  > > > > > X . X               .   . X   - - - - - - - - + - u u u . % q D K ) K D w i o X + # + - - 3 - - - - - - >     X   $         & X X     O > > > < <   ",
". > > > > >   + + + + + O O 3 3 O O   - - - - - u u + - + - l y @ * s D ( f.v.J.v.f.( D r * o       3 3 - - - - - - - - 9 1 O O O + O + + + + + 8   > > > > >   ",
"O > 0 > > >   + O 3 + O + + O O O   - - - 3 + u + - n u l 1 i H L ) ( f.B.Z.9X0X8XZ.B.f.( D w * .       + - - - - - - - - >   O O + O + 3 O 3 O + $ > > > > >   ",
"  > > > > >   O + + + + O O + O   - - - - - - - C + , . i x ! [ k.v.B.C./.5.[.&X].7./.C.B.f.] J s 7 % . 1 6 + 3 - + - 8 - - 8   O + + O u + + + O X > > > > >   ",
"  > > > > -   + + O O O + + $ X - - - + - u n - l 1 * c J ] D.R.T.XX(.9.&.;.r.&X'.&.-.9.).C.F.k.] ^ J r % O $   + - - - - - 8 -   O O O 3 O + + + X 9 > > > > X ",
"  > > > > >     $             - - - - - 3 + ; % : c I { M.G.XX`.'.9.;.%.$.*.r.%Xy.%.$.$.-.9.q.8.N.M.M.] I s p # b 8 - - - - - - q   X             X > > > > > X ",
"  > > > - -   O O O + O O X 8 - - - - - - p f J ) O.x.m.8.5.3.;.*.*.#.#.#.*.r.%Xy.*.#.#.$.%.%.&.:.5.8.b.x.O./ G c i O - - - - - - 9 X O + O O + + . > 0 > > 9   ",
"  > > > > >   + 3 + O O X - - - - - > 0 s I ] M.b.m.8.3.&.%.%.$.#.#.#.#.#.*.r.%X0.*.#.#.#.#.#.#.$.%.;.3.8.b.B.M.{ J G g ; - % - - - - X s + + O O . - > > > >   ",
"  X > > >     O + O O X - 8 - - + - d I ] x.N.8.q.:.-.*.$.#.#.#.#.#.#.#.#.*.w.%X0.%.#.#.#.#.#.#.#.#.$.%.&.3.5.).N.x.] K r - - - - - - -   + O + O . . > > >   O ",
"j . . .     O + O O   - - - - - 8 0 I j.E.m.3.*.%.%.#.#.#.#.#.#.#.#.#.#.#.*.w.%X0.%.#.#.#.#.#.#.#.#.#.#.$.$.%.;.3.m.E.j.J * - - - - - - - $ + O + O       O . j ",
"j j j . + O + O O O X - - - - % ; f s.K.Q.`.=.$.#.#.#.#.#.#.#.#.#.#.#.#.#.%.w.$X0.%.#.#.#.#.#.#.#.#.#.#.#.#.$.$.:.).~.E.[ s y - - - 8 - -   . u O + O +   j j k ",
"j j <   + O O + O X - - - - + u h Y c.E.~.S.<.&.$.#.#.#.#.#.#.#.#.#.#.#.#.%.0.$X0.%.#.#.#.#.#.#.#.#.#.#.#.#.$.&.7.Z.!.R.v.Y h . + - - - - l   u + O + +   j j j ",
"j j j             - 8 - - u 3 : ! ] J.#XrXT.A.1.-.$.#.#.#.#.#.#.#.#.#.#.#.%.w.%Xw.%.#.#.#.#.#.#.#.#.#.#.#.$.-.1.A.Y.H.C.F.d.F # + u q - - - >             < j j ",
"j j < . O O + O $ - - + + u ; 9 ^ v.G.}.%X7XT.A.1.-.$.#.#.#.#.#.#.#.#.#.#.%.0.$Xw.%.$.#.#.#.#.#.#.#.#.#.$.&.1.A.I.A.6.8.F.v./ 9 6 - 8 8 - - - . O + O + O < j j ",
"j j <   O O O   - - k - u n B G h.E.@X:Xy.[.6XT.S.q.4.$.#.#.#.#.#.#.#.#.#.*.w.%Xw.%.#.#.#.#.#.#.#.#.$.%.;.7.S.I.A.7.-.2.N.J.d.J y w - - + - - -   u O 8 X < j j ",
"j < <   3 + O . - - u - u - v ^ c.aX|.u.i.y.[.oX6XoXe.;.$.#.#.#.#.#.#.#.$.*.e.$Xe.*.$.#.#.#.#.#.#.#.$.;.e.oXS.V.1.&.%.&.).F.c.) h X - - - - - 8   O O + X < j j ",
"t < t   O O O   - - u A % B P z.pX#X:Xt.t.t.u.*XOXqX&X'.;.$.#.#.#.#.#.$.;.0..XoX.X9.&.$.#.#.#.#.#.$.-.q.oXXX(.=.&.$.#.$.2.G.J.d.~ #   - - + 8 -   O O O u < j j ",
"< < <         - - - - 2 - 9 ) iXW.|.p.t.t.t.t.t.p.-X&XoX7.-.$.#.#.#.$.;.7.XX6X8X8XXXq.-.%.$.#.#.$.-.5..X.X7.-.%.$.#.#.$.-.).G.v.{ Q Z O - u - - -     2 . < j j ",
"j < <   O O   + - + - u & G z.dX0X;Xi.t.t.t.t.t.i.p.-XoX X,.-.$.$.&.=.6.A.T.S. XZ.T.A./.=.&.$.$.&.,. X X7.&.$.#.#.#.#.#.%.3.#XpXz.! O X x - - - -   O *   < < j ",
"< < <   O   > - u u + u : ^ aXhXtXa.t.t.t.t.t.t.t.i.u.[.oX X1.=.=.6.n.Z.Z.V.7.=.<.V.A.A.V.<.,.=.1._._.,.&.$.#.#.#.#.#.#.#.-.}.hXpX` : x u - - - - >   3   < < b ",
"< < >   O   - - - m n V s x.dXjX<Xi.t.t.t.t.t.t.t.t.t.u.*X X Xn.A.Z.Z.n.<.=.&.%.&.=.<.n.A.Z.V.n.V.V.,.&.#.#.#.#.#.#.#.#.#.%.0.gXfXh.W B Z s - u - -   O   < < f ",
"< < <       - - + + - m ^ iXjXyXa.t.t.t.t.t.t.t.t.t.t.t.y.OXT.I.Z.n.<.=.&.%.#.#.$.$.&.=.<.n.Z.I.P./.-.$.#.#.#.#.#.#.#.#.#.#.4.'.fXiXX.E , i c u q -     X < < < ",
"< < >   O   - - - - - ~ @.dXyXa.t.t.t.t.t.t.t.t.t.t.t.t.u.OX!.I.n.=.&.$.$.#.#.#.#.#.#.$.&.=.n.I.I./.&.$.#.#.#.#.#.#.#.#.#.#.$.;.}.W.h.R } } u - - - . + . < < < ",
"< < <   O   - + + g 9 I R.fX<Xi.t.t.t.t.t.t.t.t.t.t.t.t.*X7X!.P.,.$.$.#.#.#.#.#.#.#.#.#.#.&.,.P.~.A.=.$.#.#.#.#.#.#.#.#.#.#.#.%.0.@XF.X.- C n u 9 -   O . < < < ",
"> < 0     - - - - - l ` W.3Xa.i.t.t.t.t.t.t.t.t.t.t.t.u.*X8X!.V.=.$.#.#.#.#.#.#.#.#.#.#.#.$.=.V.Y.Z.,.$.#.#.#.#.#.#.#.#.#.#.#.$.;.}.G.+.C l C m u 9 - .   0 < < ",
"< > <     - - - - - d @.#X:Xi.t.t.t.t.t.t.t.t.t.t.t.t.u.OX8XA.1.&.#.#.#.#.#.#.#.#.#.#.#.#.$.&.,.Z.Z.<.&.$.#.#.#.#.#.#.#.#.#.#.#.%.9.N.O.~ A u m N - - 2   < < < ",
"< < <   $ 9 - - 0 t U x.|.p.i.i.t.t.t.t.t.t.t.t.t.t.u.=XoXA./.&.#.#.#.#.#.#.#.#.#.#.#.#.#.#.$.&.<.Z.V.=.$.$.$.#.$.#.#.#.#.#.$.#.$.;.8.M.! p n Q 8 - - . $ < < < ",
"< > t     - - - ; f ] G.>Xa.i.i.t.u.u.u.i.u.u.i.u.t.u.[.6XV.=.$.#.#.#.#.#.#.#.#.#.#.#.#.#.#.#.%.=.n.A./.-.&.%.$.%.%.%.%.%.%.%.%.*.;.5.{.@.P c m u u -   $ < < < ",
"a > >     - - - > Y iX0X4X5X5X5X<X<X<X<X<X<X<X<X<X<X+X8XP./.&.$.#.#.#.#.#.#.#.#.#.#.#.#.#.#.#.$.&.<.Z.Z./.0.0.0.w.w.0.0.w.w.w.w.w.w.'.H.v.X.N C - - > 1 2 < < < ",
"    *     - - - e / L.gXtXyXyXyXyXyXyXyXyXyXyXyX4XtX7X8XP.1.$.$.#.#.#.#.#.#.#.#.#.#.#.#.#.#.#.#.&.,.I.!.U.oX$X$X%X$XOX%X}.%X%X%X$X$XoXrXpX^ e m - u - $     $   ",
"X X       - - - > Y v.0X3X5X5X5X<X<X<X<X<X5X5X<X,X1X1X7XP./.&.$.#.#.#.#.#.#.#.#.#.#.#.#.#.#.#.#.%.q.rX!.U.'.q.0.w.w.0.0.0.0.0.0.w.e..X^.J._ N C - - - .       . ",
"r < > &   - - - - D O.G.>Xp.i.i.i.i.i.i.i.i.i.i.u.t.=X[.6XV.=.$.#.#.#.#.#.#.#.#.#.#.#.#.#.#.#.#.-..XrXT./.-.*.%.%.$.%.%.%.%.%.*.*.3.`.W.x.F M u - u ; .   < < < ",
"< < <   X - - + - 9 U F.$Xa.t.t.i.t.t.t.t.t.t.i.t.t.u.y.oXA./.&.#.#.#.#.#.#.#.#.#.#.#.#.#.#.#.%.9.7X^.XX=.%.#.#.#.#.#.#.#.#.#.$.&.q.H.v.` m V - M - - .   < < < ",
"> r > &   - - - u > s ] #X:Xi.t.t.t.t.t.t.t.t.t.t.t.t.u.[.8XA.1.&.#.#.#.#.#.#.#.#.#.#.#.#.#.$.&./.T.U./.&.$.#.#.#.#.#.#.#.#.#.%.3.XXpXx.W C n - - - - X X > < d ",
"t < <     - - - - - w / W.3Xa.t.t.t.t.t.t.t.t.t.t.t.t.u.-X8XY.V.=.$.#.#.#.#.#.#.#.#.#.#.#.#.%.=.V.Y.V.=.$.#.#.#.#.#.#.#.#.#.$.&.(.Q.R.+.m 1 - M 9 - >     < t < ",
"< < >     8 - + - % @ ! R.gX<Xu.t.t.t.t.t.t.t.t.t.t.t.t.=X7X!.P.,.&.$.#.#.#.#.#.#.#.#.#.#.%.-./.I.I./.-.#.#.#.#.#.#.#.#.#.#.%.=.XX~.M.c A , u M - - -   . t < < ",
"< < <   O . - - 3 - ; c d.dXtXa.t.t.t.t.t.t.t.t.t.t.t.t.u.+XT.Y.n.=.&.$.$.#.#.#.#.#.#.%.&.=./.U.Y.A.=.$.#.#.#.#.#.#.#.#.#.$.&.).Q.pX' v X u - u 9 -   O   > < < ",
"< > > . O . - 8 - 3 s ; _ pXjX4Xa.t.t.t.t.t.t.t.t.t.t.u.u.OX8XT.Z.n.6.=.&.$.$.#.#.$.&.=.<.n.A.^.!.V.=.$.#.#.#.#.#.#.#.#.#.$.3.S.E.d.F w l u - - - - . O   < < d ",
"< < < & X   - 9 - - h o ~ h.hXjX<Xi.t.t.t.t.t.t.t.t.t.y.-XoX7XoXoX6XU.V./.=.-.$.&.=.<.V.A.V._. XP.V.,.&.$.#.#.#.#.#.#.#.$.-./.Q.v.Y p ,   - - - - - O   $ < j j ",
"< < < @ O   - - + 8 - , E ` sXlX3Xp.t.t.t.t.t.t.t.t.u.[.+X+X-X=X*X[.oX6XU.V.1.=.1.n.A.A._.1.:.,.<.n./.=.$.$.#.#.#.#.#.#.$.=.XX~.x.W m $ , 8 - - - -   +   < < j ",
"t < <   O X q 9 - - - 3 m f uXsXgX:Xp.t.t.t.t.t.t.a.-X&X7X-Xu.i.u.u.=X[.7X8X6Xn.V.A.V.<.=.&.$.$.&.,./.1.=.$.$.#.#.#.#.$.-.(.^.sXO.9   , + 8 - u - - $ O   < < j ",
"< < <   + O $ - u - - + $ h ` K.W.|.p.t.t.t.t.t.p.1XwXwX-Xu.t.t.t.t.i.=X1XqX9XT. X<.=.&.$.$.#.#.$.&.=./.n.,.&.#.#.#.#.$.:.6XkXiX/ #     - 8 - - 9   O +   < < j ",
"j < <       . - - 8 - + - y S h.pX#X:Xt.t.i.u.=XOXwXtX2Xa.i.t.t.t.t.t.t.a.>X3XqX(.-.*.$.#.#.#.#.$.$.&.,.n.n.,.&.$.#.$.$.q.rXkXz.S o   + - - - 0 - .       j d d ",
"j < <   O O O 1 8 - - - + o q ) c.W.|.p.u.p.-X7X9XwX1X,Xi.t.t.t.t.t.t.t.t.u.>X3Xe.*.$.#.#.#.#.#.#.#.$.&.,.n.n.,.&.$.$.-.`.rXpXX.*     - - - - g   8 O +   < j j ",
"j t d   g O O . - 8 3 - 3 u # F g.L.#X*Xy.-X7XT.7X1Xa.i.t.t.t.t.t.t.t.t.t.i.<X3Xr.%.#.#.#.#.#.#.#.#.#.$.&.,.n.n.,.&.$.9.9XsXz.s o $ - 3 - - - q 2 O + O . < j j ",
"j e j $ 3 O + $ - - - - - - . 9 ^ c.G.$XOX7XT.7X-X,Xt.t.t.t.t.t.t.t.t.t.t.i.<X3Xr.%.#.#.#.#.#.#.#.#.#.#.#.&.,.n./.:.;.e.fXpX` :     - 3 - - - >   O O + . j j j ",
"j < < X 8 O + O . u - - - - + # S s.F.W.9XrX7X-Xu.t.t.t.t.t.t.t.t.t.t.t.t.i.,X3Xr.%.#.#.#.#.#.#.#.#.#.#.#.$.&.5.<.,.9.&XaXuXS -   8 u - - - -   O + O + . j j j ",
"j j j X 6 .   $ u - - - - 8 + - 3 ^ c.E.^.8XOXp.t.t.t.t.t.t.t.t.t.t.t.t.t.t.<X&Xr.%.#.#.#.#.#.#.#.#.#.#.#.#.$.&.,.(.$XfXaXT ; O + - + - 8 - -       .   . j j j ",
"j j < . O 8 O O O   - - - - - u # f s.K.^.&X,Xi.t.t.t.t.t.t.t.t.t.t.t.t.t.i.<X3Xr.%.#.#.#.#.#.#.#.#.#.#.#.$.*.4.'.qXhXsXuXF O X - - - - > -   3 + O + O O j j j ",
"k j d . + O O 8 O O X - - - - - 3 7 T c.~.@X*Xa.i.i.t.t.t.t.t.t.t.t.t.t.t.i.<X3Xr.%.#.#.#.#.#.#.#.#.#.$.*.;.q.%XeXrXE.j.I - O 8 8 u - - -   O + O + + + . j k j ",
"j X X O .   O O + O X - 8 - - - - 3 r I [ x.#X|.>X,Xa.i.t.t.t.t.t.t.t.t.t.i.<X3Xr.*.$.#.#.#.#.#.#.#.*.>.r.%XgXhXkXK.d.T 9 & - - - 9 - - - $ O + + +           j ",
"X X > > -   . + O + O X - - - 8 - - ; * f Y @.N.F.@X|.:Xp.i.i.t.t.t.t.t.t.i.<XtXr.*.#.#.#.#.#.$.%.;.r.%XjXhXkXpXg.^ a % & - - - - - > -   + O O +     > > >   . ",
"  > > > > b X u u O + O X - - g - + - - % 7 F X.` @.M.&X|.>X,Xa.u.i.t.t.t.i.<X4Xr.*.#.#.#.$.*.;.9.}.eXhXkXiXg.Y s ; X X - - - - - u > 1 + O + u +   > > > > > . ",
"  > > 9 > b X u & 8 O + O . - - - u - - = 1 w - m F X.+.M.#X@X%X>X,Xp.i.t.i.<XtXy.*.#.#.%.;.9.(.{.W.Q.aXg.` s * # .   - - 8 8 - - 8   + O + O + u   - > > > > . ",
". > > > - > $ 1             $ k 8 u - - - x + h w x V R T  .O.F.9X&X%X>Xa.a.5XyXr.*.*.;.,.(.m.B.l.l.o._ F f 5 o   + - - - u 9 - >   .           . . > > > > > . ",
"  > > > > > . O + + O O O + +   - - - 7 - - - u B   B B v v c  .@.D.G.@XOX>X4XtX'.4.9.'.n.B.l.o.! L E g & $ X % + 8 - 8 - - - - X O O u O - + O + . > > > > >   ",
". > > > 0 > X + O + + O + O O O . - - - - - - - 2 - l l , l x V L ..+.l.G.T.eXjX&X`.m.b.l._ L G E y o B 1 1 % - - q - - - - 9   O O O M + + + O +   > > > > >   ",
". > > > > > $ + + + + + O + 3 O + & 9 - - - - - - + n n , Z Z x V v x ..+.B.Q.dXQ.v.z.+. .L Q y , Z B w + + - 3 - - u - 9 - . + O + + u + u + + O   > > > > >   ",
". > > > > >   O + + + + + + O + O O   u - - - - 8 - 8 - + + 1 w   $ . % D X.[ F.z.o.L V Q o Z l c 1 P } - + - - - u - - - . + O O O + O O - O + + O > > > > > O ",
"O > < > > > X X                 .         > 9 - 9 - : - + - - - + +     & % d D H v c } X , C u z C s u - 8 - - - - >   u . 6 . . . X u . . . . .   > > > > > . ",
"  > > > > > O + - + + O + u + O + O + O O $ - - - - - - - u - + 8 7 3 - 3 - - 9 q p Q C C | G M Z } u - - - u 9 u > X u O O + O + + O + O + - - + O > > > > > O ",
". < < > < > . + + + + + + O O u + O O 3 + O     - 9 - - - - - - - - - 8 - + 8 - - u u P u } z v M u - - q > - -     O O + O O + + O + O - + + + - + > > > > > O ",
"O < > > > > O + - + - + + + + + 3 + O O O q + O $ 5 X - - - - - q - - - - 9 - - - - - - u N 8 - - 8 - - - $ .   8 O + O O O + + + + + + - - + - + O > < j > > O ",
"  > > < > > O . . . . . X O 1 O .         2   . X f X X . ; ; ; - 9 - - 9 - - 8 - - - - - - - 8 9 l -       $ . 1           . X . . . . X X   X . . > > > > j O ",
"O > > j > O j > > > > > > - > 9 > > >   3 O + O 3 + 3 O O           - - - - > - - > - 9 - > X   $   . + 8 O + O O + + u . > > - - > > > > > > > > > O > > j > . ",
"O j > > O > > > > > > > > > > > > - >   - O u + O O 3 O O + * + O + .   X X                 ; O * O O 8 O + O + + O + + * - > > > > > > > > > < < > <   > j > O ",
"O > > O > > > > > > > > > > > > > 9 > $ . . .   . . . .       * $                 $ $ $           6 X X X X X . M . O . . > > > > > > > > > < > > j > > O > > O ",
"O > O > > j > > > > > > > > > 0 > > > & j j j j j < < < < < t < < < < < < 0 <     < < < < < < < d < < < < < d j < j j j . > > > > > > > > < > < > > j > > O > O ",
"O O > > > > > > > > > > > > > > > > X . j j j j j j j < < < < < < < < < < < <   $ < < < < < e j < < f d j j j d j j j j . . > > > > > < > > < < > > > > j > O O ",
"k O O . O O O O O . O . O . . . . . . j k d j j j j j j j j < < j < < < j d < .   < < < < < < j j j < j < j j d j j k j j O . .   . . . . . X X O O O O O O O k "
};
