/* XPM */
static char *result[] = {
/* columns rows colors chars-per-pixel */
"80 80 117 2 ",
"   c #070707",
".  c #080707",
"X  c #070708",
"o  c #080709",
"O  c #090809",
"+  c #100F0F",
"@  c #0E0A12",
"#  c #100C15",
"$  c #120D1A",
"%  c #111010",
"&  c #181719",
"*  c #1B1B1B",
"=  c #150D22",
"-  c #180F22",
";  c #180D29",
":  c #171023",
">  c #191125",
",  c #1E1B23",
"<  c #1E132D",
"1  c #1F1133",
"2  c #241E2D",
"3  c #221536",
"4  c #261F32",
"5  c #26183B",
"6  c #28193D",
"7  c #212121",
"8  c #292626",
"9  c #2C2828",
"0  c #251441",
"q  c #2C1B44",
"w  c #2E1D4B",
"e  c #311E4D",
"r  c #321C55",
"t  c #351D5B",
"y  c #322547",
"u  c #332B42",
"i  c #372750",
"p  c #362059",
"a  c #3A235E",
"s  c #2B0A67",
"d  c #2D0B6A",
"f  c #310F6F",
"g  c #330F73",
"h  c #361175",
"j  c #371278",
"k  c #3A137C",
"l  c #3E1A7E",
"z  c #3E2564",
"x  c #3D216B",
"c  c #412967",
"v  c #42286B",
"b  c #453263",
"n  c #422573",
"m  c #472B73",
"M  c #492C77",
"N  c #45247C",
"B  c #492B7B",
"V  c #3D1582",
"C  c #3F1981",
"Z  c #401687",
"A  c #421C84",
"S  c #421789",
"D  c #461C8B",
"F  c #481E8F",
"G  c #471A90",
"H  c #491C92",
"J  c #4E1E9A",
"K  c #501F9E",
"L  c #462284",
"P  c #492682",
"I  c #4C2A83",
"U  c #47208C",
"Y  c #4A238C",
"T  c #4F2B8B",
"R  c #522E87",
"E  c #512D8B",
"W  c #523187",
"Q  c #55338B",
"!  c #59378E",
"~  c #4C2392",
"^  c #4F2891",
"/  c #4F209B",
"(  c #512696",
")  c #532B96",
"_  c #51239D",
"`  c #552C9B",
"'  c #582F98",
"]  c #563092",
"[  c #583097",
"{  c #5D3897",
"}  c #5C349C",
"|  c #5523A4",
" . c #5825A7",
".. c #572CA1",
"X. c #592CA4",
"o. c #5724A9",
"O. c #5A26AD",
"+. c #5D2CAB",
"@. c #5C32A2",
"#. c #5F30AB",
"$. c #5D27B1",
"%. c #5E29B3",
"&. c #6033A3",
"*. c #6239A4",
"=. c #6234AC",
"-. c #673CAA",
";. c #693EAB",
":. c #642EB9",
">. c #6535B1",
",. c #6638B1",
"<. c #6A3CB5",
"1. c #6531B9",
"2. c #6833BE",
"3. c #6D3EB9",
"4. c #634B88",
"5. c #67459D",
"6. c #6D46AB",
/* pixels */
"9 O O O O O O O O O   O O X O O       9 9 9 8 9 8 9 8 8 8 8 8 8 8 8 8 8 8 8 7 O . 9 8 8 8 8 8 8 8 8 8 8 9 8 8 9 9 8 9 9 9 O O O O     O O O O O O     O   +   9 ",
"O O 7 8 7 7 7 7 7 7 7 7 7 7 7 7 7 7   O 8 9 8 8 8 8 8 8 8 8 8 8 8 7 7 8 8 8 8 O . 8 8 8 7 8 8 8 8 7 8 8 8 8 8 8 8 9 9 9 . . 7 7 * 7 7 7 7 7 7 7 7 7 7 7 7 7 O + ",
"O 7 O 7 7 7 7 7 7 7 7 7 * 7 7 7 7 * 7 O 9 8 8 8 8 8 8 8 8 8 8 8 8 7 8 8 8 8 8 O . 8 8 8 8 8 8 8 8 8 8 8 8 8 9 9 8 8 8 9 . 7 7 * 7 7 * 7 7 7 7 7 7 7 7 7 7 + 7 O ",
"O 7 7 O 7 7 7 7 7 7 7 7 7 7 * 7 7 7 7   O O O O O O O O   O   O O O O O   O . O . .   . . . . . . . . . . . . . . . . O . 7 * 7 * 7 7 7 7 7 7 7 7 7 7 8 O 7 7   ",
"O 8 7 7 O 7 7 7 7 7 7 7 7 7 * 7 7 7 *   % % % % + % % % % + + + + %           . . . .   . . % % % % % % % % % % % % % % . 7 * 7 7 7 7 7 7 7 7 7 7 7 7 O 7 7 7 + ",
"O 7 7 7 7 O 7 7 7 7 7 7 7 * 7 * 7 7 *   % % % % + % % % %       O O * * * * * * & * * * * * . . . . . % % % % % % % % % O 7 7 * 7 7 * 7 7 7 7 7 7 7   7 7 7 7   ",
"O 7 7 7 7 7 O O     O O O O                     O O O     * * * * * * & * * * * * * * * * * * & * * *   . . . . O O . . . . . . O O O   O O O O     7 7 7 7 7   ",
"O 7 7 7 7 7 O % % % % % % % % % % % % % % % % % O O   * * * * * * * * * & & * * & & * & * * * * * * * * * . . O % % % % % % % % % % % % % % % % %   7 7 7 7 7 + ",
"  7 7 7 7 7 O % % % % % % % % % % % % % % %     * * * * * * & * & * * * & & & & & & & * & * & & & * * * & * * * . O % % % % % % % % % % % % % % % O 7 7 7 7 7 O ",
"O 7 7 7 7 7 O % % % % % % % % % % % % % %   * & * & * & & & * & * % % * & > 2 , , * * & & & & * * & & * * * * & * * . % % % % % % % % % % % % * % O * 7 7 7 7 O ",
"O 7 7 7 7 * + O O + O O O O O O           * * * & & & * * & & & * * O + = 1 6 q 6 < = @ o o & & % * * * & & * * * * * . . . . . O O O O O O O O O O 7 7 7 7 7 O ",
"O 7 7 * 7 7 O % % % % % % % % % % %   * * * * * * * & & * & X X O @ : < r n I ) I l r 3 = @ O .     * & & * & * * * * * * . % % % % + % % % % % % + * 7 7 * 7 O ",
"O 7 * 7 7 * O % % % % + % % % % +   * * * & & * & & & & X X # = 1 0 r x Y ` X.=.X.( Y n r 1 = @ O O X X & & * * & * * * * * . % % + % % % % % % % O 7 7 7 7 7 O ",
"O 7 7 7 7 7 O % % % % % % % + +   & * * & * & & & &     # : 1 z N T Y ~ D D ( #.( D D Y F n t 6 & # @ O O X & & * * & * * * * O % % % + % % % % % O 7 7 * 7 7   ",
"O 7 * 7 7 * O % % % + % % % + O & * * * * & & & X @ + & q p l ] @.X.U C h h U @.U j j l D ) E m a q 5 : @ O O O % * * & * * * * O + % % % % % % % O * 7 7 7 7 O ",
"O 7 * 7 * 7 O O O O O O   O   * * * & * & & * @ $ > 1 i x Q ] ^ U C j f d h F X.F f f f h l A L I I x r 4 : % O O * & * & * * * * O O O O O O O O O 7 * * 7 7 O ",
"O 7 7 7 * 7 O % % % % + + O & * & & & & * $ : 5 q p x P L L C j f f d s s f U X.U f d s d f f h l L L P x a w 5 > + O * * & * * * *   + + + % % % O 7 * 7 7 * O ",
"O * * 7 7 *   % + % + + O * * * * & , 7 : 1 p x P Y L C h f f d s s s s d g U X.U f s s s s d d d f h l L P P x r 5 > @ , & & * * & *   % + % + % O * 7 * 7 7 O ",
"+ O * 7 * O O % + % %   * * * & & * 2 6 a x I L C C g f d d s s s s s s s f U ..U f d s s s s s s d d d h C C L P x z 5 $ * & * * * * *   % % % % O O 7 7 7 O O ",
"8 O O O O O % % + +   * * * * & & * 4 M [ T A h f f d d d s s s s s s s d f U ..U f s s s s s s s s s d d f f j C T ] M 5 @ * & * * * * * O + % + % O   O O O 9 ",
"9 8 8 O % % % % % %   & * * * & * > a { #.~ V d s s s s s s s s s s s s s f U X.C f d s s s s s s s s s s s d f j / #.} a > O * * & * * * O % % % % % % O 9 8 9 ",
"9 8 8   % % % % %   * * & & & & $ q B @.=.X.C g d s s s s s s s s s s s s f C X.U g s s s s s s s s s s s s d j D X.#.@.B q $ O & % * * & *   % % + % % O 9 9 9 ",
"8 8 8 O O O O O   * * * & * & * < z ] ` O.%.o.C V d d s s s s s s s s s s f U ..U f d s s s s s s s s s s d h C | %.X.` ] z 1 O * * * * * * * O O O   O O 8 9 8 ",
"8 9 8 O + + % +   * * & & & * $ w W ` U ~ o.$.o.V g d s s s s s s s s s d f U X.C f s s s s s s s s s s d h C o.$.| ~ Y [ W e $   * * & & * * O + % % % O 8 8 9 ",
"8 8 8   % % +   * * * * & * O 1 x { ` C j C | O.| C V f d s s s s s s s s f D ..U f s s s s s s s s d d h U | O.K D j C ` } v < @ X & * & * * * . % % + O 8 8 8 ",
"9 8 8 O % % + O * * * * & * $ w Q } Y h f h C | o.o.~ j d d s s s s s s d j U ..~ h d s s s s s s d d k ~ o.o./ V g d j U } W w $ O & & & * * * O + % % O 8 8 9 ",
"8 8 8   % + +   * * % * & O 1 x { [ C f s d f C H X...~ V f d s s s s d j C _ #.| C g d d d s s d d h U ..| G V g d d f C ' { v 1 O X & * * * * . % % % O 8 9 8 ",
"8 9 8         * & & * * * $ e Q @.Y h d s s d d j C | | V g d d d d f j G X.%.%.%.$.V V d d s s d h G ..| D j f d d s d h Y @.! y $ O & & & * & * O O O . 8 8 8 ",
"8 8 8 . % +   * * % & * O < m 6.@.C f s s s s s d j V | / C j d d j V G | %.o./ O.%.o.C V V d d h C K | G h d s s s s s f C @.6.m < O X & & * & * O % + . 8 8 8 ",
"8 8 8 . %   * * * * & & % q @.6.` j d s s s s s s d V V J J V V V V J | o./ C V V K o.| J V V V C J J C h d s s s s s s s j ` <.{ w # O * & & * * * O % . 8 8 8 ",
"8 8 8 . + O * * * * * O > z 6.,.U f d s s s s s s s d g V K | J K o.| J V V j f j V V K K | K J K K V j d s s s s s s s s f D ,.-.c , O . * & * * * . % . 8 8 8 ",
"8 8 7   . O * * * % * + q W #.^ j d s s s s s s s s s d V V o.O.o.J G V g f d s d d V V V J o.O.O.V V d s s s s s s s s s d j ~ *.W q % . & * * * * . O   8 8 8 ",
"8 8 8 O %   * * & & * < z { ` k d s s s s s s s s s d d V G $.$.H V g d d d s s s d d d g V J $.$.G j d s s s s s s s s s s f k ( } z > @ & & * * *   %   8 8 8 ",
"8 8 7 O %   * * & * , 1 I @.A g d s s s s s s s s s s d V K $.o.V g d s s s s s s s s s d g V o.$.K V d s s s s s s s s s s s f L @.I 4 @ & * * * *   %   8 8 8 ",
"8 8 7 O   & * & * & # w W ^ h d s s s s s s s s s s s d V K $.K V d s s s s s s s s s s s d V K $.o.V d s s s s s s s s s s s d j ^ W w @ O * & * * * X   8 8 8 ",
"8 7 8     * * & & * : a I C f s s s s s s s s s s s d g G o.o.V g s s s s s s s s s s s s d g V | o.G g s s s s s s s s s s s s f C I p > O & * * * * X   8 8 8 ",
"8 8 7 O X * * * & 7 5 x L h f d s s s s s s s s d d d V J | G g d s s s s s s s s s s s s s d j G | J V d d s s s s s s d s d s d j P n 5 + * & * * * O O 8 8 8 ",
"8 8 8 O X * * & * 4 p T L h f f h d f h f f f f g d g G o.J V d s s s s s s s s s s s s s s s d V J | G g g f f f f f f f f f f f j A I r > * & & * * O   8 8 8 ",
"8 8 8 O X * * * , y B ` ~ U L U D U D U U U D D D S J | o.G g d s s s s s s s s s s s s s s s d g G o.o.J S D D L D U U D U D D L D ~ ' B 5 * & * * * O   8 8 8 ",
"  O O   X * * * , i E @.......` ......` ........| | | o.o.V g s s s s s s s s s s s s s s s s s d S $.:.O.o.X.....X.............X.X.+.>.] q 2 & * & * O   . . . ",
"    . . . * * * , y B ` ~ U U U U D U D U A U D G C H o.o.G g d s s s s s s s s s s s s s s s s f U 1.2.X./ U D D L D D U U U D D H ` =.R 6 2 & * * * O . . . . ",
"8 8 8 O O * * & * 4 p I L h f f f f f f f f f f d g V V | J V d s s s s s s s s s s s s s s s d k _ 2.%.H j f f f g f g d f f f g l ( ' z - * & * * * O . 8 8 8 ",
"8 8 8 O . & * & * , 5 x L h d d s s s s s s s s d s d V J | V V d s s s s s s s s s s s s s s g C +.:.o.V d s s s s s s s s s s g D ` I 6 # * & * * * . O 8 8 8 ",
"8 7 7 . . * * & * * > p L C f d s s s s s s s s d d d g G o.o.V g d s s s s s s s s s s s s s g H %.$.G g d s s s s s s s s s f A _ } z > O & * * & * . . 8 8 8 ",
"8 8 8 . O * * * & * # w T ^ k d s s s s s s s s s s s d V o.$.K V s d s s s s s s s s s s s d V K %.K V f s s s s s s s s s d h H X.R q % . * * & & * . . 8 8 8 ",
"8 8 8   O * * * & & + 5 I @.L f s s s s s s s s s s s d V K %.o.V g d d s s s s s s s d d d j H O.o.G g d s s s s s s s s s d V ..} z > O . & & * * * . . 8 8 8 ",
"8 7 8   +   * * & & * > z { ( k d d s s s s s s s s s s g G O.$.J V g d d d s s s d d d g V H $.%.| V d s s s s s s s s s s h H #.R 6 # . * * * * * O % O 8 8 8 ",
"8 8 8   +   * & * & * # q W -.^ k d s s s s s s s s s s V G o.$.o.J V V g d d d d d g V V K o.%.%./ V d s s s s s s s s s d V ..} z > .   * & * * * . % . 8 8 8 ",
"8 8 7 . . O * * * * % O , z 6.,.L f s s s s s s s s d j V K | J J | | J S V h d g V G J | K / o.o.K V j d d s s s s s s d g H +.W q @ o X & * * & *   O . 8 8 8 ",
"8 8 8 . % . * * & & * O % q { <.` j d s s s s s s d j C J K V V V G J | o.J D V V J | o.J V k V G J G V d s s s s s s d d V  .@.z : O X O & & * * * . % . 8 8 8 ",
"8 8 8 . % . * * * * & * O 1 m 6.@.A f s s s s d d j C | K C g d d g V G | %.| / K o.J V V g d f g V G V V g d d s s s d g ~ >.&.i $     & & * * * * O % O 8 8 8 ",
"8 8 8 . % % . * * & * % O $ w Q } Y h s s s d d j D | o.C j d s s d d j D  .%.+.K G V g f s d s d g V H J V g d s s s d V  .3.! 5 @     & * * * * . % % O 8 8 8 ",
"8 8 8 . O O . * * * * & & @ 1 z { ..C f d d g V G | ..~ h d s s s s s d j C ..+.H j d d s s s s d d g V J J V j d s s f D >.-.v : O   & * * * * * O . . O 8 8 9 ",
"8 8 8 . % % % . * * & * & O $ e W @.Y j f j V K o.X.~ k f d s s s s s d s h H ..H f d s s s s s s d d g V J J V g d d h ( ,.Q q +   O * * * * * O % % % O 8 8 8 ",
"8 8 8 . % % % . & * & & & & @ < z { ` C j S | o.| G h d s s s s s s s s s f U ..D f s s s s s s s s s d g V K J Z g f A +.*.v > O   * * * * * * O % % % . 8 8 9 ",
"9 8 8 . % % + . * * * & & * X $ w W [ U H o.O.o.C j d d s s s s s s s s s f D ..U f d s s s s s s s s s d g V J G k j U -.Q q #     * * * % * * . % % % O 8 9 8 ",
"9 8 8 O % + % +   * * * & * & O < z ] ` #.%.| C j d s s s s s s s s s s s f D ..D f s s s s s s s s s s d d g C G Z A } 5.b > O O * * % * * * O % % % %   8 8 9 ",
"8 8 8 O O O O O   * * * & & & * $ w B @.#.| S h d s s s s s s s s s s s s g D ..L f s s s s s s s s s s s d d h A H ' 6.4.u $ O * * * * * * * O O O O O O 8 9 9 ",
"9 8 8 O % % % + +   * * * * & & O > a { =.~ k f s s s s s s s s s s s s s f U ..D f s s s s s s s s s s d d h k ~ +.<.;.b 2 O O * % * * * * O % % % % % O 9 9 9 ",
"9 9 8 O % % % % % + O * & * & * & @ 5 M ] ^ C j f f d s s s s s s s s s s f D ..D h s s s s s s s s s f f k U  .,.<.} n 5 # O * * * * * * O + % % % % %   9 9 9 ",
"9     O   O % % % %   * * * * & & * $ 5 z x P P L l h f s s s s s s s s s f U X.U f s s s s s s s d f k H ..,.6.;.Q a 3 # O & * * * * * *   % % % % O O       9 ",
"O   7 7 7     % % % %   * * * * & & 7 @ : 5 p x P L L l h f f d s s s s d f U X.D f s s d d d d f k U ' >.6.;.] c q > # O & & * * * * * O % % % %     7 7 *   O ",
"  7 7 7 7 *   % + % % %   * * * & * & * O @ > 5 q p x I P L l h h f d s s f U X.U h d d d d g j A ` =.6.;.! c q > # O . * & * * * * * O % % % % %   7 7 7 7 7   ",
"O 7 7 * 7 7   % + % + + +   * * * * & * & O O @ @ : 5 p x I P L L V j f d f U X.D g d d g k S ~ ( @.&.{ c q > # O . . * & * * & * * O % % % % % %   * 7 7 7 7   ",
"O 7 * 7 * * O O     O O   O   * * * * * % * &     O % & 1 q a x T ( D C h j ~  .U h h j C ~ _ ^ L x t 0 > @ @ X   & * * * * * * * O O O O O O O +   7 * 7 7 7   ",
"  7 7 7 7 7   % % % % % % % %   * * * * * * * *       O + $ : q t N P ~ D D ( =.~ A D U ^ ^ N t 0 ; $ @ O O O X * & & * * & * * O + % % + % % % % O 7 7 * 7 7 + ",
"O 7 7 7 7 7   % % % % % % % % + O * * * * * % * * &     X X O @ = 1 r n P ( +.<.#.~ ^ Y l t 0 ; @ o X o     * & & * * * * * * O % % % + % % % % %   * 7 7 7 7   ",
"O 7 7 * 7 7 O % % + * % % % + % + O * * * * * * & & * & X X X X X @ = 1 r N [ ,.=.T x w 1 ; @ O X X o o & & & * * * * * * *   + + % % % % % % % %   7 7 7 7 *   ",
"  7 7 7 7 *   % % % % % % + % + + % O * * * * * * * * & * &     . . O @ $ 3 p M n e 1 $ @ O         * & * & * * * * * * *   % % % % % % % & % % %   7 7 7 7 7   ",
"O 7 7 7 7 7 O       O O O O O O O O O O   * * * & * * & * * * & * & . O O @ > < < $ O X X X & & * * & & * * & * * * * O O O O O O O O O O O O O + O 7 7 7 7 7 + ",
"O 7 7 * 7 7 O * % % % % % % % % + % % % % O * * * * * * & * & & & & & * * * * * , * & * & * & * & & * * * * * * * * . + % % % % % % % % % % % % % O 7 * 7 7 7 O ",
"O 7 7 7 7 7 O % * % % % % % % + % % % + % % O O * * * * * & * * * * * & & & * * & & * & * & * * * * * * * * * * . O % % % % % % % % % % % % & % %   7 7 7 7 7   ",
"O 7 7 7 7 7   * % % * + % % % * % % % % % % % %       * * * * * * * * * * * * * * * * * * * * * * * * * * O O O % % % % + % % % % % % % % % % % % O 8 7 7 7 7   ",
"O 7 7 7 7 7           O     O O O O O . . . . O O   O O O * * * * * * * * * * * * * * * * * * * * * *   O O O   O   O .     O O O O O + O O O O O O 7 7 7 7 7 + ",
"  7 7 7 7   7 7 7 7 7 7 7 * 7 * 7 7 7 . % % % % + + % % % O O   . O * * * * * * * * * * * * . . O O O % + % % % % % % %   7 7 * 7 7 7 7 7 7 7 7 7 7 O 7 7 7 7   ",
"O 7 7 7   7 7 7 7 7 7 7 7 * 7 7 7 * 7 O % % % % % % % + % + % % % % .       . .     O O . . % % + % + % % % % % % % % % O 7 * 7 * * 7 7 7 7 7 * 7 7 7   7 7 7 + ",
"+ 7 8   7 7 7 7 * 7 7 7 7 * * 7 7 * 7   O O O O . . . . . . O .         O . . O . . O O   . . . O O O O O O O O O O O O O 7 * 7 7 7 * 7 7 7 7 7 7 7 7 7 O 7 7 O ",
"  7   7 7 7 7 8 7 7 7 7 7 7 7 7 * 7 7 O 8 9 8 8 9 8 9 8 8 8 8 8 8 8 8 8 8 8 8 O . 8 8 8 8 8 8 8 8 8 8 8 8 8 8 8 8 9 9 8   7 7 7 7 7 7 7 7 7 7 7 7 7 7 7 7 + 7 O ",
"O O 7 7 7 7 7 7 7 7 7 7 7 7 7 7 7 7 O O 8 8 9 8 8 8 8 8 8 8 8 8 8 8 8 8 8 8 8 .   8 8 8 8 8 8 8 8 8 8 8 8 8 8 8 9 9 8 9 O O 7 7 7 7 7 7 7 7 7 7 7 8 7 7 7 7 + + ",
"9 + +     +     O O O O   O O O   O O 9 9 9 9 9 8 9 9 9 8 8 8 8 8 8 8 8 8 8 8 . . 8 8 8 8 8 8 8 8 8 8 8 8 9 8 9 8 9 9 9 9 O O O O O O O O O O O   O   O O O   9 "
};
