/* XPM */
static char *result[] = {
/* columns rows colors chars-per-pixel */
"80 80 40 1 ",
"  c #01010A",
". c #09030F",
"X c #070210",
"o c #0C0413",
"O c #0F0814",
"+ c #0F0319",
"@ c #120515",
"# c #190517",
"$ c #120816",
"% c #190817",
"& c #14051A",
"* c #1B061B",
"= c #15091A",
"- c #1B0A1D",
"; c #22061E",
": c #29071F",
"> c #220A1E",
", c #29091E",
"< c #160420",
"1 c #1C0621",
"2 c #1E0B21",
"3 c #230721",
"4 c #290722",
"5 c #230C21",
"6 c #2A0C22",
"7 c #2B0F29",
"8 c #300B24",
"9 c #241124",
"0 c #2A1126",
"q c #2D1329",
"w c #31152C",
"e c #46344C",
"r c #4B354D",
"t c #4D384F",
"y c #50354E",
"u c #4E3951",
"i c #533651",
"p c #533A52",
"a c #583C55",
"s c white",
/* pixels */
"sssssssssssssss                                                  sssssssssssssss",
"ssssssssssssss                                                    ssssssssssssss",
"sssssssssssss                                                      sssssssssssss",
"ssssssssssss                                                        ssssssssssss",
"sssssssssss                                                          sssssssssss",
"ssssssssss    @@@@ooXo$$@@@o.@$$@;;;*-$@@@@###@.@$%$$$++OXX  O$-O+    ssssssssss",
"sssssssss    @@@$#&&$%**%-#@XO$@@*-**-%@&&#;>;$@$$$.o$=&OOOXO=22=oX    sssssssss",
"ssssssss    @@ro@@=%%->>;;;@oo@@@##%*;-****>>>%@o%.o$==u2-===222&oo&    ssssssss",
"sssssss    >%ooo.%--*55>>>>>@.@*-##@&*51-**566-@#$@&29-9999-922==+===    sssssss",
"ssssss    55%@@@%-,5>565:>6>#O@-*%#@@*;*&**366>;*-=-9099q9---922<=+O$o    ssssss",
"sssss    ;>,%#%--9,,6555;,66>###@##@@%&%*15656>>-*-999--22-O==922=Oo+oo    sssss",
"ssss    *>,>;#-->5-;>>>>;688,>:*@@@Oo%&**463**>;**-9>-$@-1==$=22--+O+++o    ssss",
"sss    &%;;-%%%%%--->;>;;666644*#@@@@@***64;%&*;-%=35-$@<==-==292p$O<<+X     sss",
"ss     @*;##@%%%;##>54;;;34;644*######;**;**@@%>5t=50>$#=<=u2==222-<21&+oo    ss",
"s     Xo**@@@@#;;@&*;4443336443*##*;;*;**#@@&@&;,--56>&%==$===$=-$$295=$+&     s",
"     ooo&%*####*#@@@;;54444:84;&#113;&##@oo o@#59>-55*-=%&O====--$&16q2&O&      ",
"     oooo@&@##&&@@.o##;:4443:4***331*@@#@. ..O%>,->-=---$$&&-1-%=-=*5a1=X+      ",
"     oo o@@@*<#&o.oooy;:334;;;*#*33<+o@@#o..oO%>>%%---9--$oO=5>$o$=%-1=+XX      ",
"     oXoo&@&***&@o####;;3334:;*#*3*&oo@*##Oo#%;,>%%%99--$$$O&=-@X&&&11=+XX      ",
"     XX+&;;**&**@@##***;;3335;**;*&+++@*#@@#>,9,>%$-----$$=$&$%%u=&%=1=o+o      ",
"     oo+*;;;*##*###@@#;i;*3135;i31*&%&**@o#;,,0,>%$$$$--952-=$$>9-$@o&&oXX      ",
"     ++o&&###@@@#;#@.@*3331114533311--1*#o#*,,,0>%OO$$=25095----5--@oo&oXo      ",
"     +++o@@&@&&#;##@@#;:3*1354533355>---*-;*,9>9-$$O$$--599255-->%-$&o&@&o      ",
"     +++o@&@&@&#;#@@@**;*-1513151*5>-t;;,6,59,>--%=Oo$-252---2--=oO&&%&&&&      ",
"     +++++&&o+&&##&@#***&&*11-*--11%%**>999999-%@==$$$-992---===oXX$@*&&&@      ",
"     +<++<+<&+o&##@#%@&%#*;*11-*i>5==5>a99999,%Oo$$=->99959-=$$=O Oo@*#@&@      ",
"     &++<<<<&o@@&&&@&oo**;*135-&%<*%-9>-9O$a%%%Oo$=--999-599-=$$OOO.@*@@#*      ",
"     +++&11<&o@@oo&*%$o@**15133*&&&=-%%$$O$=%O. Xo--9999999>95-$OOOo@%oo@&      ",
"     +o+*<<*&@@.oo&33-@@&*=1113*%@.O$$.O$=9=O.X .$-59qqqq095009-@...o++ooo      ",
"     +++<&&&&@o..@#;5%%@*#&&&113*@OO%OO$====OO.XX=229qwwq955909%@...o&&&oo      ",
"     &++*&+o+oo.#**#*->>;@@+++<1*$OO=%$O$9-=$$OXO-22-9q99,>,909;@.. o*&&@o      ",
"     &+<&&++&&oo@##@=->>***%+o&==&OO=%$.O$9==9-O-99-t-5>->9>>00%@ooo&*&@oo      ",
"     <++&&+&&&ooo@@@&---*%>-&+=======$O$=292999999999992=99--59-=@X@*-*&oo      ",
"     <e++&&&&&&oooooo->-1-592-=&&<2<$O==99229qq999q9qw92==92=-095=o@*;i*@@      ",
"     &++o&&&++o&&@.oo-5>225-21=%o&--$o@====99999999qwwq999=2->605$oo@#*#*@      ",
"     ++++&<&++&@@o..o-,>-->--%=&o==*@o@oOO===9999=99wwq99922->,,2%oot#***#      ",
"     +++&<1&&&&@@....%>>--%-==1-==2-==$oOOO$=-9qu=9999999>9-595%-==%#;3*##      ",
"     +&+&13&@&&&@....%---%%---55299----=$$<29-29922999=999$$>99-----*3*&@&      ",
"     ++&*3*&@@*&oooo.@$%@@o&&155999--9-=$==99==99=2====O-9-$%95--9533*&oo+      ",
"     ++&<*&&&***@.oo...o.oo&=-5222==---$$=-9-=292=2=22999$9----225-#**@oo<      ",
"     o+&*&&++*##@o@@oo..@@%1=&1222-=-22-==2====222992222$$22=u=2-2=$**&o@&      ",
"     @&<<&++&&&@oo&#@.o.o@-=&$2599-=<922=====O=<$=<======$O=11--1-==;;#oo@      ",
"     *<<<&&&@&@o@o@;#@o@@o&=++19692==292=O++++OOO$===+<=-2=2->2-===t**#&@@      ",
"     &&*<+&&&&&@oo&###@#@@&==&=<21-$-22<=+O++OOOO====<2=2=22992=$@&&@@&@@@      ",
"     o+<<++&&*&+ooooooo@@@r==+++=$O+====+XXXOOO===999==<==--2-$t@@ooo.oo.o      ",
"     oX+++++&<&+oo......o@o@oooo&oo+O+oXXO+XOXO=2==99u==OO-==$OOo@o...@@..      ",
"     X+++++&<<&+ooo.....o@o+oooooo++OOXXX++=OO+==$$===O+++$=%=$.ooo..ry@..      ",
"     +++++&<1&+o&o... ..Xooo%oXo+ooO+oXoXOO==OO==OO$=OO=OO%95--$oo..@#*#@o      ",
"     +++++&<<*&+...  .XXXo@&*@.oo+oo$ooOOO=<==$$OO$O@O=-=-5676-=..#.@###*&      ",
"     ++<&&<<<1&+...  oXoXo#;*@ooooX+ooO=Ot=O+$=+O$OO@$=%%->686>$####..@#*#      ",
"     +++&@&&&&&+....ooooo+&**@oo+XXXooo====+OO===OXXo$&%=*-3,6>####@.o###@      ",
"     +++oooo+o&+@o..oo&@+&**=&ooo+ooXX.oO+O+OO$$+X+Ooo@+@%%&;;;####o.###*#      ",
"     &++++++oo&o#.#@.@@#&&*-*@o@&*&oX XoOO=+O$$OXO+O==%&@&&*#&*;#;;##;***&      ",
"     +&+&<++++&o.@####.#@&*;***>5*%&@.o=-$O+OoXo+==O--*%@***&@##;;:::4*#@o      ",
"     +<<<<+++&+o...#.#.@o&*5*@*665*p*oo==%+Oo. oOO=+%%*******@#*;#;:8:*#@o      ",
"     +&<<+++&&&&@.#.#.#.@%**@@*;45>5-@%=&%%oo.Xo+==+@&@%*#&##@@*###;;3***&      ",
"     ++<<<<+&<&<<&+@.@###r@#@..@**---;>%#r@..  .o=%&&o@@#*##**#**#@@#1;:;#      ",
"     <<<<<+<<&<&&+oooo@#..@@##.#@@#*;,8>#@@@....+&&ooXo@#**;331**&@@&;44:*      ",
"     <+<<<++<&&&+e.ooo.@@r###..#>>>*;>0;#.o##...$&+oo .o@******3#&@&#i34;*      ",
"     +&<<+<<&<<&ooXo@@@....@#..#>,>*O%%%@o@#@o..o$o@#@.O##@@@@&**&&&#**3;*      ",
"     &<<<&&<<1*&ooo oo@o..@#@o@#;,;y..@#@.@@@...Xo@%>*oo#*#$@&&#**&&******      ",
"     &<<&&&&&<*&o@oooo@@#..####@@;;#@O@@o.@oo@oooo@>6;@@#-%%#&&@%-1***1*<&      ",
"     -1<<<<&&*&&ooooo@###.@####@@#;##@@@..@@@@@@@@-,89;-%---*%&@%13*1*13*<      ",
"     1<<1<&<<<&&o@@@@@#######;#@.@@#@o##@@r@@#@#@@#>,699a>-1--*&%>33;353-*      ",
"     1&-22<111-*&&**#@@#&&@@@#;#o.@@@@**#&&&&*%&-%%-560q05%-1-12=>533;***&      ",
"s    51&<<=<121-1&**@oo@&@oo.@*#@o.@@@#**&&&----5555566521-%257995553511*#     s",
"ss    1=<<<+==1*&**#o+o&#*#@o&#@@ooo@&#&&&<;>5--5775555211**>776555536>*15    ss",
"sss    <<<&<<+&&@#;&++o+*i*@@**#@&#%#***<*;3552-5q6-%-51-*;;>67752--;51&-    sss",
"ssss    1<111<++@#-%+oo&**&&@*3*@%*15>*&&**;33-122-==-651355>6qqq2-->>%&    ssss",
"sssss    15951=+@&=+oo+=151*&#5*&&14>1%%r&@*;>552%=&=>65345*-57q01-55*&    sssss",
"ssssss    7532==12-&oo+&1953*%**&1335>>*#&@*>>552$==255555-#*>6q0222-@    ssssss",
"sssssss    11222595&+o$&*551&&&&&3551*--*&&&-555-$$-211*551*;,692<--&    sssssss",
"ssssssss    -1229991===&=*&&&+o+-551->----*&155-=$$12u==2121->5-====    ssssssss",
"sssssssss    -59--<112=$$&%%-&o&->5a**---<&-551====$o$=1222-p-2===2    sssssssss",
"ssssssssss                                                            ssssssssss",
"sssssssssss                                                          sssssssssss",
"ssssssssssss                                                        ssssssssssss",
"sssssssssssss                                                      sssssssssssss",
"ssssssssssssss                                                    ssssssssssssss",
"sssssssssssssss                                                  sssssssssssssss"
};
