/* XPM */
static char *result[] = {
/* columns rows colors chars-per-pixel */
"80 80 117 2 ",
"   c #01010A",
".  c #02020B",
"X  c #03030C",
"o  c #04040D",
"O  c #05050E",
"+  c #06060F",
"@  c #070710",
"#  c #080811",
"$  c #090911",
"%  c #090912",
"&  c #0A0A12",
"*  c #0A0A13",
"=  c #0B0B13",
"-  c #0B0B14",
";  c #0C0C14",
":  c #0C0C15",
">  c #0D0D15",
",  c #0D0D16",
"<  c #0E0E16",
"1  c #0F0F17",
"2  c #101018",
"3  c #111119",
"4  c #12121A",
"5  c #13131B",
"6  c #14141C",
"7  c #15151D",
"8  c #16161E",
"9  c #17171F",
"0  c #181820",
"q  c #191921",
"w  c #1A1A22",
"e  c #1B1B22",
"r  c #1B1B23",
"t  c #1C1C23",
"y  c #1C1C24",
"u  c #1D1D25",
"i  c #1E1E25",
"p  c #1E1E26",
"a  c #1F1F26",
"s  c #1F1F27",
"d  c #202027",
"f  c #202028",
"g  c #212128",
"h  c #212129",
"j  c #22222A",
"k  c #23232A",
"l  c #23232B",
"z  c #24242B",
"x  c #24242C",
"c  c #25252C",
"v  c #25252D",
"b  c #26262D",
"n  c #27272E",
"m  c #28282F",
"M  c #292930",
"N  c #2A2A31",
"B  c #2B2B32",
"V  c #2C2C33",
"C  c #2D2D34",
"Z  c #2E2E35",
"A  c #2F2F36",
"S  c #303037",
"D  c #323239",
"F  c #33333A",
"G  c #34343A",
"H  c #34343B",
"J  c #35353C",
"K  c #36363C",
"L  c #36363D",
"P  c #37373D",
"I  c #37373E",
"U  c #39393F",
"Y  c #393940",
"T  c #3B3B41",
"R  c #3D3D43",
"E  c #3D3D44",
"W  c #404046",
"Q  c #414147",
"!  c #44444A",
"~  c #47474D",
"^  c #48484E",
"/  c #49494F",
"(  c #4B4B51",
")  c #4C4C51",
"_  c #4C4C52",
"`  c #4D4D52",
"'  c #4D4D53",
"]  c #4E4E54",
"[  c #505055",
"{  c #505056",
"}  c #535358",
"|  c #535359",
" . c #55555A",
".. c #57575C",
"X. c #5A5A5F",
"o. c #5B5B60",
"O. c #5E5E63",
"+. c #5F5F64",
"@. c #606065",
"#. c #636368",
"$. c #69696E",
"%. c #6B6B6F",
"&. c #6B6B70",
"*. c #6D6D71",
"=. c #6D6D72",
"-. c #707074",
";. c #717175",
":. c #75757A",
">. c #76767A",
",. c #77777C",
"<. c #78787C",
"1. c #79797E",
"2. c #7B7B80",
"3. c #7F7F84",
"4. c #F8F8F8",
"5. c #FEFEFE",
"6. c white",
/* pixels */
"                                                                                                          . . o @ - 4 q f b M m l y 6 < % O X .                 ",
"                                                                                                          . X o # : 5 r l M V B b s 8 1 % O X .                 ",
"                                                                                                          . . o # : 5 r l M V B b p 8 < % O X .                 ",
"        6.                                                                                                  . o @ - 3 0 f c m n j r 6 > # O X .                 ",
"                                                                                                            . X + % < 6 w s h f y 8 2 - @ o .                   ",
"                                                                                                            . X O @ - 1 6 9 q 0 7 3 ; # O X .                   ",
"                                                                                                            . . X O # - < 2 3 3 1 ; % + o . .                   ",
"                                                                                                              . X o O @ % * - - % # + o X .                     ",
"                                                                                                                . . X o + + @ @ + O o X .                       ",
"                                                                                                  6.              . . X X o o o X X . . .                       ",
"                                                                                                                    . . . . . . . . .                           ",
"                                                                                                                            .                                   ",
"                                                                                                                                                                ",
"                                                                                                                                                                ",
"                                                                                                                                                                ",
"                                                                                                                                                                ",
"                                        6.                                                                                                                      ",
"                                                                                                                                                                ",
"                                                                                                                                                                ",
"                                                                                    . . .                                                                       ",
"                                                                              . . . . X . . . .                                                                 ",
"                                                                          . . X X o o o o o X X . .                                                             ",
"                                                                        . . X o O @ # # # @ O o X . .                                                           ",
"                                                                      . . X O @ % = > > > = % @ O X . .                                                         ",
"                                                                      . X O @ - < 4 6 7 6 4 < - @ O X .                                                         ",
"                                                                    . X o @ * 1 7 w p f p w 7 1 * @ o X .                                                       ",
"                                                                    . X O % < 7 u z M B M z u 7 < % O X .                                                       ",
"                              6.                                    . o @ - 4 w z C F L F C z w 4 - @ o .                                                       ",
"                                                                  . . o # > 6 p M F T R T F M p 6 > # o . .                                                     ",
"                                                                  . . O # > 7 f B L R W R L B f 7 > # O . .                                                     ",
"                                                                  . . o # > 6 p M F T R T F M p 6 > # o . .                                                     ",
"                                                                    . o @ - 4 w z C F K F C z w 4 - @ o .                                                       ",
"                                                                    . X O % < 7 u z M B M z u 7 < % O X .                                                       ",
"                                                                    . X o @ & 1 7 w i d i w 7 1 & @ o X .                                                       ",
"                                                                      . X O @ = < 4 6 7 6 4 < = @ O X .                                                         ",
"                                                                      . . X O @ $ = > > > = $ @ O X . .                                                         ",
"                                                                        . . X o O @ # # # @ O o X . .                                                           ",
"                                                                          . . X X o o o o o X X . .                                                             ",
"                                                                              . . . . X . . . .       6.                                                        ",
"                                                                                    . . .                                                                       ",
"                                                                                                                                                                ",
".                                                                                                                                                             . ",
". . . . .                                       . . . . . .                                                                                           . . . . . ",
"o o X X . . .                               . . X X X X X X . .                                                                                   . . . X X o o ",
"+ + + O o X . .                         . 5.X o O O + + O o X X . .                                                                             . . X o O + + + ",
"= = * # + o X . .                     . . X O + # $ & & $ # + o X . .                                                                         . . X o + # * = = ",
"2 2 1 ; % @ O X .                   . . o O # & < 2 3 3 1 > * @ O X .                                                                         . X O @ % ; 1 2 2 ",
"0 0 8 4 < % + o . .               . . o + % ; 3 8 w y r q 6 1 - @ O X .                                                                     . . o + % < 4 8 0 0 ",
"s f u 0 4 > % O X .             . . o + % > 5 w g n N M c p 9 2 - @ o X .                                                                   . X O % > 4 0 u f s ",
"n n z p 9 2 - + o .           . . X O % > 6 y b A I T U H B h 9 2 * + o . .                                                                 . o + - 2 9 p z n n ",
"V V M l w 4 : @ o . .         . X O # : 5 y n F W / ' _ ! Y V s 7 < # O X .                                                               . . o @ : 4 w l M V V ",
"Z Z B z r 5 > @ o . .       . . o + * 2 q x D Q { o.@.O. .~ I m r 4 - @ o . .                                                             . . o @ > 5 r z B Z Z ",
"V V M k w 4 ; @ o . .       . X O # , 7 s C E ] +.&.;.*.#.| Q S h 8 < # O X .                                                             . . o @ ; 4 w k M V V ",
"n n z p 9 2 - + o .       . . X O % 1 9 l D ! ..$.>.2.<.=.o.^ J v q 1 * O X . .                                                             . o + - 2 9 p z n n ",
"a d u 0 4 > % O X .       . . X + * 2 q v H ~ X.*.1.3.2.-.+.( I n w 2 * + X . .                           6.                                . X O % > 4 0 u d a ",
"0 0 8 4 < % + o . .       . . X O % 1 9 l D ! ..$.:.2.,.*.o.^ J c q 1 * O X . .                                                             . . o + % < 4 4.0 0 ",
"2 2 1 ; % @ O X .           . X O # > 7 s C R ] +.%.;.*.#.} Q S h 8 < # O X .                                                                 . X O @ % ; 1 2 2 ",
"= = & # + o X . .           . . o + * 2 q z D Q [ o.@.O. .~ I m r 4 - @ o . .                                                                 . . X o + # & = = ",
"+ + + O o X . .               . X O # ; 5 y n F W / ` ) ! U V s 7 < # O X .                                                                     . . X o O + + + ",
"o o X X . . .                 . . X O % > 6 y b A P T U G B g 9 2 * + o . .                                                                       . . . X X o o ",
". . . . .                       . . o + % > 5 w g n N M c i 9 2 = @ o X .                                                                             . . . . . ",
".                                 . . o + % ; 3 8 w t e q 6 1 = @ O X .                                                                                       . ",
"                                    . . o O # & < 2 3 3 1 > & @ O X .                                                                                           ",
"                                      . . X O + # $ & & $ # + o X . .                                                                                           ",
"                                        . . X o O O + + O o X 5.. .                                                                                             ",
"                                            . . X X X X X X . .                                                                                                 ",
"                                                . . . . . .                                                                                                     ",
"                                                                                                                                                                ",
"                                                                                                                                                                ",
"                        6.                                                                                                . . .                                 ",
"                                                                                                                    . . . . X . . . .                           ",
"                                                                                                                . . X X o o o o o X X . .                       ",
"                                                                                                              . 5.X o O + @ @ @ + O o X . .                     ",
"                                                                                                            . . X o + # * ; ; ; * # + o X . .                   ",
"                                                                                                            . X o @ * > 2 4 5 4 2 > * @ o X .                   ",
"                                                                                                          . . o + % < 5 9 w r w 9 5 < % + o . .                 ",
"                                                                                                          . X O # : 4 0 p j z j p 0 4 : # O X .                 ",
"                                                                                                          . o + * 1 8 u x M B M x u 8 1 * + o .                 ",
"                                                                                                        . . o + - 2 0 f n V Z V n f 0 2 - + o . .               ",
"                                                                                                        . . o @ - 2 0 f n V Z V n f 0 2 - @ o . .               "
};
