/* XPM */
static char *result[] = {
/* columns rows colors chars-per-pixel */
"80 80 49 1 ",
"  c #01010A",
". c #0B0214",
"X c #1F0515",
"o c #100319",
"O c #12031B",
"+ c #13031C",
"@ c #14031C",
"# c #14031D",
"$ c #240619",
"% c #27061B",
"& c #2F0719",
"* c #28061C",
"= c #28061D",
"- c #200D1A",
"; c #250D1F",
": c #2F0F1F",
"> c #31081B",
", c #36091B",
"< c #32081C",
"1 c #37091D",
"2 c #38091D",
"3 c #3A091D",
"4 c #38091E",
"5 c #3C091D",
"6 c #270D21",
"7 c #280D22",
"8 c #290D23",
"9 c #320F21",
"0 c #330F22",
"q c #2F1222",
"w c #321323",
"e c #371021",
"r c #371323",
"t c #371423",
"y c #331325",
"u c #371526",
"i c #381022",
"p c #391023",
"a c #3A1022",
"s c #3B1023",
"d c #381425",
"f c #391425",
"g c #381526",
"h c #3B1626",
"j c #3B1727",
"k c #3C1627",
"l c #3C1728",
"z c #44084D",
"x c #991C91",
/* pixels */
"xxzzzxxxxxxxzzxxxxxxxxxxxxxzzzxxxxxxxxxxxzxxxxxxxxxxxxzzxxxxxxxxxxxzxxxxxxxxxxxx",
"xxxzzzzzxzzzzxxxxxxxxxxxxxx--zzzxxxxxxxzzxxxxxxxxxxxxx zzzxxxxxxxzzxxxxxxxxxxxxx",
"xxxz  ozzzxxxxxxzzzzzzzzzzx .  zzzzxzzzzxxxxxxxxxxxxxx. ozzzzxzzzzxxxxxxxxxxxxxx",
"xxxz ;.zxxxxxxzzz ;   .. z- q --  zzzxxxxxxzzzzzzzzzzx  .   zzzxxxxxxzzzzzzzzzzx",
"xxxz..zxxxxxxxz.       -      ;..Xzxxxxxxzzz     X-;z-.  o  zxxxxxxzzz .- . -.zz",
"xxxz  zxxxxxxxz &  .  - .X.. .- .zxxxxxxxz X$ . X-  - o .  zxxxxxxxz---  . .  zx",
"xxxz .zxxxxxxxzXX.X- -X. $$ .   .zxxxxxxxzOO.%;  q   o-..  zxxxxxxxzzzzzzzzz  zx",
"xxxz  zxxxxxxxz  zz  XoX-X    :o zxxxxxxxz &&     X .   ; -zxxxxxxxzzxxxxxxxzzzx",
"xxxz  zxxxxxxxz  zzz.%: .-$9.  XXzxxxxxxxz$ zz$ .X  .d-.6q-zxxxxxxxzxxzzxxxxxzxx",
"xxxz ;zxxxxxxxzzzz-z --%XXoX   -.zxxxxxxxz .zzz $- oqd q-; zxxxxxxxzxxzzzxxxxzzx",
"xxxzz.zxxxxxxxxxxxzz&; .% ,-o& X zxxxxxxxzzzz2z.XoX-9--.:.-zxxxxxxxzzzzxzxxxxxzx",
"xxxxz zzxxxxxxxxxzz 6 a.$.31X <X zxxxxxxxxxxxzzX . 6     ; zxxxxxxxxxxxzzxxxxxzx",
"zxxxzzzzzxxxxxxxzz; . %.-$X-X%X..zzxxxxxxxxxzzXX..--$-  O..zzxxxxxxxxxzzxxxxxxzz",
"xzxxxxxxzzxxxzzzz  0&$.  o$ -O,.. zzxxxxxxxzz  $w  .:- $o; wzzxxxxxxxzzxxxxxxxxz",
"xzzxxxxxxxzzzxxzX ...%$<XXOX&.$ X. zzxxxzzzz.o .&  0-$  .   -zzxxxzzzzzzzzzzzxxx",
"xxzxxxxxxxxxxxxzXX X$.X&ooOX=<. XoO>$zzz .   $ 9-a $XX.w .%    zzzzxxxz  .- zxxx",
"xxzxxxxxxxxxxxxzX   . XoO>XX$$.o.$o.o..X    .  :X.;.  . - ..w.% -6zzxxz..   zzxx",
"xxzzxxxxxxxxxxz.      >$.X&   .X X%o .  X   .  5  XX r;X:   .6;  .-zzxzzz o ;zxx",
"xxxzxxxxxxxxxzz   .>X oXO.o%4$. >O..   $X$   XX>XX  q- o  - . -   .ozzozz.  ozxx",
"xxzzzxxxxxxxzzXX& & %o& $%+ wX. X. O o.X.  &Xq -- -Xq ; - . o $  .Xo-zzz. o..zxx",
"xxz  zzzzzzzz XX  $   XX  %.o X+>X. o. X. o$XX$$ $    -.--.u   ew-    ..  ..Ozxx",
"xxz-o o. . . .  %&o  ooO$oo..p& oo9 .-$&  . o>X:-. - . ;X6-$.- -. %  .;   .O zxx",
"xzz  .o   o .$ o  XX  $X$O $o;.o>o.&e . X ;.&- :X   q q .-: ;; X-&--.  . X   zxx",
"xz.  ...o %X ..$$$  oX , oXq.%.;. ;-..;X92& .6 & --   - ;- o.-.:    .X.o%....zxx",
"zz o. ...  . .   .  $XX.. X .  9 .;  X   q t:; O .: . -X9.  9 ...  -.X. .  oXzxx",
"z  oo +...oo...$.&XX. .. X$oO> X.$$  @%&9:.;XX-  .. X-;--.q;  --    X.$ .O .zzxx",
"xxxx o. ooo...  ..  .  6$.. O9 ..o.X-q; -  -.;. - X-- w  X:- .  -    $  $>. $xxx",
"xxxzzO o OOX   $. o.o   o.X9.o;  - .qX     ;      .. q.--- X:;   -- X..  .X  ..z",
"xxxz... $.%o.$X   .$y-X  $ -+oX$..      -- -      t$;q-:.9u ;g;-X    .o   ...ooz",
"xxxz..  oo  o      <o   $o ..ooOX  -X  - w-- -   ....q-kw- .; w     o o..  .& zz",
"xxxzOo. O. ...  $*X X-X$X  O  .$.:   -- .-  .-   --- ;6.$XX9 ;X $    $o $o.X% zx",
"xxxz. o.% .. X . X.  q 6X ; . .. .  -6    q  -  --q  .-  --.9qu X .  & .   . zzx",
"xxxzooo  . .o$   .oO ; o. X;o  f ; -    q q;-w---; ...-.-.X.  ; o  XoXo     ozxx",
"xxxz.. .ozzz..o..    o$ -o.; .-  o-o- ; qu.  jqo qwlu;-; $X6. ::X- zzzzzzzz  zxx",
"xxxz$o .zz zz  . XX  -oX6 9 76.X .o-  .$  --q- q- ;.-6w  -.- &$-- zzxxxxxxxzzzxx",
"xxxz.  Ozzzxzzo $    $9. : :  .o  X X . .. ; ;--.. -6;.-q 6;..XXtzzxxxxxxxxxzxxx",
"xxxzzo...ozxxzzXX     X; - ; .- ..o; .    .   g;- u.w--w-;  X-; Xzxxxxxxxxxxzzxx",
"xxxxzO...ozxxxz.  .. -X-XXO 6 ;$--w  g --. ;-  u-.-.g -- ;  ;-o zxxxxxxxxxxxxzxx",
"zxxxzzzzzzzxxxz$  .     .  ...$..q; ;-j  X.-;q. -. .    .w q 6:-zxxxxxxxxxxxxzxx",
"xzxxxxxxxxxxxxzX . X  >     - gO-  . .  O :-  -6- - u;--- l  . -zxxxxxxxxxxxxzzx",
"xzzxxxxxxxxxxxxz X . .  XX;; .. .q--o-; o q.. w -q6...--- .;;  i.zxxxxxxxxxxxxzx",
"xxzxxxxxxxxxxxxz. .$   .  .o. -;XX  .-.-7  .- .o  .j  o .  X.o.-.zxxxzzzzzzzxxxz",
"xxzxxxxxxxxxxxxzo .$%    ..-  o;;;;. ;-  - o . - o  .oo o.o  =- -zxxxz.X. .zxxxx",
"xxzzxxxxxxxxxxz.  ..XXX$& . .Oo .-. -o;;... 7    - -  ;o;---q;-  zzxxz. $ $zzxxx",
"xxxzxxxxxxxxxzz oX.     .X ;; . ;  ..- .  .   q- - 7---. -. g  6.Xzzxzzz   .zxxx",
"xxzzzxxxxxxxzzO       .   .    .o  o  .  .      ;-.wq . . --     - zz zz   .zxxx",
"xxzo zzzzzzzzo. o  X..  -X o ..   . ;.   -..- . -  -  -. .   ;  . X zzz  X. zxxx",
"xxz O oO. ..$. ..X     O    6  .O.-    .   .- .--   O -  . lo u..  . $O.  . zxxx",
"xzzoo.o   +..... o        o  .     .; o  ---o -   .6   -- :0XX-.  .  .$ Xo  zxxx",
"xz.o. ..Xoo+.<o.  .    .  &%%X  .o  .. q  .  -. --   7-.X&.X>0   XX>  .&$oo.zxxx",
"zz  . .o $ o...     ....  .o  -.o   .  ; o-.  -..  .   -  -oX$1X XX         zxxx",
"z  .o O       ...  .  $ .o.-X.   . o    ; o  - .. . . X .$  *.. X>   Xo.$X..zxxx",
"zo.. X. o. .O $ $ $X . $ ..X .   Xo o     - - u  - . w #  o.. X&  $  XXoXo zzxxx",
"xxx  .o..@+. ..   >  XX ;  ; &.;X6 .   .; ..     - :.X$  Xo$  XX.$X>>$ X  . xxxx",
"xxzz .o.oo. . .     &   ..;$% o%6. X$  :.X  :  .o o  X -$$ o,. o$ &&>$.. . X%o&z",
"xxz. o O..  .%.+ o X  X  .X.  .X*9Xd-   -.X.   . $  $ X.  .X   $   X...Xo $O %zz",
"xxz o.o..o@o .oooO X XXXX  &   . ..  X$ . X      -;.....X$  +.X.X,. OoX > .   zx",
"xxz o.oo+o .$o ...X   .X  o XX    .$ :e$>  $   .. .    ..XXo%% &  X  &>>$X.  zzx",
"xxz o.  oOO ..o..   X   .$ XX  Xs X.&&t    ..   -..  .   Xo.$.o-.. o XXoX.  .zxx",
"xxzo oo#o  Oo.X... . & .   .   XX:1.  .X. $-$ .. ;  & . $  .   %X..zzzzzzzz.ozxx",
"xxz.. .ozzzo *.     . X X .&o X $&X    &           +$.  &> X .. X.zzxxxxxxxzzzxx",
"xxzO..-zz zzo.oo.%  O  .    X X   &  .oX  $  X .   Xe. . X- X.% Xzzxxxxxxxxxzxxx",
"xxz+o..zzzxzz#$     . X.$  X.XX .*X>%     .X X X$.X9$XX  . ; .   zxxxxxxxxxxzzxx",
"xxzz.7.+.zxxzz.. .X. .%.. &% $.   ..  $X. . o.X    &---;$-.;9 tozxxxxxxxxxxxxzxx",
"xxxz;  .;zxxxzzzzO X$  *.X   XXX   . . &zzzo.X OX   X$-u;:  . O zxxxxxxxxxxxxzxx",
"xxxzzzzzzzzzzzxxxzz$    .  . .$.$ .&zzzzxxxzz- ;-q%o.X-O.. $-:ohzxxxxxxxxxxxxzzx",
"zxxxxxxxxzzxxxxxxxzz oo oXX   .    zzxxxxxxxzz  o$-;-$- .o;  $qzzzxxxxxxxxxxxxzx",
"zzxxxxxxzzxxxxxxxxxzz. .$>.X %.$ $zzxxxxxxxxxzz w-w.  ;.- $ $$zzxzxxxzzzzzzzxxxz",
"xzxxxxxzzxxxxxxxxxxxzX  ..  ..$. zzxxxxxxxxxxxzO 6  X 6X.%.* zzxxzxxxzxxzz+zxxxx",
"xzxxxxxzxzzzzxxxxxxxzo .6.Xo  ;: z.zzzzxxxxxxxz-. -. -*-..$-zzxxxzzxxzxxxz zzxxx",
"xzzxxxxzzzxxzxxxxxxxz -. :6O& &. zzz.7zxxxxxxxzg- X o.; 8-o zXzzzzzzxzzzxzo.zxxx",
"xxzxxxxxzzxxzxxxxxxxz  O.; -o .o..zzo zxxxxxxxz.- .-:6...%O zzz..zxzzxzzxz. zxxx",
"xzzzxxxxxxxzzxxxxxxxz-- ..$ -    :i &%zxxxxxxxz.   .-  .;.--ozzw zxxzzzxxz  zxxx",
"xz; zzzzzzzzzxxxxxxxz;. -  .....;O-.  zxxxxxxxz.;.9.. -. - ..-q ozxxxxxxxz6 zxxx",
"xz. .   q;;.zxxxxxxxzo. ; $XoX  - -%..zxxxxxxxz  -    w-.6O ;.- -zxxxxxxxz..zxxx",
"zz;  -O ..zzzxxxxxxzq 7w   z; .;:-.;zzzxxxxxxz.Xy ..  o  q-.;w   zxxxxxxxz-.zxxx",
"xzzzzzzzzzzxxxxxxzzz -;-. xzzzzzzzzzzxxxxxxzzz---  -..z-  - q -zzzxxxxxxzOw zxxx",
"xxxxxxxxxxxxxxzzzzxzzzz   xxxxxxxxxxxxxxzzzzxzzzz;-q xzzzzzzzzzzxxxxxxzzz ..zxxx",
"xxxxxxxxxxxxxzzxxxxxxxzzz.xxxxxxxxxxxxxzzxxxxxxxzzz  xxxxxxxxxxxxxxzzzzxzzzzzxxx",
"xxxxxxxxxxxxzxxxxxxxxxxxzzxxxxxxxxxxxxzxxxxxxxxxxxzzzxxxxxxxxxxxxxzzxxxxxxxzxxxx"
};
